0
SECTION
2
HEADER
9
$INSUNITS
70
4
9
$ACADVER
1
AC1014
9
$HANDSEED
5
FFFF
0
ENDSEC
0
SECTION
2
TABLES
0
TABLE
2
VPORT
5
8
100
AcDbSymbolTable
0
ENDTAB
0
TABLE
2
LTYPE
5
5
100
AcDbSymbolTable
0
LTYPE
5
14
100
AcDbSymbolTableRecord
100
AcDbLinetypeTableRecord
2
BYBLOCK
70
0
0
LTYPE
5
15
100
AcDbSymbolTableRecord
100
AcDbLinetypeTableRecord
2
BYLAYER
70
0
0
ENDTAB
0
TABLE
2
LAYER
5
2
100
AcDbSymbolTable
70
2
0
LAYER
5
50
100
AcDbSymbolTableRecord
100
AcDbLayerTableRecord
2
0
70
0
6
CONTINUOUS
0
ENDTAB
0
TABLE
2
STYLE
5
3
100
AcDbSymbolTable
70
1
0
STYLE
5
11
100
AcDbSymbolTableRecord
100
AcDbTextStyleTableRecord
2
STANDARD
70
0
0
ENDTAB
0
TABLE
2
VIEW
5
6
100
AcDbSymbolTable
70
0
0
ENDTAB
0
TABLE
2
UCS
5
7
100
AcDbSymbolTable
70
0
0
ENDTAB
0
TABLE
2
APPID
5
9
100
AcDbSymbolTable
70
2
0
APPID
5
12
100
AcDbSymbolTableRecord
100
AcDbRegAppTableRecord
2
ACAD
70
0
0
ENDTAB
0
TABLE
2
DIMSTYLE
5
A
100
AcDbSymbolTable
70
1
0
ENDTAB
0
TABLE
2
BLOCK_RECORD
5
1
100
AcDbSymbolTable
70
1
0
BLOCK_RECORD
5
1F
100
AcDbSymbolTableRecord
100
AcDbBlockTableRecord
2
*MODEL_SPACE
0
BLOCK_RECORD
5
1B
100
AcDbSymbolTableRecord
100
AcDbBlockTableRecord
2
*PAPER_SPACE
0
ENDTAB
0
ENDSEC
0
SECTION
2
BLOCKS
0
BLOCK
5
20
100
AcDbEntity
100
AcDbBlockBegin
2
*MODEL_SPACE
0
ENDBLK
5
21
100
AcDbEntity
100
AcDbBlockEnd
0
BLOCK
5
1C
100
AcDbEntity
100
AcDbBlockBegin
2
*PAPER_SPACE
0
ENDBLK
5
1D
100
AcDbEntity
100
AcDbBlockEnd
0
ENDSEC
0
SECTION
2
ENTITIES
0
LWPOLYLINE
5
100
100
AcDbEntity
8
0
100
AcDbPolyline
90
4
70
1
43
0.0
10
522.5
20
1405
10
522.5
20
1395
42
-0.99999999999999989
10
517.5
20
1395
10
517.5
20
1405
42
-0.99999999999999989
0
LWPOLYLINE
5
101
100
AcDbEntity
8
0
100
AcDbPolyline
90
4
70
1
43
0.0
10
462.5
20
1185
10
462.5
20
1175
42
-0.99999999999999989
10
457.5
20
1175
10
457.5
20
1185
42
-0.99999999999999989
0
LWPOLYLINE
5
102
100
AcDbEntity
8
0
100
AcDbPolyline
90
4
70
1
43
0.0
10
342.5
20
1505
10
342.5
20
1495
42
-0.99999999999999989
10
337.5
20
1495
10
337.5
20
1505
42
-0.99999999999999989
0
LWPOLYLINE
5
103
100
AcDbEntity
8
0
100
AcDbPolyline
90
4
70
1
43
0.0
10
522.5
20
1205
10
522.5
20
1195
42
-0.99999999999999989
10
517.5
20
1195
10
517.5
20
1205
42
-0.99999999999999989
0
LWPOLYLINE
5
104
100
AcDbEntity
8
0
100
AcDbPolyline
90
4
70
1
43
0.0
10
702.5
20
1425
10
702.5
20
1415
42
-0.99999999999999989
10
697.5
20
1415
10
697.5
20
1425
42
-0.99999999999999989
0
LWPOLYLINE
5
105
100
AcDbEntity
8
0
100
AcDbPolyline
90
4
70
1
43
0.0
10
542.5
20
1345
10
542.5
20
1335
42
-0.99999999999999989
10
537.5
20
1335
10
537.5
20
1345
42
-0.99999999999999989
0
LWPOLYLINE
5
106
100
AcDbEntity
8
0
100
AcDbPolyline
90
4
70
1
43
0.0
10
342.5
20
1185
10
342.5
20
1175
42
-0.99999999999999989
10
337.5
20
1175
10
337.5
20
1185
42
-0.99999999999999989
0
LWPOLYLINE
5
107
100
AcDbEntity
8
0
100
AcDbPolyline
90
4
70
1
43
0.0
10
122.5
20
1565
10
122.5
20
1555
42
-0.99999999999999989
10
117.5
20
1555
10
117.5
20
1565
42
-0.99999999999999989
0
LWPOLYLINE
5
108
100
AcDbEntity
8
0
100
AcDbPolyline
90
4
70
1
43
0.0
10
642.5
20
1605
10
642.5
20
1595
42
-0.99999999999999989
10
637.5
20
1595
10
637.5
20
1605
42
-0.99999999999999989
0
LWPOLYLINE
5
109
100
AcDbEntity
8
0
100
AcDbPolyline
90
4
70
1
43
0.0
10
742.5
20
1425
10
742.5
20
1415
42
-0.99999999999999989
10
737.5
20
1415
10
737.5
20
1425
42
-0.99999999999999989
0
LWPOLYLINE
5
110
100
AcDbEntity
8
0
100
AcDbPolyline
90
4
70
1
43
0.0
10
462.5
20
1345
10
462.5
20
1335
42
-0.99999999999999989
10
457.5
20
1335
10
457.5
20
1345
42
-0.99999999999999989
0
LWPOLYLINE
5
111
100
AcDbEntity
8
0
100
AcDbPolyline
90
4
70
1
43
0.0
10
342.5
20
1545
10
342.5
20
1535
42
-0.99999999999999989
10
337.5
20
1535
10
337.5
20
1545
42
-0.99999999999999989
0
LWPOLYLINE
5
112
100
AcDbEntity
8
0
100
AcDbPolyline
90
4
70
1
43
0.0
10
722.5
20
1645
10
722.5
20
1635
42
-0.99999999999999989
10
717.5
20
1635
10
717.5
20
1645
42
-0.99999999999999989
0
LWPOLYLINE
5
113
100
AcDbEntity
8
0
100
AcDbPolyline
90
4
70
1
43
0.0
10
362.5
20
1205
10
362.5
20
1195
42
-0.99999999999999989
10
357.5
20
1195
10
357.5
20
1205
42
-0.99999999999999989
0
LWPOLYLINE
5
114
100
AcDbEntity
8
0
100
AcDbPolyline
90
4
70
1
43
0.0
10
362.5
20
1405
10
362.5
20
1395
42
-0.99999999999999989
10
357.5
20
1395
10
357.5
20
1405
42
-0.99999999999999989
0
LWPOLYLINE
5
115
100
AcDbEntity
8
0
100
AcDbPolyline
90
4
70
1
43
0.0
10
642.5
20
1525
10
642.5
20
1515
42
-0.99999999999999989
10
637.5
20
1515
10
637.5
20
1525
42
-0.99999999999999989
0
LWPOLYLINE
5
116
100
AcDbEntity
8
0
100
AcDbPolyline
90
4
70
1
43
0.0
10
322.5
20
1325
10
322.5
20
1315
42
-0.99999999999999989
10
317.5
20
1315
10
317.5
20
1325
42
-0.99999999999999989
0
LWPOLYLINE
5
117
100
AcDbEntity
8
0
100
AcDbPolyline
90
4
70
1
43
0.0
10
402.5
20
1365
10
402.5
20
1355
42
-0.99999999999999989
10
397.5
20
1355
10
397.5
20
1365
42
-0.99999999999999989
0
LWPOLYLINE
5
118
100
AcDbEntity
8
0
100
AcDbPolyline
90
4
70
1
43
0.0
10
202.5
20
1245
10
202.5
20
1235
42
-0.99999999999999989
10
197.5
20
1235
10
197.5
20
1245
42
-0.99999999999999989
0
LWPOLYLINE
5
119
100
AcDbEntity
8
0
100
AcDbPolyline
90
4
70
1
43
0.0
10
402.5
20
1205
10
402.5
20
1195
42
-0.99999999999999989
10
397.5
20
1195
10
397.5
20
1205
42
-0.99999999999999989
0
LWPOLYLINE
5
120
100
AcDbEntity
8
0
100
AcDbPolyline
90
4
70
1
43
0.0
10
602.5
20
1445
10
602.5
20
1435
42
-0.99999999999999989
10
597.5
20
1435
10
597.5
20
1445
42
-0.99999999999999989
0
LWPOLYLINE
5
121
100
AcDbEntity
8
0
100
AcDbPolyline
90
4
70
1
43
0.0
10
422.5
20
1185
10
422.5
20
1175
42
-0.99999999999999989
10
417.5
20
1175
10
417.5
20
1185
42
-0.99999999999999989
0
LWPOLYLINE
5
122
100
AcDbEntity
8
0
100
AcDbPolyline
90
4
70
1
43
0.0
10
542.5
20
1265
10
542.5
20
1255
42
-0.99999999999999989
10
537.5
20
1255
10
537.5
20
1265
42
-0.99999999999999989
0
LWPOLYLINE
5
123
100
AcDbEntity
8
0
100
AcDbPolyline
90
4
70
1
43
0.0
10
682.5
20
1445
10
682.5
20
1435
42
-0.99999999999999989
10
677.5
20
1435
10
677.5
20
1445
42
-0.99999999999999989
0
LWPOLYLINE
5
124
100
AcDbEntity
8
0
100
AcDbPolyline
90
4
70
1
43
0.0
10
222.5
20
1225
10
222.5
20
1215
42
-0.99999999999999989
10
217.5
20
1215
10
217.5
20
1225
42
-0.99999999999999989
0
LWPOLYLINE
5
125
100
AcDbEntity
8
0
100
AcDbPolyline
90
4
70
1
43
0.0
10
502.5
20
1345
10
502.5
20
1335
42
-0.99999999999999989
10
497.5
20
1335
10
497.5
20
1345
42
-0.99999999999999989
0
LWPOLYLINE
5
126
100
AcDbEntity
8
0
100
AcDbPolyline
90
4
70
1
43
0.0
10
542.5
20
1185
10
542.5
20
1175
42
-0.99999999999999989
10
537.5
20
1175
10
537.5
20
1185
42
-0.99999999999999989
0
LWPOLYLINE
5
127
100
AcDbEntity
8
0
100
AcDbPolyline
90
4
70
1
43
0.0
10
422.5
20
1505
10
422.5
20
1495
42
-0.99999999999999989
10
417.5
20
1495
10
417.5
20
1505
42
-0.99999999999999989
0
LWPOLYLINE
5
128
100
AcDbEntity
8
0
100
AcDbPolyline
90
4
70
1
43
0.0
10
282.5
20
1205
10
282.5
20
1195
42
-0.99999999999999989
10
277.5
20
1195
10
277.5
20
1205
42
-0.99999999999999989
0
LWPOLYLINE
5
129
100
AcDbEntity
8
0
100
AcDbPolyline
90
4
70
1
43
0.0
10
242.5
20
1245
10
242.5
20
1235
42
-0.99999999999999989
10
237.5
20
1235
10
237.5
20
1245
42
-0.99999999999999989
0
LWPOLYLINE
5
130
100
AcDbEntity
8
0
100
AcDbPolyline
90
4
70
1
43
0.0
10
402.5
20
1525
10
402.5
20
1515
42
-0.99999999999999989
10
397.5
20
1515
10
397.5
20
1525
42
-0.99999999999999989
0
LWPOLYLINE
5
131
100
AcDbEntity
8
0
100
AcDbPolyline
90
4
70
1
43
0.0
10
322.5
20
1525
10
322.5
20
1515
42
-0.99999999999999989
10
317.5
20
1515
10
317.5
20
1525
42
-0.99999999999999989
0
LWPOLYLINE
5
132
100
AcDbEntity
8
0
100
AcDbPolyline
90
4
70
1
43
0.0
10
722.5
20
1485
10
722.5
20
1475
42
-0.99999999999999989
10
717.5
20
1475
10
717.5
20
1485
42
-0.99999999999999989
0
LWPOLYLINE
5
133
100
AcDbEntity
8
0
100
AcDbPolyline
90
4
70
1
43
0.0
10
642.5
20
1485
10
642.5
20
1475
42
-0.99999999999999989
10
637.5
20
1475
10
637.5
20
1485
42
-0.99999999999999989
0
LWPOLYLINE
5
134
100
AcDbEntity
8
0
100
AcDbPolyline
90
4
70
1
43
0.0
10
302.5
20
1145
10
302.5
20
1135
42
-0.99999999999999989
10
297.5
20
1135
10
297.5
20
1145
42
-0.99999999999999989
0
LWPOLYLINE
5
135
100
AcDbEntity
8
0
100
AcDbPolyline
90
4
70
1
43
0.0
10
442.5
20
1525
10
442.5
20
1515
42
-0.99999999999999989
10
437.5
20
1515
10
437.5
20
1525
42
-0.99999999999999989
0
LWPOLYLINE
5
136
100
AcDbEntity
8
0
100
AcDbPolyline
90
4
70
1
43
0.0
10
662.5
20
1465
10
662.5
20
1455
42
-0.99999999999999989
10
657.5
20
1455
10
657.5
20
1465
42
-0.99999999999999989
0
LWPOLYLINE
5
137
100
AcDbEntity
8
0
100
AcDbPolyline
90
4
70
1
43
0.0
10
422.5
20
1545
10
422.5
20
1535
42
-0.99999999999999989
10
417.5
20
1535
10
417.5
20
1545
42
-0.99999999999999989
0
LWPOLYLINE
5
138
100
AcDbEntity
8
0
100
AcDbPolyline
90
4
70
1
43
0.0
10
222.5
20
1465
10
222.5
20
1455
42
-0.99999999999999989
10
217.5
20
1455
10
217.5
20
1465
42
-0.99999999999999989
0
LWPOLYLINE
5
139
100
AcDbEntity
8
0
100
AcDbPolyline
90
4
70
1
43
0.0
10
362.5
20
1165
10
362.5
20
1155
42
-0.99999999999999989
10
357.5
20
1155
10
357.5
20
1165
42
-0.99999999999999989
0
LWPOLYLINE
5
140
100
AcDbEntity
8
0
100
AcDbPolyline
90
4
70
1
43
0.0
10
382.5
20
1545
10
382.5
20
1535
42
-0.99999999999999989
10
377.5
20
1535
10
377.5
20
1545
42
-0.99999999999999989
0
LWPOLYLINE
5
141
100
AcDbEntity
8
0
100
AcDbPolyline
90
4
70
1
43
0.0
10
262.5
20
1305
10
262.5
20
1295
42
-0.99999999999999989
10
257.5
20
1295
10
257.5
20
1305
42
-0.99999999999999989
0
LWPOLYLINE
5
142
100
AcDbEntity
8
0
100
AcDbPolyline
90
4
70
1
43
0.0
10
422.5
20
1345
10
422.5
20
1335
42
-0.99999999999999989
10
417.5
20
1335
10
417.5
20
1345
42
-0.99999999999999989
0
LWPOLYLINE
5
143
100
AcDbEntity
8
0
100
AcDbPolyline
90
4
70
1
43
0.0
10
242.5
20
1125
10
242.5
20
1115
42
-0.99999999999999989
10
237.5
20
1115
10
237.5
20
1125
42
-0.99999999999999989
0
LWPOLYLINE
5
144
100
AcDbEntity
8
0
100
AcDbPolyline
90
4
70
1
43
0.0
10
482.5
20
1125
10
482.5
20
1115
42
-0.99999999999999989
10
477.5
20
1115
10
477.5
20
1125
42
-0.99999999999999989
0
LWPOLYLINE
5
145
100
AcDbEntity
8
0
100
AcDbPolyline
90
4
70
1
43
0.0
10
322.5
20
1405
10
322.5
20
1395
42
-0.99999999999999989
10
317.5
20
1395
10
317.5
20
1405
42
-0.99999999999999989
0
LWPOLYLINE
5
146
100
AcDbEntity
8
0
100
AcDbPolyline
90
4
70
1
43
0.0
10
442.5
20
1405
10
442.5
20
1395
42
-0.99999999999999989
10
437.5
20
1395
10
437.5
20
1405
42
-0.99999999999999989
0
LWPOLYLINE
5
147
100
AcDbEntity
8
0
100
AcDbPolyline
90
4
70
1
43
0.0
10
222.5
20
1265
10
222.5
20
1255
42
-0.99999999999999989
10
217.5
20
1255
10
217.5
20
1265
42
-0.99999999999999989
0
LWPOLYLINE
5
148
100
AcDbEntity
8
0
100
AcDbPolyline
90
4
70
1
43
0.0
10
242.5
20
1205
10
242.5
20
1195
42
-0.99999999999999989
10
237.5
20
1195
10
237.5
20
1205
42
-0.99999999999999989
0
LWPOLYLINE
5
149
100
AcDbEntity
8
0
100
AcDbPolyline
90
4
70
1
43
0.0
10
542.5
20
1145
10
542.5
20
1135
42
-0.99999999999999989
10
537.5
20
1135
10
537.5
20
1145
42
-0.99999999999999989
0
LWPOLYLINE
5
150
100
AcDbEntity
8
0
100
AcDbPolyline
90
4
70
1
43
0.0
10
282.5
20
1485
10
282.5
20
1475
42
-0.99999999999999989
10
277.5
20
1475
10
277.5
20
1485
42
-0.99999999999999989
0
LWPOLYLINE
5
151
100
AcDbEntity
8
0
100
AcDbPolyline
90
4
70
1
43
0.0
10
442.5
20
1125
10
442.5
20
1115
42
-0.99999999999999989
10
437.5
20
1115
10
437.5
20
1125
42
-0.99999999999999989
0
LWPOLYLINE
5
152
100
AcDbEntity
8
0
100
AcDbPolyline
90
4
70
1
43
0.0
10
262.5
20
1225
10
262.5
20
1215
42
-0.99999999999999989
10
257.5
20
1215
10
257.5
20
1225
42
-0.99999999999999989
0
LWPOLYLINE
5
153
100
AcDbEntity
8
0
100
AcDbPolyline
90
4
70
1
43
0.0
10
362.5
20
1125
10
362.5
20
1115
42
-0.99999999999999989
10
357.5
20
1115
10
357.5
20
1125
42
-0.99999999999999989
0
LWPOLYLINE
5
154
100
AcDbEntity
8
0
100
AcDbPolyline
90
4
70
1
43
0.0
10
82.5
20
1285
10
82.5
20
1275
42
-0.99999999999999989
10
77.5
20
1275
10
77.5
20
1285
42
-0.99999999999999989
0
LWPOLYLINE
5
155
100
AcDbEntity
8
0
100
AcDbPolyline
90
4
70
1
43
0.0
10
322.5
20
1485
10
322.5
20
1475
42
-0.99999999999999989
10
317.5
20
1475
10
317.5
20
1485
42
-0.99999999999999989
0
LWPOLYLINE
5
156
100
AcDbEntity
8
0
100
AcDbPolyline
90
4
70
1
43
0.0
10
162.5
20
1565
10
162.5
20
1555
42
-0.99999999999999989
10
157.5
20
1555
10
157.5
20
1565
42
-0.99999999999999989
0
LWPOLYLINE
5
157
100
AcDbEntity
8
0
100
AcDbPolyline
90
4
70
1
43
0.0
10
402.5
20
1325
10
402.5
20
1315
42
-0.99999999999999989
10
397.5
20
1315
10
397.5
20
1325
42
-0.99999999999999989
0
LWPOLYLINE
5
158
100
AcDbEntity
8
0
100
AcDbPolyline
90
4
70
1
43
0.0
10
182.5
20
1305
10
182.5
20
1295
42
-0.99999999999999989
10
177.5
20
1295
10
177.5
20
1305
42
-0.99999999999999989
0
LWPOLYLINE
5
159
100
AcDbEntity
8
0
100
AcDbPolyline
90
4
70
1
43
0.0
10
702.5
20
1465
10
702.5
20
1455
42
-0.99999999999999989
10
697.5
20
1455
10
697.5
20
1465
42
-0.99999999999999989
0
LWPOLYLINE
5
160
100
AcDbEntity
8
0
100
AcDbPolyline
90
4
70
1
43
0.0
10
382.5
20
1185
10
382.5
20
1175
42
-0.99999999999999989
10
377.5
20
1175
10
377.5
20
1185
42
-0.99999999999999989
0
LWPOLYLINE
5
161
100
AcDbEntity
8
0
100
AcDbPolyline
90
4
70
1
43
0.0
10
382.5
20
1225
10
382.5
20
1215
42
-0.99999999999999989
10
377.5
20
1215
10
377.5
20
1225
42
-0.99999999999999989
0
LWPOLYLINE
5
162
100
AcDbEntity
8
0
100
AcDbPolyline
90
4
70
1
43
0.0
10
282.5
20
1245
10
282.5
20
1235
42
-0.99999999999999989
10
277.5
20
1235
10
277.5
20
1245
42
-0.99999999999999989
0
LWPOLYLINE
5
163
100
AcDbEntity
8
0
100
AcDbPolyline
90
4
70
1
43
0.0
10
262.5
20
1465
10
262.5
20
1455
42
-0.99999999999999989
10
257.5
20
1455
10
257.5
20
1465
42
-0.99999999999999989
0
LWPOLYLINE
5
164
100
AcDbEntity
8
0
100
AcDbPolyline
90
4
70
1
43
0.0
10
362.5
20
1485
10
362.5
20
1475
42
-0.99999999999999989
10
357.5
20
1475
10
357.5
20
1485
42
-0.99999999999999989
0
LWPOLYLINE
5
165
100
AcDbEntity
8
0
100
AcDbPolyline
90
4
70
1
43
0.0
10
602.5
20
1525
10
602.5
20
1515
42
-0.99999999999999989
10
597.5
20
1515
10
597.5
20
1525
42
-0.99999999999999989
0
LWPOLYLINE
5
166
100
AcDbEntity
8
0
100
AcDbPolyline
90
4
70
1
43
0.0
10
242.5
20
1285
10
242.5
20
1275
42
-0.99999999999999989
10
237.5
20
1275
10
237.5
20
1285
42
-0.99999999999999989
0
LWPOLYLINE
5
167
100
AcDbEntity
8
0
100
AcDbPolyline
90
4
70
1
43
0.0
10
342.5
20
1385
10
342.5
20
1375
42
-0.99999999999999989
10
337.5
20
1375
10
337.5
20
1385
42
-0.99999999999999989
0
LWPOLYLINE
5
168
100
AcDbEntity
8
0
100
AcDbPolyline
90
4
70
1
43
0.0
10
282.5
20
1125
10
282.5
20
1115
42
-0.99999999999999989
10
277.5
20
1115
10
277.5
20
1125
42
-0.99999999999999989
0
LWPOLYLINE
5
169
100
AcDbEntity
8
0
100
AcDbPolyline
90
4
70
1
43
0.0
10
302.5
20
1465
10
302.5
20
1455
42
-0.99999999999999989
10
297.5
20
1455
10
297.5
20
1465
42
-0.99999999999999989
0
LWPOLYLINE
5
170
100
AcDbEntity
8
0
100
AcDbPolyline
90
4
70
1
43
0.0
10
182.5
20
1465
10
182.5
20
1455
42
-0.99999999999999989
10
177.5
20
1455
10
177.5
20
1465
42
-0.99999999999999989
0
LWPOLYLINE
5
171
100
AcDbEntity
8
0
100
AcDbPolyline
90
4
70
1
43
0.0
10
382.5
20
1465
10
382.5
20
1455
42
-0.99999999999999989
10
377.5
20
1455
10
377.5
20
1465
42
-0.99999999999999989
0
LWPOLYLINE
5
172
100
AcDbEntity
8
0
100
AcDbPolyline
90
4
70
1
43
0.0
10
262.5
20
1145
10
262.5
20
1135
42
-0.99999999999999989
10
257.5
20
1135
10
257.5
20
1145
42
-0.99999999999999989
0
LWPOLYLINE
5
173
100
AcDbEntity
8
0
100
AcDbPolyline
90
4
70
1
43
0.0
10
322.5
20
1445
10
322.5
20
1435
42
-0.99999999999999989
10
317.5
20
1435
10
317.5
20
1445
42
-0.99999999999999989
0
LWPOLYLINE
5
174
100
AcDbEntity
8
0
100
AcDbPolyline
90
4
70
1
43
0.0
10
202.5
20
1165
10
202.5
20
1155
42
-0.99999999999999989
10
197.5
20
1155
10
197.5
20
1165
42
-0.99999999999999989
0
LWPOLYLINE
5
175
100
AcDbEntity
8
0
100
AcDbPolyline
90
4
70
1
43
0.0
10
262.5
20
1425
10
262.5
20
1415
42
-0.99999999999999989
10
257.5
20
1415
10
257.5
20
1425
42
-0.99999999999999989
0
LWPOLYLINE
5
176
100
AcDbEntity
8
0
100
AcDbPolyline
90
4
70
1
43
0.0
10
122.5
20
1325
10
122.5
20
1315
42
-0.99999999999999989
10
117.5
20
1315
10
117.5
20
1325
42
-0.99999999999999989
0
LWPOLYLINE
5
177
100
AcDbEntity
8
0
100
AcDbPolyline
90
4
70
1
43
0.0
10
242.5
20
1325
10
242.5
20
1315
42
-0.99999999999999989
10
237.5
20
1315
10
237.5
20
1325
42
-0.99999999999999989
0
LWPOLYLINE
5
178
100
AcDbEntity
8
0
100
AcDbPolyline
90
4
70
1
43
0.0
10
222.5
20
1585
10
222.5
20
1575
42
-0.99999999999999989
10
217.5
20
1575
10
217.5
20
1585
42
-0.99999999999999989
0
LWPOLYLINE
5
179
100
AcDbEntity
8
0
100
AcDbPolyline
90
4
70
1
43
0.0
10
302.5
20
1265
10
302.5
20
1255
42
-0.99999999999999989
10
297.5
20
1255
10
297.5
20
1265
42
-0.99999999999999989
0
LWPOLYLINE
5
180
100
AcDbEntity
8
0
100
AcDbPolyline
90
4
70
1
43
0.0
10
42.5
20
1405
10
42.5
20
1395
42
-0.99999999999999989
10
37.5
20
1395
10
37.5
20
1405
42
-0.99999999999999989
0
LWPOLYLINE
5
181
100
AcDbEntity
8
0
100
AcDbPolyline
90
4
70
1
43
0.0
10
102.5
20
1505
10
102.5
20
1495
42
-0.99999999999999989
10
97.5
20
1495
10
97.5
20
1505
42
-0.99999999999999989
0
LWPOLYLINE
5
182
100
AcDbEntity
8
0
100
AcDbPolyline
90
4
70
1
43
0.0
10
242.5
20
1445
10
242.5
20
1435
42
-0.99999999999999989
10
237.5
20
1435
10
237.5
20
1445
42
-0.99999999999999989
0
LWPOLYLINE
5
183
100
AcDbEntity
8
0
100
AcDbPolyline
90
4
70
1
43
0.0
10
182.5
20
1265
10
182.5
20
1255
42
-0.99999999999999989
10
177.5
20
1255
10
177.5
20
1265
42
-0.99999999999999989
0
LWPOLYLINE
5
184
100
AcDbEntity
8
0
100
AcDbPolyline
90
4
70
1
43
0.0
10
202.5
20
1285
10
202.5
20
1275
42
-0.99999999999999989
10
197.5
20
1275
10
197.5
20
1285
42
-0.99999999999999989
0
LWPOLYLINE
5
185
100
AcDbEntity
8
0
100
AcDbPolyline
90
4
70
1
43
0.0
10
182.5
20
1625
10
182.5
20
1615
42
-0.99999999999999989
10
177.5
20
1615
10
177.5
20
1625
42
-0.99999999999999989
0
LWPOLYLINE
5
186
100
AcDbEntity
8
0
100
AcDbPolyline
90
4
70
1
43
0.0
10
282.5
20
1365
10
282.5
20
1355
42
-0.99999999999999989
10
277.5
20
1355
10
277.5
20
1365
42
-0.99999999999999989
0
LWPOLYLINE
5
187
100
AcDbEntity
8
0
100
AcDbPolyline
90
4
70
1
43
0.0
10
122.5
20
1365
10
122.5
20
1355
42
-0.99999999999999989
10
117.5
20
1355
10
117.5
20
1365
42
-0.99999999999999989
0
LWPOLYLINE
5
188
100
AcDbEntity
8
0
100
AcDbPolyline
90
4
70
1
43
0.0
10
422.5
20
1385
10
422.5
20
1375
42
-0.99999999999999989
10
417.5
20
1375
10
417.5
20
1385
42
-0.99999999999999989
0
LWPOLYLINE
5
189
100
AcDbEntity
8
0
100
AcDbPolyline
90
4
70
1
43
0.0
10
262.5
20
1345
10
262.5
20
1335
42
-0.99999999999999989
10
257.5
20
1335
10
257.5
20
1345
42
-0.99999999999999989
0
LWPOLYLINE
5
190
100
AcDbEntity
8
0
100
AcDbPolyline
90
4
70
1
43
0.0
10
42.5
20
1365
10
42.5
20
1355
42
-0.99999999999999989
10
37.5
20
1355
10
37.5
20
1365
42
-0.99999999999999989
0
LWPOLYLINE
5
191
100
AcDbEntity
8
0
100
AcDbPolyline
90
4
70
1
43
0.0
10
402.5
20
1445
10
402.5
20
1435
42
-0.99999999999999989
10
397.5
20
1435
10
397.5
20
1445
42
-0.99999999999999989
0
LWPOLYLINE
5
192
100
AcDbEntity
8
0
100
AcDbPolyline
90
4
70
1
43
0.0
10
242.5
20
1405
10
242.5
20
1395
42
-0.99999999999999989
10
237.5
20
1395
10
237.5
20
1405
42
-0.99999999999999989
0
LWPOLYLINE
5
193
100
AcDbEntity
8
0
100
AcDbPolyline
90
4
70
1
43
0.0
10
202.5
20
1365
10
202.5
20
1355
42
-0.99999999999999989
10
197.5
20
1355
10
197.5
20
1365
42
-0.99999999999999989
0
LWPOLYLINE
5
194
100
AcDbEntity
8
0
100
AcDbPolyline
90
4
70
1
43
0.0
10
82.5
20
1405
10
82.5
20
1395
42
-0.99999999999999989
10
77.5
20
1395
10
77.5
20
1405
42
-0.99999999999999989
0
LWPOLYLINE
5
195
100
AcDbEntity
8
0
100
AcDbPolyline
90
4
70
1
43
0.0
10
342.5
20
1465
10
342.5
20
1455
42
-0.99999999999999989
10
337.5
20
1455
10
337.5
20
1465
42
-0.99999999999999989
0
LWPOLYLINE
5
196
100
AcDbEntity
8
0
100
AcDbPolyline
90
4
70
1
43
0.0
10
122.5
20
1405
10
122.5
20
1395
42
-0.99999999999999989
10
117.5
20
1395
10
117.5
20
1405
42
-0.99999999999999989
0
LWPOLYLINE
5
197
100
AcDbEntity
8
0
100
AcDbPolyline
90
4
70
1
43
0.0
10
222.5
20
1625
10
222.5
20
1615
42
-0.99999999999999989
10
217.5
20
1615
10
217.5
20
1625
42
-0.99999999999999989
0
LWPOLYLINE
5
198
100
AcDbEntity
8
0
100
AcDbPolyline
90
4
70
1
43
0.0
10
262.5
20
1385
10
262.5
20
1375
42
-0.99999999999999989
10
257.5
20
1375
10
257.5
20
1385
42
-0.99999999999999989
0
LWPOLYLINE
5
199
100
AcDbEntity
8
0
100
AcDbPolyline
90
4
70
1
43
0.0
10
422.5
20
1465
10
422.5
20
1455
42
-0.99999999999999989
10
417.5
20
1455
10
417.5
20
1465
42
-0.99999999999999989
0
LWPOLYLINE
5
200
100
AcDbEntity
8
0
100
AcDbPolyline
90
4
70
1
43
0.0
10
422.5
20
1425
10
422.5
20
1415
42
-0.99999999999999989
10
417.5
20
1415
10
417.5
20
1425
42
-0.99999999999999989
0
LWPOLYLINE
5
201
100
AcDbEntity
8
0
100
AcDbPolyline
90
4
70
1
43
0.0
10
42.5
20
1325
10
42.5
20
1315
42
-0.99999999999999989
10
37.5
20
1315
10
37.5
20
1325
42
-0.99999999999999989
0
LWPOLYLINE
5
202
100
AcDbEntity
8
0
100
AcDbPolyline
90
4
70
1
43
0.0
10
162.5
20
1605
10
162.5
20
1595
42
-0.99999999999999989
10
157.5
20
1595
10
157.5
20
1605
42
-0.99999999999999989
0
LWPOLYLINE
5
203
100
AcDbEntity
8
0
100
AcDbPolyline
90
4
70
1
43
0.0
10
502.5
20
1385
10
502.5
20
1375
42
-0.99999999999999989
10
497.5
20
1375
10
497.5
20
1385
42
-0.99999999999999989
0
LWPOLYLINE
5
204
100
AcDbEntity
8
0
100
AcDbPolyline
90
4
70
1
43
0.0
10
302.5
20
1385
10
302.5
20
1375
42
-0.99999999999999989
10
297.5
20
1375
10
297.5
20
1385
42
-0.99999999999999989
0
LWPOLYLINE
5
205
100
AcDbEntity
8
0
100
AcDbPolyline
90
4
70
1
43
0.0
10
362.5
20
1445
10
362.5
20
1435
42
-0.99999999999999989
10
357.5
20
1435
10
357.5
20
1445
42
-0.99999999999999989
0
LWPOLYLINE
5
206
100
AcDbEntity
8
0
100
AcDbPolyline
90
4
70
1
43
0.0
10
242.5
20
1485
10
242.5
20
1475
42
-0.99999999999999989
10
237.5
20
1475
10
237.5
20
1485
42
-0.99999999999999989
0
LWPOLYLINE
5
207
100
AcDbEntity
8
0
100
AcDbPolyline
90
4
70
1
43
0.0
10
182.5
20
1225
10
182.5
20
1215
42
-0.99999999999999989
10
177.5
20
1215
10
177.5
20
1225
42
-0.99999999999999989
0
LWPOLYLINE
5
208
100
AcDbEntity
8
0
100
AcDbPolyline
90
4
70
1
43
0.0
10
162.5
20
1365
10
162.5
20
1355
42
-0.99999999999999989
10
157.5
20
1355
10
157.5
20
1365
42
-0.99999999999999989
0
LWPOLYLINE
5
209
100
AcDbEntity
8
0
100
AcDbPolyline
90
4
70
1
43
0.0
10
82.5
20
1365
10
82.5
20
1355
42
-0.99999999999999989
10
77.5
20
1355
10
77.5
20
1365
42
-0.99999999999999989
0
LWPOLYLINE
5
210
100
AcDbEntity
8
0
100
AcDbPolyline
90
4
70
1
43
0.0
10
162.5
20
1325
10
162.5
20
1315
42
-0.99999999999999989
10
157.5
20
1315
10
157.5
20
1325
42
-0.99999999999999989
0
LWPOLYLINE
5
211
100
AcDbEntity
8
0
100
AcDbPolyline
90
4
70
1
43
0.0
10
222.5
20
1385
10
222.5
20
1375
42
-0.99999999999999989
10
217.5
20
1375
10
217.5
20
1385
42
-0.99999999999999989
0
LWPOLYLINE
5
212
100
AcDbEntity
8
0
100
AcDbPolyline
90
4
70
1
43
0.0
10
382.5
20
1425
10
382.5
20
1415
42
-0.99999999999999989
10
377.5
20
1415
10
377.5
20
1425
42
-0.99999999999999989
0
LWPOLYLINE
5
213
100
AcDbEntity
8
0
100
AcDbPolyline
90
4
70
1
43
0.0
10
342.5
20
1425
10
342.5
20
1415
42
-0.99999999999999989
10
337.5
20
1415
10
337.5
20
1425
42
-0.99999999999999989
0
LWPOLYLINE
5
214
100
AcDbEntity
8
0
100
AcDbPolyline
90
4
70
1
43
0.0
10
302.5
20
1185
10
302.5
20
1175
42
-0.99999999999999989
10
297.5
20
1175
10
297.5
20
1185
42
-0.99999999999999989
0
LWPOLYLINE
5
215
100
AcDbEntity
8
0
100
AcDbPolyline
90
4
70
1
43
0.0
10
202.5
20
1205
10
202.5
20
1195
42
-0.99999999999999989
10
197.5
20
1195
10
197.5
20
1205
42
-0.99999999999999989
0
LWPOLYLINE
5
216
100
AcDbEntity
8
0
100
AcDbPolyline
90
4
70
1
43
0.0
10
282.5
20
1525
10
282.5
20
1515
42
-0.99999999999999989
10
277.5
20
1515
10
277.5
20
1525
42
-0.99999999999999989
0
LWPOLYLINE
5
217
100
AcDbEntity
8
0
100
AcDbPolyline
90
4
70
1
43
0.0
10
202.5
20
1605
10
202.5
20
1595
42
-0.99999999999999989
10
197.5
20
1595
10
197.5
20
1605
42
-0.99999999999999989
0
LWPOLYLINE
5
218
100
AcDbEntity
8
0
100
AcDbPolyline
90
4
70
1
43
0.0
10
182.5
20
1545
10
182.5
20
1535
42
-0.99999999999999989
10
177.5
20
1535
10
177.5
20
1545
42
-0.99999999999999989
0
LWPOLYLINE
5
219
100
AcDbEntity
8
0
100
AcDbPolyline
90
4
70
1
43
0.0
10
182.5
20
1385
10
182.5
20
1375
42
-0.99999999999999989
10
177.5
20
1375
10
177.5
20
1385
42
-0.99999999999999989
0
LWPOLYLINE
5
220
100
AcDbEntity
8
0
100
AcDbPolyline
90
4
70
1
43
0.0
10
302.5
20
1505
10
302.5
20
1495
42
-0.99999999999999989
10
297.5
20
1495
10
297.5
20
1505
42
-0.99999999999999989
0
LWPOLYLINE
5
221
100
AcDbEntity
8
0
100
AcDbPolyline
90
4
70
1
43
0.0
10
282.5
20
1445
10
282.5
20
1435
42
-0.99999999999999989
10
277.5
20
1435
10
277.5
20
1445
42
-0.99999999999999989
0
LWPOLYLINE
5
222
100
AcDbEntity
8
0
100
AcDbPolyline
90
4
70
1
43
0.0
10
222.5
20
1505
10
222.5
20
1495
42
-0.99999999999999989
10
217.5
20
1495
10
217.5
20
1505
42
-0.99999999999999989
0
LWPOLYLINE
5
223
100
AcDbEntity
8
0
100
AcDbPolyline
90
4
70
1
43
0.0
10
282.5
20
1565
10
282.5
20
1555
42
-0.99999999999999989
10
277.5
20
1555
10
277.5
20
1565
42
-0.99999999999999989
0
LWPOLYLINE
5
224
100
AcDbEntity
8
0
100
AcDbPolyline
90
4
70
1
43
0.0
10
182.5
20
1145
10
182.5
20
1135
42
-0.99999999999999989
10
177.5
20
1135
10
177.5
20
1145
42
-0.99999999999999989
0
LWPOLYLINE
5
225
100
AcDbEntity
8
0
100
AcDbPolyline
90
4
70
1
43
0.0
10
242.5
20
1165
10
242.5
20
1155
42
-0.99999999999999989
10
237.5
20
1155
10
237.5
20
1165
42
-0.99999999999999989
0
LWPOLYLINE
5
226
100
AcDbEntity
8
0
100
AcDbPolyline
90
4
70
1
43
0.0
10
162.5
20
1525
10
162.5
20
1515
42
-0.99999999999999989
10
157.5
20
1515
10
157.5
20
1525
42
-0.99999999999999989
0
LWPOLYLINE
5
227
100
AcDbEntity
8
0
100
AcDbPolyline
90
4
70
1
43
0.0
10
742.5
20
1185
10
742.5
20
1175
42
-0.99999999999999989
10
737.5
20
1175
10
737.5
20
1185
42
-0.99999999999999989
0
LWPOLYLINE
5
228
100
AcDbEntity
8
0
100
AcDbPolyline
90
4
70
1
43
0.0
10
742.5
20
1145
10
742.5
20
1135
42
-0.99999999999999989
10
737.5
20
1135
10
737.5
20
1145
42
-0.99999999999999989
0
LWPOLYLINE
5
229
100
AcDbEntity
8
0
100
AcDbPolyline
90
4
70
1
43
0.0
10
162.5
20
1485
10
162.5
20
1475
42
-0.99999999999999989
10
157.5
20
1475
10
157.5
20
1485
42
-0.99999999999999989
0
LWPOLYLINE
5
230
100
AcDbEntity
8
0
100
AcDbPolyline
90
4
70
1
43
0.0
10
522.5
20
1565
10
522.5
20
1555
42
-0.99999999999999989
10
517.5
20
1555
10
517.5
20
1565
42
-0.99999999999999989
0
LWPOLYLINE
5
231
100
AcDbEntity
8
0
100
AcDbPolyline
90
4
70
1
43
0.0
10
602.5
20
1125
10
602.5
20
1115
42
-0.99999999999999989
10
597.5
20
1115
10
597.5
20
1125
42
-0.99999999999999989
0
LWPOLYLINE
5
232
100
AcDbEntity
8
0
100
AcDbPolyline
90
4
70
1
43
0.0
10
582.5
20
1185
10
582.5
20
1175
42
-0.99999999999999989
10
577.5
20
1175
10
577.5
20
1185
42
-0.99999999999999989
0
LWPOLYLINE
5
233
100
AcDbEntity
8
0
100
AcDbPolyline
90
4
70
1
43
0.0
10
322.5
20
1365
10
322.5
20
1355
42
-0.99999999999999989
10
317.5
20
1355
10
317.5
20
1365
42
-0.99999999999999989
0
LWPOLYLINE
5
234
100
AcDbEntity
8
0
100
AcDbPolyline
90
4
70
1
43
0.0
10
562.5
20
1565
10
562.5
20
1555
42
-0.99999999999999989
10
557.5
20
1555
10
557.5
20
1565
42
-0.99999999999999989
0
LWPOLYLINE
5
235
100
AcDbEntity
8
0
100
AcDbPolyline
90
4
70
1
43
0.0
10
742.5
20
1505
10
742.5
20
1495
42
-0.99999999999999989
10
737.5
20
1495
10
737.5
20
1505
42
-0.99999999999999989
0
LWPOLYLINE
5
236
100
AcDbEntity
8
0
100
AcDbPolyline
90
4
70
1
43
0.0
10
722.5
20
1205
10
722.5
20
1195
42
-0.99999999999999989
10
717.5
20
1195
10
717.5
20
1205
42
-0.99999999999999989
0
LWPOLYLINE
5
237
100
AcDbEntity
8
0
100
AcDbPolyline
90
4
70
1
43
0.0
10
622.5
20
1145
10
622.5
20
1135
42
-0.99999999999999989
10
617.5
20
1135
10
617.5
20
1145
42
-0.99999999999999989
0
LWPOLYLINE
5
238
100
AcDbEntity
8
0
100
AcDbPolyline
90
4
70
1
43
0.0
10
42.5
20
1485
10
42.5
20
1475
42
-0.99999999999999989
10
37.5
20
1475
10
37.5
20
1485
42
-0.99999999999999989
0
LWPOLYLINE
5
239
100
AcDbEntity
8
0
100
AcDbPolyline
90
4
70
1
43
0.0
10
602.5
20
1165
10
602.5
20
1155
42
-0.99999999999999989
10
597.5
20
1155
10
597.5
20
1165
42
-0.99999999999999989
0
LWPOLYLINE
5
240
100
AcDbEntity
8
0
100
AcDbPolyline
90
4
70
1
43
0.0
10
62.5
20
1505
10
62.5
20
1495
42
-0.99999999999999989
10
57.5
20
1495
10
57.5
20
1505
42
-0.99999999999999989
0
LWPOLYLINE
5
241
100
AcDbEntity
8
0
100
AcDbPolyline
90
4
70
1
43
0.0
10
442.5
20
1365
10
442.5
20
1355
42
-0.99999999999999989
10
437.5
20
1355
10
437.5
20
1365
42
-0.99999999999999989
0
LWPOLYLINE
5
242
100
AcDbEntity
8
0
100
AcDbPolyline
90
4
70
1
43
0.0
10
522.5
20
1645
10
522.5
20
1635
42
-0.99999999999999989
10
517.5
20
1635
10
517.5
20
1645
42
-0.99999999999999989
0
LWPOLYLINE
5
243
100
AcDbEntity
8
0
100
AcDbPolyline
90
4
70
1
43
0.0
10
102.5
20
1465
10
102.5
20
1455
42
-0.99999999999999989
10
97.5
20
1455
10
97.5
20
1465
42
-0.99999999999999989
0
LWPOLYLINE
5
244
100
AcDbEntity
8
0
100
AcDbPolyline
90
4
70
1
43
0.0
10
322.5
20
1205
10
322.5
20
1195
42
-0.99999999999999989
10
317.5
20
1195
10
317.5
20
1205
42
-0.99999999999999989
0
LWPOLYLINE
5
245
100
AcDbEntity
8
0
100
AcDbPolyline
90
4
70
1
43
0.0
10
742.5
20
1385
10
742.5
20
1375
42
-0.99999999999999989
10
737.5
20
1375
10
737.5
20
1385
42
-0.99999999999999989
0
LWPOLYLINE
5
246
100
AcDbEntity
8
0
100
AcDbPolyline
90
4
70
1
43
0.0
10
482.5
20
1325
10
482.5
20
1315
42
-0.99999999999999989
10
477.5
20
1315
10
477.5
20
1325
42
-0.99999999999999989
0
LWPOLYLINE
5
247
100
AcDbEntity
8
0
100
AcDbPolyline
90
4
70
1
43
0.0
10
22.5
20
1545
10
22.5
20
1535
42
-0.99999999999999989
10
17.5
20
1535
10
17.5
20
1545
42
-0.99999999999999989
0
LWPOLYLINE
5
248
100
AcDbEntity
8
0
100
AcDbPolyline
90
4
70
1
43
0.0
10
702.5
20
1505
10
702.5
20
1495
42
-0.99999999999999989
10
697.5
20
1495
10
697.5
20
1505
42
-0.99999999999999989
0
LWPOLYLINE
5
249
100
AcDbEntity
8
0
100
AcDbPolyline
90
4
70
1
43
0.0
10
682.5
20
1205
10
682.5
20
1195
42
-0.99999999999999989
10
677.5
20
1195
10
677.5
20
1205
42
-0.99999999999999989
0
LWPOLYLINE
5
250
100
AcDbEntity
8
0
100
AcDbPolyline
90
4
70
1
43
0.0
10
62.5
20
1585
10
62.5
20
1575
42
-0.99999999999999989
10
57.5
20
1575
10
57.5
20
1585
42
-0.99999999999999989
0
LWPOLYLINE
5
251
100
AcDbEntity
8
0
100
AcDbPolyline
90
4
70
1
43
0.0
10
382.5
20
1145
10
382.5
20
1135
42
-0.99999999999999989
10
377.5
20
1135
10
377.5
20
1145
42
-0.99999999999999989
0
LWPOLYLINE
5
252
100
AcDbEntity
8
0
100
AcDbPolyline
90
4
70
1
43
0.0
10
22.5
20
1505
10
22.5
20
1495
42
-0.99999999999999989
10
17.5
20
1495
10
17.5
20
1505
42
-0.99999999999999989
0
LWPOLYLINE
5
253
100
AcDbEntity
8
0
100
AcDbPolyline
90
4
70
1
43
0.0
10
702.5
20
1145
10
702.5
20
1135
42
-0.99999999999999989
10
697.5
20
1135
10
697.5
20
1145
42
-0.99999999999999989
0
LWPOLYLINE
5
254
100
AcDbEntity
8
0
100
AcDbPolyline
90
4
70
1
43
0.0
10
402.5
20
1125
10
402.5
20
1115
42
-0.99999999999999989
10
397.5
20
1115
10
397.5
20
1125
42
-0.99999999999999989
0
LWPOLYLINE
5
255
100
AcDbEntity
8
0
100
AcDbPolyline
90
4
70
1
43
0.0
10
682.5
20
1645
10
682.5
20
1635
42
-0.99999999999999989
10
677.5
20
1635
10
677.5
20
1645
42
-0.99999999999999989
0
LWPOLYLINE
5
256
100
AcDbEntity
8
0
100
AcDbPolyline
90
4
70
1
43
0.0
10
462.5
20
1145
10
462.5
20
1135
42
-0.99999999999999989
10
457.5
20
1135
10
457.5
20
1145
42
-0.99999999999999989
0
LWPOLYLINE
5
257
100
AcDbEntity
8
0
100
AcDbPolyline
90
4
70
1
43
0.0
10
322.5
20
1165
10
322.5
20
1155
42
-0.99999999999999989
10
317.5
20
1155
10
317.5
20
1165
42
-0.99999999999999989
0
LWPOLYLINE
5
258
100
AcDbEntity
8
0
100
AcDbPolyline
90
4
70
1
43
0.0
10
662.5
20
1505
10
662.5
20
1495
42
-0.99999999999999989
10
657.5
20
1495
10
657.5
20
1505
42
-0.99999999999999989
0
LWPOLYLINE
5
259
100
AcDbEntity
8
0
100
AcDbPolyline
90
4
70
1
43
0.0
10
622.5
20
1545
10
622.5
20
1535
42
-0.99999999999999989
10
617.5
20
1535
10
617.5
20
1545
42
-0.99999999999999989
0
LWPOLYLINE
5
260
100
AcDbEntity
8
0
100
AcDbPolyline
90
4
70
1
43
0.0
10
442.5
20
1485
10
442.5
20
1475
42
-0.99999999999999989
10
437.5
20
1475
10
437.5
20
1485
42
-0.99999999999999989
0
LWPOLYLINE
5
261
100
AcDbEntity
8
0
100
AcDbPolyline
90
4
70
1
43
0.0
10
482.5
20
1205
10
482.5
20
1195
42
-0.99999999999999989
10
477.5
20
1195
10
477.5
20
1205
42
-0.99999999999999989
0
LWPOLYLINE
5
262
100
AcDbEntity
8
0
100
AcDbPolyline
90
4
70
1
43
0.0
10
442.5
20
1205
10
442.5
20
1195
42
-0.99999999999999989
10
437.5
20
1195
10
437.5
20
1205
42
-0.99999999999999989
0
LWPOLYLINE
5
263
100
AcDbEntity
8
0
100
AcDbPolyline
90
4
70
1
43
0.0
10
642.5
20
1205
10
642.5
20
1195
42
-0.99999999999999989
10
637.5
20
1195
10
637.5
20
1205
42
-0.99999999999999989
0
LWPOLYLINE
5
264
100
AcDbEntity
8
0
100
AcDbPolyline
90
4
70
1
43
0.0
10
482.5
20
1365
10
482.5
20
1355
42
-0.99999999999999989
10
477.5
20
1355
10
477.5
20
1365
42
-0.99999999999999989
0
LWPOLYLINE
5
265
100
AcDbEntity
8
0
100
AcDbPolyline
90
4
70
1
43
0.0
10
622.5
20
1425
10
622.5
20
1415
42
-0.99999999999999989
10
617.5
20
1415
10
617.5
20
1425
42
-0.99999999999999989
0
LWPOLYLINE
5
266
100
AcDbEntity
8
0
100
AcDbPolyline
90
4
70
1
43
0.0
10
662.5
20
1145
10
662.5
20
1135
42
-0.99999999999999989
10
657.5
20
1135
10
657.5
20
1145
42
-0.99999999999999989
0
LWPOLYLINE
5
267
100
AcDbEntity
8
0
100
AcDbPolyline
90
4
70
1
43
0.0
10
642.5
20
1125
10
642.5
20
1115
42
-0.99999999999999989
10
637.5
20
1115
10
637.5
20
1125
42
-0.99999999999999989
0
LWPOLYLINE
5
268
100
AcDbEntity
8
0
100
AcDbPolyline
90
4
70
1
43
0.0
10
142.5
20
1465
10
142.5
20
1455
42
-0.99999999999999989
10
137.5
20
1455
10
137.5
20
1465
42
-0.99999999999999989
0
LWPOLYLINE
5
269
100
AcDbEntity
8
0
100
AcDbPolyline
90
4
70
1
43
0.0
10
422.5
20
1145
10
422.5
20
1135
42
-0.99999999999999989
10
417.5
20
1135
10
417.5
20
1145
42
-0.99999999999999989
0
LWPOLYLINE
5
270
100
AcDbEntity
8
0
100
AcDbPolyline
90
4
70
1
43
0.0
10
582.5
20
1385
10
582.5
20
1375
42
-0.99999999999999989
10
577.5
20
1375
10
577.5
20
1385
42
-0.99999999999999989
0
LWPOLYLINE
5
271
100
AcDbEntity
8
0
100
AcDbPolyline
90
4
70
1
43
0.0
10
502.5
20
1185
10
502.5
20
1175
42
-0.99999999999999989
10
497.5
20
1175
10
497.5
20
1185
42
-0.99999999999999989
0
LWPOLYLINE
5
272
100
AcDbEntity
8
0
100
AcDbPolyline
90
4
70
1
43
0.0
10
682.5
20
1525
10
682.5
20
1515
42
-0.99999999999999989
10
677.5
20
1515
10
677.5
20
1525
42
-0.99999999999999989
0
LWPOLYLINE
5
273
100
AcDbEntity
8
0
100
AcDbPolyline
90
4
70
1
43
0.0
10
402.5
20
1485
10
402.5
20
1475
42
-0.99999999999999989
10
397.5
20
1475
10
397.5
20
1485
42
-0.99999999999999989
0
LWPOLYLINE
5
274
100
AcDbEntity
8
0
100
AcDbPolyline
90
4
70
1
43
0.0
10
22.5
20
1225
10
22.5
20
1215
42
-0.99999999999999989
10
17.5
20
1215
10
17.5
20
1225
42
-0.99999999999999989
0
LWPOLYLINE
5
275
100
AcDbEntity
8
0
100
AcDbPolyline
90
4
70
1
43
0.0
10
622.5
20
1585
10
622.5
20
1575
42
-0.99999999999999989
10
617.5
20
1575
10
617.5
20
1585
42
-0.99999999999999989
0
LWPOLYLINE
5
276
100
AcDbEntity
8
0
100
AcDbPolyline
90
4
70
1
43
0.0
10
502.5
20
1145
10
502.5
20
1135
42
-0.99999999999999989
10
497.5
20
1135
10
497.5
20
1145
42
-0.99999999999999989
0
LWPOLYLINE
5
277
100
AcDbEntity
8
0
100
AcDbPolyline
90
4
70
1
43
0.0
10
742.5
20
1585
10
742.5
20
1575
42
-0.99999999999999989
10
737.5
20
1575
10
737.5
20
1585
42
-0.99999999999999989
0
LWPOLYLINE
5
278
100
AcDbEntity
8
0
100
AcDbPolyline
90
4
70
1
43
0.0
10
382.5
20
1505
10
382.5
20
1495
42
-0.99999999999999989
10
377.5
20
1495
10
377.5
20
1505
42
-0.99999999999999989
0
LWPOLYLINE
5
279
100
AcDbEntity
8
0
100
AcDbPolyline
90
4
70
1
43
0.0
10
662.5
20
1185
10
662.5
20
1175
42
-0.99999999999999989
10
657.5
20
1175
10
657.5
20
1185
42
-0.99999999999999989
0
LWPOLYLINE
5
280
100
AcDbEntity
8
0
100
AcDbPolyline
90
4
70
1
43
0.0
10
62.5
20
1545
10
62.5
20
1535
42
-0.99999999999999989
10
57.5
20
1535
10
57.5
20
1545
42
-0.99999999999999989
0
LWPOLYLINE
5
281
100
AcDbEntity
8
0
100
AcDbPolyline
90
4
70
1
43
0.0
10
142.5
20
1625
10
142.5
20
1615
42
-0.99999999999999989
10
137.5
20
1615
10
137.5
20
1625
42
-0.99999999999999989
0
LWPOLYLINE
5
282
100
AcDbEntity
8
0
100
AcDbPolyline
90
4
70
1
43
0.0
10
22.5
20
1465
10
22.5
20
1455
42
-0.99999999999999989
10
17.5
20
1455
10
17.5
20
1465
42
-0.99999999999999989
0
LWPOLYLINE
5
283
100
AcDbEntity
8
0
100
AcDbPolyline
90
4
70
1
43
0.0
10
522.5
20
1285
10
522.5
20
1275
42
-0.99999999999999989
10
517.5
20
1275
10
517.5
20
1285
42
-0.99999999999999989
0
LWPOLYLINE
5
284
100
AcDbEntity
8
0
100
AcDbPolyline
90
4
70
1
43
0.0
10
522.5
20
1325
10
522.5
20
1315
42
-0.99999999999999989
10
517.5
20
1315
10
517.5
20
1325
42
-0.99999999999999989
0
LWPOLYLINE
5
285
100
AcDbEntity
8
0
100
AcDbPolyline
90
4
70
1
43
0.0
10
362.5
20
1525
10
362.5
20
1515
42
-0.99999999999999989
10
357.5
20
1515
10
357.5
20
1525
42
-0.99999999999999989
0
LWPOLYLINE
5
286
100
AcDbEntity
8
0
100
AcDbPolyline
90
4
70
1
43
0.0
10
522.5
20
1165
10
522.5
20
1155
42
-0.99999999999999989
10
517.5
20
1155
10
517.5
20
1165
42
-0.99999999999999989
0
LWPOLYLINE
5
287
100
AcDbEntity
8
0
100
AcDbPolyline
90
4
70
1
43
0.0
10
702.5
20
1185
10
702.5
20
1175
42
-0.99999999999999989
10
697.5
20
1175
10
697.5
20
1185
42
-0.99999999999999989
0
LWPOLYLINE
5
288
100
AcDbEntity
8
0
100
AcDbPolyline
90
4
70
1
43
0.0
10
322.5
20
1125
10
322.5
20
1115
42
-0.99999999999999989
10
317.5
20
1115
10
317.5
20
1125
42
-0.99999999999999989
0
LWPOLYLINE
5
289
100
AcDbEntity
8
0
100
AcDbPolyline
90
4
70
1
43
0.0
10
722.5
20
1565
10
722.5
20
1555
42
-0.99999999999999989
10
717.5
20
1555
10
717.5
20
1565
42
-0.99999999999999989
0
LWPOLYLINE
5
290
100
AcDbEntity
8
0
100
AcDbPolyline
90
4
70
1
43
0.0
10
682.5
20
1365
10
682.5
20
1355
42
-0.99999999999999989
10
677.5
20
1355
10
677.5
20
1365
42
-0.99999999999999989
0
LWPOLYLINE
5
291
100
AcDbEntity
8
0
100
AcDbPolyline
90
4
70
1
43
0.0
10
322.5
20
1245
10
322.5
20
1235
42
-0.99999999999999989
10
317.5
20
1235
10
317.5
20
1245
42
-0.99999999999999989
0
LWPOLYLINE
5
292
100
AcDbEntity
8
0
100
AcDbPolyline
90
4
70
1
43
0.0
10
342.5
20
1265
10
342.5
20
1255
42
-0.99999999999999989
10
337.5
20
1255
10
337.5
20
1265
42
-0.99999999999999989
0
LWPOLYLINE
5
293
100
AcDbEntity
8
0
100
AcDbPolyline
90
4
70
1
43
0.0
10
722.5
20
1325
10
722.5
20
1315
42
-0.99999999999999989
10
717.5
20
1315
10
717.5
20
1325
42
-0.99999999999999989
0
LWPOLYLINE
5
294
100
AcDbEntity
8
0
100
AcDbPolyline
90
4
70
1
43
0.0
10
642.5
20
1325
10
642.5
20
1315
42
-0.99999999999999989
10
637.5
20
1315
10
637.5
20
1325
42
-0.99999999999999989
0
LWPOLYLINE
5
295
100
AcDbEntity
8
0
100
AcDbPolyline
90
4
70
1
43
0.0
10
102.5
20
1625
10
102.5
20
1615
42
-0.99999999999999989
10
97.5
20
1615
10
97.5
20
1625
42
-0.99999999999999989
0
LWPOLYLINE
5
296
100
AcDbEntity
8
0
100
AcDbPolyline
90
4
70
1
43
0.0
10
482.5
20
1245
10
482.5
20
1235
42
-0.99999999999999989
10
477.5
20
1235
10
477.5
20
1245
42
-0.99999999999999989
0
LWPOLYLINE
5
297
100
AcDbEntity
8
0
100
AcDbPolyline
90
4
70
1
43
0.0
10
442.5
20
1245
10
442.5
20
1235
42
-0.99999999999999989
10
437.5
20
1235
10
437.5
20
1245
42
-0.99999999999999989
0
LWPOLYLINE
5
298
100
AcDbEntity
8
0
100
AcDbPolyline
90
4
70
1
43
0.0
10
382.5
20
1265
10
382.5
20
1255
42
-0.99999999999999989
10
377.5
20
1255
10
377.5
20
1265
42
-0.99999999999999989
0
LWPOLYLINE
5
299
100
AcDbEntity
8
0
100
AcDbPolyline
90
4
70
1
43
0.0
10
562.5
20
1285
10
562.5
20
1275
42
-0.99999999999999989
10
557.5
20
1275
10
557.5
20
1285
42
-0.99999999999999989
0
LWPOLYLINE
5
300
100
AcDbEntity
8
0
100
AcDbPolyline
90
4
70
1
43
0.0
10
402.5
20
1245
10
402.5
20
1235
42
-0.99999999999999989
10
397.5
20
1235
10
397.5
20
1245
42
-0.99999999999999989
0
LWPOLYLINE
5
301
100
AcDbEntity
8
0
100
AcDbPolyline
90
4
70
1
43
0.0
10
542.5
20
1225
10
542.5
20
1215
42
-0.99999999999999989
10
537.5
20
1215
10
537.5
20
1225
42
-0.99999999999999989
0
LWPOLYLINE
5
302
100
AcDbEntity
8
0
100
AcDbPolyline
90
4
70
1
43
0.0
10
162.5
20
1645
10
162.5
20
1635
42
-0.99999999999999989
10
157.5
20
1635
10
157.5
20
1645
42
-0.99999999999999989
0
LWPOLYLINE
5
303
100
AcDbEntity
8
0
100
AcDbPolyline
90
4
70
1
43
0.0
10
142.5
20
1265
10
142.5
20
1255
42
-0.99999999999999989
10
137.5
20
1255
10
137.5
20
1265
42
-0.99999999999999989
0
LWPOLYLINE
5
304
100
AcDbEntity
8
0
100
AcDbPolyline
90
4
70
1
43
0.0
10
22.5
20
1625
10
22.5
20
1615
42
-0.99999999999999989
10
17.5
20
1615
10
17.5
20
1625
42
-0.99999999999999989
0
LWPOLYLINE
5
305
100
AcDbEntity
8
0
100
AcDbPolyline
90
4
70
1
43
0.0
10
462.5
20
1265
10
462.5
20
1255
42
-0.99999999999999989
10
457.5
20
1255
10
457.5
20
1265
42
-0.99999999999999989
0
LWPOLYLINE
5
306
100
AcDbEntity
8
0
100
AcDbPolyline
90
4
70
1
43
0.0
10
102.5
20
1585
10
102.5
20
1575
42
-0.99999999999999989
10
97.5
20
1575
10
97.5
20
1585
42
-0.99999999999999989
0
LWPOLYLINE
5
307
100
AcDbEntity
8
0
100
AcDbPolyline
90
4
70
1
43
0.0
10
422.5
20
1225
10
422.5
20
1215
42
-0.99999999999999989
10
417.5
20
1215
10
417.5
20
1225
42
-0.99999999999999989
0
LWPOLYLINE
5
308
100
AcDbEntity
8
0
100
AcDbPolyline
90
4
70
1
43
0.0
10
142.5
20
1585
10
142.5
20
1575
42
-0.99999999999999989
10
137.5
20
1575
10
137.5
20
1585
42
-0.99999999999999989
0
LWPOLYLINE
5
309
100
AcDbEntity
8
0
100
AcDbPolyline
90
4
70
1
43
0.0
10
422.5
20
1305
10
422.5
20
1295
42
-0.99999999999999989
10
417.5
20
1295
10
417.5
20
1305
42
-0.99999999999999989
0
LWPOLYLINE
5
310
100
AcDbEntity
8
0
100
AcDbPolyline
90
4
70
1
43
0.0
10
662.5
20
1345
10
662.5
20
1335
42
-0.99999999999999989
10
657.5
20
1335
10
657.5
20
1345
42
-0.99999999999999989
0
LWPOLYLINE
5
311
100
AcDbEntity
8
0
100
AcDbPolyline
90
4
70
1
43
0.0
10
342.5
20
1305
10
342.5
20
1295
42
-0.99999999999999989
10
337.5
20
1295
10
337.5
20
1305
42
-0.99999999999999989
0
LWPOLYLINE
5
312
100
AcDbEntity
8
0
100
AcDbPolyline
90
4
70
1
43
0.0
10
462.5
20
1305
10
462.5
20
1295
42
-0.99999999999999989
10
457.5
20
1295
10
457.5
20
1305
42
-0.99999999999999989
0
LWPOLYLINE
5
313
100
AcDbEntity
8
0
100
AcDbPolyline
90
4
70
1
43
0.0
10
422.5
20
1265
10
422.5
20
1255
42
-0.99999999999999989
10
417.5
20
1255
10
417.5
20
1265
42
-0.99999999999999989
0
LWPOLYLINE
5
314
100
AcDbEntity
8
0
100
AcDbPolyline
90
4
70
1
43
0.0
10
522.5
20
1245
10
522.5
20
1235
42
-0.99999999999999989
10
517.5
20
1235
10
517.5
20
1245
42
-0.99999999999999989
0
LWPOLYLINE
5
315
100
AcDbEntity
8
0
100
AcDbPolyline
90
4
70
1
43
0.0
10
82.5
20
1565
10
82.5
20
1555
42
-0.99999999999999989
10
77.5
20
1555
10
77.5
20
1565
42
-0.99999999999999989
0
LWPOLYLINE
5
316
100
AcDbEntity
8
0
100
AcDbPolyline
90
4
70
1
43
0.0
10
602.5
20
1365
10
602.5
20
1355
42
-0.99999999999999989
10
597.5
20
1355
10
597.5
20
1365
42
-0.99999999999999989
0
LWPOLYLINE
5
317
100
AcDbEntity
8
0
100
AcDbPolyline
90
4
70
1
43
0.0
10
642.5
20
1405
10
642.5
20
1395
42
-0.99999999999999989
10
637.5
20
1395
10
637.5
20
1405
42
-0.99999999999999989
0
LWPOLYLINE
5
318
100
AcDbEntity
8
0
100
AcDbPolyline
90
4
70
1
43
0.0
10
722.5
20
1365
10
722.5
20
1355
42
-0.99999999999999989
10
717.5
20
1355
10
717.5
20
1365
42
-0.99999999999999989
0
LWPOLYLINE
5
319
100
AcDbEntity
8
0
100
AcDbPolyline
90
4
70
1
43
0.0
10
342.5
20
1225
10
342.5
20
1215
42
-0.99999999999999989
10
337.5
20
1215
10
337.5
20
1225
42
-0.99999999999999989
0
LWPOLYLINE
5
320
100
AcDbEntity
8
0
100
AcDbPolyline
90
4
70
1
43
0.0
10
82.5
20
1605
10
82.5
20
1595
42
-0.99999999999999989
10
77.5
20
1595
10
77.5
20
1605
42
-0.99999999999999989
0
LWPOLYLINE
5
321
100
AcDbEntity
8
0
100
AcDbPolyline
90
4
70
1
43
0.0
10
62.5
20
1225
10
62.5
20
1215
42
-0.99999999999999989
10
57.5
20
1215
10
57.5
20
1225
42
-0.99999999999999989
0
LWPOLYLINE
5
322
100
AcDbEntity
8
0
100
AcDbPolyline
90
4
70
1
43
0.0
10
82.5
20
1645
10
82.5
20
1635
42
-0.99999999999999989
10
77.5
20
1635
10
77.5
20
1645
42
-0.99999999999999989
0
LWPOLYLINE
5
323
100
AcDbEntity
8
0
100
AcDbPolyline
90
4
70
1
43
0.0
10
362.5
20
1245
10
362.5
20
1235
42
-0.99999999999999989
10
357.5
20
1235
10
357.5
20
1245
42
-0.99999999999999989
0
LWPOLYLINE
5
324
100
AcDbEntity
8
0
100
AcDbPolyline
90
4
70
1
43
0.0
10
582.5
20
1345
10
582.5
20
1335
42
-0.99999999999999989
10
577.5
20
1335
10
577.5
20
1345
42
-0.99999999999999989
0
LWPOLYLINE
5
325
100
AcDbEntity
8
0
100
AcDbPolyline
90
4
70
1
43
0.0
10
362.5
20
1285
10
362.5
20
1275
42
-0.99999999999999989
10
357.5
20
1275
10
357.5
20
1285
42
-0.99999999999999989
0
LWPOLYLINE
5
326
100
AcDbEntity
8
0
100
AcDbPolyline
90
4
70
1
43
0.0
10
642.5
20
1365
10
642.5
20
1355
42
-0.99999999999999989
10
637.5
20
1355
10
637.5
20
1365
42
-0.99999999999999989
0
LWPOLYLINE
5
327
100
AcDbEntity
8
0
100
AcDbPolyline
90
4
70
1
43
0.0
10
662.5
20
1385
10
662.5
20
1375
42
-0.99999999999999989
10
657.5
20
1375
10
657.5
20
1385
42
-0.99999999999999989
0
LWPOLYLINE
5
328
100
AcDbEntity
8
0
100
AcDbPolyline
90
4
70
1
43
0.0
10
42.5
20
1565
10
42.5
20
1555
42
-0.99999999999999989
10
37.5
20
1555
10
37.5
20
1565
42
-0.99999999999999989
0
LWPOLYLINE
5
329
100
AcDbEntity
8
0
100
AcDbPolyline
90
4
70
1
43
0.0
10
62.5
20
1625
10
62.5
20
1615
42
-0.99999999999999989
10
57.5
20
1615
10
57.5
20
1625
42
-0.99999999999999989
0
LWPOLYLINE
5
330
100
AcDbEntity
8
0
100
AcDbPolyline
90
4
70
1
43
0.0
10
102.5
20
1305
10
102.5
20
1295
42
-0.99999999999999989
10
97.5
20
1295
10
97.5
20
1305
42
-0.99999999999999989
0
LWPOLYLINE
5
331
100
AcDbEntity
8
0
100
AcDbPolyline
90
4
70
1
43
0.0
10
742.5
20
1345
10
742.5
20
1335
42
-0.99999999999999989
10
737.5
20
1335
10
737.5
20
1345
42
-0.99999999999999989
0
LWPOLYLINE
5
332
100
AcDbEntity
8
0
100
AcDbPolyline
90
4
70
1
43
0.0
10
42.5
20
1605
10
42.5
20
1595
42
-0.99999999999999989
10
37.5
20
1595
10
37.5
20
1605
42
-0.99999999999999989
0
LWPOLYLINE
5
333
100
AcDbEntity
8
0
100
AcDbPolyline
90
4
70
1
43
0.0
10
542.5
20
1305
10
542.5
20
1295
42
-0.99999999999999989
10
537.5
20
1295
10
537.5
20
1305
42
-0.99999999999999989
0
LWPOLYLINE
5
334
100
AcDbEntity
8
0
100
AcDbPolyline
90
4
70
1
43
0.0
10
382.5
20
1305
10
382.5
20
1295
42
-0.99999999999999989
10
377.5
20
1295
10
377.5
20
1305
42
-0.99999999999999989
0
LWPOLYLINE
5
335
100
AcDbEntity
8
0
100
AcDbPolyline
90
4
70
1
43
0.0
10
122.5
20
1645
10
122.5
20
1635
42
-0.99999999999999989
10
117.5
20
1635
10
117.5
20
1645
42
-0.99999999999999989
0
LWPOLYLINE
5
336
100
AcDbEntity
8
0
100
AcDbPolyline
90
4
70
1
43
0.0
10
562.5
20
1245
10
562.5
20
1235
42
-0.99999999999999989
10
557.5
20
1235
10
557.5
20
1245
42
-0.99999999999999989
0
LWPOLYLINE
5
337
100
AcDbEntity
8
0
100
AcDbPolyline
90
4
70
1
43
0.0
10
42.5
20
1645
10
42.5
20
1635
42
-0.99999999999999989
10
37.5
20
1635
10
37.5
20
1645
42
-0.99999999999999989
0
LWPOLYLINE
5
338
100
AcDbEntity
8
0
100
AcDbPolyline
90
4
70
1
43
0.0
10
502.5
20
1265
10
502.5
20
1255
42
-0.99999999999999989
10
497.5
20
1255
10
497.5
20
1265
42
-0.99999999999999989
0
LWPOLYLINE
5
339
100
AcDbEntity
8
0
100
AcDbPolyline
90
4
70
1
43
0.0
10
722.5
20
1405
10
722.5
20
1395
42
-0.99999999999999989
10
717.5
20
1395
10
717.5
20
1405
42
-0.99999999999999989
0
LWPOLYLINE
5
340
100
AcDbEntity
8
0
100
AcDbPolyline
90
4
70
1
43
0.0
10
602.5
20
1405
10
602.5
20
1395
42
-0.99999999999999989
10
597.5
20
1395
10
597.5
20
1405
42
-0.99999999999999989
0
LWPOLYLINE
5
341
100
AcDbEntity
8
0
100
AcDbPolyline
90
4
70
1
43
0.0
10
682.5
20
1405
10
682.5
20
1395
42
-0.99999999999999989
10
677.5
20
1395
10
677.5
20
1405
42
-0.99999999999999989
0
LWPOLYLINE
5
342
100
AcDbEntity
8
0
100
AcDbPolyline
90
4
70
1
43
0.0
10
582.5
20
1545
10
582.5
20
1535
42
-0.99999999999999989
10
577.5
20
1535
10
577.5
20
1545
42
-0.99999999999999989
0
LWPOLYLINE
5
343
100
AcDbEntity
8
0
100
AcDbPolyline
90
4
70
1
43
0.0
10
602.5
20
1325
10
602.5
20
1315
42
-0.99999999999999989
10
597.5
20
1315
10
597.5
20
1325
42
-0.99999999999999989
0
LWPOLYLINE
5
344
100
AcDbEntity
8
0
100
AcDbPolyline
90
4
70
1
43
0.0
10
702.5
20
1585
10
702.5
20
1575
42
-0.99999999999999989
10
697.5
20
1575
10
697.5
20
1585
42
-0.99999999999999989
0
LWPOLYLINE
5
345
100
AcDbEntity
8
0
100
AcDbPolyline
90
4
70
1
43
0.0
10
582.5
20
1625
10
582.5
20
1615
42
-0.99999999999999989
10
577.5
20
1615
10
577.5
20
1625
42
-0.99999999999999989
0
LWPOLYLINE
5
346
100
AcDbEntity
8
0
100
AcDbPolyline
90
4
70
1
43
0.0
10
362.5
20
1645
10
362.5
20
1635
42
-0.99999999999999989
10
357.5
20
1635
10
357.5
20
1645
42
-0.99999999999999989
0
LWPOLYLINE
5
347
100
AcDbEntity
8
0
100
AcDbPolyline
90
4
70
1
43
0.0
10
542.5
20
1425
10
542.5
20
1415
42
-0.99999999999999989
10
537.5
20
1415
10
537.5
20
1425
42
-0.99999999999999989
0
LWPOLYLINE
5
348
100
AcDbEntity
8
0
100
AcDbPolyline
90
4
70
1
43
0.0
10
522.5
20
1605
10
522.5
20
1595
42
-0.99999999999999989
10
517.5
20
1595
10
517.5
20
1605
42
-0.99999999999999989
0
LWPOLYLINE
5
349
100
AcDbEntity
8
0
100
AcDbPolyline
90
4
70
1
43
0.0
10
662.5
20
1545
10
662.5
20
1535
42
-0.99999999999999989
10
657.5
20
1535
10
657.5
20
1545
42
-0.99999999999999989
0
LWPOLYLINE
5
350
100
AcDbEntity
8
0
100
AcDbPolyline
90
4
70
1
43
0.0
10
522.5
20
1445
10
522.5
20
1435
42
-0.99999999999999989
10
517.5
20
1435
10
517.5
20
1445
42
-0.99999999999999989
0
LWPOLYLINE
5
351
100
AcDbEntity
8
0
100
AcDbPolyline
90
4
70
1
43
0.0
10
562.5
20
1125
10
562.5
20
1115
42
-0.99999999999999989
10
557.5
20
1115
10
557.5
20
1125
42
-0.99999999999999989
0
LWPOLYLINE
5
352
100
AcDbEntity
8
0
100
AcDbPolyline
90
4
70
1
43
0.0
10
102.5
20
1265
10
102.5
20
1255
42
-0.99999999999999989
10
97.5
20
1255
10
97.5
20
1265
42
-0.99999999999999989
0
LWPOLYLINE
5
353
100
AcDbEntity
8
0
100
AcDbPolyline
90
4
70
1
43
0.0
10
602.5
20
1605
10
602.5
20
1595
42
-0.99999999999999989
10
597.5
20
1595
10
597.5
20
1605
42
-0.99999999999999989
0
LWPOLYLINE
5
354
100
AcDbEntity
8
0
100
AcDbPolyline
90
4
70
1
43
0.0
10
562.5
20
1165
10
562.5
20
1155
42
-0.99999999999999989
10
557.5
20
1155
10
557.5
20
1165
42
-0.99999999999999989
0
LWPOLYLINE
5
355
100
AcDbEntity
8
0
100
AcDbPolyline
90
4
70
1
43
0.0
10
442.5
20
1645
10
442.5
20
1635
42
-0.99999999999999989
10
437.5
20
1635
10
437.5
20
1645
42
-0.99999999999999989
0
LWPOLYLINE
5
356
100
AcDbEntity
8
0
100
AcDbPolyline
90
4
70
1
43
0.0
10
742.5
20
1305
10
742.5
20
1295
42
-0.99999999999999989
10
737.5
20
1295
10
737.5
20
1305
42
-0.99999999999999989
0
LWPOLYLINE
5
357
100
AcDbEntity
8
0
100
AcDbPolyline
90
4
70
1
43
0.0
10
482.5
20
1165
10
482.5
20
1155
42
-0.99999999999999989
10
477.5
20
1155
10
477.5
20
1165
42
-0.99999999999999989
0
LWPOLYLINE
5
358
100
AcDbEntity
8
0
100
AcDbPolyline
90
4
70
1
43
0.0
10
682.5
20
1605
10
682.5
20
1595
42
-0.99999999999999989
10
677.5
20
1595
10
677.5
20
1605
42
-0.99999999999999989
0
LWPOLYLINE
5
359
100
AcDbEntity
8
0
100
AcDbPolyline
90
4
70
1
43
0.0
10
442.5
20
1325
10
442.5
20
1315
42
-0.99999999999999989
10
437.5
20
1315
10
437.5
20
1325
42
-0.99999999999999989
0
LWPOLYLINE
5
360
100
AcDbEntity
8
0
100
AcDbPolyline
90
4
70
1
43
0.0
10
702.5
20
1265
10
702.5
20
1255
42
-0.99999999999999989
10
697.5
20
1255
10
697.5
20
1265
42
-0.99999999999999989
0
LWPOLYLINE
5
361
100
AcDbEntity
8
0
100
AcDbPolyline
90
4
70
1
43
0.0
10
442.5
20
1165
10
442.5
20
1155
42
-0.99999999999999989
10
437.5
20
1155
10
437.5
20
1165
42
-0.99999999999999989
0
LWPOLYLINE
5
362
100
AcDbEntity
8
0
100
AcDbPolyline
90
4
70
1
43
0.0
10
582.5
20
1265
10
582.5
20
1255
42
-0.99999999999999989
10
577.5
20
1255
10
577.5
20
1265
42
-0.99999999999999989
0
LWPOLYLINE
5
363
100
AcDbEntity
8
0
100
AcDbPolyline
90
4
70
1
43
0.0
10
462.5
20
1425
10
462.5
20
1415
42
-0.99999999999999989
10
457.5
20
1415
10
457.5
20
1425
42
-0.99999999999999989
0
LWPOLYLINE
5
364
100
AcDbEntity
8
0
100
AcDbPolyline
90
4
70
1
43
0.0
10
522.5
20
1125
10
522.5
20
1115
42
-0.99999999999999989
10
517.5
20
1115
10
517.5
20
1125
42
-0.99999999999999989
0
LWPOLYLINE
5
365
100
AcDbEntity
8
0
100
AcDbPolyline
90
4
70
1
43
0.0
10
582.5
20
1225
10
582.5
20
1215
42
-0.99999999999999989
10
577.5
20
1215
10
577.5
20
1225
42
-0.99999999999999989
0
LWPOLYLINE
5
366
100
AcDbEntity
8
0
100
AcDbPolyline
90
4
70
1
43
0.0
10
662.5
20
1305
10
662.5
20
1295
42
-0.99999999999999989
10
657.5
20
1295
10
657.5
20
1305
42
-0.99999999999999989
0
LWPOLYLINE
5
367
100
AcDbEntity
8
0
100
AcDbPolyline
90
4
70
1
43
0.0
10
502.5
20
1625
10
502.5
20
1615
42
-0.99999999999999989
10
497.5
20
1615
10
497.5
20
1625
42
-0.99999999999999989
0
LWPOLYLINE
5
368
100
AcDbEntity
8
0
100
AcDbPolyline
90
4
70
1
43
0.0
10
342.5
20
1145
10
342.5
20
1135
42
-0.99999999999999989
10
337.5
20
1135
10
337.5
20
1145
42
-0.99999999999999989
0
LWPOLYLINE
5
369
100
AcDbEntity
8
0
100
AcDbPolyline
90
4
70
1
43
0.0
10
362.5
20
1605
10
362.5
20
1595
42
-0.99999999999999989
10
357.5
20
1595
10
357.5
20
1605
42
-0.99999999999999989
0
LWPOLYLINE
5
370
100
AcDbEntity
8
0
100
AcDbPolyline
90
4
70
1
43
0.0
10
702.5
20
1305
10
702.5
20
1295
42
-0.99999999999999989
10
697.5
20
1295
10
697.5
20
1305
42
-0.99999999999999989
0
LWPOLYLINE
5
371
100
AcDbEntity
8
0
100
AcDbPolyline
90
4
70
1
43
0.0
10
162.5
20
1245
10
162.5
20
1235
42
-0.99999999999999989
10
157.5
20
1235
10
157.5
20
1245
42
-0.99999999999999989
0
LWPOLYLINE
5
372
100
AcDbEntity
8
0
100
AcDbPolyline
90
4
70
1
43
0.0
10
502.5
20
1305
10
502.5
20
1295
42
-0.99999999999999989
10
497.5
20
1295
10
497.5
20
1305
42
-0.99999999999999989
0
LWPOLYLINE
5
373
100
AcDbEntity
8
0
100
AcDbPolyline
90
4
70
1
43
0.0
10
662.5
20
1265
10
662.5
20
1255
42
-0.99999999999999989
10
657.5
20
1255
10
657.5
20
1265
42
-0.99999999999999989
0
LWPOLYLINE
5
374
100
AcDbEntity
8
0
100
AcDbPolyline
90
4
70
1
43
0.0
10
22.5
20
1585
10
22.5
20
1575
42
-0.99999999999999989
10
17.5
20
1575
10
17.5
20
1585
42
-0.99999999999999989
0
LWPOLYLINE
5
375
100
AcDbEntity
8
0
100
AcDbPolyline
90
4
70
1
43
0.0
10
402.5
20
1565
10
402.5
20
1555
42
-0.99999999999999989
10
397.5
20
1555
10
397.5
20
1565
42
-0.99999999999999989
0
LWPOLYLINE
5
376
100
AcDbEntity
8
0
100
AcDbPolyline
90
4
70
1
43
0.0
10
682.5
20
1285
10
682.5
20
1275
42
-0.99999999999999989
10
677.5
20
1275
10
677.5
20
1285
42
-0.99999999999999989
0
LWPOLYLINE
5
377
100
AcDbEntity
8
0
100
AcDbPolyline
90
4
70
1
43
0.0
10
622.5
20
1265
10
622.5
20
1255
42
-0.99999999999999989
10
617.5
20
1255
10
617.5
20
1265
42
-0.99999999999999989
0
LWPOLYLINE
5
378
100
AcDbEntity
8
0
100
AcDbPolyline
90
4
70
1
43
0.0
10
482.5
20
1605
10
482.5
20
1595
42
-0.99999999999999989
10
477.5
20
1595
10
477.5
20
1605
42
-0.99999999999999989
0
LWPOLYLINE
5
379
100
AcDbEntity
8
0
100
AcDbPolyline
90
4
70
1
43
0.0
10
322.5
20
1565
10
322.5
20
1555
42
-0.99999999999999989
10
317.5
20
1555
10
317.5
20
1565
42
-0.99999999999999989
0
LWPOLYLINE
5
380
100
AcDbEntity
8
0
100
AcDbPolyline
90
4
70
1
43
0.0
10
402.5
20
1165
10
402.5
20
1155
42
-0.99999999999999989
10
397.5
20
1155
10
397.5
20
1165
42
-0.99999999999999989
0
LWPOLYLINE
5
381
100
AcDbEntity
8
0
100
AcDbPolyline
90
4
70
1
43
0.0
10
422.5
20
1625
10
422.5
20
1615
42
-0.99999999999999989
10
417.5
20
1615
10
417.5
20
1625
42
-0.99999999999999989
0
LWPOLYLINE
5
382
100
AcDbEntity
8
0
100
AcDbPolyline
90
4
70
1
43
0.0
10
662.5
20
1225
10
662.5
20
1215
42
-0.99999999999999989
10
657.5
20
1215
10
657.5
20
1225
42
-0.99999999999999989
0
LWPOLYLINE
5
383
100
AcDbEntity
8
0
100
AcDbPolyline
90
4
70
1
43
0.0
10
582.5
20
1305
10
582.5
20
1295
42
-0.99999999999999989
10
577.5
20
1295
10
577.5
20
1305
42
-0.99999999999999989
0
LWPOLYLINE
5
384
100
AcDbEntity
8
0
100
AcDbPolyline
90
4
70
1
43
0.0
10
682.5
20
1325
10
682.5
20
1315
42
-0.99999999999999989
10
677.5
20
1315
10
677.5
20
1325
42
-0.99999999999999989
0
LWPOLYLINE
5
385
100
AcDbEntity
8
0
100
AcDbPolyline
90
4
70
1
43
0.0
10
722.5
20
1245
10
722.5
20
1235
42
-0.99999999999999989
10
717.5
20
1235
10
717.5
20
1245
42
-0.99999999999999989
0
LWPOLYLINE
5
386
100
AcDbEntity
8
0
100
AcDbPolyline
90
4
70
1
43
0.0
10
682.5
20
1245
10
682.5
20
1235
42
-0.99999999999999989
10
677.5
20
1235
10
677.5
20
1245
42
-0.99999999999999989
0
LWPOLYLINE
5
387
100
AcDbEntity
8
0
100
AcDbPolyline
90
4
70
1
43
0.0
10
562.5
20
1605
10
562.5
20
1595
42
-0.99999999999999989
10
557.5
20
1595
10
557.5
20
1605
42
-0.99999999999999989
0
LWPOLYLINE
5
388
100
AcDbEntity
8
0
100
AcDbPolyline
90
4
70
1
43
0.0
10
702.5
20
1345
10
702.5
20
1335
42
-0.99999999999999989
10
697.5
20
1335
10
697.5
20
1345
42
-0.99999999999999989
0
LWPOLYLINE
5
389
100
AcDbEntity
8
0
100
AcDbPolyline
90
4
70
1
43
0.0
10
702.5
20
1385
10
702.5
20
1375
42
-0.99999999999999989
10
697.5
20
1375
10
697.5
20
1385
42
-0.99999999999999989
0
LWPOLYLINE
5
390
100
AcDbEntity
8
0
100
AcDbPolyline
90
4
70
1
43
0.0
10
622.5
20
1225
10
622.5
20
1215
42
-0.99999999999999989
10
617.5
20
1215
10
617.5
20
1225
42
-0.99999999999999989
0
LWPOLYLINE
5
391
100
AcDbEntity
8
0
100
AcDbPolyline
90
4
70
1
43
0.0
10
422.5
20
1585
10
422.5
20
1575
42
-0.99999999999999989
10
417.5
20
1575
10
417.5
20
1585
42
-0.99999999999999989
0
LWPOLYLINE
5
392
100
AcDbEntity
8
0
100
AcDbPolyline
90
4
70
1
43
0.0
10
722.5
20
1285
10
722.5
20
1275
42
-0.99999999999999989
10
717.5
20
1275
10
717.5
20
1285
42
-0.99999999999999989
0
LWPOLYLINE
5
393
100
AcDbEntity
8
0
100
AcDbPolyline
90
4
70
1
43
0.0
10
602.5
20
1285
10
602.5
20
1275
42
-0.99999999999999989
10
597.5
20
1275
10
597.5
20
1285
42
-0.99999999999999989
0
LWPOLYLINE
5
394
100
AcDbEntity
8
0
100
AcDbPolyline
90
4
70
1
43
0.0
10
742.5
20
1225
10
742.5
20
1215
42
-0.99999999999999989
10
737.5
20
1215
10
737.5
20
1225
42
-0.99999999999999989
0
LWPOLYLINE
5
395
100
AcDbEntity
8
0
100
AcDbPolyline
90
4
70
1
43
0.0
10
562.5
20
1325
10
562.5
20
1315
42
-0.99999999999999989
10
557.5
20
1315
10
557.5
20
1325
42
-0.99999999999999989
0
LWPOLYLINE
5
396
100
AcDbEntity
8
0
100
AcDbPolyline
90
4
70
1
43
0.0
10
442.5
20
1565
10
442.5
20
1555
42
-0.99999999999999989
10
437.5
20
1555
10
437.5
20
1565
42
-0.99999999999999989
0
LWPOLYLINE
5
397
100
AcDbEntity
8
0
100
AcDbPolyline
90
4
70
1
43
0.0
10
542.5
20
1625
10
542.5
20
1615
42
-0.99999999999999989
10
537.5
20
1615
10
537.5
20
1625
42
-0.99999999999999989
0
LWPOLYLINE
5
398
100
AcDbEntity
8
0
100
AcDbPolyline
90
4
70
1
43
0.0
10
542.5
20
1585
10
542.5
20
1575
42
-0.99999999999999989
10
537.5
20
1575
10
537.5
20
1585
42
-0.99999999999999989
0
LWPOLYLINE
5
399
100
AcDbEntity
8
0
100
AcDbPolyline
90
4
70
1
43
0.0
10
562.5
20
1365
10
562.5
20
1355
42
-0.99999999999999989
10
557.5
20
1355
10
557.5
20
1365
42
-0.99999999999999989
0
LWPOLYLINE
5
400
100
AcDbEntity
8
0
100
AcDbPolyline
90
4
70
1
43
0.0
10
602.5
20
1645
10
602.5
20
1635
42
-0.99999999999999989
10
597.5
20
1635
10
597.5
20
1645
42
-0.99999999999999989
0
LWPOLYLINE
5
401
100
AcDbEntity
8
0
100
AcDbPolyline
90
4
70
1
43
0.0
10
602.5
20
1245
10
602.5
20
1235
42
-0.99999999999999989
10
597.5
20
1235
10
597.5
20
1245
42
-0.99999999999999989
0
LWPOLYLINE
5
402
100
AcDbEntity
8
0
100
AcDbPolyline
90
4
70
1
43
0.0
10
462.5
20
1585
10
462.5
20
1575
42
-0.99999999999999989
10
457.5
20
1575
10
457.5
20
1585
42
-0.99999999999999989
0
LWPOLYLINE
5
403
100
AcDbEntity
8
0
100
AcDbPolyline
90
4
70
1
43
0.0
10
442.5
20
1605
10
442.5
20
1595
42
-0.99999999999999989
10
437.5
20
1595
10
437.5
20
1605
42
-0.99999999999999989
0
LWPOLYLINE
5
404
100
AcDbEntity
8
0
100
AcDbPolyline
90
4
70
1
43
0.0
10
482.5
20
1445
10
482.5
20
1435
42
-0.99999999999999989
10
477.5
20
1435
10
477.5
20
1445
42
-0.99999999999999989
0
LWPOLYLINE
5
405
100
AcDbEntity
8
0
100
AcDbPolyline
90
4
70
1
43
0.0
10
482.5
20
1405
10
482.5
20
1395
42
-0.99999999999999989
10
477.5
20
1395
10
477.5
20
1405
42
-0.99999999999999989
0
LWPOLYLINE
5
406
100
AcDbEntity
8
0
100
AcDbPolyline
90
4
70
1
43
0.0
10
562.5
20
1405
10
562.5
20
1395
42
-0.99999999999999989
10
557.5
20
1395
10
557.5
20
1405
42
-0.99999999999999989
0
LWPOLYLINE
5
407
100
AcDbEntity
8
0
100
AcDbPolyline
90
4
70
1
43
0.0
10
642.5
20
1245
10
642.5
20
1235
42
-0.99999999999999989
10
637.5
20
1235
10
637.5
20
1245
42
-0.99999999999999989
0
LWPOLYLINE
5
408
100
AcDbEntity
8
0
100
AcDbPolyline
90
4
70
1
43
0.0
10
322.5
20
1285
10
322.5
20
1275
42
-0.99999999999999989
10
317.5
20
1275
10
317.5
20
1285
42
-0.99999999999999989
0
LWPOLYLINE
5
409
100
AcDbEntity
8
0
100
AcDbPolyline
90
4
70
1
43
0.0
10
362.5
20
1565
10
362.5
20
1555
42
-0.99999999999999989
10
357.5
20
1555
10
357.5
20
1565
42
-0.99999999999999989
0
LWPOLYLINE
5
410
100
AcDbEntity
8
0
100
AcDbPolyline
90
4
70
1
43
0.0
10
502.5
20
1585
10
502.5
20
1575
42
-0.99999999999999989
10
497.5
20
1575
10
497.5
20
1585
42
-0.99999999999999989
0
LWPOLYLINE
5
411
100
AcDbEntity
8
0
100
AcDbPolyline
90
4
70
1
43
0.0
10
662.5
20
1425
10
662.5
20
1415
42
-0.99999999999999989
10
657.5
20
1415
10
657.5
20
1425
42
-0.99999999999999989
0
LWPOLYLINE
5
412
100
AcDbEntity
8
0
100
AcDbPolyline
90
4
70
1
43
0.0
10
102.5
20
1225
10
102.5
20
1215
42
-0.99999999999999989
10
97.5
20
1215
10
97.5
20
1225
42
-0.99999999999999989
0
LWPOLYLINE
5
413
100
AcDbEntity
8
0
100
AcDbPolyline
90
4
70
1
43
0.0
10
702.5
20
1225
10
702.5
20
1215
42
-0.99999999999999989
10
697.5
20
1215
10
697.5
20
1225
42
-0.99999999999999989
0
LWPOLYLINE
5
414
100
AcDbEntity
8
0
100
AcDbPolyline
90
4
70
1
43
0.0
10
342.5
20
1345
10
342.5
20
1335
42
-0.99999999999999989
10
337.5
20
1335
10
337.5
20
1345
42
-0.99999999999999989
0
LWPOLYLINE
5
415
100
AcDbEntity
8
0
100
AcDbPolyline
90
4
70
1
43
0.0
10
402.5
20
1605
10
402.5
20
1595
42
-0.99999999999999989
10
397.5
20
1595
10
397.5
20
1605
42
-0.99999999999999989
0
LWPOLYLINE
5
416
100
AcDbEntity
8
0
100
AcDbPolyline
90
4
70
1
43
0.0
10
622.5
20
1465
10
622.5
20
1455
42
-0.99999999999999989
10
617.5
20
1455
10
617.5
20
1465
42
-0.99999999999999989
0
LWPOLYLINE
5
417
100
AcDbEntity
8
0
100
AcDbPolyline
90
4
70
1
43
0.0
10
742.5
20
1265
10
742.5
20
1255
42
-0.99999999999999989
10
737.5
20
1255
10
737.5
20
1265
42
-0.99999999999999989
0
LWPOLYLINE
5
418
100
AcDbEntity
8
0
100
AcDbPolyline
90
4
70
1
43
0.0
10
382.5
20
1345
10
382.5
20
1335
42
-0.99999999999999989
10
377.5
20
1335
10
377.5
20
1345
42
-0.99999999999999989
0
LWPOLYLINE
5
419
100
AcDbEntity
8
0
100
AcDbPolyline
90
4
70
1
43
0.0
10
402.5
20
1645
10
402.5
20
1635
42
-0.99999999999999989
10
397.5
20
1635
10
397.5
20
1645
42
-0.99999999999999989
0
LWPOLYLINE
5
420
100
AcDbEntity
8
0
100
AcDbPolyline
90
4
70
1
43
0.0
10
582.5
20
1465
10
582.5
20
1455
42
-0.99999999999999989
10
577.5
20
1455
10
577.5
20
1465
42
-0.99999999999999989
0
LWPOLYLINE
5
421
100
AcDbEntity
8
0
100
AcDbPolyline
90
4
70
1
43
0.0
10
522.5
20
1365
10
522.5
20
1355
42
-0.99999999999999989
10
517.5
20
1355
10
517.5
20
1365
42
-0.99999999999999989
0
LWPOLYLINE
5
422
100
AcDbEntity
8
0
100
AcDbPolyline
90
4
70
1
43
0.0
10
642.5
20
1445
10
642.5
20
1435
42
-0.99999999999999989
10
637.5
20
1435
10
637.5
20
1445
42
-0.99999999999999989
0
LWPOLYLINE
5
423
100
AcDbEntity
8
0
100
AcDbPolyline
90
4
70
1
43
0.0
10
382.5
20
1585
10
382.5
20
1575
42
-0.99999999999999989
10
377.5
20
1575
10
377.5
20
1585
42
-0.99999999999999989
0
LWPOLYLINE
5
424
100
AcDbEntity
8
0
100
AcDbPolyline
90
4
70
1
43
0.0
10
382.5
20
1385
10
382.5
20
1375
42
-0.99999999999999989
10
377.5
20
1375
10
377.5
20
1385
42
-0.99999999999999989
0
LWPOLYLINE
5
425
100
AcDbEntity
8
0
100
AcDbPolyline
90
4
70
1
43
0.0
10
722.5
20
1165
10
722.5
20
1155
42
-0.99999999999999989
10
717.5
20
1155
10
717.5
20
1165
42
-0.99999999999999989
0
LWPOLYLINE
5
426
100
AcDbEntity
8
0
100
AcDbPolyline
90
4
70
1
43
0.0
10
642.5
20
1565
10
642.5
20
1555
42
-0.99999999999999989
10
637.5
20
1555
10
637.5
20
1565
42
-0.99999999999999989
0
LWPOLYLINE
5
427
100
AcDbEntity
8
0
100
AcDbPolyline
90
4
70
1
43
0.0
10
122.5
20
1485
10
122.5
20
1475
42
-0.99999999999999989
10
117.5
20
1475
10
117.5
20
1485
42
-0.99999999999999989
0
LWPOLYLINE
5
428
100
AcDbEntity
8
0
100
AcDbPolyline
90
4
70
1
43
0.0
10
142.5
20
1225
10
142.5
20
1215
42
-0.99999999999999989
10
137.5
20
1215
10
137.5
20
1225
42
-0.99999999999999989
0
LWPOLYLINE
5
429
100
AcDbEntity
8
0
100
AcDbPolyline
90
4
70
1
43
0.0
10
462.5
20
1385
10
462.5
20
1375
42
-0.99999999999999989
10
457.5
20
1375
10
457.5
20
1385
42
-0.99999999999999989
0
LWPOLYLINE
5
430
100
AcDbEntity
8
0
100
AcDbPolyline
90
4
70
1
43
0.0
10
462.5
20
1225
10
462.5
20
1215
42
-0.99999999999999989
10
457.5
20
1215
10
457.5
20
1225
42
-0.99999999999999989
0
LWPOLYLINE
5
431
100
AcDbEntity
8
0
100
AcDbPolyline
90
4
70
1
43
0.0
10
362.5
20
1365
10
362.5
20
1355
42
-0.99999999999999989
10
357.5
20
1355
10
357.5
20
1365
42
-0.99999999999999989
0
LWPOLYLINE
5
432
100
AcDbEntity
8
0
100
AcDbPolyline
90
4
70
1
43
0.0
10
622.5
20
1385
10
622.5
20
1375
42
-0.99999999999999989
10
617.5
20
1375
10
617.5
20
1385
42
-0.99999999999999989
0
LWPOLYLINE
5
433
100
AcDbEntity
8
0
100
AcDbPolyline
90
4
70
1
43
0.0
10
722.5
20
1445
10
722.5
20
1435
42
-0.99999999999999989
10
717.5
20
1435
10
717.5
20
1445
42
-0.99999999999999989
0
LWPOLYLINE
5
434
100
AcDbEntity
8
0
100
AcDbPolyline
90
4
70
1
43
0.0
10
602.5
20
1485
10
602.5
20
1475
42
-0.99999999999999989
10
597.5
20
1475
10
597.5
20
1485
42
-0.99999999999999989
0
LWPOLYLINE
5
435
100
AcDbEntity
8
0
100
AcDbPolyline
90
4
70
1
43
0.0
10
322.5
20
1645
10
322.5
20
1635
42
-0.99999999999999989
10
317.5
20
1635
10
317.5
20
1645
42
-0.99999999999999989
0
LWPOLYLINE
5
436
100
AcDbEntity
8
0
100
AcDbPolyline
90
4
70
1
43
0.0
10
402.5
20
1405
10
402.5
20
1395
42
-0.99999999999999989
10
397.5
20
1395
10
397.5
20
1405
42
-0.99999999999999989
0
LWPOLYLINE
5
437
100
AcDbEntity
8
0
100
AcDbPolyline
90
4
70
1
43
0.0
10
502.5
20
1225
10
502.5
20
1215
42
-0.99999999999999989
10
497.5
20
1215
10
497.5
20
1225
42
-0.99999999999999989
0
LWPOLYLINE
5
438
100
AcDbEntity
8
0
100
AcDbPolyline
90
4
70
1
43
0.0
10
722.5
20
1125
10
722.5
20
1115
42
-0.99999999999999989
10
717.5
20
1115
10
717.5
20
1125
42
-0.99999999999999989
0
LWPOLYLINE
5
439
100
AcDbEntity
8
0
100
AcDbPolyline
90
4
70
1
43
0.0
10
122.5
20
1525
10
122.5
20
1515
42
-0.99999999999999989
10
117.5
20
1515
10
117.5
20
1525
42
-0.99999999999999989
0
LWPOLYLINE
5
440
100
AcDbEntity
8
0
100
AcDbPolyline
90
4
70
1
43
0.0
10
622.5
20
1505
10
622.5
20
1495
42
-0.99999999999999989
10
617.5
20
1495
10
617.5
20
1505
42
-0.99999999999999989
0
LWPOLYLINE
5
441
100
AcDbEntity
8
0
100
AcDbPolyline
90
4
70
1
43
0.0
10
342.5
20
1585
10
342.5
20
1575
42
-0.99999999999999989
10
337.5
20
1575
10
337.5
20
1585
42
-0.99999999999999989
0
LWPOLYLINE
5
442
100
AcDbEntity
8
0
100
AcDbPolyline
90
4
70
1
43
0.0
10
342.5
20
1625
10
342.5
20
1615
42
-0.99999999999999989
10
337.5
20
1615
10
337.5
20
1625
42
-0.99999999999999989
0
LWPOLYLINE
5
443
100
AcDbEntity
8
0
100
AcDbPolyline
90
4
70
1
43
0.0
10
582.5
20
1145
10
582.5
20
1135
42
-0.99999999999999989
10
577.5
20
1135
10
577.5
20
1145
42
-0.99999999999999989
0
LWPOLYLINE
5
444
100
AcDbEntity
8
0
100
AcDbPolyline
90
4
70
1
43
0.0
10
122.5
20
1605
10
122.5
20
1595
42
-0.99999999999999989
10
117.5
20
1595
10
117.5
20
1605
42
-0.99999999999999989
0
LWPOLYLINE
5
445
100
AcDbEntity
8
0
100
AcDbPolyline
90
4
70
1
43
0.0
10
322.5
20
1605
10
322.5
20
1595
42
-0.99999999999999989
10
317.5
20
1595
10
317.5
20
1605
42
-0.99999999999999989
0
LWPOLYLINE
5
446
100
AcDbEntity
8
0
100
AcDbPolyline
90
4
70
1
43
0.0
10
682.5
20
1125
10
682.5
20
1115
42
-0.99999999999999989
10
677.5
20
1115
10
677.5
20
1125
42
-0.99999999999999989
0
LWPOLYLINE
5
447
100
AcDbEntity
8
0
100
AcDbPolyline
90
4
70
1
43
0.0
10
742.5
20
1465
10
742.5
20
1455
42
-0.99999999999999989
10
737.5
20
1455
10
737.5
20
1465
42
-0.99999999999999989
0
LWPOLYLINE
5
448
100
AcDbEntity
8
0
100
AcDbPolyline
90
4
70
1
43
0.0
10
142.5
20
1505
10
142.5
20
1495
42
-0.99999999999999989
10
137.5
20
1495
10
137.5
20
1505
42
-0.99999999999999989
0
LWPOLYLINE
5
449
100
AcDbEntity
8
0
100
AcDbPolyline
90
4
70
1
43
0.0
10
562.5
20
1205
10
562.5
20
1195
42
-0.99999999999999989
10
557.5
20
1195
10
557.5
20
1205
42
-0.99999999999999989
0
LWPOLYLINE
5
450
100
AcDbEntity
8
0
100
AcDbPolyline
90
4
70
1
43
0.0
10
82.5
20
1485
10
82.5
20
1475
42
-0.99999999999999989
10
77.5
20
1475
10
77.5
20
1485
42
-0.99999999999999989
0
LWPOLYLINE
5
451
100
AcDbEntity
8
0
100
AcDbPolyline
90
4
70
1
43
0.0
10
562.5
20
1645
10
562.5
20
1635
42
-0.99999999999999989
10
557.5
20
1635
10
557.5
20
1645
42
-0.99999999999999989
0
LWPOLYLINE
5
452
100
AcDbEntity
8
0
100
AcDbPolyline
90
4
70
1
43
0.0
10
362.5
20
1325
10
362.5
20
1315
42
-0.99999999999999989
10
357.5
20
1315
10
357.5
20
1325
42
-0.99999999999999989
0
LWPOLYLINE
5
453
100
AcDbEntity
8
0
100
AcDbPolyline
90
4
70
1
43
0.0
10
722.5
20
1525
10
722.5
20
1515
42
-0.99999999999999989
10
717.5
20
1515
10
717.5
20
1525
42
-0.99999999999999989
0
LWPOLYLINE
5
454
100
AcDbEntity
8
0
100
AcDbPolyline
90
4
70
1
43
0.0
10
582.5
20
1505
10
582.5
20
1495
42
-0.99999999999999989
10
577.5
20
1495
10
577.5
20
1505
42
-0.99999999999999989
0
LWPOLYLINE
5
455
100
AcDbEntity
8
0
100
AcDbPolyline
90
4
70
1
43
0.0
10
542.5
20
1385
10
542.5
20
1375
42
-0.99999999999999989
10
537.5
20
1375
10
537.5
20
1385
42
-0.99999999999999989
0
LWPOLYLINE
5
456
100
AcDbEntity
8
0
100
AcDbPolyline
90
4
70
1
43
0.0
10
582.5
20
1425
10
582.5
20
1415
42
-0.99999999999999989
10
577.5
20
1415
10
577.5
20
1425
42
-0.99999999999999989
0
LWPOLYLINE
5
457
100
AcDbEntity
8
0
100
AcDbPolyline
90
4
70
1
43
0.0
10
642.5
20
1285
10
642.5
20
1275
42
-0.99999999999999989
10
637.5
20
1275
10
637.5
20
1285
42
-0.99999999999999989
0
LWPOLYLINE
5
458
100
AcDbEntity
8
0
100
AcDbPolyline
90
4
70
1
43
0.0
10
462.5
20
1625
10
462.5
20
1615
42
-0.99999999999999989
10
457.5
20
1615
10
457.5
20
1625
42
-0.99999999999999989
0
LWPOLYLINE
5
459
100
AcDbEntity
8
0
100
AcDbPolyline
90
4
70
1
43
0.0
10
682.5
20
1485
10
682.5
20
1475
42
-0.99999999999999989
10
677.5
20
1475
10
677.5
20
1485
42
-0.99999999999999989
0
LWPOLYLINE
5
460
100
AcDbEntity
8
0
100
AcDbPolyline
90
4
70
1
43
0.0
10
642.5
20
1165
10
642.5
20
1155
42
-0.99999999999999989
10
637.5
20
1155
10
637.5
20
1165
42
-0.99999999999999989
0
LWPOLYLINE
5
461
100
AcDbEntity
8
0
100
AcDbPolyline
90
4
70
1
43
0.0
10
682.5
20
1165
10
682.5
20
1155
42
-0.99999999999999989
10
677.5
20
1155
10
677.5
20
1165
42
-0.99999999999999989
0
LWPOLYLINE
5
462
100
AcDbEntity
8
0
100
AcDbPolyline
90
4
70
1
43
0.0
10
622.5
20
1185
10
622.5
20
1175
42
-0.99999999999999989
10
617.5
20
1175
10
617.5
20
1185
42
-0.99999999999999989
0
LWPOLYLINE
5
463
100
AcDbEntity
8
0
100
AcDbPolyline
90
4
70
1
43
0.0
10
102.5
20
1545
10
102.5
20
1535
42
-0.99999999999999989
10
97.5
20
1535
10
97.5
20
1545
42
-0.99999999999999989
0
LWPOLYLINE
5
464
100
AcDbEntity
8
0
100
AcDbPolyline
90
4
70
1
43
0.0
10
602.5
20
1205
10
602.5
20
1195
42
-0.99999999999999989
10
597.5
20
1195
10
597.5
20
1205
42
-0.99999999999999989
0
LWPOLYLINE
5
465
100
AcDbEntity
8
0
100
AcDbPolyline
90
4
70
1
43
0.0
10
142.5
20
1545
10
142.5
20
1535
42
-0.99999999999999989
10
137.5
20
1535
10
137.5
20
1545
42
-0.99999999999999989
0
LWPOLYLINE
5
466
100
AcDbEntity
8
0
100
AcDbPolyline
90
4
70
1
43
0.0
10
482.5
20
1645
10
482.5
20
1635
42
-0.99999999999999989
10
477.5
20
1635
10
477.5
20
1645
42
-0.99999999999999989
0
LWPOLYLINE
5
467
100
AcDbEntity
8
0
100
AcDbPolyline
90
4
70
1
43
0.0
10
442.5
20
1285
10
442.5
20
1275
42
-0.99999999999999989
10
437.5
20
1275
10
437.5
20
1285
42
-0.99999999999999989
0
LWPOLYLINE
5
468
100
AcDbEntity
8
0
100
AcDbPolyline
90
4
70
1
43
0.0
10
622.5
20
1305
10
622.5
20
1295
42
-0.99999999999999989
10
617.5
20
1295
10
617.5
20
1305
42
-0.99999999999999989
0
LWPOLYLINE
5
469
100
AcDbEntity
8
0
100
AcDbPolyline
90
4
70
1
43
0.0
10
42.5
20
1525
10
42.5
20
1515
42
-0.99999999999999989
10
37.5
20
1515
10
37.5
20
1525
42
-0.99999999999999989
0
LWPOLYLINE
5
470
100
AcDbEntity
8
0
100
AcDbPolyline
90
4
70
1
43
0.0
10
382.5
20
1625
10
382.5
20
1615
42
-0.99999999999999989
10
377.5
20
1615
10
377.5
20
1625
42
-0.99999999999999989
0
LWPOLYLINE
5
471
100
AcDbEntity
8
0
100
AcDbPolyline
90
4
70
1
43
0.0
10
162.5
20
1285
10
162.5
20
1275
42
-0.99999999999999989
10
157.5
20
1275
10
157.5
20
1285
42
-0.99999999999999989
0
LWPOLYLINE
5
472
100
AcDbEntity
8
0
100
AcDbPolyline
90
4
70
1
43
0.0
10
542.5
20
1505
10
542.5
20
1495
42
-0.99999999999999989
10
537.5
20
1495
10
537.5
20
1505
42
-0.99999999999999989
0
LWPOLYLINE
5
473
100
AcDbEntity
8
0
100
AcDbPolyline
90
4
70
1
43
0.0
10
42.5
20
1285
10
42.5
20
1275
42
-0.99999999999999989
10
37.5
20
1275
10
37.5
20
1285
42
-0.99999999999999989
0
LWPOLYLINE
5
474
100
AcDbEntity
8
0
100
AcDbPolyline
90
4
70
1
43
0.0
10
402.5
20
1285
10
402.5
20
1275
42
-0.99999999999999989
10
397.5
20
1275
10
397.5
20
1285
42
-0.99999999999999989
0
LWPOLYLINE
5
475
100
AcDbEntity
8
0
100
AcDbPolyline
90
4
70
1
43
0.0
10
482.5
20
1525
10
482.5
20
1515
42
-0.99999999999999989
10
477.5
20
1515
10
477.5
20
1525
42
-0.99999999999999989
0
LWPOLYLINE
5
476
100
AcDbEntity
8
0
100
AcDbPolyline
90
4
70
1
43
0.0
10
122.5
20
1125
10
122.5
20
1115
42
-0.99999999999999989
10
117.5
20
1115
10
117.5
20
1125
42
-0.99999999999999989
0
LWPOLYLINE
5
477
100
AcDbEntity
8
0
100
AcDbPolyline
90
4
70
1
43
0.0
10
662.5
20
1585
10
662.5
20
1575
42
-0.99999999999999989
10
657.5
20
1575
10
657.5
20
1585
42
-0.99999999999999989
0
LWPOLYLINE
5
478
100
AcDbEntity
8
0
100
AcDbPolyline
90
4
70
1
43
0.0
10
142.5
20
1305
10
142.5
20
1295
42
-0.99999999999999989
10
137.5
20
1295
10
137.5
20
1305
42
-0.99999999999999989
0
LWPOLYLINE
5
479
100
AcDbEntity
8
0
100
AcDbPolyline
90
4
70
1
43
0.0
10
742.5
20
1625
10
742.5
20
1615
42
-0.99999999999999989
10
737.5
20
1615
10
737.5
20
1625
42
-0.99999999999999989
0
LWPOLYLINE
5
480
100
AcDbEntity
8
0
100
AcDbPolyline
90
4
70
1
43
0.0
10
102.5
20
1185
10
102.5
20
1175
42
-0.99999999999999989
10
97.5
20
1175
10
97.5
20
1185
42
-0.99999999999999989
0
LWPOLYLINE
5
481
100
AcDbEntity
8
0
100
AcDbPolyline
90
4
70
1
43
0.0
10
42.5
20
1205
10
42.5
20
1195
42
-0.99999999999999989
10
37.5
20
1195
10
37.5
20
1205
42
-0.99999999999999989
0
LWPOLYLINE
5
482
100
AcDbEntity
8
0
100
AcDbPolyline
90
4
70
1
43
0.0
10
502.5
20
1545
10
502.5
20
1535
42
-0.99999999999999989
10
497.5
20
1535
10
497.5
20
1545
42
-0.99999999999999989
0
LWPOLYLINE
5
483
100
AcDbEntity
8
0
100
AcDbPolyline
90
4
70
1
43
0.0
10
42.5
20
1245
10
42.5
20
1235
42
-0.99999999999999989
10
37.5
20
1235
10
37.5
20
1245
42
-0.99999999999999989
0
LWPOLYLINE
5
484
100
AcDbEntity
8
0
100
AcDbPolyline
90
4
70
1
43
0.0
10
622.5
20
1345
10
622.5
20
1335
42
-0.99999999999999989
10
617.5
20
1335
10
617.5
20
1345
42
-0.99999999999999989
0
LWPOLYLINE
5
485
100
AcDbEntity
8
0
100
AcDbPolyline
90
4
70
1
43
0.0
10
502.5
20
1505
10
502.5
20
1495
42
-0.99999999999999989
10
497.5
20
1495
10
497.5
20
1505
42
-0.99999999999999989
0
LWPOLYLINE
5
486
100
AcDbEntity
8
0
100
AcDbPolyline
90
4
70
1
43
0.0
10
722.5
20
1605
10
722.5
20
1595
42
-0.99999999999999989
10
717.5
20
1595
10
717.5
20
1605
42
-0.99999999999999989
0
LWPOLYLINE
5
487
100
AcDbEntity
8
0
100
AcDbPolyline
90
4
70
1
43
0.0
10
642.5
20
1645
10
642.5
20
1635
42
-0.99999999999999989
10
637.5
20
1635
10
637.5
20
1645
42
-0.99999999999999989
0
LWPOLYLINE
5
488
100
AcDbEntity
8
0
100
AcDbPolyline
90
4
70
1
43
0.0
10
162.5
20
1205
10
162.5
20
1195
42
-0.99999999999999989
10
157.5
20
1195
10
157.5
20
1205
42
-0.99999999999999989
0
LWPOLYLINE
5
489
100
AcDbEntity
8
0
100
AcDbPolyline
90
4
70
1
43
0.0
10
82.5
20
1245
10
82.5
20
1235
42
-0.99999999999999989
10
77.5
20
1235
10
77.5
20
1245
42
-0.99999999999999989
0
LWPOLYLINE
5
490
100
AcDbEntity
8
0
100
AcDbPolyline
90
4
70
1
43
0.0
10
622.5
20
1625
10
622.5
20
1615
42
-0.99999999999999989
10
617.5
20
1615
10
617.5
20
1625
42
-0.99999999999999989
0
LWPOLYLINE
5
491
100
AcDbEntity
8
0
100
AcDbPolyline
90
4
70
1
43
0.0
10
122.5
20
1245
10
122.5
20
1235
42
-0.99999999999999989
10
117.5
20
1235
10
117.5
20
1245
42
-0.99999999999999989
0
LWPOLYLINE
5
492
100
AcDbEntity
8
0
100
AcDbPolyline
90
4
70
1
43
0.0
10
62.5
20
1265
10
62.5
20
1255
42
-0.99999999999999989
10
57.5
20
1255
10
57.5
20
1265
42
-0.99999999999999989
0
LWPOLYLINE
5
493
100
AcDbEntity
8
0
100
AcDbPolyline
90
4
70
1
43
0.0
10
522.5
20
1525
10
522.5
20
1515
42
-0.99999999999999989
10
517.5
20
1515
10
517.5
20
1525
42
-0.99999999999999989
0
LWPOLYLINE
5
494
100
AcDbEntity
8
0
100
AcDbPolyline
90
4
70
1
43
0.0
10
662.5
20
1625
10
662.5
20
1615
42
-0.99999999999999989
10
657.5
20
1615
10
657.5
20
1625
42
-0.99999999999999989
0
LWPOLYLINE
5
495
100
AcDbEntity
8
0
100
AcDbPolyline
90
4
70
1
43
0.0
10
82.5
20
1125
10
82.5
20
1115
42
-0.99999999999999989
10
77.5
20
1115
10
77.5
20
1125
42
-0.99999999999999989
0
LWPOLYLINE
5
496
100
AcDbEntity
8
0
100
AcDbPolyline
90
4
70
1
43
0.0
10
482.5
20
1485
10
482.5
20
1475
42
-0.99999999999999989
10
477.5
20
1475
10
477.5
20
1485
42
-0.99999999999999989
0
LWPOLYLINE
5
497
100
AcDbEntity
8
0
100
AcDbPolyline
90
4
70
1
43
0.0
10
562.5
20
1445
10
562.5
20
1435
42
-0.99999999999999989
10
557.5
20
1435
10
557.5
20
1445
42
-0.99999999999999989
0
LWPOLYLINE
5
498
100
AcDbEntity
8
0
100
AcDbPolyline
90
4
70
1
43
0.0
10
742.5
20
1545
10
742.5
20
1535
42
-0.99999999999999989
10
737.5
20
1535
10
737.5
20
1545
42
-0.99999999999999989
0
LWPOLYLINE
5
499
100
AcDbEntity
8
0
100
AcDbPolyline
90
4
70
1
43
0.0
10
522.5
20
1485
10
522.5
20
1475
42
-0.99999999999999989
10
517.5
20
1475
10
517.5
20
1485
42
-0.99999999999999989
0
LWPOLYLINE
5
500
100
AcDbEntity
8
0
100
AcDbPolyline
90
4
70
1
43
0.0
10
142.5
20
1185
10
142.5
20
1175
42
-0.99999999999999989
10
137.5
20
1175
10
137.5
20
1185
42
-0.99999999999999989
0
LWPOLYLINE
5
501
100
AcDbEntity
8
0
100
AcDbPolyline
90
4
70
1
43
0.0
10
22.5
20
1265
10
22.5
20
1255
42
-0.99999999999999989
10
17.5
20
1255
10
17.5
20
1265
42
-0.99999999999999989
0
LWPOLYLINE
5
502
100
AcDbEntity
8
0
100
AcDbPolyline
90
4
70
1
43
0.0
10
22.5
20
1305
10
22.5
20
1295
42
-0.99999999999999989
10
17.5
20
1295
10
17.5
20
1305
42
-0.99999999999999989
0
LWPOLYLINE
5
503
100
AcDbEntity
8
0
100
AcDbPolyline
90
4
70
1
43
0.0
10
42.5
20
1165
10
42.5
20
1155
42
-0.99999999999999989
10
37.5
20
1155
10
37.5
20
1165
42
-0.99999999999999989
0
LWPOLYLINE
5
504
100
AcDbEntity
8
0
100
AcDbPolyline
90
4
70
1
43
0.0
10
482.5
20
1565
10
482.5
20
1555
42
-0.99999999999999989
10
477.5
20
1555
10
477.5
20
1565
42
-0.99999999999999989
0
LWPOLYLINE
5
505
100
AcDbEntity
8
0
100
AcDbPolyline
90
4
70
1
43
0.0
10
22.5
20
1145
10
22.5
20
1135
42
-0.99999999999999989
10
17.5
20
1135
10
17.5
20
1145
42
-0.99999999999999989
0
LWPOLYLINE
5
506
100
AcDbEntity
8
0
100
AcDbPolyline
90
4
70
1
43
0.0
10
462.5
20
1505
10
462.5
20
1495
42
-0.99999999999999989
10
457.5
20
1495
10
457.5
20
1505
42
-0.99999999999999989
0
LWPOLYLINE
5
507
100
AcDbEntity
8
0
100
AcDbPolyline
90
4
70
1
43
0.0
10
682.5
20
1565
10
682.5
20
1555
42
-0.99999999999999989
10
677.5
20
1555
10
677.5
20
1565
42
-0.99999999999999989
0
LWPOLYLINE
5
508
100
AcDbEntity
8
0
100
AcDbPolyline
90
4
70
1
43
0.0
10
62.5
20
1185
10
62.5
20
1175
42
-0.99999999999999989
10
57.5
20
1175
10
57.5
20
1185
42
-0.99999999999999989
0
LWPOLYLINE
5
509
100
AcDbEntity
8
0
100
AcDbPolyline
90
4
70
1
43
0.0
10
162.5
20
1125
10
162.5
20
1115
42
-0.99999999999999989
10
157.5
20
1115
10
157.5
20
1125
42
-0.99999999999999989
0
LWPOLYLINE
5
510
100
AcDbEntity
8
0
100
AcDbPolyline
90
4
70
1
43
0.0
10
122.5
20
1165
10
122.5
20
1155
42
-0.99999999999999989
10
117.5
20
1155
10
117.5
20
1165
42
-0.99999999999999989
0
LWPOLYLINE
5
511
100
AcDbEntity
8
0
100
AcDbPolyline
90
4
70
1
43
0.0
10
42.5
20
1125
10
42.5
20
1115
42
-0.99999999999999989
10
37.5
20
1115
10
37.5
20
1125
42
-0.99999999999999989
0
LWPOLYLINE
5
512
100
AcDbEntity
8
0
100
AcDbPolyline
90
4
70
1
43
0.0
10
562.5
20
1485
10
562.5
20
1475
42
-0.99999999999999989
10
557.5
20
1475
10
557.5
20
1485
42
-0.99999999999999989
0
LWPOLYLINE
5
513
100
AcDbEntity
8
0
100
AcDbPolyline
90
4
70
1
43
0.0
10
62.5
20
1145
10
62.5
20
1135
42
-0.99999999999999989
10
57.5
20
1135
10
57.5
20
1145
42
-0.99999999999999989
0
LWPOLYLINE
5
514
100
AcDbEntity
8
0
100
AcDbPolyline
90
4
70
1
43
0.0
10
462.5
20
1465
10
462.5
20
1455
42
-0.99999999999999989
10
457.5
20
1455
10
457.5
20
1465
42
-0.99999999999999989
0
LWPOLYLINE
5
515
100
AcDbEntity
8
0
100
AcDbPolyline
90
4
70
1
43
0.0
10
502.5
20
1425
10
502.5
20
1415
42
-0.99999999999999989
10
497.5
20
1415
10
497.5
20
1425
42
-0.99999999999999989
0
LWPOLYLINE
5
516
100
AcDbEntity
8
0
100
AcDbPolyline
90
4
70
1
43
0.0
10
602.5
20
1565
10
602.5
20
1555
42
-0.99999999999999989
10
597.5
20
1555
10
597.5
20
1565
42
-0.99999999999999989
0
LWPOLYLINE
5
517
100
AcDbEntity
8
0
100
AcDbPolyline
90
4
70
1
43
0.0
10
542.5
20
1545
10
542.5
20
1535
42
-0.99999999999999989
10
537.5
20
1535
10
537.5
20
1545
42
-0.99999999999999989
0
LWPOLYLINE
5
518
100
AcDbEntity
8
0
100
AcDbPolyline
90
4
70
1
43
0.0
10
542.5
20
1465
10
542.5
20
1455
42
-0.99999999999999989
10
537.5
20
1455
10
537.5
20
1465
42
-0.99999999999999989
0
LWPOLYLINE
5
519
100
AcDbEntity
8
0
100
AcDbPolyline
90
4
70
1
43
0.0
10
562.5
20
1525
10
562.5
20
1515
42
-0.99999999999999989
10
557.5
20
1515
10
557.5
20
1525
42
-0.99999999999999989
0
LWPOLYLINE
5
520
100
AcDbEntity
8
0
100
AcDbPolyline
90
4
70
1
43
0.0
10
142.5
20
1145
10
142.5
20
1135
42
-0.99999999999999989
10
137.5
20
1135
10
137.5
20
1145
42
-0.99999999999999989
0
LWPOLYLINE
5
521
100
AcDbEntity
8
0
100
AcDbPolyline
90
4
70
1
43
0.0
10
502.5
20
1465
10
502.5
20
1455
42
-0.99999999999999989
10
497.5
20
1455
10
497.5
20
1465
42
-0.99999999999999989
0
LWPOLYLINE
5
522
100
AcDbEntity
8
0
100
AcDbPolyline
90
4
70
1
43
0.0
10
102.5
20
1145
10
102.5
20
1135
42
-0.99999999999999989
10
97.5
20
1135
10
97.5
20
1145
42
-0.99999999999999989
0
LWPOLYLINE
5
523
100
AcDbEntity
8
0
100
AcDbPolyline
90
4
70
1
43
0.0
10
22.5
20
1185
10
22.5
20
1175
42
-0.99999999999999989
10
17.5
20
1175
10
17.5
20
1185
42
-0.99999999999999989
0
LWPOLYLINE
5
524
100
AcDbEntity
8
0
100
AcDbPolyline
90
4
70
1
43
0.0
10
122.5
20
1205
10
122.5
20
1195
42
-0.99999999999999989
10
117.5
20
1195
10
117.5
20
1205
42
-0.99999999999999989
0
LWPOLYLINE
5
525
100
AcDbEntity
8
0
100
AcDbPolyline
90
4
70
1
43
0.0
10
62.5
20
1305
10
62.5
20
1295
42
-0.99999999999999989
10
57.5
20
1295
10
57.5
20
1305
42
-0.99999999999999989
0
LWPOLYLINE
5
526
100
AcDbEntity
8
0
100
AcDbPolyline
90
4
70
1
43
0.0
10
482.5
20
1285
10
482.5
20
1275
42
-0.99999999999999989
10
477.5
20
1275
10
477.5
20
1285
42
-0.99999999999999989
0
LWPOLYLINE
5
527
100
AcDbEntity
8
0
100
AcDbPolyline
90
4
70
1
43
0.0
10
82.5
20
1165
10
82.5
20
1155
42
-0.99999999999999989
10
77.5
20
1155
10
77.5
20
1165
42
-0.99999999999999989
0
LWPOLYLINE
5
528
100
AcDbEntity
8
0
100
AcDbPolyline
90
4
70
1
43
0.0
10
122.5
20
1285
10
122.5
20
1275
42
-0.99999999999999989
10
117.5
20
1275
10
117.5
20
1285
42
-0.99999999999999989
0
LWPOLYLINE
5
529
100
AcDbEntity
8
0
100
AcDbPolyline
90
4
70
1
43
0.0
10
82.5
20
1205
10
82.5
20
1195
42
-0.99999999999999989
10
77.5
20
1195
10
77.5
20
1205
42
-0.99999999999999989
0
LWPOLYLINE
5
530
100
AcDbEntity
8
0
100
AcDbPolyline
90
4
70
1
43
0.0
10
462.5
20
1545
10
462.5
20
1535
42
-0.99999999999999989
10
457.5
20
1535
10
457.5
20
1545
42
-0.99999999999999989
0
LWPOLYLINE
5
531
100
AcDbEntity
8
0
100
AcDbPolyline
90
4
70
1
43
0.0
10
702.5
20
1625
10
702.5
20
1615
42
-0.99999999999999989
10
697.5
20
1615
10
697.5
20
1625
42
-0.99999999999999989
0
LWPOLYLINE
5
532
100
AcDbEntity
8
0
100
AcDbPolyline
90
4
70
1
43
0.0
10
162.5
20
1165
10
162.5
20
1155
42
-0.99999999999999989
10
157.5
20
1155
10
157.5
20
1165
42
-0.99999999999999989
0
LWPOLYLINE
5
533
100
AcDbEntity
8
0
100
AcDbPolyline
90
4
70
1
43
0.0
10
582.5
20
1585
10
582.5
20
1575
42
-0.99999999999999989
10
577.5
20
1575
10
577.5
20
1585
42
-0.99999999999999989
0
LWPOLYLINE
5
534
100
AcDbEntity
8
0
100
AcDbPolyline
90
4
70
1
43
0.0
10
702.5
20
1545
10
702.5
20
1535
42
-0.99999999999999989
10
697.5
20
1535
10
697.5
20
1545
42
-0.99999999999999989
0
LWPOLYLINE
5
535
100
AcDbEntity
8
0
100
AcDbPolyline
90
4
70
1
43
0.0
10
282.5
20
1605
10
282.5
20
1595
42
-0.99999999999999989
10
277.5
20
1595
10
277.5
20
1605
42
-0.99999999999999989
0
LWPOLYLINE
5
536
100
AcDbEntity
8
0
100
AcDbPolyline
90
4
70
1
43
0.0
10
182.5
20
1345
10
182.5
20
1335
42
-0.99999999999999989
10
177.5
20
1335
10
177.5
20
1345
42
-0.99999999999999989
0
LWPOLYLINE
5
537
100
AcDbEntity
8
0
100
AcDbPolyline
90
4
70
1
43
0.0
10
442.5
20
1445
10
442.5
20
1435
42
-0.99999999999999989
10
437.5
20
1435
10
437.5
20
1445
42
-0.99999999999999989
0
LWPOLYLINE
5
538
100
AcDbEntity
8
0
100
AcDbPolyline
90
4
70
1
43
0.0
10
202.5
20
1125
10
202.5
20
1115
42
-0.99999999999999989
10
197.5
20
1115
10
197.5
20
1125
42
-0.99999999999999989
0
LWPOLYLINE
5
539
100
AcDbEntity
8
0
100
AcDbPolyline
90
4
70
1
43
0.0
10
22.5
20
1345
10
22.5
20
1335
42
-0.99999999999999989
10
17.5
20
1335
10
17.5
20
1345
42
-0.99999999999999989
0
LWPOLYLINE
5
540
100
AcDbEntity
8
0
100
AcDbPolyline
90
4
70
1
43
0.0
10
222.5
20
1425
10
222.5
20
1415
42
-0.99999999999999989
10
217.5
20
1415
10
217.5
20
1425
42
-0.99999999999999989
0
LWPOLYLINE
5
541
100
AcDbEntity
8
0
100
AcDbPolyline
90
4
70
1
43
0.0
10
302.5
20
1425
10
302.5
20
1415
42
-0.99999999999999989
10
297.5
20
1415
10
297.5
20
1425
42
-0.99999999999999989
0
LWPOLYLINE
5
542
100
AcDbEntity
8
0
100
AcDbPolyline
90
4
70
1
43
0.0
10
302.5
20
1545
10
302.5
20
1535
42
-0.99999999999999989
10
297.5
20
1535
10
297.5
20
1545
42
-0.99999999999999989
0
LWPOLYLINE
5
543
100
AcDbEntity
8
0
100
AcDbPolyline
90
4
70
1
43
0.0
10
262.5
20
1545
10
262.5
20
1535
42
-0.99999999999999989
10
257.5
20
1535
10
257.5
20
1545
42
-0.99999999999999989
0
LWPOLYLINE
5
544
100
AcDbEntity
8
0
100
AcDbPolyline
90
4
70
1
43
0.0
10
222.5
20
1185
10
222.5
20
1175
42
-0.99999999999999989
10
217.5
20
1175
10
217.5
20
1185
42
-0.99999999999999989
0
LWPOLYLINE
5
545
100
AcDbEntity
8
0
100
AcDbPolyline
90
4
70
1
43
0.0
10
302.5
20
1585
10
302.5
20
1575
42
-0.99999999999999989
10
297.5
20
1575
10
297.5
20
1585
42
-0.99999999999999989
0
LWPOLYLINE
5
546
100
AcDbEntity
8
0
100
AcDbPolyline
90
4
70
1
43
0.0
10
142.5
20
1345
10
142.5
20
1335
42
-0.99999999999999989
10
137.5
20
1335
10
137.5
20
1345
42
-0.99999999999999989
0
LWPOLYLINE
5
547
100
AcDbEntity
8
0
100
AcDbPolyline
90
4
70
1
43
0.0
10
302.5
20
1625
10
302.5
20
1615
42
-0.99999999999999989
10
297.5
20
1615
10
297.5
20
1625
42
-0.99999999999999989
0
LWPOLYLINE
5
548
100
AcDbEntity
8
0
100
AcDbPolyline
90
4
70
1
43
0.0
10
282.5
20
1285
10
282.5
20
1275
42
-0.99999999999999989
10
277.5
20
1275
10
277.5
20
1285
42
-0.99999999999999989
0
LWPOLYLINE
5
549
100
AcDbEntity
8
0
100
AcDbPolyline
90
4
70
1
43
0.0
10
242.5
20
1365
10
242.5
20
1355
42
-0.99999999999999989
10
237.5
20
1355
10
237.5
20
1365
42
-0.99999999999999989
0
LWPOLYLINE
5
550
100
AcDbEntity
8
0
100
AcDbPolyline
90
4
70
1
43
0.0
10
62.5
20
1385
10
62.5
20
1375
42
-0.99999999999999989
10
57.5
20
1375
10
57.5
20
1385
42
-0.99999999999999989
0
LWPOLYLINE
5
551
100
AcDbEntity
8
0
100
AcDbPolyline
90
4
70
1
43
0.0
10
22.5
20
1385
10
22.5
20
1375
42
-0.99999999999999989
10
17.5
20
1375
10
17.5
20
1385
42
-0.99999999999999989
0
LWPOLYLINE
5
552
100
AcDbEntity
8
0
100
AcDbPolyline
90
4
70
1
43
0.0
10
122.5
20
1445
10
122.5
20
1435
42
-0.99999999999999989
10
117.5
20
1435
10
117.5
20
1445
42
-0.99999999999999989
0
LWPOLYLINE
5
553
100
AcDbEntity
8
0
100
AcDbPolyline
90
4
70
1
43
0.0
10
182.5
20
1425
10
182.5
20
1415
42
-0.99999999999999989
10
177.5
20
1415
10
177.5
20
1425
42
-0.99999999999999989
0
LWPOLYLINE
5
554
100
AcDbEntity
8
0
100
AcDbPolyline
90
4
70
1
43
0.0
10
42.5
20
1445
10
42.5
20
1435
42
-0.99999999999999989
10
37.5
20
1435
10
37.5
20
1445
42
-0.99999999999999989
0
LWPOLYLINE
5
555
100
AcDbEntity
8
0
100
AcDbPolyline
90
4
70
1
43
0.0
10
102.5
20
1385
10
102.5
20
1375
42
-0.99999999999999989
10
97.5
20
1375
10
97.5
20
1385
42
-0.99999999999999989
0
LWPOLYLINE
5
556
100
AcDbEntity
8
0
100
AcDbPolyline
90
4
70
1
43
0.0
10
262.5
20
1585
10
262.5
20
1575
42
-0.99999999999999989
10
257.5
20
1575
10
257.5
20
1585
42
-0.99999999999999989
0
LWPOLYLINE
5
557
100
AcDbEntity
8
0
100
AcDbPolyline
90
4
70
1
43
0.0
10
262.5
20
1505
10
262.5
20
1495
42
-0.99999999999999989
10
257.5
20
1495
10
257.5
20
1505
42
-0.99999999999999989
0
LWPOLYLINE
5
558
100
AcDbEntity
8
0
100
AcDbPolyline
90
4
70
1
43
0.0
10
222.5
20
1345
10
222.5
20
1335
42
-0.99999999999999989
10
217.5
20
1335
10
217.5
20
1345
42
-0.99999999999999989
0
LWPOLYLINE
5
559
100
AcDbEntity
8
0
100
AcDbPolyline
90
4
70
1
43
0.0
10
182.5
20
1505
10
182.5
20
1495
42
-0.99999999999999989
10
177.5
20
1495
10
177.5
20
1505
42
-0.99999999999999989
0
LWPOLYLINE
5
560
100
AcDbEntity
8
0
100
AcDbPolyline
90
4
70
1
43
0.0
10
262.5
20
1185
10
262.5
20
1175
42
-0.99999999999999989
10
257.5
20
1175
10
257.5
20
1185
42
-0.99999999999999989
0
LWPOLYLINE
5
561
100
AcDbEntity
8
0
100
AcDbPolyline
90
4
70
1
43
0.0
10
162.5
20
1445
10
162.5
20
1435
42
-0.99999999999999989
10
157.5
20
1435
10
157.5
20
1445
42
-0.99999999999999989
0
LWPOLYLINE
5
562
100
AcDbEntity
8
0
100
AcDbPolyline
90
4
70
1
43
0.0
10
222.5
20
1305
10
222.5
20
1295
42
-0.99999999999999989
10
217.5
20
1295
10
217.5
20
1305
42
-0.99999999999999989
0
LWPOLYLINE
5
563
100
AcDbEntity
8
0
100
AcDbPolyline
90
4
70
1
43
0.0
10
282.5
20
1645
10
282.5
20
1635
42
-0.99999999999999989
10
277.5
20
1635
10
277.5
20
1645
42
-0.99999999999999989
0
LWPOLYLINE
5
564
100
AcDbEntity
8
0
100
AcDbPolyline
90
4
70
1
43
0.0
10
202.5
20
1565
10
202.5
20
1555
42
-0.99999999999999989
10
197.5
20
1555
10
197.5
20
1565
42
-0.99999999999999989
0
LWPOLYLINE
5
565
100
AcDbEntity
8
0
100
AcDbPolyline
90
4
70
1
43
0.0
10
302.5
20
1345
10
302.5
20
1335
42
-0.99999999999999989
10
297.5
20
1335
10
297.5
20
1345
42
-0.99999999999999989
0
LWPOLYLINE
5
566
100
AcDbEntity
8
0
100
AcDbPolyline
90
4
70
1
43
0.0
10
222.5
20
1145
10
222.5
20
1135
42
-0.99999999999999989
10
217.5
20
1135
10
217.5
20
1145
42
-0.99999999999999989
0
LWPOLYLINE
5
567
100
AcDbEntity
8
0
100
AcDbPolyline
90
4
70
1
43
0.0
10
242.5
20
1605
10
242.5
20
1595
42
-0.99999999999999989
10
237.5
20
1595
10
237.5
20
1605
42
-0.99999999999999989
0
LWPOLYLINE
5
568
100
AcDbEntity
8
0
100
AcDbPolyline
90
4
70
1
43
0.0
10
202.5
20
1325
10
202.5
20
1315
42
-0.99999999999999989
10
197.5
20
1315
10
197.5
20
1325
42
-0.99999999999999989
0
LWPOLYLINE
5
569
100
AcDbEntity
8
0
100
AcDbPolyline
90
4
70
1
43
0.0
10
62.5
20
1425
10
62.5
20
1415
42
-0.99999999999999989
10
57.5
20
1415
10
57.5
20
1425
42
-0.99999999999999989
0
LWPOLYLINE
5
570
100
AcDbEntity
8
0
100
AcDbPolyline
90
4
70
1
43
0.0
10
282.5
20
1405
10
282.5
20
1395
42
-0.99999999999999989
10
277.5
20
1395
10
277.5
20
1405
42
-0.99999999999999989
0
LWPOLYLINE
5
571
100
AcDbEntity
8
0
100
AcDbPolyline
90
4
70
1
43
0.0
10
202.5
20
1525
10
202.5
20
1515
42
-0.99999999999999989
10
197.5
20
1515
10
197.5
20
1525
42
-0.99999999999999989
0
LWPOLYLINE
5
572
100
AcDbEntity
8
0
100
AcDbPolyline
90
4
70
1
43
0.0
10
242.5
20
1565
10
242.5
20
1555
42
-0.99999999999999989
10
237.5
20
1555
10
237.5
20
1565
42
-0.99999999999999989
0
LWPOLYLINE
5
573
100
AcDbEntity
8
0
100
AcDbPolyline
90
4
70
1
43
0.0
10
202.5
20
1405
10
202.5
20
1395
42
-0.99999999999999989
10
197.5
20
1395
10
197.5
20
1405
42
-0.99999999999999989
0
LWPOLYLINE
5
574
100
AcDbEntity
8
0
100
AcDbPolyline
90
4
70
1
43
0.0
10
102.5
20
1345
10
102.5
20
1335
42
-0.99999999999999989
10
97.5
20
1335
10
97.5
20
1345
42
-0.99999999999999989
0
LWPOLYLINE
5
575
100
AcDbEntity
8
0
100
AcDbPolyline
90
4
70
1
43
0.0
10
142.5
20
1425
10
142.5
20
1415
42
-0.99999999999999989
10
137.5
20
1415
10
137.5
20
1425
42
-0.99999999999999989
0
LWPOLYLINE
5
576
100
AcDbEntity
8
0
100
AcDbPolyline
90
4
70
1
43
0.0
10
242.5
20
1645
10
242.5
20
1635
42
-0.99999999999999989
10
237.5
20
1635
10
237.5
20
1645
42
-0.99999999999999989
0
LWPOLYLINE
5
577
100
AcDbEntity
8
0
100
AcDbPolyline
90
4
70
1
43
0.0
10
162.5
20
1405
10
162.5
20
1395
42
-0.99999999999999989
10
157.5
20
1395
10
157.5
20
1405
42
-0.99999999999999989
0
LWPOLYLINE
5
578
100
AcDbEntity
8
0
100
AcDbPolyline
90
4
70
1
43
0.0
10
82.5
20
1325
10
82.5
20
1315
42
-0.99999999999999989
10
77.5
20
1315
10
77.5
20
1325
42
-0.99999999999999989
0
LWPOLYLINE
5
579
100
AcDbEntity
8
0
100
AcDbPolyline
90
4
70
1
43
0.0
10
262.5
20
1625
10
262.5
20
1615
42
-0.99999999999999989
10
257.5
20
1615
10
257.5
20
1625
42
-0.99999999999999989
0
LWPOLYLINE
5
580
100
AcDbEntity
8
0
100
AcDbPolyline
90
4
70
1
43
0.0
10
202.5
20
1445
10
202.5
20
1435
42
-0.99999999999999989
10
197.5
20
1435
10
197.5
20
1445
42
-0.99999999999999989
0
LWPOLYLINE
5
581
100
AcDbEntity
8
0
100
AcDbPolyline
90
4
70
1
43
0.0
10
182.5
20
1585
10
182.5
20
1575
42
-0.99999999999999989
10
177.5
20
1575
10
177.5
20
1585
42
-0.99999999999999989
0
LWPOLYLINE
5
582
100
AcDbEntity
8
0
100
AcDbPolyline
90
4
70
1
43
0.0
10
142.5
20
1385
10
142.5
20
1375
42
-0.99999999999999989
10
137.5
20
1375
10
137.5
20
1385
42
-0.99999999999999989
0
LWPOLYLINE
5
583
100
AcDbEntity
8
0
100
AcDbPolyline
90
4
70
1
43
0.0
10
182.5
20
1185
10
182.5
20
1175
42
-0.99999999999999989
10
177.5
20
1175
10
177.5
20
1185
42
-0.99999999999999989
0
LWPOLYLINE
5
584
100
AcDbEntity
8
0
100
AcDbPolyline
90
4
70
1
43
0.0
10
242.5
20
1525
10
242.5
20
1515
42
-0.99999999999999989
10
237.5
20
1515
10
237.5
20
1525
42
-0.99999999999999989
0
LWPOLYLINE
5
585
100
AcDbEntity
8
0
100
AcDbPolyline
90
4
70
1
43
0.0
10
302.5
20
1225
10
302.5
20
1215
42
-0.99999999999999989
10
297.5
20
1215
10
297.5
20
1225
42
-0.99999999999999989
0
LWPOLYLINE
5
586
100
AcDbEntity
8
0
100
AcDbPolyline
90
4
70
1
43
0.0
10
202.5
20
1645
10
202.5
20
1635
42
-0.99999999999999989
10
197.5
20
1635
10
197.5
20
1645
42
-0.99999999999999989
0
LWPOLYLINE
5
587
100
AcDbEntity
8
0
100
AcDbPolyline
90
4
70
1
43
0.0
10
222.5
20
1545
10
222.5
20
1535
42
-0.99999999999999989
10
217.5
20
1535
10
217.5
20
1545
42
-0.99999999999999989
0
LWPOLYLINE
5
588
100
AcDbEntity
8
0
100
AcDbPolyline
90
4
70
1
43
0.0
10
262.5
20
1265
10
262.5
20
1255
42
-0.99999999999999989
10
257.5
20
1255
10
257.5
20
1265
42
-0.99999999999999989
0
LWPOLYLINE
5
589
100
AcDbEntity
8
0
100
AcDbPolyline
90
4
70
1
43
0.0
10
62.5
20
1345
10
62.5
20
1335
42
-0.99999999999999989
10
57.5
20
1335
10
57.5
20
1345
42
-0.99999999999999989
0
LWPOLYLINE
5
590
100
AcDbEntity
8
0
100
AcDbPolyline
90
4
70
1
43
0.0
10
22.5
20
1425
10
22.5
20
1415
42
-0.99999999999999989
10
17.5
20
1415
10
17.5
20
1425
42
-0.99999999999999989
0
LWPOLYLINE
5
591
100
AcDbEntity
8
0
100
AcDbPolyline
90
4
70
1
43
0.0
10
302.5
20
1305
10
302.5
20
1295
42
-0.99999999999999989
10
297.5
20
1295
10
297.5
20
1305
42
-0.99999999999999989
0
LWPOLYLINE
5
592
100
AcDbEntity
8
0
100
AcDbPolyline
90
4
70
1
43
0.0
10
62.5
20
1465
10
62.5
20
1455
42
-0.99999999999999989
10
57.5
20
1455
10
57.5
20
1465
42
-0.99999999999999989
0
LWPOLYLINE
5
593
100
AcDbEntity
8
0
100
AcDbPolyline
90
4
70
1
43
0.0
10
82.5
20
1445
10
82.5
20
1435
42
-0.99999999999999989
10
77.5
20
1435
10
77.5
20
1445
42
-0.99999999999999989
0
LWPOLYLINE
5
594
100
AcDbEntity
8
0
100
AcDbPolyline
90
4
70
1
43
0.0
10
282.5
20
1325
10
282.5
20
1315
42
-0.99999999999999989
10
277.5
20
1315
10
277.5
20
1325
42
-0.99999999999999989
0
LWPOLYLINE
5
595
100
AcDbEntity
8
0
100
AcDbPolyline
90
4
70
1
43
0.0
10
202.5
20
1485
10
202.5
20
1475
42
-0.99999999999999989
10
197.5
20
1475
10
197.5
20
1485
42
-0.99999999999999989
0
LWPOLYLINE
5
596
100
AcDbEntity
8
0
100
AcDbPolyline
90
4
70
1
43
0.0
10
102.5
20
1425
10
102.5
20
1415
42
-0.99999999999999989
10
97.5
20
1415
10
97.5
20
1425
42
-0.99999999999999989
0
LWPOLYLINE
5
597
100
AcDbEntity
8
0
100
AcDbPolyline
90
4
70
1
43
0.0
10
282.5
20
1165
10
282.5
20
1155
42
-0.99999999999999989
10
277.5
20
1155
10
277.5
20
1165
42
-0.99999999999999989
0
LWPOLYLINE
5
598
100
AcDbEntity
8
0
100
AcDbPolyline
90
4
70
1
43
0.0
10
82.5
20
1525
10
82.5
20
1515
42
-0.99999999999999989
10
77.5
20
1515
10
77.5
20
1525
42
-0.99999999999999989
0
LWPOLYLINE
5
599
100
AcDbEntity
8
0
100
AcDbPolyline
90
8
70
1
43
0.0
10
760
20
1652
42
0.41421356237309503
10
752
20
1660
10
7.9999999999999716
20
1660
42
0.41421356237309576
10
-1.8873791418627709e-14
20
1652
10
0
20
1108
42
0.41421356237309404
10
7.9999999999999716
20
1100
10
752
20
1100
42
0.41421356237309503
10
760
20
1108
0
ENDSEC
0
SECTION
2
OBJECTS
0
DICTIONARY
5
C
100
AcDbDictionary
3
ACAD_GROUP
350
D
3
ACAD_MLINESTYLE
350
17
0
DICTIONARY
5
D
100
AcDbDictionary
0
DICTIONARY
5
1A
330
C
100
AcDbDictionary
0
DICTIONARY
5
17
100
AcDbDictionary
0
ENDSEC
0
EOF
