999
"DXF R12 Output" (www.mydxf.blogspot.com)
 0 
SECTION
 2 
HEADER
 9 
$ACADVER
 1 
AC1009
 9 
$EXTMIN
 10 
 0 
 20 
 0 
 9 
$EXTMAX
 10 
 8.5 
 20 
 11 
 0 
ENDSEC
 0 
SECTION
 2 
ENTITIES
0
LINE
8
Layer 1
10
0.793749
20
297.794000
11
-0.793749
21
296.206000
0
LINE
8
Layer 1
10
0.000000
20
298.323000
11
0.000000
21
295.677000
0
LINE
8
Layer 1
10
2.116660
20
295.942000
11
1.058330
21
294.883670
0
LINE
8
Layer 1
10
1.587500
20
296.471000
11
0.529170
21
295.412670
0
LINE
8
Layer 1
10
1.058330
20
297.000000
11
0.000000
21
295.941670
0
LINE
8
Layer 1
10
0.793749
20
297.794000
11
-0.793749
21
296.206000
0
LINE
8
Layer 1
10
0.000000
20
298.323000
11
0.000000
21
295.677000
0
LINE
8
Layer 1
10
2.116660
20
295.942000
11
1.058330
21
294.883670
0
LINE
8
Layer 1
10
1.587500
20
296.471000
11
0.529170
21
295.412670
0
LINE
8
Layer 1
10
1.058330
20
297.000000
11
0.000000
21
295.941670
0
LINE
8
0
10
-342.500000
20
35.000300
11
-342.586539
21
34.348006
0
LINE
8
0
10
-342.586539
20
34.348006
11
-342.834936
21
33.750300
0
LINE
8
0
10
-342.834936
20
33.750300
11
-343.228366
21
33.236328
0
LINE
8
0
10
-343.228366
20
33.236328
11
-343.750000
21
32.835236
0
LINE
8
0
10
-343.750000
20
32.835236
11
-344.358173
21
32.584034
0
LINE
8
0
10
-344.358173
20
32.584034
11
-345.000000
21
32.500300
0
LINE
8
0
10
-345.000000
20
32.500300
11
-345.641827
21
32.584034
0
LINE
8
0
10
-345.641827
20
32.584034
11
-346.250000
21
32.835236
0
LINE
8
0
10
-346.250000
20
32.835236
11
-346.771634
21
33.236328
0
LINE
8
0
10
-346.771634
20
33.236328
11
-347.165064
21
33.750300
0
LINE
8
0
10
-347.165064
20
33.750300
11
-347.413461
21
34.348006
0
LINE
8
0
10
-347.413461
20
34.348006
11
-347.500000
21
35.000300
0
LINE
8
0
10
-347.500000
20
35.000300
11
-347.500000
21
45.000300
0
LINE
8
0
10
-347.500000
20
45.000300
11
-347.413461
21
45.652594
0
LINE
8
0
10
-347.413461
20
45.652594
11
-347.165064
21
46.250300
0
LINE
8
0
10
-347.165064
20
46.250300
11
-346.771634
21
46.764272
0
LINE
8
0
10
-346.771634
20
46.764272
11
-346.250000
21
47.165364
0
LINE
8
0
10
-346.250000
20
47.165364
11
-345.641827
21
47.416566
0
LINE
8
0
10
-345.641827
20
47.416566
11
-345.000000
21
47.500300
0
LINE
8
0
10
-345.000000
20
47.500300
11
-344.358173
21
47.416566
0
LINE
8
0
10
-344.358173
20
47.416566
11
-343.750000
21
47.165364
0
LINE
8
0
10
-343.750000
20
47.165364
11
-343.228366
21
46.764272
0
LINE
8
0
10
-343.228366
20
46.764272
11
-342.834936
21
46.250300
0
LINE
8
0
10
-342.834936
20
46.250300
11
-342.586539
21
45.652594
0
LINE
8
0
10
-342.586539
20
45.652594
11
-342.500000
21
45.000300
0
LINE
8
0
10
-342.500000
20
45.000300
11
-342.500000
21
35.000300
0
LINE
8
0
10
-342.500000
20
35.000300
11
-342.500000
21
35.000300
0
LINE
8
0
10
-347.500000
20
165.000000
11
-347.413461
21
165.652294
0
LINE
8
0
10
-347.413461
20
165.652294
11
-347.165064
21
166.250000
0
LINE
8
0
10
-347.165064
20
166.250000
11
-346.771634
21
166.763972
0
LINE
8
0
10
-346.771634
20
166.763972
11
-346.250000
21
167.165064
0
LINE
8
0
10
-346.250000
20
167.165064
11
-345.641827
21
167.416266
0
LINE
8
0
10
-345.641827
20
167.416266
11
-345.000000
21
167.500000
0
LINE
8
0
10
-345.000000
20
167.500000
11
-344.358173
21
167.416266
0
LINE
8
0
10
-344.358173
20
167.416266
11
-343.750000
21
167.165064
0
LINE
8
0
10
-343.750000
20
167.165064
11
-343.228366
21
166.763972
0
LINE
8
0
10
-343.228366
20
166.763972
11
-342.834936
21
166.250000
0
LINE
8
0
10
-342.834936
20
166.250000
11
-342.586539
21
165.652294
0
LINE
8
0
10
-342.586539
20
165.652294
11
-342.500000
21
165.000000
0
LINE
8
0
10
-342.500000
20
165.000000
11
-342.500000
21
155.000000
0
LINE
8
0
10
-342.500000
20
155.000000
11
-342.586539
21
154.347706
0
LINE
8
0
10
-342.586539
20
154.347706
11
-342.834936
21
153.750000
0
LINE
8
0
10
-342.834936
20
153.750000
11
-343.228366
21
153.236028
0
LINE
8
0
10
-343.228366
20
153.236028
11
-343.750000
21
152.834936
0
LINE
8
0
10
-343.750000
20
152.834936
11
-344.358173
21
152.583734
0
LINE
8
0
10
-344.358173
20
152.583734
11
-345.000000
21
152.500000
0
LINE
8
0
10
-345.000000
20
152.500000
11
-345.641827
21
152.583734
0
LINE
8
0
10
-345.641827
20
152.583734
11
-346.250000
21
152.834936
0
LINE
8
0
10
-346.250000
20
152.834936
11
-346.771634
21
153.236028
0
LINE
8
0
10
-346.771634
20
153.236028
11
-347.165064
21
153.750000
0
LINE
8
0
10
-347.165064
20
153.750000
11
-347.413461
21
154.347706
0
LINE
8
0
10
-347.413461
20
154.347706
11
-347.500000
21
155.000000
0
LINE
8
0
10
-347.500000
20
155.000000
11
-347.500000
21
165.000000
0
LINE
8
0
10
-347.500000
20
165.000000
11
-347.500000
21
165.000000
0
LINE
8
0
10
-487.499000
20
105.000000
11
-487.412461
21
105.652294
0
LINE
8
0
10
-487.412461
20
105.652294
11
-487.164064
21
106.250000
0
LINE
8
0
10
-487.164064
20
106.250000
11
-486.770634
21
106.763972
0
LINE
8
0
10
-486.770634
20
106.763972
11
-486.249000
21
107.165064
0
LINE
8
0
10
-486.249000
20
107.165064
11
-485.640827
21
107.416266
0
LINE
8
0
10
-485.640827
20
107.416266
11
-484.999000
21
107.500000
0
LINE
8
0
10
-484.999000
20
107.500000
11
-484.357173
21
107.416266
0
LINE
8
0
10
-484.357173
20
107.416266
11
-483.749000
21
107.165064
0
LINE
8
0
10
-483.749000
20
107.165064
11
-483.227366
21
106.763972
0
LINE
8
0
10
-483.227366
20
106.763972
11
-482.833936
21
106.250000
0
LINE
8
0
10
-482.833936
20
106.250000
11
-482.585539
21
105.652294
0
LINE
8
0
10
-482.585539
20
105.652294
11
-482.499000
21
105.000000
0
LINE
8
0
10
-482.499000
20
105.000000
11
-482.499000
21
95.000300
0
LINE
8
0
10
-482.499000
20
95.000300
11
-482.585539
21
94.348006
0
LINE
8
0
10
-482.585539
20
94.348006
11
-482.833936
21
93.750300
0
LINE
8
0
10
-482.833936
20
93.750300
11
-483.227366
21
93.236328
0
LINE
8
0
10
-483.227366
20
93.236328
11
-483.749000
21
92.835236
0
LINE
8
0
10
-483.749000
20
92.835236
11
-484.357173
21
92.584034
0
LINE
8
0
10
-484.357173
20
92.584034
11
-484.999000
21
92.500300
0
LINE
8
0
10
-484.999000
20
92.500300
11
-485.640827
21
92.584034
0
LINE
8
0
10
-485.640827
20
92.584034
11
-486.249000
21
92.835236
0
LINE
8
0
10
-486.249000
20
92.835236
11
-486.770634
21
93.236328
0
LINE
8
0
10
-486.770634
20
93.236328
11
-487.164064
21
93.750300
0
LINE
8
0
10
-487.164064
20
93.750300
11
-487.412461
21
94.348006
0
LINE
8
0
10
-487.412461
20
94.348006
11
-487.499000
21
95.000300
0
LINE
8
0
10
-487.499000
20
95.000300
11
-487.499000
21
105.000000
0
LINE
8
0
10
-487.499000
20
105.000000
11
-487.499000
21
105.000000
0
LINE
8
0
10
-247.500000
20
95.000300
11
-247.500000
21
105.000000
0
LINE
8
0
10
-247.500000
20
105.000000
11
-247.413461
21
105.652294
0
LINE
8
0
10
-247.413461
20
105.652294
11
-247.165064
21
106.250000
0
LINE
8
0
10
-247.165064
20
106.250000
11
-246.771634
21
106.763972
0
LINE
8
0
10
-246.771634
20
106.763972
11
-246.250000
21
107.165064
0
LINE
8
0
10
-246.250000
20
107.165064
11
-245.641827
21
107.416266
0
LINE
8
0
10
-245.641827
20
107.416266
11
-245.000000
21
107.500000
0
LINE
8
0
10
-245.000000
20
107.500000
11
-244.358173
21
107.416266
0
LINE
8
0
10
-244.358173
20
107.416266
11
-243.750000
21
107.165064
0
LINE
8
0
10
-243.750000
20
107.165064
11
-243.228366
21
106.763972
0
LINE
8
0
10
-243.228366
20
106.763972
11
-242.834936
21
106.250000
0
LINE
8
0
10
-242.834936
20
106.250000
11
-242.586539
21
105.652294
0
LINE
8
0
10
-242.586539
20
105.652294
11
-242.500000
21
105.000000
0
LINE
8
0
10
-242.500000
20
105.000000
11
-242.500000
21
95.000300
0
LINE
8
0
10
-242.500000
20
95.000300
11
-242.586539
21
94.348006
0
LINE
8
0
10
-242.586539
20
94.348006
11
-242.834936
21
93.750300
0
LINE
8
0
10
-242.834936
20
93.750300
11
-243.228366
21
93.236328
0
LINE
8
0
10
-243.228366
20
93.236328
11
-243.750000
21
92.835236
0
LINE
8
0
10
-243.750000
20
92.835236
11
-244.358173
21
92.584034
0
LINE
8
0
10
-244.358173
20
92.584034
11
-245.000000
21
92.500300
0
LINE
8
0
10
-245.000000
20
92.500300
11
-245.641827
21
92.584034
0
LINE
8
0
10
-245.641827
20
92.584034
11
-246.250000
21
92.835236
0
LINE
8
0
10
-246.250000
20
92.835236
11
-246.771634
21
93.236328
0
LINE
8
0
10
-246.771634
20
93.236328
11
-247.165064
21
93.750300
0
LINE
8
0
10
-247.165064
20
93.750300
11
-247.413461
21
94.348006
0
LINE
8
0
10
-247.413461
20
94.348006
11
-247.500000
21
95.000300
0
LINE
8
0
10
-247.500000
20
95.000300
11
-247.500000
21
95.000300
0
LINE
8
0
10
-287.500000
20
25.000300
11
-287.413461
21
25.652594
0
LINE
8
0
10
-287.413461
20
25.652594
11
-287.165064
21
26.250300
0
LINE
8
0
10
-287.165064
20
26.250300
11
-286.771634
21
26.764272
0
LINE
8
0
10
-286.771634
20
26.764272
11
-286.250000
21
27.165364
0
LINE
8
0
10
-286.250000
20
27.165364
11
-285.641827
21
27.416566
0
LINE
8
0
10
-285.641827
20
27.416566
11
-285.000000
21
27.500300
0
LINE
8
0
10
-285.000000
20
27.500300
11
-284.358173
21
27.416566
0
LINE
8
0
10
-284.358173
20
27.416566
11
-283.750000
21
27.165364
0
LINE
8
0
10
-283.750000
20
27.165364
11
-283.228366
21
26.764272
0
LINE
8
0
10
-283.228366
20
26.764272
11
-282.834936
21
26.250300
0
LINE
8
0
10
-282.834936
20
26.250300
11
-282.586539
21
25.652594
0
LINE
8
0
10
-282.586539
20
25.652594
11
-282.500000
21
25.000300
0
LINE
8
0
10
-282.500000
20
25.000300
11
-282.500000
21
15.000400
0
LINE
8
0
10
-282.500000
20
15.000400
11
-282.586539
21
14.348106
0
LINE
8
0
10
-282.586539
20
14.348106
11
-282.834936
21
13.750400
0
LINE
8
0
10
-282.834936
20
13.750400
11
-283.228366
21
13.236428
0
LINE
8
0
10
-283.228366
20
13.236428
11
-283.750000
21
12.835336
0
LINE
8
0
10
-283.750000
20
12.835336
11
-284.358173
21
12.584134
0
LINE
8
0
10
-284.358173
20
12.584134
11
-285.000000
21
12.500400
0
LINE
8
0
10
-285.000000
20
12.500400
11
-285.641827
21
12.584134
0
LINE
8
0
10
-285.641827
20
12.584134
11
-286.250000
21
12.835336
0
LINE
8
0
10
-286.250000
20
12.835336
11
-286.771634
21
13.236428
0
LINE
8
0
10
-286.771634
20
13.236428
11
-287.165064
21
13.750400
0
LINE
8
0
10
-287.165064
20
13.750400
11
-287.413461
21
14.348106
0
LINE
8
0
10
-287.413461
20
14.348106
11
-287.500000
21
15.000400
0
LINE
8
0
10
-287.500000
20
15.000400
11
-287.500000
21
25.000300
0
LINE
8
0
10
-287.500000
20
25.000300
11
-287.500000
21
25.000300
0
LINE
8
0
10
-367.500000
20
105.000000
11
-367.413461
21
105.652294
0
LINE
8
0
10
-367.413461
20
105.652294
11
-367.165064
21
106.250000
0
LINE
8
0
10
-367.165064
20
106.250000
11
-366.771634
21
106.763972
0
LINE
8
0
10
-366.771634
20
106.763972
11
-366.250000
21
107.165064
0
LINE
8
0
10
-366.250000
20
107.165064
11
-365.641827
21
107.416266
0
LINE
8
0
10
-365.641827
20
107.416266
11
-365.000000
21
107.500000
0
LINE
8
0
10
-365.000000
20
107.500000
11
-364.358173
21
107.416266
0
LINE
8
0
10
-364.358173
20
107.416266
11
-363.750000
21
107.165064
0
LINE
8
0
10
-363.750000
20
107.165064
11
-363.228366
21
106.763972
0
LINE
8
0
10
-363.228366
20
106.763972
11
-362.834936
21
106.250000
0
LINE
8
0
10
-362.834936
20
106.250000
11
-362.586539
21
105.652294
0
LINE
8
0
10
-362.586539
20
105.652294
11
-362.500000
21
105.000000
0
LINE
8
0
10
-362.500000
20
105.000000
11
-362.500000
21
95.000300
0
LINE
8
0
10
-362.500000
20
95.000300
11
-362.586539
21
94.348006
0
LINE
8
0
10
-362.586539
20
94.348006
11
-362.834936
21
93.750300
0
LINE
8
0
10
-362.834936
20
93.750300
11
-363.228366
21
93.236328
0
LINE
8
0
10
-363.228366
20
93.236328
11
-363.750000
21
92.835236
0
LINE
8
0
10
-363.750000
20
92.835236
11
-364.358173
21
92.584034
0
LINE
8
0
10
-364.358173
20
92.584034
11
-365.000000
21
92.500300
0
LINE
8
0
10
-365.000000
20
92.500300
11
-365.641827
21
92.584034
0
LINE
8
0
10
-365.641827
20
92.584034
11
-366.250000
21
92.835236
0
LINE
8
0
10
-366.250000
20
92.835236
11
-366.771634
21
93.236328
0
LINE
8
0
10
-366.771634
20
93.236328
11
-367.165064
21
93.750300
0
LINE
8
0
10
-367.165064
20
93.750300
11
-367.413461
21
94.348006
0
LINE
8
0
10
-367.413461
20
94.348006
11
-367.500000
21
95.000300
0
LINE
8
0
10
-367.500000
20
95.000300
11
-367.500000
21
105.000000
0
LINE
8
0
10
-367.500000
20
105.000000
11
-367.500000
21
105.000000
0
LINE
8
0
10
-402.499000
20
65.000300
11
-402.499000
21
55.000300
0
LINE
8
0
10
-402.499000
20
55.000300
11
-402.585539
21
54.348006
0
LINE
8
0
10
-402.585539
20
54.348006
11
-402.833936
21
53.750300
0
LINE
8
0
10
-402.833936
20
53.750300
11
-403.227366
21
53.236328
0
LINE
8
0
10
-403.227366
20
53.236328
11
-403.749000
21
52.835236
0
LINE
8
0
10
-403.749000
20
52.835236
11
-404.357173
21
52.584034
0
LINE
8
0
10
-404.357173
20
52.584034
11
-404.999000
21
52.500300
0
LINE
8
0
10
-404.999000
20
52.500300
11
-405.640827
21
52.584034
0
LINE
8
0
10
-405.640827
20
52.584034
11
-406.249000
21
52.835236
0
LINE
8
0
10
-406.249000
20
52.835236
11
-406.770634
21
53.236328
0
LINE
8
0
10
-406.770634
20
53.236328
11
-407.164064
21
53.750300
0
LINE
8
0
10
-407.164064
20
53.750300
11
-407.412461
21
54.348006
0
LINE
8
0
10
-407.412461
20
54.348006
11
-407.499000
21
55.000300
0
LINE
8
0
10
-407.499000
20
55.000300
11
-407.499000
21
65.000300
0
LINE
8
0
10
-407.499000
20
65.000300
11
-407.412461
21
65.652594
0
LINE
8
0
10
-407.412461
20
65.652594
11
-407.164064
21
66.250300
0
LINE
8
0
10
-407.164064
20
66.250300
11
-406.770634
21
66.764272
0
LINE
8
0
10
-406.770634
20
66.764272
11
-406.249000
21
67.165364
0
LINE
8
0
10
-406.249000
20
67.165364
11
-405.640827
21
67.416566
0
LINE
8
0
10
-405.640827
20
67.416566
11
-404.999000
21
67.500300
0
LINE
8
0
10
-404.999000
20
67.500300
11
-404.357173
21
67.416566
0
LINE
8
0
10
-404.357173
20
67.416566
11
-403.749000
21
67.165364
0
LINE
8
0
10
-403.749000
20
67.165364
11
-403.227366
21
66.764272
0
LINE
8
0
10
-403.227366
20
66.764272
11
-402.833936
21
66.250300
0
LINE
8
0
10
-402.833936
20
66.250300
11
-402.585539
21
65.652594
0
LINE
8
0
10
-402.585539
20
65.652594
11
-402.499000
21
65.000300
0
LINE
8
0
10
-402.499000
20
65.000300
11
-402.499000
21
65.000300
0
LINE
8
0
10
-402.499000
20
145.000000
11
-402.499000
21
135.000000
0
LINE
8
0
10
-402.499000
20
135.000000
11
-402.585539
21
134.347706
0
LINE
8
0
10
-402.585539
20
134.347706
11
-402.833936
21
133.750000
0
LINE
8
0
10
-402.833936
20
133.750000
11
-403.227366
21
133.236028
0
LINE
8
0
10
-403.227366
20
133.236028
11
-403.749000
21
132.834936
0
LINE
8
0
10
-403.749000
20
132.834936
11
-404.357173
21
132.583734
0
LINE
8
0
10
-404.357173
20
132.583734
11
-404.999000
21
132.500000
0
LINE
8
0
10
-404.999000
20
132.500000
11
-405.640827
21
132.583734
0
LINE
8
0
10
-405.640827
20
132.583734
11
-406.249000
21
132.834936
0
LINE
8
0
10
-406.249000
20
132.834936
11
-406.770634
21
133.236028
0
LINE
8
0
10
-406.770634
20
133.236028
11
-407.164064
21
133.750000
0
LINE
8
0
10
-407.164064
20
133.750000
11
-407.412461
21
134.347706
0
LINE
8
0
10
-407.412461
20
134.347706
11
-407.499000
21
135.000000
0
LINE
8
0
10
-407.499000
20
135.000000
11
-407.499000
21
145.000000
0
LINE
8
0
10
-407.499000
20
145.000000
11
-407.412461
21
145.652294
0
LINE
8
0
10
-407.412461
20
145.652294
11
-407.164064
21
146.250000
0
LINE
8
0
10
-407.164064
20
146.250000
11
-406.770634
21
146.763972
0
LINE
8
0
10
-406.770634
20
146.763972
11
-406.249000
21
147.165064
0
LINE
8
0
10
-406.249000
20
147.165064
11
-405.640827
21
147.416266
0
LINE
8
0
10
-405.640827
20
147.416266
11
-404.999000
21
147.500000
0
LINE
8
0
10
-404.999000
20
147.500000
11
-404.357173
21
147.416266
0
LINE
8
0
10
-404.357173
20
147.416266
11
-403.749000
21
147.165064
0
LINE
8
0
10
-403.749000
20
147.165064
11
-403.227366
21
146.763972
0
LINE
8
0
10
-403.227366
20
146.763972
11
-402.833936
21
146.250000
0
LINE
8
0
10
-402.833936
20
146.250000
11
-402.585539
21
145.652294
0
LINE
8
0
10
-402.585539
20
145.652294
11
-402.499000
21
145.000000
0
LINE
8
0
10
-402.499000
20
145.000000
11
-402.499000
21
145.000000
0
LINE
8
0
10
-267.500000
20
125.000000
11
-267.413461
21
125.652294
0
LINE
8
0
10
-267.413461
20
125.652294
11
-267.165064
21
126.250000
0
LINE
8
0
10
-267.165064
20
126.250000
11
-266.771634
21
126.763972
0
LINE
8
0
10
-266.771634
20
126.763972
11
-266.250000
21
127.165064
0
LINE
8
0
10
-266.250000
20
127.165064
11
-265.641827
21
127.416266
0
LINE
8
0
10
-265.641827
20
127.416266
11
-265.000000
21
127.500000
0
LINE
8
0
10
-265.000000
20
127.500000
11
-264.358173
21
127.416266
0
LINE
8
0
10
-264.358173
20
127.416266
11
-263.750000
21
127.165064
0
LINE
8
0
10
-263.750000
20
127.165064
11
-263.228366
21
126.763972
0
LINE
8
0
10
-263.228366
20
126.763972
11
-262.834936
21
126.250000
0
LINE
8
0
10
-262.834936
20
126.250000
11
-262.586539
21
125.652294
0
LINE
8
0
10
-262.586539
20
125.652294
11
-262.500000
21
125.000000
0
LINE
8
0
10
-262.500000
20
125.000000
11
-262.500000
21
115.000000
0
LINE
8
0
10
-262.500000
20
115.000000
11
-262.586539
21
114.347706
0
LINE
8
0
10
-262.586539
20
114.347706
11
-262.834936
21
113.750000
0
LINE
8
0
10
-262.834936
20
113.750000
11
-263.228366
21
113.236028
0
LINE
8
0
10
-263.228366
20
113.236028
11
-263.750000
21
112.834936
0
LINE
8
0
10
-263.750000
20
112.834936
11
-264.358173
21
112.583734
0
LINE
8
0
10
-264.358173
20
112.583734
11
-265.000000
21
112.500000
0
LINE
8
0
10
-265.000000
20
112.500000
11
-265.641827
21
112.583734
0
LINE
8
0
10
-265.641827
20
112.583734
11
-266.250000
21
112.834936
0
LINE
8
0
10
-266.250000
20
112.834936
11
-266.771634
21
113.236028
0
LINE
8
0
10
-266.771634
20
113.236028
11
-267.165064
21
113.750000
0
LINE
8
0
10
-267.165064
20
113.750000
11
-267.413461
21
114.347706
0
LINE
8
0
10
-267.413461
20
114.347706
11
-267.500000
21
115.000000
0
LINE
8
0
10
-267.500000
20
115.000000
11
-267.500000
21
125.000000
0
LINE
8
0
10
-267.500000
20
125.000000
11
-267.500000
21
125.000000
0
LINE
8
0
10
-387.500000
20
45.000300
11
-387.413461
21
45.652594
0
LINE
8
0
10
-387.413461
20
45.652594
11
-387.165064
21
46.250300
0
LINE
8
0
10
-387.165064
20
46.250300
11
-386.771634
21
46.764272
0
LINE
8
0
10
-386.771634
20
46.764272
11
-386.250000
21
47.165364
0
LINE
8
0
10
-386.250000
20
47.165364
11
-385.641827
21
47.416566
0
LINE
8
0
10
-385.641827
20
47.416566
11
-385.000000
21
47.500300
0
LINE
8
0
10
-385.000000
20
47.500300
11
-384.358173
21
47.416566
0
LINE
8
0
10
-384.358173
20
47.416566
11
-383.750000
21
47.165364
0
LINE
8
0
10
-383.750000
20
47.165364
11
-383.228366
21
46.764272
0
LINE
8
0
10
-383.228366
20
46.764272
11
-382.834936
21
46.250300
0
LINE
8
0
10
-382.834936
20
46.250300
11
-382.586539
21
45.652594
0
LINE
8
0
10
-382.586539
20
45.652594
11
-382.500000
21
45.000300
0
LINE
8
0
10
-382.500000
20
45.000300
11
-382.500000
21
35.000300
0
LINE
8
0
10
-382.500000
20
35.000300
11
-382.586539
21
34.348006
0
LINE
8
0
10
-382.586539
20
34.348006
11
-382.834936
21
33.750300
0
LINE
8
0
10
-382.834936
20
33.750300
11
-383.228366
21
33.236328
0
LINE
8
0
10
-383.228366
20
33.236328
11
-383.750000
21
32.835236
0
LINE
8
0
10
-383.750000
20
32.835236
11
-384.358173
21
32.584034
0
LINE
8
0
10
-384.358173
20
32.584034
11
-385.000000
21
32.500300
0
LINE
8
0
10
-385.000000
20
32.500300
11
-385.641827
21
32.584034
0
LINE
8
0
10
-385.641827
20
32.584034
11
-386.250000
21
32.835236
0
LINE
8
0
10
-386.250000
20
32.835236
11
-386.771634
21
33.236328
0
LINE
8
0
10
-386.771634
20
33.236328
11
-387.165064
21
33.750300
0
LINE
8
0
10
-387.165064
20
33.750300
11
-387.413461
21
34.348006
0
LINE
8
0
10
-387.413461
20
34.348006
11
-387.500000
21
35.000300
0
LINE
8
0
10
-387.500000
20
35.000300
11
-387.500000
21
45.000300
0
LINE
8
0
10
-387.500000
20
45.000300
11
-387.500000
21
45.000300
0
LINE
8
0
10
-242.500000
20
175.000000
11
-242.586539
21
174.347706
0
LINE
8
0
10
-242.586539
20
174.347706
11
-242.834936
21
173.750000
0
LINE
8
0
10
-242.834936
20
173.750000
11
-243.228366
21
173.236028
0
LINE
8
0
10
-243.228366
20
173.236028
11
-243.750000
21
172.834936
0
LINE
8
0
10
-243.750000
20
172.834936
11
-244.358173
21
172.583734
0
LINE
8
0
10
-244.358173
20
172.583734
11
-245.000000
21
172.500000
0
LINE
8
0
10
-245.000000
20
172.500000
11
-245.641827
21
172.583734
0
LINE
8
0
10
-245.641827
20
172.583734
11
-246.250000
21
172.834936
0
LINE
8
0
10
-246.250000
20
172.834936
11
-246.771634
21
173.236028
0
LINE
8
0
10
-246.771634
20
173.236028
11
-247.165064
21
173.750000
0
LINE
8
0
10
-247.165064
20
173.750000
11
-247.413461
21
174.347706
0
LINE
8
0
10
-247.413461
20
174.347706
11
-247.500000
21
175.000000
0
LINE
8
0
10
-247.500000
20
175.000000
11
-247.500000
21
185.000000
0
LINE
8
0
10
-247.500000
20
185.000000
11
-247.413461
21
185.652294
0
LINE
8
0
10
-247.413461
20
185.652294
11
-247.165064
21
186.250000
0
LINE
8
0
10
-247.165064
20
186.250000
11
-246.771634
21
186.763972
0
LINE
8
0
10
-246.771634
20
186.763972
11
-246.250000
21
187.165064
0
LINE
8
0
10
-246.250000
20
187.165064
11
-245.641827
21
187.416266
0
LINE
8
0
10
-245.641827
20
187.416266
11
-245.000000
21
187.500000
0
LINE
8
0
10
-245.000000
20
187.500000
11
-244.358173
21
187.416266
0
LINE
8
0
10
-244.358173
20
187.416266
11
-243.750000
21
187.165064
0
LINE
8
0
10
-243.750000
20
187.165064
11
-243.228366
21
186.763972
0
LINE
8
0
10
-243.228366
20
186.763972
11
-242.834936
21
186.250000
0
LINE
8
0
10
-242.834936
20
186.250000
11
-242.586539
21
185.652294
0
LINE
8
0
10
-242.586539
20
185.652294
11
-242.500000
21
185.000000
0
LINE
8
0
10
-242.500000
20
185.000000
11
-242.500000
21
175.000000
0
LINE
8
0
10
-242.500000
20
175.000000
11
-242.500000
21
175.000000
0
LINE
8
0
10
-487.499000
20
55.000300
11
-487.499000
21
65.000300
0
LINE
8
0
10
-487.499000
20
65.000300
11
-487.412461
21
65.652594
0
LINE
8
0
10
-487.412461
20
65.652594
11
-487.164064
21
66.250300
0
LINE
8
0
10
-487.164064
20
66.250300
11
-486.770634
21
66.764272
0
LINE
8
0
10
-486.770634
20
66.764272
11
-486.249000
21
67.165364
0
LINE
8
0
10
-486.249000
20
67.165364
11
-485.640827
21
67.416566
0
LINE
8
0
10
-485.640827
20
67.416566
11
-484.999000
21
67.500300
0
LINE
8
0
10
-484.999000
20
67.500300
11
-484.357173
21
67.416566
0
LINE
8
0
10
-484.357173
20
67.416566
11
-483.749000
21
67.165364
0
LINE
8
0
10
-483.749000
20
67.165364
11
-483.227366
21
66.764272
0
LINE
8
0
10
-483.227366
20
66.764272
11
-482.833936
21
66.250300
0
LINE
8
0
10
-482.833936
20
66.250300
11
-482.585539
21
65.652594
0
LINE
8
0
10
-482.585539
20
65.652594
11
-482.499000
21
65.000300
0
LINE
8
0
10
-482.499000
20
65.000300
11
-482.499000
21
55.000300
0
LINE
8
0
10
-482.499000
20
55.000300
11
-482.585539
21
54.348006
0
LINE
8
0
10
-482.585539
20
54.348006
11
-482.833936
21
53.750300
0
LINE
8
0
10
-482.833936
20
53.750300
11
-483.227366
21
53.236328
0
LINE
8
0
10
-483.227366
20
53.236328
11
-483.749000
21
52.835236
0
LINE
8
0
10
-483.749000
20
52.835236
11
-484.357173
21
52.584034
0
LINE
8
0
10
-484.357173
20
52.584034
11
-484.999000
21
52.500300
0
LINE
8
0
10
-484.999000
20
52.500300
11
-485.640827
21
52.584034
0
LINE
8
0
10
-485.640827
20
52.584034
11
-486.249000
21
52.835236
0
LINE
8
0
10
-486.249000
20
52.835236
11
-486.770634
21
53.236328
0
LINE
8
0
10
-486.770634
20
53.236328
11
-487.164064
21
53.750300
0
LINE
8
0
10
-487.164064
20
53.750300
11
-487.412461
21
54.348006
0
LINE
8
0
10
-487.412461
20
54.348006
11
-487.499000
21
55.000300
0
LINE
8
0
10
-487.499000
20
55.000300
11
-487.499000
21
55.000300
0
LINE
8
0
10
-367.500000
20
15.000400
11
-367.500000
21
25.000300
0
LINE
8
0
10
-367.500000
20
25.000300
11
-367.413461
21
25.652594
0
LINE
8
0
10
-367.413461
20
25.652594
11
-367.165064
21
26.250300
0
LINE
8
0
10
-367.165064
20
26.250300
11
-366.771634
21
26.764272
0
LINE
8
0
10
-366.771634
20
26.764272
11
-366.250000
21
27.165364
0
LINE
8
0
10
-366.250000
20
27.165364
11
-365.641827
21
27.416566
0
LINE
8
0
10
-365.641827
20
27.416566
11
-365.000000
21
27.500300
0
LINE
8
0
10
-365.000000
20
27.500300
11
-364.358173
21
27.416566
0
LINE
8
0
10
-364.358173
20
27.416566
11
-363.750000
21
27.165364
0
LINE
8
0
10
-363.750000
20
27.165364
11
-363.228366
21
26.764272
0
LINE
8
0
10
-363.228366
20
26.764272
11
-362.834936
21
26.250300
0
LINE
8
0
10
-362.834936
20
26.250300
11
-362.586539
21
25.652594
0
LINE
8
0
10
-362.586539
20
25.652594
11
-362.500000
21
25.000300
0
LINE
8
0
10
-362.500000
20
25.000300
11
-362.500000
21
15.000400
0
LINE
8
0
10
-362.500000
20
15.000400
11
-362.586539
21
14.348106
0
LINE
8
0
10
-362.586539
20
14.348106
11
-362.834936
21
13.750400
0
LINE
8
0
10
-362.834936
20
13.750400
11
-363.228366
21
13.236428
0
LINE
8
0
10
-363.228366
20
13.236428
11
-363.750000
21
12.835336
0
LINE
8
0
10
-363.750000
20
12.835336
11
-364.358173
21
12.584134
0
LINE
8
0
10
-364.358173
20
12.584134
11
-365.000000
21
12.500400
0
LINE
8
0
10
-365.000000
20
12.500400
11
-365.641827
21
12.584134
0
LINE
8
0
10
-365.641827
20
12.584134
11
-366.250000
21
12.835336
0
LINE
8
0
10
-366.250000
20
12.835336
11
-366.771634
21
13.236428
0
LINE
8
0
10
-366.771634
20
13.236428
11
-367.165064
21
13.750400
0
LINE
8
0
10
-367.165064
20
13.750400
11
-367.413461
21
14.348106
0
LINE
8
0
10
-367.413461
20
14.348106
11
-367.500000
21
15.000400
0
LINE
8
0
10
-367.500000
20
15.000400
11
-367.500000
21
15.000400
0
LINE
8
0
10
-507.499000
20
85.000300
11
-507.412461
21
85.652594
0
LINE
8
0
10
-507.412461
20
85.652594
11
-507.164064
21
86.250300
0
LINE
8
0
10
-507.164064
20
86.250300
11
-506.770634
21
86.764272
0
LINE
8
0
10
-506.770634
20
86.764272
11
-506.249000
21
87.165364
0
LINE
8
0
10
-506.249000
20
87.165364
11
-505.640827
21
87.416566
0
LINE
8
0
10
-505.640827
20
87.416566
11
-504.999000
21
87.500300
0
LINE
8
0
10
-504.999000
20
87.500300
11
-504.357173
21
87.416566
0
LINE
8
0
10
-504.357173
20
87.416566
11
-503.749000
21
87.165364
0
LINE
8
0
10
-503.749000
20
87.165364
11
-503.227366
21
86.764272
0
LINE
8
0
10
-503.227366
20
86.764272
11
-502.833936
21
86.250300
0
LINE
8
0
10
-502.833936
20
86.250300
11
-502.585539
21
85.652594
0
LINE
8
0
10
-502.585539
20
85.652594
11
-502.499000
21
85.000300
0
LINE
8
0
10
-502.499000
20
85.000300
11
-502.499000
21
75.000300
0
LINE
8
0
10
-502.499000
20
75.000300
11
-502.585539
21
74.348006
0
LINE
8
0
10
-502.585539
20
74.348006
11
-502.833936
21
73.750300
0
LINE
8
0
10
-502.833936
20
73.750300
11
-503.227366
21
73.236328
0
LINE
8
0
10
-503.227366
20
73.236328
11
-503.749000
21
72.835236
0
LINE
8
0
10
-503.749000
20
72.835236
11
-504.357173
21
72.584034
0
LINE
8
0
10
-504.357173
20
72.584034
11
-504.999000
21
72.500300
0
LINE
8
0
10
-504.999000
20
72.500300
11
-505.640827
21
72.584034
0
LINE
8
0
10
-505.640827
20
72.584034
11
-506.249000
21
72.835236
0
LINE
8
0
10
-506.249000
20
72.835236
11
-506.770634
21
73.236328
0
LINE
8
0
10
-506.770634
20
73.236328
11
-507.164064
21
73.750300
0
LINE
8
0
10
-507.164064
20
73.750300
11
-507.412461
21
74.348006
0
LINE
8
0
10
-507.412461
20
74.348006
11
-507.499000
21
75.000300
0
LINE
8
0
10
-507.499000
20
75.000300
11
-507.499000
21
85.000300
0
LINE
8
0
10
-507.499000
20
85.000300
11
-507.499000
21
85.000300
0
LINE
8
0
10
-502.499000
20
165.000000
11
-502.499000
21
155.000000
0
LINE
8
0
10
-502.499000
20
155.000000
11
-502.585539
21
154.347706
0
LINE
8
0
10
-502.585539
20
154.347706
11
-502.833936
21
153.750000
0
LINE
8
0
10
-502.833936
20
153.750000
11
-503.227366
21
153.236028
0
LINE
8
0
10
-503.227366
20
153.236028
11
-503.749000
21
152.834936
0
LINE
8
0
10
-503.749000
20
152.834936
11
-504.357173
21
152.583734
0
LINE
8
0
10
-504.357173
20
152.583734
11
-504.999000
21
152.500000
0
LINE
8
0
10
-504.999000
20
152.500000
11
-505.640827
21
152.583734
0
LINE
8
0
10
-505.640827
20
152.583734
11
-506.249000
21
152.834936
0
LINE
8
0
10
-506.249000
20
152.834936
11
-506.770634
21
153.236028
0
LINE
8
0
10
-506.770634
20
153.236028
11
-507.164064
21
153.750000
0
LINE
8
0
10
-507.164064
20
153.750000
11
-507.412461
21
154.347706
0
LINE
8
0
10
-507.412461
20
154.347706
11
-507.499000
21
155.000000
0
LINE
8
0
10
-507.499000
20
155.000000
11
-507.499000
21
165.000000
0
LINE
8
0
10
-507.499000
20
165.000000
11
-507.412461
21
165.652294
0
LINE
8
0
10
-507.412461
20
165.652294
11
-507.164064
21
166.250000
0
LINE
8
0
10
-507.164064
20
166.250000
11
-506.770634
21
166.763972
0
LINE
8
0
10
-506.770634
20
166.763972
11
-506.249000
21
167.165064
0
LINE
8
0
10
-506.249000
20
167.165064
11
-505.640827
21
167.416266
0
LINE
8
0
10
-505.640827
20
167.416266
11
-504.999000
21
167.500000
0
LINE
8
0
10
-504.999000
20
167.500000
11
-504.357173
21
167.416266
0
LINE
8
0
10
-504.357173
20
167.416266
11
-503.749000
21
167.165064
0
LINE
8
0
10
-503.749000
20
167.165064
11
-503.227366
21
166.763972
0
LINE
8
0
10
-503.227366
20
166.763972
11
-502.833936
21
166.250000
0
LINE
8
0
10
-502.833936
20
166.250000
11
-502.585539
21
165.652294
0
LINE
8
0
10
-502.585539
20
165.652294
11
-502.499000
21
165.000000
0
LINE
8
0
10
-502.499000
20
165.000000
11
-502.499000
21
165.000000
0
LINE
8
0
10
-287.500000
20
145.000000
11
-287.413461
21
145.652294
0
LINE
8
0
10
-287.413461
20
145.652294
11
-287.165064
21
146.250000
0
LINE
8
0
10
-287.165064
20
146.250000
11
-286.771634
21
146.763972
0
LINE
8
0
10
-286.771634
20
146.763972
11
-286.250000
21
147.165064
0
LINE
8
0
10
-286.250000
20
147.165064
11
-285.641827
21
147.416266
0
LINE
8
0
10
-285.641827
20
147.416266
11
-285.000000
21
147.500000
0
LINE
8
0
10
-285.000000
20
147.500000
11
-284.358173
21
147.416266
0
LINE
8
0
10
-284.358173
20
147.416266
11
-283.750000
21
147.165064
0
LINE
8
0
10
-283.750000
20
147.165064
11
-283.228366
21
146.763972
0
LINE
8
0
10
-283.228366
20
146.763972
11
-282.834936
21
146.250000
0
LINE
8
0
10
-282.834936
20
146.250000
11
-282.586539
21
145.652294
0
LINE
8
0
10
-282.586539
20
145.652294
11
-282.500000
21
145.000000
0
LINE
8
0
10
-282.500000
20
145.000000
11
-282.500000
21
135.000000
0
LINE
8
0
10
-282.500000
20
135.000000
11
-282.586539
21
134.347706
0
LINE
8
0
10
-282.586539
20
134.347706
11
-282.834936
21
133.750000
0
LINE
8
0
10
-282.834936
20
133.750000
11
-283.228366
21
133.236028
0
LINE
8
0
10
-283.228366
20
133.236028
11
-283.750000
21
132.834936
0
LINE
8
0
10
-283.750000
20
132.834936
11
-284.358173
21
132.583734
0
LINE
8
0
10
-284.358173
20
132.583734
11
-285.000000
21
132.500000
0
LINE
8
0
10
-285.000000
20
132.500000
11
-285.641827
21
132.583734
0
LINE
8
0
10
-285.641827
20
132.583734
11
-286.250000
21
132.834936
0
LINE
8
0
10
-286.250000
20
132.834936
11
-286.771634
21
133.236028
0
LINE
8
0
10
-286.771634
20
133.236028
11
-287.165064
21
133.750000
0
LINE
8
0
10
-287.165064
20
133.750000
11
-287.413461
21
134.347706
0
LINE
8
0
10
-287.413461
20
134.347706
11
-287.500000
21
135.000000
0
LINE
8
0
10
-287.500000
20
135.000000
11
-287.500000
21
145.000000
0
LINE
8
0
10
-287.500000
20
145.000000
11
-287.500000
21
145.000000
0
LINE
8
0
10
-422.499000
20
165.000000
11
-422.499000
21
155.000000
0
LINE
8
0
10
-422.499000
20
155.000000
11
-422.585539
21
154.347706
0
LINE
8
0
10
-422.585539
20
154.347706
11
-422.833936
21
153.750000
0
LINE
8
0
10
-422.833936
20
153.750000
11
-423.227366
21
153.236028
0
LINE
8
0
10
-423.227366
20
153.236028
11
-423.749000
21
152.834936
0
LINE
8
0
10
-423.749000
20
152.834936
11
-424.357173
21
152.583734
0
LINE
8
0
10
-424.357173
20
152.583734
11
-424.999000
21
152.500000
0
LINE
8
0
10
-424.999000
20
152.500000
11
-425.640827
21
152.583734
0
LINE
8
0
10
-425.640827
20
152.583734
11
-426.249000
21
152.834936
0
LINE
8
0
10
-426.249000
20
152.834936
11
-426.770634
21
153.236028
0
LINE
8
0
10
-426.770634
20
153.236028
11
-427.164064
21
153.750000
0
LINE
8
0
10
-427.164064
20
153.750000
11
-427.412461
21
154.347706
0
LINE
8
0
10
-427.412461
20
154.347706
11
-427.499000
21
155.000000
0
LINE
8
0
10
-427.499000
20
155.000000
11
-427.499000
21
165.000000
0
LINE
8
0
10
-427.499000
20
165.000000
11
-427.412461
21
165.652294
0
LINE
8
0
10
-427.412461
20
165.652294
11
-427.164064
21
166.250000
0
LINE
8
0
10
-427.164064
20
166.250000
11
-426.770634
21
166.763972
0
LINE
8
0
10
-426.770634
20
166.763972
11
-426.249000
21
167.165064
0
LINE
8
0
10
-426.249000
20
167.165064
11
-425.640827
21
167.416266
0
LINE
8
0
10
-425.640827
20
167.416266
11
-424.999000
21
167.500000
0
LINE
8
0
10
-424.999000
20
167.500000
11
-424.357173
21
167.416266
0
LINE
8
0
10
-424.357173
20
167.416266
11
-423.749000
21
167.165064
0
LINE
8
0
10
-423.749000
20
167.165064
11
-423.227366
21
166.763972
0
LINE
8
0
10
-423.227366
20
166.763972
11
-422.833936
21
166.250000
0
LINE
8
0
10
-422.833936
20
166.250000
11
-422.585539
21
165.652294
0
LINE
8
0
10
-422.585539
20
165.652294
11
-422.499000
21
165.000000
0
LINE
8
0
10
-422.499000
20
165.000000
11
-422.499000
21
165.000000
0
LINE
8
0
10
-447.499000
20
185.000000
11
-447.412461
21
185.652294
0
LINE
8
0
10
-447.412461
20
185.652294
11
-447.164064
21
186.250000
0
LINE
8
0
10
-447.164064
20
186.250000
11
-446.770634
21
186.763972
0
LINE
8
0
10
-446.770634
20
186.763972
11
-446.249000
21
187.165064
0
LINE
8
0
10
-446.249000
20
187.165064
11
-445.640827
21
187.416266
0
LINE
8
0
10
-445.640827
20
187.416266
11
-444.999000
21
187.500000
0
LINE
8
0
10
-444.999000
20
187.500000
11
-444.357173
21
187.416266
0
LINE
8
0
10
-444.357173
20
187.416266
11
-443.749000
21
187.165064
0
LINE
8
0
10
-443.749000
20
187.165064
11
-443.227366
21
186.763972
0
LINE
8
0
10
-443.227366
20
186.763972
11
-442.833936
21
186.250000
0
LINE
8
0
10
-442.833936
20
186.250000
11
-442.585539
21
185.652294
0
LINE
8
0
10
-442.585539
20
185.652294
11
-442.499000
21
185.000000
0
LINE
8
0
10
-442.499000
20
185.000000
11
-442.499000
21
175.000000
0
LINE
8
0
10
-442.499000
20
175.000000
11
-442.585539
21
174.347706
0
LINE
8
0
10
-442.585539
20
174.347706
11
-442.833936
21
173.750000
0
LINE
8
0
10
-442.833936
20
173.750000
11
-443.227366
21
173.236028
0
LINE
8
0
10
-443.227366
20
173.236028
11
-443.749000
21
172.834936
0
LINE
8
0
10
-443.749000
20
172.834936
11
-444.357173
21
172.583734
0
LINE
8
0
10
-444.357173
20
172.583734
11
-444.999000
21
172.500000
0
LINE
8
0
10
-444.999000
20
172.500000
11
-445.640827
21
172.583734
0
LINE
8
0
10
-445.640827
20
172.583734
11
-446.249000
21
172.834936
0
LINE
8
0
10
-446.249000
20
172.834936
11
-446.770634
21
173.236028
0
LINE
8
0
10
-446.770634
20
173.236028
11
-447.164064
21
173.750000
0
LINE
8
0
10
-447.164064
20
173.750000
11
-447.412461
21
174.347706
0
LINE
8
0
10
-447.412461
20
174.347706
11
-447.499000
21
175.000000
0
LINE
8
0
10
-447.499000
20
175.000000
11
-447.499000
21
185.000000
0
LINE
8
0
10
-447.499000
20
185.000000
11
-447.499000
21
185.000000
0
LINE
8
0
10
-267.500000
20
165.000000
11
-267.413461
21
165.652294
0
LINE
8
0
10
-267.413461
20
165.652294
11
-267.165064
21
166.250000
0
LINE
8
0
10
-267.165064
20
166.250000
11
-266.771634
21
166.763972
0
LINE
8
0
10
-266.771634
20
166.763972
11
-266.250000
21
167.165064
0
LINE
8
0
10
-266.250000
20
167.165064
11
-265.641827
21
167.416266
0
LINE
8
0
10
-265.641827
20
167.416266
11
-265.000000
21
167.500000
0
LINE
8
0
10
-265.000000
20
167.500000
11
-264.358173
21
167.416266
0
LINE
8
0
10
-264.358173
20
167.416266
11
-263.750000
21
167.165064
0
LINE
8
0
10
-263.750000
20
167.165064
11
-263.228366
21
166.763972
0
LINE
8
0
10
-263.228366
20
166.763972
11
-262.834936
21
166.250000
0
LINE
8
0
10
-262.834936
20
166.250000
11
-262.586539
21
165.652294
0
LINE
8
0
10
-262.586539
20
165.652294
11
-262.500000
21
165.000000
0
LINE
8
0
10
-262.500000
20
165.000000
11
-262.500000
21
155.000000
0
LINE
8
0
10
-262.500000
20
155.000000
11
-262.586539
21
154.347706
0
LINE
8
0
10
-262.586539
20
154.347706
11
-262.834936
21
153.750000
0
LINE
8
0
10
-262.834936
20
153.750000
11
-263.228366
21
153.236028
0
LINE
8
0
10
-263.228366
20
153.236028
11
-263.750000
21
152.834936
0
LINE
8
0
10
-263.750000
20
152.834936
11
-264.358173
21
152.583734
0
LINE
8
0
10
-264.358173
20
152.583734
11
-265.000000
21
152.500000
0
LINE
8
0
10
-265.000000
20
152.500000
11
-265.641827
21
152.583734
0
LINE
8
0
10
-265.641827
20
152.583734
11
-266.250000
21
152.834936
0
LINE
8
0
10
-266.250000
20
152.834936
11
-266.771634
21
153.236028
0
LINE
8
0
10
-266.771634
20
153.236028
11
-267.165064
21
153.750000
0
LINE
8
0
10
-267.165064
20
153.750000
11
-267.413461
21
154.347706
0
LINE
8
0
10
-267.413461
20
154.347706
11
-267.500000
21
155.000000
0
LINE
8
0
10
-267.500000
20
155.000000
11
-267.500000
21
165.000000
0
LINE
8
0
10
-267.500000
20
165.000000
11
-267.500000
21
165.000000
0
LINE
8
0
10
-447.499000
20
135.000000
11
-447.499000
21
145.000000
0
LINE
8
0
10
-447.499000
20
145.000000
11
-447.412461
21
145.652294
0
LINE
8
0
10
-447.412461
20
145.652294
11
-447.164064
21
146.250000
0
LINE
8
0
10
-447.164064
20
146.250000
11
-446.770634
21
146.763972
0
LINE
8
0
10
-446.770634
20
146.763972
11
-446.249000
21
147.165064
0
LINE
8
0
10
-446.249000
20
147.165064
11
-445.640827
21
147.416266
0
LINE
8
0
10
-445.640827
20
147.416266
11
-444.999000
21
147.500000
0
LINE
8
0
10
-444.999000
20
147.500000
11
-444.357173
21
147.416266
0
LINE
8
0
10
-444.357173
20
147.416266
11
-443.749000
21
147.165064
0
LINE
8
0
10
-443.749000
20
147.165064
11
-443.227366
21
146.763972
0
LINE
8
0
10
-443.227366
20
146.763972
11
-442.833936
21
146.250000
0
LINE
8
0
10
-442.833936
20
146.250000
11
-442.585539
21
145.652294
0
LINE
8
0
10
-442.585539
20
145.652294
11
-442.499000
21
145.000000
0
LINE
8
0
10
-442.499000
20
145.000000
11
-442.499000
21
135.000000
0
LINE
8
0
10
-442.499000
20
135.000000
11
-442.585539
21
134.347706
0
LINE
8
0
10
-442.585539
20
134.347706
11
-442.833936
21
133.750000
0
LINE
8
0
10
-442.833936
20
133.750000
11
-443.227366
21
133.236028
0
LINE
8
0
10
-443.227366
20
133.236028
11
-443.749000
21
132.834936
0
LINE
8
0
10
-443.749000
20
132.834936
11
-444.357173
21
132.583734
0
LINE
8
0
10
-444.357173
20
132.583734
11
-444.999000
21
132.500000
0
LINE
8
0
10
-444.999000
20
132.500000
11
-445.640827
21
132.583734
0
LINE
8
0
10
-445.640827
20
132.583734
11
-446.249000
21
132.834936
0
LINE
8
0
10
-446.249000
20
132.834936
11
-446.770634
21
133.236028
0
LINE
8
0
10
-446.770634
20
133.236028
11
-447.164064
21
133.750000
0
LINE
8
0
10
-447.164064
20
133.750000
11
-447.412461
21
134.347706
0
LINE
8
0
10
-447.412461
20
134.347706
11
-447.499000
21
135.000000
0
LINE
8
0
10
-447.499000
20
135.000000
11
-447.499000
21
135.000000
0
LINE
8
0
10
-267.500000
20
35.000300
11
-267.500000
21
45.000300
0
LINE
8
0
10
-267.500000
20
45.000300
11
-267.413461
21
45.652594
0
LINE
8
0
10
-267.413461
20
45.652594
11
-267.165064
21
46.250300
0
LINE
8
0
10
-267.165064
20
46.250300
11
-266.771634
21
46.764272
0
LINE
8
0
10
-266.771634
20
46.764272
11
-266.250000
21
47.165364
0
LINE
8
0
10
-266.250000
20
47.165364
11
-265.641827
21
47.416566
0
LINE
8
0
10
-265.641827
20
47.416566
11
-265.000000
21
47.500300
0
LINE
8
0
10
-265.000000
20
47.500300
11
-264.358173
21
47.416566
0
LINE
8
0
10
-264.358173
20
47.416566
11
-263.750000
21
47.165364
0
LINE
8
0
10
-263.750000
20
47.165364
11
-263.228366
21
46.764272
0
LINE
8
0
10
-263.228366
20
46.764272
11
-262.834936
21
46.250300
0
LINE
8
0
10
-262.834936
20
46.250300
11
-262.586539
21
45.652594
0
LINE
8
0
10
-262.586539
20
45.652594
11
-262.500000
21
45.000300
0
LINE
8
0
10
-262.500000
20
45.000300
11
-262.500000
21
35.000300
0
LINE
8
0
10
-262.500000
20
35.000300
11
-262.586539
21
34.348006
0
LINE
8
0
10
-262.586539
20
34.348006
11
-262.834936
21
33.750300
0
LINE
8
0
10
-262.834936
20
33.750300
11
-263.228366
21
33.236328
0
LINE
8
0
10
-263.228366
20
33.236328
11
-263.750000
21
32.835236
0
LINE
8
0
10
-263.750000
20
32.835236
11
-264.358173
21
32.584034
0
LINE
8
0
10
-264.358173
20
32.584034
11
-265.000000
21
32.500300
0
LINE
8
0
10
-265.000000
20
32.500300
11
-265.641827
21
32.584034
0
LINE
8
0
10
-265.641827
20
32.584034
11
-266.250000
21
32.835236
0
LINE
8
0
10
-266.250000
20
32.835236
11
-266.771634
21
33.236328
0
LINE
8
0
10
-266.771634
20
33.236328
11
-267.165064
21
33.750300
0
LINE
8
0
10
-267.165064
20
33.750300
11
-267.413461
21
34.348006
0
LINE
8
0
10
-267.413461
20
34.348006
11
-267.500000
21
35.000300
0
LINE
8
0
10
-267.500000
20
35.000300
11
-267.500000
21
35.000300
0
LINE
8
0
10
-322.500000
20
65.000300
11
-322.500000
21
55.000300
0
LINE
8
0
10
-322.500000
20
55.000300
11
-322.586539
21
54.348006
0
LINE
8
0
10
-322.586539
20
54.348006
11
-322.834936
21
53.750300
0
LINE
8
0
10
-322.834936
20
53.750300
11
-323.228366
21
53.236328
0
LINE
8
0
10
-323.228366
20
53.236328
11
-323.750000
21
52.835236
0
LINE
8
0
10
-323.750000
20
52.835236
11
-324.358173
21
52.584034
0
LINE
8
0
10
-324.358173
20
52.584034
11
-325.000000
21
52.500300
0
LINE
8
0
10
-325.000000
20
52.500300
11
-325.641827
21
52.584034
0
LINE
8
0
10
-325.641827
20
52.584034
11
-326.250000
21
52.835236
0
LINE
8
0
10
-326.250000
20
52.835236
11
-326.771634
21
53.236328
0
LINE
8
0
10
-326.771634
20
53.236328
11
-327.165064
21
53.750300
0
LINE
8
0
10
-327.165064
20
53.750300
11
-327.413461
21
54.348006
0
LINE
8
0
10
-327.413461
20
54.348006
11
-327.500000
21
55.000300
0
LINE
8
0
10
-327.500000
20
55.000300
11
-327.500000
21
65.000300
0
LINE
8
0
10
-327.500000
20
65.000300
11
-327.413461
21
65.652594
0
LINE
8
0
10
-327.413461
20
65.652594
11
-327.165064
21
66.250300
0
LINE
8
0
10
-327.165064
20
66.250300
11
-326.771634
21
66.764272
0
LINE
8
0
10
-326.771634
20
66.764272
11
-326.250000
21
67.165364
0
LINE
8
0
10
-326.250000
20
67.165364
11
-325.641827
21
67.416566
0
LINE
8
0
10
-325.641827
20
67.416566
11
-325.000000
21
67.500300
0
LINE
8
0
10
-325.000000
20
67.500300
11
-324.358173
21
67.416566
0
LINE
8
0
10
-324.358173
20
67.416566
11
-323.750000
21
67.165364
0
LINE
8
0
10
-323.750000
20
67.165364
11
-323.228366
21
66.764272
0
LINE
8
0
10
-323.228366
20
66.764272
11
-322.834936
21
66.250300
0
LINE
8
0
10
-322.834936
20
66.250300
11
-322.586539
21
65.652594
0
LINE
8
0
10
-322.586539
20
65.652594
11
-322.500000
21
65.000300
0
LINE
8
0
10
-322.500000
20
65.000300
11
-322.500000
21
65.000300
0
LINE
8
0
10
-362.500000
20
55.000300
11
-362.586539
21
54.348006
0
LINE
8
0
10
-362.586539
20
54.348006
11
-362.834936
21
53.750300
0
LINE
8
0
10
-362.834936
20
53.750300
11
-363.228366
21
53.236328
0
LINE
8
0
10
-363.228366
20
53.236328
11
-363.750000
21
52.835236
0
LINE
8
0
10
-363.750000
20
52.835236
11
-364.358173
21
52.584034
0
LINE
8
0
10
-364.358173
20
52.584034
11
-365.000000
21
52.500300
0
LINE
8
0
10
-365.000000
20
52.500300
11
-365.641827
21
52.584034
0
LINE
8
0
10
-365.641827
20
52.584034
11
-366.250000
21
52.835236
0
LINE
8
0
10
-366.250000
20
52.835236
11
-366.771634
21
53.236328
0
LINE
8
0
10
-366.771634
20
53.236328
11
-367.165064
21
53.750300
0
LINE
8
0
10
-367.165064
20
53.750300
11
-367.413461
21
54.348006
0
LINE
8
0
10
-367.413461
20
54.348006
11
-367.500000
21
55.000300
0
LINE
8
0
10
-367.500000
20
55.000300
11
-367.500000
21
65.000300
0
LINE
8
0
10
-367.500000
20
65.000300
11
-367.413461
21
65.652594
0
LINE
8
0
10
-367.413461
20
65.652594
11
-367.165064
21
66.250300
0
LINE
8
0
10
-367.165064
20
66.250300
11
-366.771634
21
66.764272
0
LINE
8
0
10
-366.771634
20
66.764272
11
-366.250000
21
67.165364
0
LINE
8
0
10
-366.250000
20
67.165364
11
-365.641827
21
67.416566
0
LINE
8
0
10
-365.641827
20
67.416566
11
-365.000000
21
67.500300
0
LINE
8
0
10
-365.000000
20
67.500300
11
-364.358173
21
67.416566
0
LINE
8
0
10
-364.358173
20
67.416566
11
-363.750000
21
67.165364
0
LINE
8
0
10
-363.750000
20
67.165364
11
-363.228366
21
66.764272
0
LINE
8
0
10
-363.228366
20
66.764272
11
-362.834936
21
66.250300
0
LINE
8
0
10
-362.834936
20
66.250300
11
-362.586539
21
65.652594
0
LINE
8
0
10
-362.586539
20
65.652594
11
-362.500000
21
65.000300
0
LINE
8
0
10
-362.500000
20
65.000300
11
-362.500000
21
55.000300
0
LINE
8
0
10
-362.500000
20
55.000300
11
-362.500000
21
55.000300
0
LINE
8
0
10
-407.499000
20
25.000300
11
-407.412461
21
25.652594
0
LINE
8
0
10
-407.412461
20
25.652594
11
-407.164064
21
26.250300
0
LINE
8
0
10
-407.164064
20
26.250300
11
-406.770634
21
26.764272
0
LINE
8
0
10
-406.770634
20
26.764272
11
-406.249000
21
27.165364
0
LINE
8
0
10
-406.249000
20
27.165364
11
-405.640827
21
27.416566
0
LINE
8
0
10
-405.640827
20
27.416566
11
-404.999000
21
27.500300
0
LINE
8
0
10
-404.999000
20
27.500300
11
-404.357173
21
27.416566
0
LINE
8
0
10
-404.357173
20
27.416566
11
-403.749000
21
27.165364
0
LINE
8
0
10
-403.749000
20
27.165364
11
-403.227366
21
26.764272
0
LINE
8
0
10
-403.227366
20
26.764272
11
-402.833936
21
26.250300
0
LINE
8
0
10
-402.833936
20
26.250300
11
-402.585539
21
25.652594
0
LINE
8
0
10
-402.585539
20
25.652594
11
-402.499000
21
25.000300
0
LINE
8
0
10
-402.499000
20
25.000300
11
-402.499000
21
15.000400
0
LINE
8
0
10
-402.499000
20
15.000400
11
-402.585539
21
14.348106
0
LINE
8
0
10
-402.585539
20
14.348106
11
-402.833936
21
13.750400
0
LINE
8
0
10
-402.833936
20
13.750400
11
-403.227366
21
13.236428
0
LINE
8
0
10
-403.227366
20
13.236428
11
-403.749000
21
12.835336
0
LINE
8
0
10
-403.749000
20
12.835336
11
-404.357173
21
12.584134
0
LINE
8
0
10
-404.357173
20
12.584134
11
-404.999000
21
12.500400
0
LINE
8
0
10
-404.999000
20
12.500400
11
-405.640827
21
12.584134
0
LINE
8
0
10
-405.640827
20
12.584134
11
-406.249000
21
12.835336
0
LINE
8
0
10
-406.249000
20
12.835336
11
-406.770634
21
13.236428
0
LINE
8
0
10
-406.770634
20
13.236428
11
-407.164064
21
13.750400
0
LINE
8
0
10
-407.164064
20
13.750400
11
-407.412461
21
14.348106
0
LINE
8
0
10
-407.412461
20
14.348106
11
-407.499000
21
15.000400
0
LINE
8
0
10
-407.499000
20
15.000400
11
-407.499000
21
25.000300
0
LINE
8
0
10
-407.499000
20
25.000300
11
-407.499000
21
25.000300
0
LINE
8
0
10
-507.499000
20
115.000000
11
-507.499000
21
125.000000
0
LINE
8
0
10
-507.499000
20
125.000000
11
-507.412461
21
125.652294
0
LINE
8
0
10
-507.412461
20
125.652294
11
-507.164064
21
126.250000
0
LINE
8
0
10
-507.164064
20
126.250000
11
-506.770634
21
126.763972
0
LINE
8
0
10
-506.770634
20
126.763972
11
-506.249000
21
127.165064
0
LINE
8
0
10
-506.249000
20
127.165064
11
-505.640827
21
127.416266
0
LINE
8
0
10
-505.640827
20
127.416266
11
-504.999000
21
127.500000
0
LINE
8
0
10
-504.999000
20
127.500000
11
-504.357173
21
127.416266
0
LINE
8
0
10
-504.357173
20
127.416266
11
-503.749000
21
127.165064
0
LINE
8
0
10
-503.749000
20
127.165064
11
-503.227366
21
126.763972
0
LINE
8
0
10
-503.227366
20
126.763972
11
-502.833936
21
126.250000
0
LINE
8
0
10
-502.833936
20
126.250000
11
-502.585539
21
125.652294
0
LINE
8
0
10
-502.585539
20
125.652294
11
-502.499000
21
125.000000
0
LINE
8
0
10
-502.499000
20
125.000000
11
-502.499000
21
115.000000
0
LINE
8
0
10
-502.499000
20
115.000000
11
-502.585539
21
114.347706
0
LINE
8
0
10
-502.585539
20
114.347706
11
-502.833936
21
113.750000
0
LINE
8
0
10
-502.833936
20
113.750000
11
-503.227366
21
113.236028
0
LINE
8
0
10
-503.227366
20
113.236028
11
-503.749000
21
112.834936
0
LINE
8
0
10
-503.749000
20
112.834936
11
-504.357173
21
112.583734
0
LINE
8
0
10
-504.357173
20
112.583734
11
-504.999000
21
112.500000
0
LINE
8
0
10
-504.999000
20
112.500000
11
-505.640827
21
112.583734
0
LINE
8
0
10
-505.640827
20
112.583734
11
-506.249000
21
112.834936
0
LINE
8
0
10
-506.249000
20
112.834936
11
-506.770634
21
113.236028
0
LINE
8
0
10
-506.770634
20
113.236028
11
-507.164064
21
113.750000
0
LINE
8
0
10
-507.164064
20
113.750000
11
-507.412461
21
114.347706
0
LINE
8
0
10
-507.412461
20
114.347706
11
-507.499000
21
115.000000
0
LINE
8
0
10
-507.499000
20
115.000000
11
-507.499000
21
115.000000
0
LINE
8
0
10
-467.499000
20
155.000000
11
-467.499000
21
165.000000
0
LINE
8
0
10
-467.499000
20
165.000000
11
-467.412461
21
165.652294
0
LINE
8
0
10
-467.412461
20
165.652294
11
-467.164064
21
166.250000
0
LINE
8
0
10
-467.164064
20
166.250000
11
-466.770634
21
166.763972
0
LINE
8
0
10
-466.770634
20
166.763972
11
-466.249000
21
167.165064
0
LINE
8
0
10
-466.249000
20
167.165064
11
-465.640827
21
167.416266
0
LINE
8
0
10
-465.640827
20
167.416266
11
-464.999000
21
167.500000
0
LINE
8
0
10
-464.999000
20
167.500000
11
-464.357173
21
167.416266
0
LINE
8
0
10
-464.357173
20
167.416266
11
-463.749000
21
167.165064
0
LINE
8
0
10
-463.749000
20
167.165064
11
-463.227366
21
166.763972
0
LINE
8
0
10
-463.227366
20
166.763972
11
-462.833936
21
166.250000
0
LINE
8
0
10
-462.833936
20
166.250000
11
-462.585539
21
165.652294
0
LINE
8
0
10
-462.585539
20
165.652294
11
-462.499000
21
165.000000
0
LINE
8
0
10
-462.499000
20
165.000000
11
-462.499000
21
155.000000
0
LINE
8
0
10
-462.499000
20
155.000000
11
-462.585539
21
154.347706
0
LINE
8
0
10
-462.585539
20
154.347706
11
-462.833936
21
153.750000
0
LINE
8
0
10
-462.833936
20
153.750000
11
-463.227366
21
153.236028
0
LINE
8
0
10
-463.227366
20
153.236028
11
-463.749000
21
152.834936
0
LINE
8
0
10
-463.749000
20
152.834936
11
-464.357173
21
152.583734
0
LINE
8
0
10
-464.357173
20
152.583734
11
-464.999000
21
152.500000
0
LINE
8
0
10
-464.999000
20
152.500000
11
-465.640827
21
152.583734
0
LINE
8
0
10
-465.640827
20
152.583734
11
-466.249000
21
152.834936
0
LINE
8
0
10
-466.249000
20
152.834936
11
-466.770634
21
153.236028
0
LINE
8
0
10
-466.770634
20
153.236028
11
-467.164064
21
153.750000
0
LINE
8
0
10
-467.164064
20
153.750000
11
-467.412461
21
154.347706
0
LINE
8
0
10
-467.412461
20
154.347706
11
-467.499000
21
155.000000
0
LINE
8
0
10
-467.499000
20
155.000000
11
-467.499000
21
155.000000
0
LINE
8
0
10
-287.500000
20
175.000000
11
-287.500000
21
185.000000
0
LINE
8
0
10
-287.500000
20
185.000000
11
-287.413461
21
185.652294
0
LINE
8
0
10
-287.413461
20
185.652294
11
-287.165064
21
186.250000
0
LINE
8
0
10
-287.165064
20
186.250000
11
-286.771634
21
186.763972
0
LINE
8
0
10
-286.771634
20
186.763972
11
-286.250000
21
187.165064
0
LINE
8
0
10
-286.250000
20
187.165064
11
-285.641827
21
187.416266
0
LINE
8
0
10
-285.641827
20
187.416266
11
-285.000000
21
187.500000
0
LINE
8
0
10
-285.000000
20
187.500000
11
-284.358173
21
187.416266
0
LINE
8
0
10
-284.358173
20
187.416266
11
-283.750000
21
187.165064
0
LINE
8
0
10
-283.750000
20
187.165064
11
-283.228366
21
186.763972
0
LINE
8
0
10
-283.228366
20
186.763972
11
-282.834936
21
186.250000
0
LINE
8
0
10
-282.834936
20
186.250000
11
-282.586539
21
185.652294
0
LINE
8
0
10
-282.586539
20
185.652294
11
-282.500000
21
185.000000
0
LINE
8
0
10
-282.500000
20
185.000000
11
-282.500000
21
175.000000
0
LINE
8
0
10
-282.500000
20
175.000000
11
-282.586539
21
174.347706
0
LINE
8
0
10
-282.586539
20
174.347706
11
-282.834936
21
173.750000
0
LINE
8
0
10
-282.834936
20
173.750000
11
-283.228366
21
173.236028
0
LINE
8
0
10
-283.228366
20
173.236028
11
-283.750000
21
172.834936
0
LINE
8
0
10
-283.750000
20
172.834936
11
-284.358173
21
172.583734
0
LINE
8
0
10
-284.358173
20
172.583734
11
-285.000000
21
172.500000
0
LINE
8
0
10
-285.000000
20
172.500000
11
-285.641827
21
172.583734
0
LINE
8
0
10
-285.641827
20
172.583734
11
-286.250000
21
172.834936
0
LINE
8
0
10
-286.250000
20
172.834936
11
-286.771634
21
173.236028
0
LINE
8
0
10
-286.771634
20
173.236028
11
-287.165064
21
173.750000
0
LINE
8
0
10
-287.165064
20
173.750000
11
-287.413461
21
174.347706
0
LINE
8
0
10
-287.413461
20
174.347706
11
-287.500000
21
175.000000
0
LINE
8
0
10
-287.500000
20
175.000000
11
-287.500000
21
175.000000
0
LINE
8
0
10
-322.500000
20
25.000300
11
-322.500000
21
15.000400
0
LINE
8
0
10
-322.500000
20
15.000400
11
-322.586539
21
14.348106
0
LINE
8
0
10
-322.586539
20
14.348106
11
-322.834936
21
13.750400
0
LINE
8
0
10
-322.834936
20
13.750400
11
-323.228366
21
13.236428
0
LINE
8
0
10
-323.228366
20
13.236428
11
-323.750000
21
12.835336
0
LINE
8
0
10
-323.750000
20
12.835336
11
-324.358173
21
12.584134
0
LINE
8
0
10
-324.358173
20
12.584134
11
-325.000000
21
12.500400
0
LINE
8
0
10
-325.000000
20
12.500400
11
-325.641827
21
12.584134
0
LINE
8
0
10
-325.641827
20
12.584134
11
-326.250000
21
12.835336
0
LINE
8
0
10
-326.250000
20
12.835336
11
-326.771634
21
13.236428
0
LINE
8
0
10
-326.771634
20
13.236428
11
-327.165064
21
13.750400
0
LINE
8
0
10
-327.165064
20
13.750400
11
-327.413461
21
14.348106
0
LINE
8
0
10
-327.413461
20
14.348106
11
-327.500000
21
15.000400
0
LINE
8
0
10
-327.500000
20
15.000400
11
-327.500000
21
25.000300
0
LINE
8
0
10
-327.500000
20
25.000300
11
-327.413461
21
25.652594
0
LINE
8
0
10
-327.413461
20
25.652594
11
-327.165064
21
26.250300
0
LINE
8
0
10
-327.165064
20
26.250300
11
-326.771634
21
26.764272
0
LINE
8
0
10
-326.771634
20
26.764272
11
-326.250000
21
27.165364
0
LINE
8
0
10
-326.250000
20
27.165364
11
-325.641827
21
27.416566
0
LINE
8
0
10
-325.641827
20
27.416566
11
-325.000000
21
27.500300
0
LINE
8
0
10
-325.000000
20
27.500300
11
-324.358173
21
27.416566
0
LINE
8
0
10
-324.358173
20
27.416566
11
-323.750000
21
27.165364
0
LINE
8
0
10
-323.750000
20
27.165364
11
-323.228366
21
26.764272
0
LINE
8
0
10
-323.228366
20
26.764272
11
-322.834936
21
26.250300
0
LINE
8
0
10
-322.834936
20
26.250300
11
-322.586539
21
25.652594
0
LINE
8
0
10
-322.586539
20
25.652594
11
-322.500000
21
25.000300
0
LINE
8
0
10
-322.500000
20
25.000300
11
-322.500000
21
25.000300
0
LINE
8
0
10
-327.500000
20
185.000000
11
-327.413461
21
185.652294
0
LINE
8
0
10
-327.413461
20
185.652294
11
-327.165064
21
186.250000
0
LINE
8
0
10
-327.165064
20
186.250000
11
-326.771634
21
186.763972
0
LINE
8
0
10
-326.771634
20
186.763972
11
-326.250000
21
187.165064
0
LINE
8
0
10
-326.250000
20
187.165064
11
-325.641827
21
187.416266
0
LINE
8
0
10
-325.641827
20
187.416266
11
-325.000000
21
187.500000
0
LINE
8
0
10
-325.000000
20
187.500000
11
-324.358173
21
187.416266
0
LINE
8
0
10
-324.358173
20
187.416266
11
-323.750000
21
187.165064
0
LINE
8
0
10
-323.750000
20
187.165064
11
-323.228366
21
186.763972
0
LINE
8
0
10
-323.228366
20
186.763972
11
-322.834936
21
186.250000
0
LINE
8
0
10
-322.834936
20
186.250000
11
-322.586539
21
185.652294
0
LINE
8
0
10
-322.586539
20
185.652294
11
-322.500000
21
185.000000
0
LINE
8
0
10
-322.500000
20
185.000000
11
-322.500000
21
175.000000
0
LINE
8
0
10
-322.500000
20
175.000000
11
-322.586539
21
174.347706
0
LINE
8
0
10
-322.586539
20
174.347706
11
-322.834936
21
173.750000
0
LINE
8
0
10
-322.834936
20
173.750000
11
-323.228366
21
173.236028
0
LINE
8
0
10
-323.228366
20
173.236028
11
-323.750000
21
172.834936
0
LINE
8
0
10
-323.750000
20
172.834936
11
-324.358173
21
172.583734
0
LINE
8
0
10
-324.358173
20
172.583734
11
-325.000000
21
172.500000
0
LINE
8
0
10
-325.000000
20
172.500000
11
-325.641827
21
172.583734
0
LINE
8
0
10
-325.641827
20
172.583734
11
-326.250000
21
172.834936
0
LINE
8
0
10
-326.250000
20
172.834936
11
-326.771634
21
173.236028
0
LINE
8
0
10
-326.771634
20
173.236028
11
-327.165064
21
173.750000
0
LINE
8
0
10
-327.165064
20
173.750000
11
-327.413461
21
174.347706
0
LINE
8
0
10
-327.413461
20
174.347706
11
-327.500000
21
175.000000
0
LINE
8
0
10
-327.500000
20
175.000000
11
-327.500000
21
185.000000
0
LINE
8
0
10
-327.500000
20
185.000000
11
-327.500000
21
185.000000
0
LINE
8
0
10
-247.500000
20
55.000300
11
-247.500000
21
65.000300
0
LINE
8
0
10
-247.500000
20
65.000300
11
-247.413461
21
65.652594
0
LINE
8
0
10
-247.413461
20
65.652594
11
-247.165064
21
66.250300
0
LINE
8
0
10
-247.165064
20
66.250300
11
-246.771634
21
66.764272
0
LINE
8
0
10
-246.771634
20
66.764272
11
-246.250000
21
67.165364
0
LINE
8
0
10
-246.250000
20
67.165364
11
-245.641827
21
67.416566
0
LINE
8
0
10
-245.641827
20
67.416566
11
-245.000000
21
67.500300
0
LINE
8
0
10
-245.000000
20
67.500300
11
-244.358173
21
67.416566
0
LINE
8
0
10
-244.358173
20
67.416566
11
-243.750000
21
67.165364
0
LINE
8
0
10
-243.750000
20
67.165364
11
-243.228366
21
66.764272
0
LINE
8
0
10
-243.228366
20
66.764272
11
-242.834936
21
66.250300
0
LINE
8
0
10
-242.834936
20
66.250300
11
-242.586539
21
65.652594
0
LINE
8
0
10
-242.586539
20
65.652594
11
-242.500000
21
65.000300
0
LINE
8
0
10
-242.500000
20
65.000300
11
-242.500000
21
55.000300
0
LINE
8
0
10
-242.500000
20
55.000300
11
-242.586539
21
54.348006
0
LINE
8
0
10
-242.586539
20
54.348006
11
-242.834936
21
53.750300
0
LINE
8
0
10
-242.834936
20
53.750300
11
-243.228366
21
53.236328
0
LINE
8
0
10
-243.228366
20
53.236328
11
-243.750000
21
52.835236
0
LINE
8
0
10
-243.750000
20
52.835236
11
-244.358173
21
52.584034
0
LINE
8
0
10
-244.358173
20
52.584034
11
-245.000000
21
52.500300
0
LINE
8
0
10
-245.000000
20
52.500300
11
-245.641827
21
52.584034
0
LINE
8
0
10
-245.641827
20
52.584034
11
-246.250000
21
52.835236
0
LINE
8
0
10
-246.250000
20
52.835236
11
-246.771634
21
53.236328
0
LINE
8
0
10
-246.771634
20
53.236328
11
-247.165064
21
53.750300
0
LINE
8
0
10
-247.165064
20
53.750300
11
-247.413461
21
54.348006
0
LINE
8
0
10
-247.413461
20
54.348006
11
-247.500000
21
55.000300
0
LINE
8
0
10
-247.500000
20
55.000300
11
-247.500000
21
55.000300
0
LINE
8
0
10
-347.500000
20
115.000000
11
-347.500000
21
125.000000
0
LINE
8
0
10
-347.500000
20
125.000000
11
-347.413461
21
125.652294
0
LINE
8
0
10
-347.413461
20
125.652294
11
-347.165064
21
126.250000
0
LINE
8
0
10
-347.165064
20
126.250000
11
-346.771634
21
126.763972
0
LINE
8
0
10
-346.771634
20
126.763972
11
-346.250000
21
127.165064
0
LINE
8
0
10
-346.250000
20
127.165064
11
-345.641827
21
127.416266
0
LINE
8
0
10
-345.641827
20
127.416266
11
-345.000000
21
127.500000
0
LINE
8
0
10
-345.000000
20
127.500000
11
-344.358173
21
127.416266
0
LINE
8
0
10
-344.358173
20
127.416266
11
-343.750000
21
127.165064
0
LINE
8
0
10
-343.750000
20
127.165064
11
-343.228366
21
126.763972
0
LINE
8
0
10
-343.228366
20
126.763972
11
-342.834936
21
126.250000
0
LINE
8
0
10
-342.834936
20
126.250000
11
-342.586539
21
125.652294
0
LINE
8
0
10
-342.586539
20
125.652294
11
-342.500000
21
125.000000
0
LINE
8
0
10
-342.500000
20
125.000000
11
-342.500000
21
115.000000
0
LINE
8
0
10
-342.500000
20
115.000000
11
-342.586539
21
114.347706
0
LINE
8
0
10
-342.586539
20
114.347706
11
-342.834936
21
113.750000
0
LINE
8
0
10
-342.834936
20
113.750000
11
-343.228366
21
113.236028
0
LINE
8
0
10
-343.228366
20
113.236028
11
-343.750000
21
112.834936
0
LINE
8
0
10
-343.750000
20
112.834936
11
-344.358173
21
112.583734
0
LINE
8
0
10
-344.358173
20
112.583734
11
-345.000000
21
112.500000
0
LINE
8
0
10
-345.000000
20
112.500000
11
-345.641827
21
112.583734
0
LINE
8
0
10
-345.641827
20
112.583734
11
-346.250000
21
112.834936
0
LINE
8
0
10
-346.250000
20
112.834936
11
-346.771634
21
113.236028
0
LINE
8
0
10
-346.771634
20
113.236028
11
-347.165064
21
113.750000
0
LINE
8
0
10
-347.165064
20
113.750000
11
-347.413461
21
114.347706
0
LINE
8
0
10
-347.413461
20
114.347706
11
-347.500000
21
115.000000
0
LINE
8
0
10
-347.500000
20
115.000000
11
-347.500000
21
115.000000
0
LINE
8
0
10
-247.500000
20
135.000000
11
-247.500000
21
145.000000
0
LINE
8
0
10
-247.500000
20
145.000000
11
-247.413461
21
145.652294
0
LINE
8
0
10
-247.413461
20
145.652294
11
-247.165064
21
146.250000
0
LINE
8
0
10
-247.165064
20
146.250000
11
-246.771634
21
146.763972
0
LINE
8
0
10
-246.771634
20
146.763972
11
-246.250000
21
147.165064
0
LINE
8
0
10
-246.250000
20
147.165064
11
-245.641827
21
147.416266
0
LINE
8
0
10
-245.641827
20
147.416266
11
-245.000000
21
147.500000
0
LINE
8
0
10
-245.000000
20
147.500000
11
-244.358173
21
147.416266
0
LINE
8
0
10
-244.358173
20
147.416266
11
-243.750000
21
147.165064
0
LINE
8
0
10
-243.750000
20
147.165064
11
-243.228366
21
146.763972
0
LINE
8
0
10
-243.228366
20
146.763972
11
-242.834936
21
146.250000
0
LINE
8
0
10
-242.834936
20
146.250000
11
-242.586539
21
145.652294
0
LINE
8
0
10
-242.586539
20
145.652294
11
-242.500000
21
145.000000
0
LINE
8
0
10
-242.500000
20
145.000000
11
-242.500000
21
135.000000
0
LINE
8
0
10
-242.500000
20
135.000000
11
-242.586539
21
134.347706
0
LINE
8
0
10
-242.586539
20
134.347706
11
-242.834936
21
133.750000
0
LINE
8
0
10
-242.834936
20
133.750000
11
-243.228366
21
133.236028
0
LINE
8
0
10
-243.228366
20
133.236028
11
-243.750000
21
132.834936
0
LINE
8
0
10
-243.750000
20
132.834936
11
-244.358173
21
132.583734
0
LINE
8
0
10
-244.358173
20
132.583734
11
-245.000000
21
132.500000
0
LINE
8
0
10
-245.000000
20
132.500000
11
-245.641827
21
132.583734
0
LINE
8
0
10
-245.641827
20
132.583734
11
-246.250000
21
132.834936
0
LINE
8
0
10
-246.250000
20
132.834936
11
-246.771634
21
133.236028
0
LINE
8
0
10
-246.771634
20
133.236028
11
-247.165064
21
133.750000
0
LINE
8
0
10
-247.165064
20
133.750000
11
-247.413461
21
134.347706
0
LINE
8
0
10
-247.413461
20
134.347706
11
-247.500000
21
135.000000
0
LINE
8
0
10
-247.500000
20
135.000000
11
-247.500000
21
135.000000
0
LINE
8
0
10
-442.499000
20
65.000300
11
-442.499000
21
55.000300
0
LINE
8
0
10
-442.499000
20
55.000300
11
-442.585539
21
54.348006
0
LINE
8
0
10
-442.585539
20
54.348006
11
-442.833936
21
53.750300
0
LINE
8
0
10
-442.833936
20
53.750300
11
-443.227366
21
53.236328
0
LINE
8
0
10
-443.227366
20
53.236328
11
-443.749000
21
52.835236
0
LINE
8
0
10
-443.749000
20
52.835236
11
-444.357173
21
52.584034
0
LINE
8
0
10
-444.357173
20
52.584034
11
-444.999000
21
52.500300
0
LINE
8
0
10
-444.999000
20
52.500300
11
-445.640827
21
52.584034
0
LINE
8
0
10
-445.640827
20
52.584034
11
-446.249000
21
52.835236
0
LINE
8
0
10
-446.249000
20
52.835236
11
-446.770634
21
53.236328
0
LINE
8
0
10
-446.770634
20
53.236328
11
-447.164064
21
53.750300
0
LINE
8
0
10
-447.164064
20
53.750300
11
-447.412461
21
54.348006
0
LINE
8
0
10
-447.412461
20
54.348006
11
-447.499000
21
55.000300
0
LINE
8
0
10
-447.499000
20
55.000300
11
-447.499000
21
65.000300
0
LINE
8
0
10
-447.499000
20
65.000300
11
-447.412461
21
65.652594
0
LINE
8
0
10
-447.412461
20
65.652594
11
-447.164064
21
66.250300
0
LINE
8
0
10
-447.164064
20
66.250300
11
-446.770634
21
66.764272
0
LINE
8
0
10
-446.770634
20
66.764272
11
-446.249000
21
67.165364
0
LINE
8
0
10
-446.249000
20
67.165364
11
-445.640827
21
67.416566
0
LINE
8
0
10
-445.640827
20
67.416566
11
-444.999000
21
67.500300
0
LINE
8
0
10
-444.999000
20
67.500300
11
-444.357173
21
67.416566
0
LINE
8
0
10
-444.357173
20
67.416566
11
-443.749000
21
67.165364
0
LINE
8
0
10
-443.749000
20
67.165364
11
-443.227366
21
66.764272
0
LINE
8
0
10
-443.227366
20
66.764272
11
-442.833936
21
66.250300
0
LINE
8
0
10
-442.833936
20
66.250300
11
-442.585539
21
65.652594
0
LINE
8
0
10
-442.585539
20
65.652594
11
-442.499000
21
65.000300
0
LINE
8
0
10
-442.499000
20
65.000300
11
-442.499000
21
65.000300
0
LINE
8
0
10
-482.499000
20
175.000000
11
-482.585539
21
174.347706
0
LINE
8
0
10
-482.585539
20
174.347706
11
-482.833936
21
173.750000
0
LINE
8
0
10
-482.833936
20
173.750000
11
-483.227366
21
173.236028
0
LINE
8
0
10
-483.227366
20
173.236028
11
-483.749000
21
172.834936
0
LINE
8
0
10
-483.749000
20
172.834936
11
-484.357173
21
172.583734
0
LINE
8
0
10
-484.357173
20
172.583734
11
-484.999000
21
172.500000
0
LINE
8
0
10
-484.999000
20
172.500000
11
-485.640827
21
172.583734
0
LINE
8
0
10
-485.640827
20
172.583734
11
-486.249000
21
172.834936
0
LINE
8
0
10
-486.249000
20
172.834936
11
-486.770634
21
173.236028
0
LINE
8
0
10
-486.770634
20
173.236028
11
-487.164064
21
173.750000
0
LINE
8
0
10
-487.164064
20
173.750000
11
-487.412461
21
174.347706
0
LINE
8
0
10
-487.412461
20
174.347706
11
-487.499000
21
175.000000
0
LINE
8
0
10
-487.499000
20
175.000000
11
-487.499000
21
185.000000
0
LINE
8
0
10
-487.499000
20
185.000000
11
-487.412461
21
185.652294
0
LINE
8
0
10
-487.412461
20
185.652294
11
-487.164064
21
186.250000
0
LINE
8
0
10
-487.164064
20
186.250000
11
-486.770634
21
186.763972
0
LINE
8
0
10
-486.770634
20
186.763972
11
-486.249000
21
187.165064
0
LINE
8
0
10
-486.249000
20
187.165064
11
-485.640827
21
187.416266
0
LINE
8
0
10
-485.640827
20
187.416266
11
-484.999000
21
187.500000
0
LINE
8
0
10
-484.999000
20
187.500000
11
-484.357173
21
187.416266
0
LINE
8
0
10
-484.357173
20
187.416266
11
-483.749000
21
187.165064
0
LINE
8
0
10
-483.749000
20
187.165064
11
-483.227366
21
186.763972
0
LINE
8
0
10
-483.227366
20
186.763972
11
-482.833936
21
186.250000
0
LINE
8
0
10
-482.833936
20
186.250000
11
-482.585539
21
185.652294
0
LINE
8
0
10
-482.585539
20
185.652294
11
-482.499000
21
185.000000
0
LINE
8
0
10
-482.499000
20
185.000000
11
-482.499000
21
175.000000
0
LINE
8
0
10
-482.499000
20
175.000000
11
-482.499000
21
175.000000
0
LINE
8
0
10
-427.499000
20
35.000300
11
-427.499000
21
45.000300
0
LINE
8
0
10
-427.499000
20
45.000300
11
-427.412461
21
45.652594
0
LINE
8
0
10
-427.412461
20
45.652594
11
-427.164064
21
46.250300
0
LINE
8
0
10
-427.164064
20
46.250300
11
-426.770634
21
46.764272
0
LINE
8
0
10
-426.770634
20
46.764272
11
-426.249000
21
47.165364
0
LINE
8
0
10
-426.249000
20
47.165364
11
-425.640827
21
47.416566
0
LINE
8
0
10
-425.640827
20
47.416566
11
-424.999000
21
47.500300
0
LINE
8
0
10
-424.999000
20
47.500300
11
-424.357173
21
47.416566
0
LINE
8
0
10
-424.357173
20
47.416566
11
-423.749000
21
47.165364
0
LINE
8
0
10
-423.749000
20
47.165364
11
-423.227366
21
46.764272
0
LINE
8
0
10
-423.227366
20
46.764272
11
-422.833936
21
46.250300
0
LINE
8
0
10
-422.833936
20
46.250300
11
-422.585539
21
45.652594
0
LINE
8
0
10
-422.585539
20
45.652594
11
-422.499000
21
45.000300
0
LINE
8
0
10
-422.499000
20
45.000300
11
-422.499000
21
35.000300
0
LINE
8
0
10
-422.499000
20
35.000300
11
-422.585539
21
34.348006
0
LINE
8
0
10
-422.585539
20
34.348006
11
-422.833936
21
33.750300
0
LINE
8
0
10
-422.833936
20
33.750300
11
-423.227366
21
33.236328
0
LINE
8
0
10
-423.227366
20
33.236328
11
-423.749000
21
32.835236
0
LINE
8
0
10
-423.749000
20
32.835236
11
-424.357173
21
32.584034
0
LINE
8
0
10
-424.357173
20
32.584034
11
-424.999000
21
32.500300
0
LINE
8
0
10
-424.999000
20
32.500300
11
-425.640827
21
32.584034
0
LINE
8
0
10
-425.640827
20
32.584034
11
-426.249000
21
32.835236
0
LINE
8
0
10
-426.249000
20
32.835236
11
-426.770634
21
33.236328
0
LINE
8
0
10
-426.770634
20
33.236328
11
-427.164064
21
33.750300
0
LINE
8
0
10
-427.164064
20
33.750300
11
-427.412461
21
34.348006
0
LINE
8
0
10
-427.412461
20
34.348006
11
-427.499000
21
35.000300
0
LINE
8
0
10
-427.499000
20
35.000300
11
-427.499000
21
35.000300
0
LINE
8
0
10
-467.499000
20
35.000300
11
-467.499000
21
45.000300
0
LINE
8
0
10
-467.499000
20
45.000300
11
-467.412461
21
45.652594
0
LINE
8
0
10
-467.412461
20
45.652594
11
-467.164064
21
46.250300
0
LINE
8
0
10
-467.164064
20
46.250300
11
-466.770634
21
46.764272
0
LINE
8
0
10
-466.770634
20
46.764272
11
-466.249000
21
47.165364
0
LINE
8
0
10
-466.249000
20
47.165364
11
-465.640827
21
47.416566
0
LINE
8
0
10
-465.640827
20
47.416566
11
-464.999000
21
47.500300
0
LINE
8
0
10
-464.999000
20
47.500300
11
-464.357173
21
47.416566
0
LINE
8
0
10
-464.357173
20
47.416566
11
-463.749000
21
47.165364
0
LINE
8
0
10
-463.749000
20
47.165364
11
-463.227366
21
46.764272
0
LINE
8
0
10
-463.227366
20
46.764272
11
-462.833936
21
46.250300
0
LINE
8
0
10
-462.833936
20
46.250300
11
-462.585539
21
45.652594
0
LINE
8
0
10
-462.585539
20
45.652594
11
-462.499000
21
45.000300
0
LINE
8
0
10
-462.499000
20
45.000300
11
-462.499000
21
35.000300
0
LINE
8
0
10
-462.499000
20
35.000300
11
-462.585539
21
34.348006
0
LINE
8
0
10
-462.585539
20
34.348006
11
-462.833936
21
33.750300
0
LINE
8
0
10
-462.833936
20
33.750300
11
-463.227366
21
33.236328
0
LINE
8
0
10
-463.227366
20
33.236328
11
-463.749000
21
32.835236
0
LINE
8
0
10
-463.749000
20
32.835236
11
-464.357173
21
32.584034
0
LINE
8
0
10
-464.357173
20
32.584034
11
-464.999000
21
32.500300
0
LINE
8
0
10
-464.999000
20
32.500300
11
-465.640827
21
32.584034
0
LINE
8
0
10
-465.640827
20
32.584034
11
-466.249000
21
32.835236
0
LINE
8
0
10
-466.249000
20
32.835236
11
-466.770634
21
33.236328
0
LINE
8
0
10
-466.770634
20
33.236328
11
-467.164064
21
33.750300
0
LINE
8
0
10
-467.164064
20
33.750300
11
-467.412461
21
34.348006
0
LINE
8
0
10
-467.412461
20
34.348006
11
-467.499000
21
35.000300
0
LINE
8
0
10
-467.499000
20
35.000300
11
-467.499000
21
35.000300
0
LINE
8
0
10
-487.499000
20
25.000300
11
-487.412461
21
25.652594
0
LINE
8
0
10
-487.412461
20
25.652594
11
-487.164064
21
26.250300
0
LINE
8
0
10
-487.164064
20
26.250300
11
-486.770634
21
26.764272
0
LINE
8
0
10
-486.770634
20
26.764272
11
-486.249000
21
27.165364
0
LINE
8
0
10
-486.249000
20
27.165364
11
-485.640827
21
27.416566
0
LINE
8
0
10
-485.640827
20
27.416566
11
-484.999000
21
27.500300
0
LINE
8
0
10
-484.999000
20
27.500300
11
-484.357173
21
27.416566
0
LINE
8
0
10
-484.357173
20
27.416566
11
-483.749000
21
27.165364
0
LINE
8
0
10
-483.749000
20
27.165364
11
-483.227366
21
26.764272
0
LINE
8
0
10
-483.227366
20
26.764272
11
-482.833936
21
26.250300
0
LINE
8
0
10
-482.833936
20
26.250300
11
-482.585539
21
25.652594
0
LINE
8
0
10
-482.585539
20
25.652594
11
-482.499000
21
25.000300
0
LINE
8
0
10
-482.499000
20
25.000300
11
-482.499000
21
15.000400
0
LINE
8
0
10
-482.499000
20
15.000400
11
-482.585539
21
14.348106
0
LINE
8
0
10
-482.585539
20
14.348106
11
-482.833936
21
13.750400
0
LINE
8
0
10
-482.833936
20
13.750400
11
-483.227366
21
13.236428
0
LINE
8
0
10
-483.227366
20
13.236428
11
-483.749000
21
12.835336
0
LINE
8
0
10
-483.749000
20
12.835336
11
-484.357173
21
12.584134
0
LINE
8
0
10
-484.357173
20
12.584134
11
-484.999000
21
12.500400
0
LINE
8
0
10
-484.999000
20
12.500400
11
-485.640827
21
12.584134
0
LINE
8
0
10
-485.640827
20
12.584134
11
-486.249000
21
12.835336
0
LINE
8
0
10
-486.249000
20
12.835336
11
-486.770634
21
13.236428
0
LINE
8
0
10
-486.770634
20
13.236428
11
-487.164064
21
13.750400
0
LINE
8
0
10
-487.164064
20
13.750400
11
-487.412461
21
14.348106
0
LINE
8
0
10
-487.412461
20
14.348106
11
-487.499000
21
15.000400
0
LINE
8
0
10
-487.499000
20
15.000400
11
-487.499000
21
25.000300
0
LINE
8
0
10
-487.499000
20
25.000300
11
-487.499000
21
25.000300
0
LINE
8
0
10
-367.500000
20
175.000000
11
-367.500000
21
185.000000
0
LINE
8
0
10
-367.500000
20
185.000000
11
-367.413461
21
185.652294
0
LINE
8
0
10
-367.413461
20
185.652294
11
-367.165064
21
186.250000
0
LINE
8
0
10
-367.165064
20
186.250000
11
-366.771634
21
186.763972
0
LINE
8
0
10
-366.771634
20
186.763972
11
-366.250000
21
187.165064
0
LINE
8
0
10
-366.250000
20
187.165064
11
-365.641827
21
187.416266
0
LINE
8
0
10
-365.641827
20
187.416266
11
-365.000000
21
187.500000
0
LINE
8
0
10
-365.000000
20
187.500000
11
-364.358173
21
187.416266
0
LINE
8
0
10
-364.358173
20
187.416266
11
-363.750000
21
187.165064
0
LINE
8
0
10
-363.750000
20
187.165064
11
-363.228366
21
186.763972
0
LINE
8
0
10
-363.228366
20
186.763972
11
-362.834936
21
186.250000
0
LINE
8
0
10
-362.834936
20
186.250000
11
-362.586539
21
185.652294
0
LINE
8
0
10
-362.586539
20
185.652294
11
-362.500000
21
185.000000
0
LINE
8
0
10
-362.500000
20
185.000000
11
-362.500000
21
175.000000
0
LINE
8
0
10
-362.500000
20
175.000000
11
-362.586539
21
174.347706
0
LINE
8
0
10
-362.586539
20
174.347706
11
-362.834936
21
173.750000
0
LINE
8
0
10
-362.834936
20
173.750000
11
-363.228366
21
173.236028
0
LINE
8
0
10
-363.228366
20
173.236028
11
-363.750000
21
172.834936
0
LINE
8
0
10
-363.750000
20
172.834936
11
-364.358173
21
172.583734
0
LINE
8
0
10
-364.358173
20
172.583734
11
-365.000000
21
172.500000
0
LINE
8
0
10
-365.000000
20
172.500000
11
-365.641827
21
172.583734
0
LINE
8
0
10
-365.641827
20
172.583734
11
-366.250000
21
172.834936
0
LINE
8
0
10
-366.250000
20
172.834936
11
-366.771634
21
173.236028
0
LINE
8
0
10
-366.771634
20
173.236028
11
-367.165064
21
173.750000
0
LINE
8
0
10
-367.165064
20
173.750000
11
-367.413461
21
174.347706
0
LINE
8
0
10
-367.413461
20
174.347706
11
-367.500000
21
175.000000
0
LINE
8
0
10
-367.500000
20
175.000000
11
-367.500000
21
175.000000
0
LINE
8
0
10
-402.499000
20
185.000000
11
-402.499000
21
175.000000
0
LINE
8
0
10
-402.499000
20
175.000000
11
-402.585539
21
174.347706
0
LINE
8
0
10
-402.585539
20
174.347706
11
-402.833936
21
173.750000
0
LINE
8
0
10
-402.833936
20
173.750000
11
-403.227366
21
173.236028
0
LINE
8
0
10
-403.227366
20
173.236028
11
-403.749000
21
172.834936
0
LINE
8
0
10
-403.749000
20
172.834936
11
-404.357173
21
172.583734
0
LINE
8
0
10
-404.357173
20
172.583734
11
-404.999000
21
172.500000
0
LINE
8
0
10
-404.999000
20
172.500000
11
-405.640827
21
172.583734
0
LINE
8
0
10
-405.640827
20
172.583734
11
-406.249000
21
172.834936
0
LINE
8
0
10
-406.249000
20
172.834936
11
-406.770634
21
173.236028
0
LINE
8
0
10
-406.770634
20
173.236028
11
-407.164064
21
173.750000
0
LINE
8
0
10
-407.164064
20
173.750000
11
-407.412461
21
174.347706
0
LINE
8
0
10
-407.412461
20
174.347706
11
-407.499000
21
175.000000
0
LINE
8
0
10
-407.499000
20
175.000000
11
-407.499000
21
185.000000
0
LINE
8
0
10
-407.499000
20
185.000000
11
-407.412461
21
185.652294
0
LINE
8
0
10
-407.412461
20
185.652294
11
-407.164064
21
186.250000
0
LINE
8
0
10
-407.164064
20
186.250000
11
-406.770634
21
186.763972
0
LINE
8
0
10
-406.770634
20
186.763972
11
-406.249000
21
187.165064
0
LINE
8
0
10
-406.249000
20
187.165064
11
-405.640827
21
187.416266
0
LINE
8
0
10
-405.640827
20
187.416266
11
-404.999000
21
187.500000
0
LINE
8
0
10
-404.999000
20
187.500000
11
-404.357173
21
187.416266
0
LINE
8
0
10
-404.357173
20
187.416266
11
-403.749000
21
187.165064
0
LINE
8
0
10
-403.749000
20
187.165064
11
-403.227366
21
186.763972
0
LINE
8
0
10
-403.227366
20
186.763972
11
-402.833936
21
186.250000
0
LINE
8
0
10
-402.833936
20
186.250000
11
-402.585539
21
185.652294
0
LINE
8
0
10
-402.585539
20
185.652294
11
-402.499000
21
185.000000
0
LINE
8
0
10
-402.499000
20
185.000000
11
-402.499000
21
185.000000
0
LINE
8
0
10
-487.499000
20
135.000000
11
-487.499000
21
145.000000
0
LINE
8
0
10
-487.499000
20
145.000000
11
-487.412461
21
145.652294
0
LINE
8
0
10
-487.412461
20
145.652294
11
-487.164064
21
146.250000
0
LINE
8
0
10
-487.164064
20
146.250000
11
-486.770634
21
146.763972
0
LINE
8
0
10
-486.770634
20
146.763972
11
-486.249000
21
147.165064
0
LINE
8
0
10
-486.249000
20
147.165064
11
-485.640827
21
147.416266
0
LINE
8
0
10
-485.640827
20
147.416266
11
-484.999000
21
147.500000
0
LINE
8
0
10
-484.999000
20
147.500000
11
-484.357173
21
147.416266
0
LINE
8
0
10
-484.357173
20
147.416266
11
-483.749000
21
147.165064
0
LINE
8
0
10
-483.749000
20
147.165064
11
-483.227366
21
146.763972
0
LINE
8
0
10
-483.227366
20
146.763972
11
-482.833936
21
146.250000
0
LINE
8
0
10
-482.833936
20
146.250000
11
-482.585539
21
145.652294
0
LINE
8
0
10
-482.585539
20
145.652294
11
-482.499000
21
145.000000
0
LINE
8
0
10
-482.499000
20
145.000000
11
-482.499000
21
135.000000
0
LINE
8
0
10
-482.499000
20
135.000000
11
-482.585539
21
134.347706
0
LINE
8
0
10
-482.585539
20
134.347706
11
-482.833936
21
133.750000
0
LINE
8
0
10
-482.833936
20
133.750000
11
-483.227366
21
133.236028
0
LINE
8
0
10
-483.227366
20
133.236028
11
-483.749000
21
132.834936
0
LINE
8
0
10
-483.749000
20
132.834936
11
-484.357173
21
132.583734
0
LINE
8
0
10
-484.357173
20
132.583734
11
-484.999000
21
132.500000
0
LINE
8
0
10
-484.999000
20
132.500000
11
-485.640827
21
132.583734
0
LINE
8
0
10
-485.640827
20
132.583734
11
-486.249000
21
132.834936
0
LINE
8
0
10
-486.249000
20
132.834936
11
-486.770634
21
133.236028
0
LINE
8
0
10
-486.770634
20
133.236028
11
-487.164064
21
133.750000
0
LINE
8
0
10
-487.164064
20
133.750000
11
-487.412461
21
134.347706
0
LINE
8
0
10
-487.412461
20
134.347706
11
-487.499000
21
135.000000
0
LINE
8
0
10
-487.499000
20
135.000000
11
-487.499000
21
135.000000
0
LINE
8
0
10
-387.500000
20
115.000000
11
-387.500000
21
125.000000
0
LINE
8
0
10
-387.500000
20
125.000000
11
-387.413461
21
125.652294
0
LINE
8
0
10
-387.413461
20
125.652294
11
-387.165064
21
126.250000
0
LINE
8
0
10
-387.165064
20
126.250000
11
-386.771634
21
126.763972
0
LINE
8
0
10
-386.771634
20
126.763972
11
-386.250000
21
127.165064
0
LINE
8
0
10
-386.250000
20
127.165064
11
-385.641827
21
127.416266
0
LINE
8
0
10
-385.641827
20
127.416266
11
-385.000000
21
127.500000
0
LINE
8
0
10
-385.000000
20
127.500000
11
-384.358173
21
127.416266
0
LINE
8
0
10
-384.358173
20
127.416266
11
-383.750000
21
127.165064
0
LINE
8
0
10
-383.750000
20
127.165064
11
-383.228366
21
126.763972
0
LINE
8
0
10
-383.228366
20
126.763972
11
-382.834936
21
126.250000
0
LINE
8
0
10
-382.834936
20
126.250000
11
-382.586539
21
125.652294
0
LINE
8
0
10
-382.586539
20
125.652294
11
-382.500000
21
125.000000
0
LINE
8
0
10
-382.500000
20
125.000000
11
-382.500000
21
115.000000
0
LINE
8
0
10
-382.500000
20
115.000000
11
-382.586539
21
114.347706
0
LINE
8
0
10
-382.586539
20
114.347706
11
-382.834936
21
113.750000
0
LINE
8
0
10
-382.834936
20
113.750000
11
-383.228366
21
113.236028
0
LINE
8
0
10
-383.228366
20
113.236028
11
-383.750000
21
112.834936
0
LINE
8
0
10
-383.750000
20
112.834936
11
-384.358173
21
112.583734
0
LINE
8
0
10
-384.358173
20
112.583734
11
-385.000000
21
112.500000
0
LINE
8
0
10
-385.000000
20
112.500000
11
-385.641827
21
112.583734
0
LINE
8
0
10
-385.641827
20
112.583734
11
-386.250000
21
112.834936
0
LINE
8
0
10
-386.250000
20
112.834936
11
-386.771634
21
113.236028
0
LINE
8
0
10
-386.771634
20
113.236028
11
-387.165064
21
113.750000
0
LINE
8
0
10
-387.165064
20
113.750000
11
-387.413461
21
114.347706
0
LINE
8
0
10
-387.413461
20
114.347706
11
-387.500000
21
115.000000
0
LINE
8
0
10
-387.500000
20
115.000000
11
-387.500000
21
115.000000
0
LINE
8
0
10
-507.499000
20
35.000300
11
-507.499000
21
45.000300
0
LINE
8
0
10
-507.499000
20
45.000300
11
-507.412461
21
45.652594
0
LINE
8
0
10
-507.412461
20
45.652594
11
-507.164064
21
46.250300
0
LINE
8
0
10
-507.164064
20
46.250300
11
-506.770634
21
46.764272
0
LINE
8
0
10
-506.770634
20
46.764272
11
-506.249000
21
47.165364
0
LINE
8
0
10
-506.249000
20
47.165364
11
-505.640827
21
47.416566
0
LINE
8
0
10
-505.640827
20
47.416566
11
-504.999000
21
47.500300
0
LINE
8
0
10
-504.999000
20
47.500300
11
-504.357173
21
47.416566
0
LINE
8
0
10
-504.357173
20
47.416566
11
-503.749000
21
47.165364
0
LINE
8
0
10
-503.749000
20
47.165364
11
-503.227366
21
46.764272
0
LINE
8
0
10
-503.227366
20
46.764272
11
-502.833936
21
46.250300
0
LINE
8
0
10
-502.833936
20
46.250300
11
-502.585539
21
45.652594
0
LINE
8
0
10
-502.585539
20
45.652594
11
-502.499000
21
45.000300
0
LINE
8
0
10
-502.499000
20
45.000300
11
-502.499000
21
35.000300
0
LINE
8
0
10
-502.499000
20
35.000300
11
-502.585539
21
34.348006
0
LINE
8
0
10
-502.585539
20
34.348006
11
-502.833936
21
33.750300
0
LINE
8
0
10
-502.833936
20
33.750300
11
-503.227366
21
33.236328
0
LINE
8
0
10
-503.227366
20
33.236328
11
-503.749000
21
32.835236
0
LINE
8
0
10
-503.749000
20
32.835236
11
-504.357173
21
32.584034
0
LINE
8
0
10
-504.357173
20
32.584034
11
-504.999000
21
32.500300
0
LINE
8
0
10
-504.999000
20
32.500300
11
-505.640827
21
32.584034
0
LINE
8
0
10
-505.640827
20
32.584034
11
-506.249000
21
32.835236
0
LINE
8
0
10
-506.249000
20
32.835236
11
-506.770634
21
33.236328
0
LINE
8
0
10
-506.770634
20
33.236328
11
-507.164064
21
33.750300
0
LINE
8
0
10
-507.164064
20
33.750300
11
-507.412461
21
34.348006
0
LINE
8
0
10
-507.412461
20
34.348006
11
-507.499000
21
35.000300
0
LINE
8
0
10
-507.499000
20
35.000300
11
-507.499000
21
35.000300
0
LINE
8
0
10
-427.499000
20
125.000000
11
-427.412461
21
125.652294
0
LINE
8
0
10
-427.412461
20
125.652294
11
-427.164064
21
126.250000
0
LINE
8
0
10
-427.164064
20
126.250000
11
-426.770634
21
126.763972
0
LINE
8
0
10
-426.770634
20
126.763972
11
-426.249000
21
127.165064
0
LINE
8
0
10
-426.249000
20
127.165064
11
-425.640827
21
127.416266
0
LINE
8
0
10
-425.640827
20
127.416266
11
-424.999000
21
127.500000
0
LINE
8
0
10
-424.999000
20
127.500000
11
-424.357173
21
127.416266
0
LINE
8
0
10
-424.357173
20
127.416266
11
-423.749000
21
127.165064
0
LINE
8
0
10
-423.749000
20
127.165064
11
-423.227366
21
126.763972
0
LINE
8
0
10
-423.227366
20
126.763972
11
-422.833936
21
126.250000
0
LINE
8
0
10
-422.833936
20
126.250000
11
-422.585539
21
125.652294
0
LINE
8
0
10
-422.585539
20
125.652294
11
-422.499000
21
125.000000
0
LINE
8
0
10
-422.499000
20
125.000000
11
-422.499000
21
115.000000
0
LINE
8
0
10
-422.499000
20
115.000000
11
-422.585539
21
114.347706
0
LINE
8
0
10
-422.585539
20
114.347706
11
-422.833936
21
113.750000
0
LINE
8
0
10
-422.833936
20
113.750000
11
-423.227366
21
113.236028
0
LINE
8
0
10
-423.227366
20
113.236028
11
-423.749000
21
112.834936
0
LINE
8
0
10
-423.749000
20
112.834936
11
-424.357173
21
112.583734
0
LINE
8
0
10
-424.357173
20
112.583734
11
-424.999000
21
112.500000
0
LINE
8
0
10
-424.999000
20
112.500000
11
-425.640827
21
112.583734
0
LINE
8
0
10
-425.640827
20
112.583734
11
-426.249000
21
112.834936
0
LINE
8
0
10
-426.249000
20
112.834936
11
-426.770634
21
113.236028
0
LINE
8
0
10
-426.770634
20
113.236028
11
-427.164064
21
113.750000
0
LINE
8
0
10
-427.164064
20
113.750000
11
-427.412461
21
114.347706
0
LINE
8
0
10
-427.412461
20
114.347706
11
-427.499000
21
115.000000
0
LINE
8
0
10
-427.499000
20
115.000000
11
-427.499000
21
125.000000
0
LINE
8
0
10
-427.499000
20
125.000000
11
-427.499000
21
125.000000
0
LINE
8
0
10
-422.499000
20
85.000300
11
-422.499000
21
75.000300
0
LINE
8
0
10
-422.499000
20
75.000300
11
-422.585539
21
74.348006
0
LINE
8
0
10
-422.585539
20
74.348006
11
-422.833936
21
73.750300
0
LINE
8
0
10
-422.833936
20
73.750300
11
-423.227366
21
73.236328
0
LINE
8
0
10
-423.227366
20
73.236328
11
-423.749000
21
72.835236
0
LINE
8
0
10
-423.749000
20
72.835236
11
-424.357173
21
72.584034
0
LINE
8
0
10
-424.357173
20
72.584034
11
-424.999000
21
72.500300
0
LINE
8
0
10
-424.999000
20
72.500300
11
-425.640827
21
72.584034
0
LINE
8
0
10
-425.640827
20
72.584034
11
-426.249000
21
72.835236
0
LINE
8
0
10
-426.249000
20
72.835236
11
-426.770634
21
73.236328
0
LINE
8
0
10
-426.770634
20
73.236328
11
-427.164064
21
73.750300
0
LINE
8
0
10
-427.164064
20
73.750300
11
-427.412461
21
74.348006
0
LINE
8
0
10
-427.412461
20
74.348006
11
-427.499000
21
75.000300
0
LINE
8
0
10
-427.499000
20
75.000300
11
-427.499000
21
85.000300
0
LINE
8
0
10
-427.499000
20
85.000300
11
-427.412461
21
85.652594
0
LINE
8
0
10
-427.412461
20
85.652594
11
-427.164064
21
86.250300
0
LINE
8
0
10
-427.164064
20
86.250300
11
-426.770634
21
86.764272
0
LINE
8
0
10
-426.770634
20
86.764272
11
-426.249000
21
87.165364
0
LINE
8
0
10
-426.249000
20
87.165364
11
-425.640827
21
87.416566
0
LINE
8
0
10
-425.640827
20
87.416566
11
-424.999000
21
87.500300
0
LINE
8
0
10
-424.999000
20
87.500300
11
-424.357173
21
87.416566
0
LINE
8
0
10
-424.357173
20
87.416566
11
-423.749000
21
87.165364
0
LINE
8
0
10
-423.749000
20
87.165364
11
-423.227366
21
86.764272
0
LINE
8
0
10
-423.227366
20
86.764272
11
-422.833936
21
86.250300
0
LINE
8
0
10
-422.833936
20
86.250300
11
-422.585539
21
85.652594
0
LINE
8
0
10
-422.585539
20
85.652594
11
-422.499000
21
85.000300
0
LINE
8
0
10
-422.499000
20
85.000300
11
-422.499000
21
85.000300
0
LINE
8
0
10
-467.499000
20
75.000300
11
-467.499000
21
85.000300
0
LINE
8
0
10
-467.499000
20
85.000300
11
-467.412461
21
85.652594
0
LINE
8
0
10
-467.412461
20
85.652594
11
-467.164064
21
86.250300
0
LINE
8
0
10
-467.164064
20
86.250300
11
-466.770634
21
86.764272
0
LINE
8
0
10
-466.770634
20
86.764272
11
-466.249000
21
87.165364
0
LINE
8
0
10
-466.249000
20
87.165364
11
-465.640827
21
87.416566
0
LINE
8
0
10
-465.640827
20
87.416566
11
-464.999000
21
87.500300
0
LINE
8
0
10
-464.999000
20
87.500300
11
-464.357173
21
87.416566
0
LINE
8
0
10
-464.357173
20
87.416566
11
-463.749000
21
87.165364
0
LINE
8
0
10
-463.749000
20
87.165364
11
-463.227366
21
86.764272
0
LINE
8
0
10
-463.227366
20
86.764272
11
-462.833936
21
86.250300
0
LINE
8
0
10
-462.833936
20
86.250300
11
-462.585539
21
85.652594
0
LINE
8
0
10
-462.585539
20
85.652594
11
-462.499000
21
85.000300
0
LINE
8
0
10
-462.499000
20
85.000300
11
-462.499000
21
75.000300
0
LINE
8
0
10
-462.499000
20
75.000300
11
-462.585539
21
74.348006
0
LINE
8
0
10
-462.585539
20
74.348006
11
-462.833936
21
73.750300
0
LINE
8
0
10
-462.833936
20
73.750300
11
-463.227366
21
73.236328
0
LINE
8
0
10
-463.227366
20
73.236328
11
-463.749000
21
72.835236
0
LINE
8
0
10
-463.749000
20
72.835236
11
-464.357173
21
72.584034
0
LINE
8
0
10
-464.357173
20
72.584034
11
-464.999000
21
72.500300
0
LINE
8
0
10
-464.999000
20
72.500300
11
-465.640827
21
72.584034
0
LINE
8
0
10
-465.640827
20
72.584034
11
-466.249000
21
72.835236
0
LINE
8
0
10
-466.249000
20
72.835236
11
-466.770634
21
73.236328
0
LINE
8
0
10
-466.770634
20
73.236328
11
-467.164064
21
73.750300
0
LINE
8
0
10
-467.164064
20
73.750300
11
-467.412461
21
74.348006
0
LINE
8
0
10
-467.412461
20
74.348006
11
-467.499000
21
75.000300
0
LINE
8
0
10
-467.499000
20
75.000300
11
-467.499000
21
75.000300
0
LINE
8
0
10
-302.500000
20
75.000300
11
-302.586539
21
74.348006
0
LINE
8
0
10
-302.586539
20
74.348006
11
-302.834936
21
73.750300
0
LINE
8
0
10
-302.834936
20
73.750300
11
-303.228366
21
73.236328
0
LINE
8
0
10
-303.228366
20
73.236328
11
-303.750000
21
72.835236
0
LINE
8
0
10
-303.750000
20
72.835236
11
-304.358173
21
72.584034
0
LINE
8
0
10
-304.358173
20
72.584034
11
-305.000000
21
72.500300
0
LINE
8
0
10
-305.000000
20
72.500300
11
-305.641827
21
72.584034
0
LINE
8
0
10
-305.641827
20
72.584034
11
-306.250000
21
72.835236
0
LINE
8
0
10
-306.250000
20
72.835236
11
-306.771634
21
73.236328
0
LINE
8
0
10
-306.771634
20
73.236328
11
-307.165064
21
73.750300
0
LINE
8
0
10
-307.165064
20
73.750300
11
-307.413461
21
74.348006
0
LINE
8
0
10
-307.413461
20
74.348006
11
-307.500000
21
75.000300
0
LINE
8
0
10
-307.500000
20
75.000300
11
-307.500000
21
85.000300
0
LINE
8
0
10
-307.500000
20
85.000300
11
-307.413461
21
85.652594
0
LINE
8
0
10
-307.413461
20
85.652594
11
-307.165064
21
86.250300
0
LINE
8
0
10
-307.165064
20
86.250300
11
-306.771634
21
86.764272
0
LINE
8
0
10
-306.771634
20
86.764272
11
-306.250000
21
87.165364
0
LINE
8
0
10
-306.250000
20
87.165364
11
-305.641827
21
87.416566
0
LINE
8
0
10
-305.641827
20
87.416566
11
-305.000000
21
87.500300
0
LINE
8
0
10
-305.000000
20
87.500300
11
-304.358173
21
87.416566
0
LINE
8
0
10
-304.358173
20
87.416566
11
-303.750000
21
87.165364
0
LINE
8
0
10
-303.750000
20
87.165364
11
-303.228366
21
86.764272
0
LINE
8
0
10
-303.228366
20
86.764272
11
-302.834936
21
86.250300
0
LINE
8
0
10
-302.834936
20
86.250300
11
-302.586539
21
85.652594
0
LINE
8
0
10
-302.586539
20
85.652594
11
-302.500000
21
85.000300
0
LINE
8
0
10
-302.500000
20
85.000300
11
-302.500000
21
75.000300
0
LINE
8
0
10
-302.500000
20
75.000300
11
-302.500000
21
75.000300
0
LINE
8
0
10
-347.500000
20
85.000300
11
-347.413461
21
85.652594
0
LINE
8
0
10
-347.413461
20
85.652594
11
-347.165064
21
86.250300
0
LINE
8
0
10
-347.165064
20
86.250300
11
-346.771634
21
86.764272
0
LINE
8
0
10
-346.771634
20
86.764272
11
-346.250000
21
87.165364
0
LINE
8
0
10
-346.250000
20
87.165364
11
-345.641827
21
87.416566
0
LINE
8
0
10
-345.641827
20
87.416566
11
-345.000000
21
87.500300
0
LINE
8
0
10
-345.000000
20
87.500300
11
-344.358173
21
87.416566
0
LINE
8
0
10
-344.358173
20
87.416566
11
-343.750000
21
87.165364
0
LINE
8
0
10
-343.750000
20
87.165364
11
-343.228366
21
86.764272
0
LINE
8
0
10
-343.228366
20
86.764272
11
-342.834936
21
86.250300
0
LINE
8
0
10
-342.834936
20
86.250300
11
-342.586539
21
85.652594
0
LINE
8
0
10
-342.586539
20
85.652594
11
-342.500000
21
85.000300
0
LINE
8
0
10
-342.500000
20
85.000300
11
-342.500000
21
75.000300
0
LINE
8
0
10
-342.500000
20
75.000300
11
-342.586539
21
74.348006
0
LINE
8
0
10
-342.586539
20
74.348006
11
-342.834936
21
73.750300
0
LINE
8
0
10
-342.834936
20
73.750300
11
-343.228366
21
73.236328
0
LINE
8
0
10
-343.228366
20
73.236328
11
-343.750000
21
72.835236
0
LINE
8
0
10
-343.750000
20
72.835236
11
-344.358173
21
72.584034
0
LINE
8
0
10
-344.358173
20
72.584034
11
-345.000000
21
72.500300
0
LINE
8
0
10
-345.000000
20
72.500300
11
-345.641827
21
72.584034
0
LINE
8
0
10
-345.641827
20
72.584034
11
-346.250000
21
72.835236
0
LINE
8
0
10
-346.250000
20
72.835236
11
-346.771634
21
73.236328
0
LINE
8
0
10
-346.771634
20
73.236328
11
-347.165064
21
73.750300
0
LINE
8
0
10
-347.165064
20
73.750300
11
-347.413461
21
74.348006
0
LINE
8
0
10
-347.413461
20
74.348006
11
-347.500000
21
75.000300
0
LINE
8
0
10
-347.500000
20
75.000300
11
-347.500000
21
85.000300
0
LINE
8
0
10
-347.500000
20
85.000300
11
-347.500000
21
85.000300
0
LINE
8
0
10
-287.500000
20
105.000000
11
-287.413461
21
105.652294
0
LINE
8
0
10
-287.413461
20
105.652294
11
-287.165064
21
106.250000
0
LINE
8
0
10
-287.165064
20
106.250000
11
-286.771634
21
106.763972
0
LINE
8
0
10
-286.771634
20
106.763972
11
-286.250000
21
107.165064
0
LINE
8
0
10
-286.250000
20
107.165064
11
-285.641827
21
107.416266
0
LINE
8
0
10
-285.641827
20
107.416266
11
-285.000000
21
107.500000
0
LINE
8
0
10
-285.000000
20
107.500000
11
-284.358173
21
107.416266
0
LINE
8
0
10
-284.358173
20
107.416266
11
-283.750000
21
107.165064
0
LINE
8
0
10
-283.750000
20
107.165064
11
-283.228366
21
106.763972
0
LINE
8
0
10
-283.228366
20
106.763972
11
-282.834936
21
106.250000
0
LINE
8
0
10
-282.834936
20
106.250000
11
-282.586539
21
105.652294
0
LINE
8
0
10
-282.586539
20
105.652294
11
-282.500000
21
105.000000
0
LINE
8
0
10
-282.500000
20
105.000000
11
-282.500000
21
95.000300
0
LINE
8
0
10
-282.500000
20
95.000300
11
-282.586539
21
94.348006
0
LINE
8
0
10
-282.586539
20
94.348006
11
-282.834936
21
93.750300
0
LINE
8
0
10
-282.834936
20
93.750300
11
-283.228366
21
93.236328
0
LINE
8
0
10
-283.228366
20
93.236328
11
-283.750000
21
92.835236
0
LINE
8
0
10
-283.750000
20
92.835236
11
-284.358173
21
92.584034
0
LINE
8
0
10
-284.358173
20
92.584034
11
-285.000000
21
92.500300
0
LINE
8
0
10
-285.000000
20
92.500300
11
-285.641827
21
92.584034
0
LINE
8
0
10
-285.641827
20
92.584034
11
-286.250000
21
92.835236
0
LINE
8
0
10
-286.250000
20
92.835236
11
-286.771634
21
93.236328
0
LINE
8
0
10
-286.771634
20
93.236328
11
-287.165064
21
93.750300
0
LINE
8
0
10
-287.165064
20
93.750300
11
-287.413461
21
94.348006
0
LINE
8
0
10
-287.413461
20
94.348006
11
-287.500000
21
95.000300
0
LINE
8
0
10
-287.500000
20
95.000300
11
-287.500000
21
105.000000
0
LINE
8
0
10
-287.500000
20
105.000000
11
-287.500000
21
105.000000
0
LINE
8
0
10
-307.500000
20
155.000000
11
-307.500000
21
165.000000
0
LINE
8
0
10
-307.500000
20
165.000000
11
-307.413461
21
165.652294
0
LINE
8
0
10
-307.413461
20
165.652294
11
-307.165064
21
166.250000
0
LINE
8
0
10
-307.165064
20
166.250000
11
-306.771634
21
166.763972
0
LINE
8
0
10
-306.771634
20
166.763972
11
-306.250000
21
167.165064
0
LINE
8
0
10
-306.250000
20
167.165064
11
-305.641827
21
167.416266
0
LINE
8
0
10
-305.641827
20
167.416266
11
-305.000000
21
167.500000
0
LINE
8
0
10
-305.000000
20
167.500000
11
-304.358173
21
167.416266
0
LINE
8
0
10
-304.358173
20
167.416266
11
-303.750000
21
167.165064
0
LINE
8
0
10
-303.750000
20
167.165064
11
-303.228366
21
166.763972
0
LINE
8
0
10
-303.228366
20
166.763972
11
-302.834936
21
166.250000
0
LINE
8
0
10
-302.834936
20
166.250000
11
-302.586539
21
165.652294
0
LINE
8
0
10
-302.586539
20
165.652294
11
-302.500000
21
165.000000
0
LINE
8
0
10
-302.500000
20
165.000000
11
-302.500000
21
155.000000
0
LINE
8
0
10
-302.500000
20
155.000000
11
-302.586539
21
154.347706
0
LINE
8
0
10
-302.586539
20
154.347706
11
-302.834936
21
153.750000
0
LINE
8
0
10
-302.834936
20
153.750000
11
-303.228366
21
153.236028
0
LINE
8
0
10
-303.228366
20
153.236028
11
-303.750000
21
152.834936
0
LINE
8
0
10
-303.750000
20
152.834936
11
-304.358173
21
152.583734
0
LINE
8
0
10
-304.358173
20
152.583734
11
-305.000000
21
152.500000
0
LINE
8
0
10
-305.000000
20
152.500000
11
-305.641827
21
152.583734
0
LINE
8
0
10
-305.641827
20
152.583734
11
-306.250000
21
152.834936
0
LINE
8
0
10
-306.250000
20
152.834936
11
-306.771634
21
153.236028
0
LINE
8
0
10
-306.771634
20
153.236028
11
-307.165064
21
153.750000
0
LINE
8
0
10
-307.165064
20
153.750000
11
-307.413461
21
154.347706
0
LINE
8
0
10
-307.413461
20
154.347706
11
-307.500000
21
155.000000
0
LINE
8
0
10
-307.500000
20
155.000000
11
-307.500000
21
155.000000
0
LINE
8
0
10
-382.500000
20
155.000000
11
-382.586539
21
154.347706
0
LINE
8
0
10
-382.586539
20
154.347706
11
-382.834936
21
153.750000
0
LINE
8
0
10
-382.834936
20
153.750000
11
-383.228366
21
153.236028
0
LINE
8
0
10
-383.228366
20
153.236028
11
-383.750000
21
152.834936
0
LINE
8
0
10
-383.750000
20
152.834936
11
-384.358173
21
152.583734
0
LINE
8
0
10
-384.358173
20
152.583734
11
-385.000000
21
152.500000
0
LINE
8
0
10
-385.000000
20
152.500000
11
-385.641827
21
152.583734
0
LINE
8
0
10
-385.641827
20
152.583734
11
-386.250000
21
152.834936
0
LINE
8
0
10
-386.250000
20
152.834936
11
-386.771634
21
153.236028
0
LINE
8
0
10
-386.771634
20
153.236028
11
-387.165064
21
153.750000
0
LINE
8
0
10
-387.165064
20
153.750000
11
-387.413461
21
154.347706
0
LINE
8
0
10
-387.413461
20
154.347706
11
-387.500000
21
155.000000
0
LINE
8
0
10
-387.500000
20
155.000000
11
-387.500000
21
165.000000
0
LINE
8
0
10
-387.500000
20
165.000000
11
-387.413461
21
165.652294
0
LINE
8
0
10
-387.413461
20
165.652294
11
-387.165064
21
166.250000
0
LINE
8
0
10
-387.165064
20
166.250000
11
-386.771634
21
166.763972
0
LINE
8
0
10
-386.771634
20
166.763972
11
-386.250000
21
167.165064
0
LINE
8
0
10
-386.250000
20
167.165064
11
-385.641827
21
167.416266
0
LINE
8
0
10
-385.641827
20
167.416266
11
-385.000000
21
167.500000
0
LINE
8
0
10
-385.000000
20
167.500000
11
-384.358173
21
167.416266
0
LINE
8
0
10
-384.358173
20
167.416266
11
-383.750000
21
167.165064
0
LINE
8
0
10
-383.750000
20
167.165064
11
-383.228366
21
166.763972
0
LINE
8
0
10
-383.228366
20
166.763972
11
-382.834936
21
166.250000
0
LINE
8
0
10
-382.834936
20
166.250000
11
-382.586539
21
165.652294
0
LINE
8
0
10
-382.586539
20
165.652294
11
-382.500000
21
165.000000
0
LINE
8
0
10
-382.500000
20
165.000000
11
-382.500000
21
155.000000
0
LINE
8
0
10
-382.500000
20
155.000000
11
-382.500000
21
155.000000
0
LINE
8
0
10
-302.500000
20
35.000300
11
-302.586539
21
34.348006
0
LINE
8
0
10
-302.586539
20
34.348006
11
-302.834936
21
33.750300
0
LINE
8
0
10
-302.834936
20
33.750300
11
-303.228366
21
33.236328
0
LINE
8
0
10
-303.228366
20
33.236328
11
-303.750000
21
32.835236
0
LINE
8
0
10
-303.750000
20
32.835236
11
-304.358173
21
32.584034
0
LINE
8
0
10
-304.358173
20
32.584034
11
-305.000000
21
32.500300
0
LINE
8
0
10
-305.000000
20
32.500300
11
-305.641827
21
32.584034
0
LINE
8
0
10
-305.641827
20
32.584034
11
-306.250000
21
32.835236
0
LINE
8
0
10
-306.250000
20
32.835236
11
-306.771634
21
33.236328
0
LINE
8
0
10
-306.771634
20
33.236328
11
-307.165064
21
33.750300
0
LINE
8
0
10
-307.165064
20
33.750300
11
-307.413461
21
34.348006
0
LINE
8
0
10
-307.413461
20
34.348006
11
-307.500000
21
35.000300
0
LINE
8
0
10
-307.500000
20
35.000300
11
-307.500000
21
45.000300
0
LINE
8
0
10
-307.500000
20
45.000300
11
-307.413461
21
45.652594
0
LINE
8
0
10
-307.413461
20
45.652594
11
-307.165064
21
46.250300
0
LINE
8
0
10
-307.165064
20
46.250300
11
-306.771634
21
46.764272
0
LINE
8
0
10
-306.771634
20
46.764272
11
-306.250000
21
47.165364
0
LINE
8
0
10
-306.250000
20
47.165364
11
-305.641827
21
47.416566
0
LINE
8
0
10
-305.641827
20
47.416566
11
-305.000000
21
47.500300
0
LINE
8
0
10
-305.000000
20
47.500300
11
-304.358173
21
47.416566
0
LINE
8
0
10
-304.358173
20
47.416566
11
-303.750000
21
47.165364
0
LINE
8
0
10
-303.750000
20
47.165364
11
-303.228366
21
46.764272
0
LINE
8
0
10
-303.228366
20
46.764272
11
-302.834936
21
46.250300
0
LINE
8
0
10
-302.834936
20
46.250300
11
-302.586539
21
45.652594
0
LINE
8
0
10
-302.586539
20
45.652594
11
-302.500000
21
45.000300
0
LINE
8
0
10
-302.500000
20
45.000300
11
-302.500000
21
35.000300
0
LINE
8
0
10
-302.500000
20
35.000300
11
-302.500000
21
35.000300
0
LINE
8
0
10
-262.500000
20
75.000300
11
-262.586539
21
74.348006
0
LINE
8
0
10
-262.586539
20
74.348006
11
-262.834936
21
73.750300
0
LINE
8
0
10
-262.834936
20
73.750300
11
-263.228366
21
73.236328
0
LINE
8
0
10
-263.228366
20
73.236328
11
-263.750000
21
72.835236
0
LINE
8
0
10
-263.750000
20
72.835236
11
-264.358173
21
72.584034
0
LINE
8
0
10
-264.358173
20
72.584034
11
-265.000000
21
72.500300
0
LINE
8
0
10
-265.000000
20
72.500300
11
-265.641827
21
72.584034
0
LINE
8
0
10
-265.641827
20
72.584034
11
-266.250000
21
72.835236
0
LINE
8
0
10
-266.250000
20
72.835236
11
-266.771634
21
73.236328
0
LINE
8
0
10
-266.771634
20
73.236328
11
-267.165064
21
73.750300
0
LINE
8
0
10
-267.165064
20
73.750300
11
-267.413461
21
74.348006
0
LINE
8
0
10
-267.413461
20
74.348006
11
-267.500000
21
75.000300
0
LINE
8
0
10
-267.500000
20
75.000300
11
-267.500000
21
85.000300
0
LINE
8
0
10
-267.500000
20
85.000300
11
-267.413461
21
85.652594
0
LINE
8
0
10
-267.413461
20
85.652594
11
-267.165064
21
86.250300
0
LINE
8
0
10
-267.165064
20
86.250300
11
-266.771634
21
86.764272
0
LINE
8
0
10
-266.771634
20
86.764272
11
-266.250000
21
87.165364
0
LINE
8
0
10
-266.250000
20
87.165364
11
-265.641827
21
87.416566
0
LINE
8
0
10
-265.641827
20
87.416566
11
-265.000000
21
87.500300
0
LINE
8
0
10
-265.000000
20
87.500300
11
-264.358173
21
87.416566
0
LINE
8
0
10
-264.358173
20
87.416566
11
-263.750000
21
87.165364
0
LINE
8
0
10
-263.750000
20
87.165364
11
-263.228366
21
86.764272
0
LINE
8
0
10
-263.228366
20
86.764272
11
-262.834936
21
86.250300
0
LINE
8
0
10
-262.834936
20
86.250300
11
-262.586539
21
85.652594
0
LINE
8
0
10
-262.586539
20
85.652594
11
-262.500000
21
85.000300
0
LINE
8
0
10
-262.500000
20
85.000300
11
-262.500000
21
75.000300
0
LINE
8
0
10
-262.500000
20
75.000300
11
-262.500000
21
75.000300
0
LINE
8
0
10
-382.500000
20
85.000300
11
-382.500000
21
75.000300
0
LINE
8
0
10
-382.500000
20
75.000300
11
-382.586539
21
74.348006
0
LINE
8
0
10
-382.586539
20
74.348006
11
-382.834936
21
73.750300
0
LINE
8
0
10
-382.834936
20
73.750300
11
-383.228366
21
73.236328
0
LINE
8
0
10
-383.228366
20
73.236328
11
-383.750000
21
72.835236
0
LINE
8
0
10
-383.750000
20
72.835236
11
-384.358173
21
72.584034
0
LINE
8
0
10
-384.358173
20
72.584034
11
-385.000000
21
72.500300
0
LINE
8
0
10
-385.000000
20
72.500300
11
-385.641827
21
72.584034
0
LINE
8
0
10
-385.641827
20
72.584034
11
-386.250000
21
72.835236
0
LINE
8
0
10
-386.250000
20
72.835236
11
-386.771634
21
73.236328
0
LINE
8
0
10
-386.771634
20
73.236328
11
-387.165064
21
73.750300
0
LINE
8
0
10
-387.165064
20
73.750300
11
-387.413461
21
74.348006
0
LINE
8
0
10
-387.413461
20
74.348006
11
-387.500000
21
75.000300
0
LINE
8
0
10
-387.500000
20
75.000300
11
-387.500000
21
85.000300
0
LINE
8
0
10
-387.500000
20
85.000300
11
-387.413461
21
85.652594
0
LINE
8
0
10
-387.413461
20
85.652594
11
-387.165064
21
86.250300
0
LINE
8
0
10
-387.165064
20
86.250300
11
-386.771634
21
86.764272
0
LINE
8
0
10
-386.771634
20
86.764272
11
-386.250000
21
87.165364
0
LINE
8
0
10
-386.250000
20
87.165364
11
-385.641827
21
87.416566
0
LINE
8
0
10
-385.641827
20
87.416566
11
-385.000000
21
87.500300
0
LINE
8
0
10
-385.000000
20
87.500300
11
-384.358173
21
87.416566
0
LINE
8
0
10
-384.358173
20
87.416566
11
-383.750000
21
87.165364
0
LINE
8
0
10
-383.750000
20
87.165364
11
-383.228366
21
86.764272
0
LINE
8
0
10
-383.228366
20
86.764272
11
-382.834936
21
86.250300
0
LINE
8
0
10
-382.834936
20
86.250300
11
-382.586539
21
85.652594
0
LINE
8
0
10
-382.586539
20
85.652594
11
-382.500000
21
85.000300
0
LINE
8
0
10
-382.500000
20
85.000300
11
-382.500000
21
85.000300
0
LINE
8
0
10
-447.499000
20
15.000400
11
-447.499000
21
25.000300
0
LINE
8
0
10
-447.499000
20
25.000300
11
-447.412461
21
25.652594
0
LINE
8
0
10
-447.412461
20
25.652594
11
-447.164064
21
26.250300
0
LINE
8
0
10
-447.164064
20
26.250300
11
-446.770634
21
26.764272
0
LINE
8
0
10
-446.770634
20
26.764272
11
-446.249000
21
27.165364
0
LINE
8
0
10
-446.249000
20
27.165364
11
-445.640827
21
27.416566
0
LINE
8
0
10
-445.640827
20
27.416566
11
-444.999000
21
27.500300
0
LINE
8
0
10
-444.999000
20
27.500300
11
-444.357173
21
27.416566
0
LINE
8
0
10
-444.357173
20
27.416566
11
-443.749000
21
27.165364
0
LINE
8
0
10
-443.749000
20
27.165364
11
-443.227366
21
26.764272
0
LINE
8
0
10
-443.227366
20
26.764272
11
-442.833936
21
26.250300
0
LINE
8
0
10
-442.833936
20
26.250300
11
-442.585539
21
25.652594
0
LINE
8
0
10
-442.585539
20
25.652594
11
-442.499000
21
25.000300
0
LINE
8
0
10
-442.499000
20
25.000300
11
-442.499000
21
15.000400
0
LINE
8
0
10
-442.499000
20
15.000400
11
-442.585539
21
14.348106
0
LINE
8
0
10
-442.585539
20
14.348106
11
-442.833936
21
13.750400
0
LINE
8
0
10
-442.833936
20
13.750400
11
-443.227366
21
13.236428
0
LINE
8
0
10
-443.227366
20
13.236428
11
-443.749000
21
12.835336
0
LINE
8
0
10
-443.749000
20
12.835336
11
-444.357173
21
12.584134
0
LINE
8
0
10
-444.357173
20
12.584134
11
-444.999000
21
12.500400
0
LINE
8
0
10
-444.999000
20
12.500400
11
-445.640827
21
12.584134
0
LINE
8
0
10
-445.640827
20
12.584134
11
-446.249000
21
12.835336
0
LINE
8
0
10
-446.249000
20
12.835336
11
-446.770634
21
13.236428
0
LINE
8
0
10
-446.770634
20
13.236428
11
-447.164064
21
13.750400
0
LINE
8
0
10
-447.164064
20
13.750400
11
-447.412461
21
14.348106
0
LINE
8
0
10
-447.412461
20
14.348106
11
-447.499000
21
15.000400
0
LINE
8
0
10
-447.499000
20
15.000400
11
-447.499000
21
15.000400
0
LINE
8
0
10
-362.500000
20
145.000000
11
-362.500000
21
135.000000
0
LINE
8
0
10
-362.500000
20
135.000000
11
-362.586539
21
134.347706
0
LINE
8
0
10
-362.586539
20
134.347706
11
-362.834936
21
133.750000
0
LINE
8
0
10
-362.834936
20
133.750000
11
-363.228366
21
133.236028
0
LINE
8
0
10
-363.228366
20
133.236028
11
-363.750000
21
132.834936
0
LINE
8
0
10
-363.750000
20
132.834936
11
-364.358173
21
132.583734
0
LINE
8
0
10
-364.358173
20
132.583734
11
-365.000000
21
132.500000
0
LINE
8
0
10
-365.000000
20
132.500000
11
-365.641827
21
132.583734
0
LINE
8
0
10
-365.641827
20
132.583734
11
-366.250000
21
132.834936
0
LINE
8
0
10
-366.250000
20
132.834936
11
-366.771634
21
133.236028
0
LINE
8
0
10
-366.771634
20
133.236028
11
-367.165064
21
133.750000
0
LINE
8
0
10
-367.165064
20
133.750000
11
-367.413461
21
134.347706
0
LINE
8
0
10
-367.413461
20
134.347706
11
-367.500000
21
135.000000
0
LINE
8
0
10
-367.500000
20
135.000000
11
-367.500000
21
145.000000
0
LINE
8
0
10
-367.500000
20
145.000000
11
-367.413461
21
145.652294
0
LINE
8
0
10
-367.413461
20
145.652294
11
-367.165064
21
146.250000
0
LINE
8
0
10
-367.165064
20
146.250000
11
-366.771634
21
146.763972
0
LINE
8
0
10
-366.771634
20
146.763972
11
-366.250000
21
147.165064
0
LINE
8
0
10
-366.250000
20
147.165064
11
-365.641827
21
147.416266
0
LINE
8
0
10
-365.641827
20
147.416266
11
-365.000000
21
147.500000
0
LINE
8
0
10
-365.000000
20
147.500000
11
-364.358173
21
147.416266
0
LINE
8
0
10
-364.358173
20
147.416266
11
-363.750000
21
147.165064
0
LINE
8
0
10
-363.750000
20
147.165064
11
-363.228366
21
146.763972
0
LINE
8
0
10
-363.228366
20
146.763972
11
-362.834936
21
146.250000
0
LINE
8
0
10
-362.834936
20
146.250000
11
-362.586539
21
145.652294
0
LINE
8
0
10
-362.586539
20
145.652294
11
-362.500000
21
145.000000
0
LINE
8
0
10
-362.500000
20
145.000000
11
-362.500000
21
145.000000
0
LINE
8
0
10
-322.500000
20
105.000000
11
-322.500000
21
95.000300
0
LINE
8
0
10
-322.500000
20
95.000300
11
-322.586539
21
94.348006
0
LINE
8
0
10
-322.586539
20
94.348006
11
-322.834936
21
93.750300
0
LINE
8
0
10
-322.834936
20
93.750300
11
-323.228366
21
93.236328
0
LINE
8
0
10
-323.228366
20
93.236328
11
-323.750000
21
92.835236
0
LINE
8
0
10
-323.750000
20
92.835236
11
-324.358173
21
92.584034
0
LINE
8
0
10
-324.358173
20
92.584034
11
-325.000000
21
92.500300
0
LINE
8
0
10
-325.000000
20
92.500300
11
-325.641827
21
92.584034
0
LINE
8
0
10
-325.641827
20
92.584034
11
-326.250000
21
92.835236
0
LINE
8
0
10
-326.250000
20
92.835236
11
-326.771634
21
93.236328
0
LINE
8
0
10
-326.771634
20
93.236328
11
-327.165064
21
93.750300
0
LINE
8
0
10
-327.165064
20
93.750300
11
-327.413461
21
94.348006
0
LINE
8
0
10
-327.413461
20
94.348006
11
-327.500000
21
95.000300
0
LINE
8
0
10
-327.500000
20
95.000300
11
-327.500000
21
105.000000
0
LINE
8
0
10
-327.500000
20
105.000000
11
-327.413461
21
105.652294
0
LINE
8
0
10
-327.413461
20
105.652294
11
-327.165064
21
106.250000
0
LINE
8
0
10
-327.165064
20
106.250000
11
-326.771634
21
106.763972
0
LINE
8
0
10
-326.771634
20
106.763972
11
-326.250000
21
107.165064
0
LINE
8
0
10
-326.250000
20
107.165064
11
-325.641827
21
107.416266
0
LINE
8
0
10
-325.641827
20
107.416266
11
-325.000000
21
107.500000
0
LINE
8
0
10
-325.000000
20
107.500000
11
-324.358173
21
107.416266
0
LINE
8
0
10
-324.358173
20
107.416266
11
-323.750000
21
107.165064
0
LINE
8
0
10
-323.750000
20
107.165064
11
-323.228366
21
106.763972
0
LINE
8
0
10
-323.228366
20
106.763972
11
-322.834936
21
106.250000
0
LINE
8
0
10
-322.834936
20
106.250000
11
-322.586539
21
105.652294
0
LINE
8
0
10
-322.586539
20
105.652294
11
-322.500000
21
105.000000
0
LINE
8
0
10
-322.500000
20
105.000000
11
-322.500000
21
105.000000
0
LINE
8
0
10
-327.500000
20
135.000000
11
-327.500000
21
145.000000
0
LINE
8
0
10
-327.500000
20
145.000000
11
-327.413461
21
145.652294
0
LINE
8
0
10
-327.413461
20
145.652294
11
-327.165064
21
146.250000
0
LINE
8
0
10
-327.165064
20
146.250000
11
-326.771634
21
146.763972
0
LINE
8
0
10
-326.771634
20
146.763972
11
-326.250000
21
147.165064
0
LINE
8
0
10
-326.250000
20
147.165064
11
-325.641827
21
147.416266
0
LINE
8
0
10
-325.641827
20
147.416266
11
-325.000000
21
147.500000
0
LINE
8
0
10
-325.000000
20
147.500000
11
-324.358173
21
147.416266
0
LINE
8
0
10
-324.358173
20
147.416266
11
-323.750000
21
147.165064
0
LINE
8
0
10
-323.750000
20
147.165064
11
-323.228366
21
146.763972
0
LINE
8
0
10
-323.228366
20
146.763972
11
-322.834936
21
146.250000
0
LINE
8
0
10
-322.834936
20
146.250000
11
-322.586539
21
145.652294
0
LINE
8
0
10
-322.586539
20
145.652294
11
-322.500000
21
145.000000
0
LINE
8
0
10
-322.500000
20
145.000000
11
-322.500000
21
135.000000
0
LINE
8
0
10
-322.500000
20
135.000000
11
-322.586539
21
134.347706
0
LINE
8
0
10
-322.586539
20
134.347706
11
-322.834936
21
133.750000
0
LINE
8
0
10
-322.834936
20
133.750000
11
-323.228366
21
133.236028
0
LINE
8
0
10
-323.228366
20
133.236028
11
-323.750000
21
132.834936
0
LINE
8
0
10
-323.750000
20
132.834936
11
-324.358173
21
132.583734
0
LINE
8
0
10
-324.358173
20
132.583734
11
-325.000000
21
132.500000
0
LINE
8
0
10
-325.000000
20
132.500000
11
-325.641827
21
132.583734
0
LINE
8
0
10
-325.641827
20
132.583734
11
-326.250000
21
132.834936
0
LINE
8
0
10
-326.250000
20
132.834936
11
-326.771634
21
133.236028
0
LINE
8
0
10
-326.771634
20
133.236028
11
-327.165064
21
133.750000
0
LINE
8
0
10
-327.165064
20
133.750000
11
-327.413461
21
134.347706
0
LINE
8
0
10
-327.413461
20
134.347706
11
-327.500000
21
135.000000
0
LINE
8
0
10
-327.500000
20
135.000000
11
-327.500000
21
135.000000
0
LINE
8
0
10
-307.500000
20
115.000000
11
-307.500000
21
125.000000
0
LINE
8
0
10
-307.500000
20
125.000000
11
-307.413461
21
125.652294
0
LINE
8
0
10
-307.413461
20
125.652294
11
-307.165064
21
126.250000
0
LINE
8
0
10
-307.165064
20
126.250000
11
-306.771634
21
126.763972
0
LINE
8
0
10
-306.771634
20
126.763972
11
-306.250000
21
127.165064
0
LINE
8
0
10
-306.250000
20
127.165064
11
-305.641827
21
127.416266
0
LINE
8
0
10
-305.641827
20
127.416266
11
-305.000000
21
127.500000
0
LINE
8
0
10
-305.000000
20
127.500000
11
-304.358173
21
127.416266
0
LINE
8
0
10
-304.358173
20
127.416266
11
-303.750000
21
127.165064
0
LINE
8
0
10
-303.750000
20
127.165064
11
-303.228366
21
126.763972
0
LINE
8
0
10
-303.228366
20
126.763972
11
-302.834936
21
126.250000
0
LINE
8
0
10
-302.834936
20
126.250000
11
-302.586539
21
125.652294
0
LINE
8
0
10
-302.586539
20
125.652294
11
-302.500000
21
125.000000
0
LINE
8
0
10
-302.500000
20
125.000000
11
-302.500000
21
115.000000
0
LINE
8
0
10
-302.500000
20
115.000000
11
-302.586539
21
114.347706
0
LINE
8
0
10
-302.586539
20
114.347706
11
-302.834936
21
113.750000
0
LINE
8
0
10
-302.834936
20
113.750000
11
-303.228366
21
113.236028
0
LINE
8
0
10
-303.228366
20
113.236028
11
-303.750000
21
112.834936
0
LINE
8
0
10
-303.750000
20
112.834936
11
-304.358173
21
112.583734
0
LINE
8
0
10
-304.358173
20
112.583734
11
-305.000000
21
112.500000
0
LINE
8
0
10
-305.000000
20
112.500000
11
-305.641827
21
112.583734
0
LINE
8
0
10
-305.641827
20
112.583734
11
-306.250000
21
112.834936
0
LINE
8
0
10
-306.250000
20
112.834936
11
-306.771634
21
113.236028
0
LINE
8
0
10
-306.771634
20
113.236028
11
-307.165064
21
113.750000
0
LINE
8
0
10
-307.165064
20
113.750000
11
-307.413461
21
114.347706
0
LINE
8
0
10
-307.413461
20
114.347706
11
-307.500000
21
115.000000
0
LINE
8
0
10
-307.500000
20
115.000000
11
-307.500000
21
115.000000
0
LINE
8
0
10
-287.500000
20
55.000300
11
-287.500000
21
65.000300
0
LINE
8
0
10
-287.500000
20
65.000300
11
-287.413461
21
65.652594
0
LINE
8
0
10
-287.413461
20
65.652594
11
-287.165064
21
66.250300
0
LINE
8
0
10
-287.165064
20
66.250300
11
-286.771634
21
66.764272
0
LINE
8
0
10
-286.771634
20
66.764272
11
-286.250000
21
67.165364
0
LINE
8
0
10
-286.250000
20
67.165364
11
-285.641827
21
67.416566
0
LINE
8
0
10
-285.641827
20
67.416566
11
-285.000000
21
67.500300
0
LINE
8
0
10
-285.000000
20
67.500300
11
-284.358173
21
67.416566
0
LINE
8
0
10
-284.358173
20
67.416566
11
-283.750000
21
67.165364
0
LINE
8
0
10
-283.750000
20
67.165364
11
-283.228366
21
66.764272
0
LINE
8
0
10
-283.228366
20
66.764272
11
-282.834936
21
66.250300
0
LINE
8
0
10
-282.834936
20
66.250300
11
-282.586539
21
65.652594
0
LINE
8
0
10
-282.586539
20
65.652594
11
-282.500000
21
65.000300
0
LINE
8
0
10
-282.500000
20
65.000300
11
-282.500000
21
55.000300
0
LINE
8
0
10
-282.500000
20
55.000300
11
-282.586539
21
54.348006
0
LINE
8
0
10
-282.586539
20
54.348006
11
-282.834936
21
53.750300
0
LINE
8
0
10
-282.834936
20
53.750300
11
-283.228366
21
53.236328
0
LINE
8
0
10
-283.228366
20
53.236328
11
-283.750000
21
52.835236
0
LINE
8
0
10
-283.750000
20
52.835236
11
-284.358173
21
52.584034
0
LINE
8
0
10
-284.358173
20
52.584034
11
-285.000000
21
52.500300
0
LINE
8
0
10
-285.000000
20
52.500300
11
-285.641827
21
52.584034
0
LINE
8
0
10
-285.641827
20
52.584034
11
-286.250000
21
52.835236
0
LINE
8
0
10
-286.250000
20
52.835236
11
-286.771634
21
53.236328
0
LINE
8
0
10
-286.771634
20
53.236328
11
-287.165064
21
53.750300
0
LINE
8
0
10
-287.165064
20
53.750300
11
-287.413461
21
54.348006
0
LINE
8
0
10
-287.413461
20
54.348006
11
-287.500000
21
55.000300
0
LINE
8
0
10
-287.500000
20
55.000300
11
-287.500000
21
55.000300
0
LINE
8
0
10
-242.500000
20
25.000300
11
-242.500000
21
15.000400
0
LINE
8
0
10
-242.500000
20
15.000400
11
-242.586539
21
14.348106
0
LINE
8
0
10
-242.586539
20
14.348106
11
-242.834936
21
13.750400
0
LINE
8
0
10
-242.834936
20
13.750400
11
-243.228366
21
13.236428
0
LINE
8
0
10
-243.228366
20
13.236428
11
-243.750000
21
12.835336
0
LINE
8
0
10
-243.750000
20
12.835336
11
-244.358173
21
12.584134
0
LINE
8
0
10
-244.358173
20
12.584134
11
-245.000000
21
12.500400
0
LINE
8
0
10
-245.000000
20
12.500400
11
-245.641827
21
12.584134
0
LINE
8
0
10
-245.641827
20
12.584134
11
-246.250000
21
12.835336
0
LINE
8
0
10
-246.250000
20
12.835336
11
-246.771634
21
13.236428
0
LINE
8
0
10
-246.771634
20
13.236428
11
-247.165064
21
13.750400
0
LINE
8
0
10
-247.165064
20
13.750400
11
-247.413461
21
14.348106
0
LINE
8
0
10
-247.413461
20
14.348106
11
-247.500000
21
15.000400
0
LINE
8
0
10
-247.500000
20
15.000400
11
-247.500000
21
25.000300
0
LINE
8
0
10
-247.500000
20
25.000300
11
-247.413461
21
25.652594
0
LINE
8
0
10
-247.413461
20
25.652594
11
-247.165064
21
26.250300
0
LINE
8
0
10
-247.165064
20
26.250300
11
-246.771634
21
26.764272
0
LINE
8
0
10
-246.771634
20
26.764272
11
-246.250000
21
27.165364
0
LINE
8
0
10
-246.250000
20
27.165364
11
-245.641827
21
27.416566
0
LINE
8
0
10
-245.641827
20
27.416566
11
-245.000000
21
27.500300
0
LINE
8
0
10
-245.000000
20
27.500300
11
-244.358173
21
27.416566
0
LINE
8
0
10
-244.358173
20
27.416566
11
-243.750000
21
27.165364
0
LINE
8
0
10
-243.750000
20
27.165364
11
-243.228366
21
26.764272
0
LINE
8
0
10
-243.228366
20
26.764272
11
-242.834936
21
26.250300
0
LINE
8
0
10
-242.834936
20
26.250300
11
-242.586539
21
25.652594
0
LINE
8
0
10
-242.586539
20
25.652594
11
-242.500000
21
25.000300
0
LINE
8
0
10
-242.500000
20
25.000300
11
-242.500000
21
25.000300
0
LINE
8
0
10
-447.499000
20
95.000300
11
-447.499000
21
105.000000
0
LINE
8
0
10
-447.499000
20
105.000000
11
-447.412461
21
105.652294
0
LINE
8
0
10
-447.412461
20
105.652294
11
-447.164064
21
106.250000
0
LINE
8
0
10
-447.164064
20
106.250000
11
-446.770634
21
106.763972
0
LINE
8
0
10
-446.770634
20
106.763972
11
-446.249000
21
107.165064
0
LINE
8
0
10
-446.249000
20
107.165064
11
-445.640827
21
107.416266
0
LINE
8
0
10
-445.640827
20
107.416266
11
-444.999000
21
107.500000
0
LINE
8
0
10
-444.999000
20
107.500000
11
-444.357173
21
107.416266
0
LINE
8
0
10
-444.357173
20
107.416266
11
-443.749000
21
107.165064
0
LINE
8
0
10
-443.749000
20
107.165064
11
-443.227366
21
106.763972
0
LINE
8
0
10
-443.227366
20
106.763972
11
-442.833936
21
106.250000
0
LINE
8
0
10
-442.833936
20
106.250000
11
-442.585539
21
105.652294
0
LINE
8
0
10
-442.585539
20
105.652294
11
-442.499000
21
105.000000
0
LINE
8
0
10
-442.499000
20
105.000000
11
-442.499000
21
95.000300
0
LINE
8
0
10
-442.499000
20
95.000300
11
-442.585539
21
94.348006
0
LINE
8
0
10
-442.585539
20
94.348006
11
-442.833936
21
93.750300
0
LINE
8
0
10
-442.833936
20
93.750300
11
-443.227366
21
93.236328
0
LINE
8
0
10
-443.227366
20
93.236328
11
-443.749000
21
92.835236
0
LINE
8
0
10
-443.749000
20
92.835236
11
-444.357173
21
92.584034
0
LINE
8
0
10
-444.357173
20
92.584034
11
-444.999000
21
92.500300
0
LINE
8
0
10
-444.999000
20
92.500300
11
-445.640827
21
92.584034
0
LINE
8
0
10
-445.640827
20
92.584034
11
-446.249000
21
92.835236
0
LINE
8
0
10
-446.249000
20
92.835236
11
-446.770634
21
93.236328
0
LINE
8
0
10
-446.770634
20
93.236328
11
-447.164064
21
93.750300
0
LINE
8
0
10
-447.164064
20
93.750300
11
-447.412461
21
94.348006
0
LINE
8
0
10
-447.412461
20
94.348006
11
-447.499000
21
95.000300
0
LINE
8
0
10
-447.499000
20
95.000300
11
-447.499000
21
95.000300
0
LINE
8
0
10
-407.499000
20
95.000300
11
-407.499000
21
105.000000
0
LINE
8
0
10
-407.499000
20
105.000000
11
-407.412461
21
105.652294
0
LINE
8
0
10
-407.412461
20
105.652294
11
-407.164064
21
106.250000
0
LINE
8
0
10
-407.164064
20
106.250000
11
-406.770634
21
106.763972
0
LINE
8
0
10
-406.770634
20
106.763972
11
-406.249000
21
107.165064
0
LINE
8
0
10
-406.249000
20
107.165064
11
-405.640827
21
107.416266
0
LINE
8
0
10
-405.640827
20
107.416266
11
-404.999000
21
107.500000
0
LINE
8
0
10
-404.999000
20
107.500000
11
-404.357173
21
107.416266
0
LINE
8
0
10
-404.357173
20
107.416266
11
-403.749000
21
107.165064
0
LINE
8
0
10
-403.749000
20
107.165064
11
-403.227366
21
106.763972
0
LINE
8
0
10
-403.227366
20
106.763972
11
-402.833936
21
106.250000
0
LINE
8
0
10
-402.833936
20
106.250000
11
-402.585539
21
105.652294
0
LINE
8
0
10
-402.585539
20
105.652294
11
-402.499000
21
105.000000
0
LINE
8
0
10
-402.499000
20
105.000000
11
-402.499000
21
95.000300
0
LINE
8
0
10
-402.499000
20
95.000300
11
-402.585539
21
94.348006
0
LINE
8
0
10
-402.585539
20
94.348006
11
-402.833936
21
93.750300
0
LINE
8
0
10
-402.833936
20
93.750300
11
-403.227366
21
93.236328
0
LINE
8
0
10
-403.227366
20
93.236328
11
-403.749000
21
92.835236
0
LINE
8
0
10
-403.749000
20
92.835236
11
-404.357173
21
92.584034
0
LINE
8
0
10
-404.357173
20
92.584034
11
-404.999000
21
92.500300
0
LINE
8
0
10
-404.999000
20
92.500300
11
-405.640827
21
92.584034
0
LINE
8
0
10
-405.640827
20
92.584034
11
-406.249000
21
92.835236
0
LINE
8
0
10
-406.249000
20
92.835236
11
-406.770634
21
93.236328
0
LINE
8
0
10
-406.770634
20
93.236328
11
-407.164064
21
93.750300
0
LINE
8
0
10
-407.164064
20
93.750300
11
-407.412461
21
94.348006
0
LINE
8
0
10
-407.412461
20
94.348006
11
-407.499000
21
95.000300
0
LINE
8
0
10
-407.499000
20
95.000300
11
-407.499000
21
95.000300
0
LINE
8
0
10
-462.499000
20
115.000000
11
-462.585539
21
114.347706
0
LINE
8
0
10
-462.585539
20
114.347706
11
-462.833936
21
113.750000
0
LINE
8
0
10
-462.833936
20
113.750000
11
-463.227366
21
113.236028
0
LINE
8
0
10
-463.227366
20
113.236028
11
-463.749000
21
112.834936
0
LINE
8
0
10
-463.749000
20
112.834936
11
-464.357173
21
112.583734
0
LINE
8
0
10
-464.357173
20
112.583734
11
-464.999000
21
112.500000
0
LINE
8
0
10
-464.999000
20
112.500000
11
-465.640827
21
112.583734
0
LINE
8
0
10
-465.640827
20
112.583734
11
-466.249000
21
112.834936
0
LINE
8
0
10
-466.249000
20
112.834936
11
-466.770634
21
113.236028
0
LINE
8
0
10
-466.770634
20
113.236028
11
-467.164064
21
113.750000
0
LINE
8
0
10
-467.164064
20
113.750000
11
-467.412461
21
114.347706
0
LINE
8
0
10
-467.412461
20
114.347706
11
-467.499000
21
115.000000
0
LINE
8
0
10
-467.499000
20
115.000000
11
-467.499000
21
125.000000
0
LINE
8
0
10
-467.499000
20
125.000000
11
-467.412461
21
125.652294
0
LINE
8
0
10
-467.412461
20
125.652294
11
-467.164064
21
126.250000
0
LINE
8
0
10
-467.164064
20
126.250000
11
-466.770634
21
126.763972
0
LINE
8
0
10
-466.770634
20
126.763972
11
-466.249000
21
127.165064
0
LINE
8
0
10
-466.249000
20
127.165064
11
-465.640827
21
127.416266
0
LINE
8
0
10
-465.640827
20
127.416266
11
-464.999000
21
127.500000
0
LINE
8
0
10
-464.999000
20
127.500000
11
-464.357173
21
127.416266
0
LINE
8
0
10
-464.357173
20
127.416266
11
-463.749000
21
127.165064
0
LINE
8
0
10
-463.749000
20
127.165064
11
-463.227366
21
126.763972
0
LINE
8
0
10
-463.227366
20
126.763972
11
-462.833936
21
126.250000
0
LINE
8
0
10
-462.833936
20
126.250000
11
-462.585539
21
125.652294
0
LINE
8
0
10
-462.585539
20
125.652294
11
-462.499000
21
125.000000
0
LINE
8
0
10
-462.499000
20
125.000000
11
-462.499000
21
115.000000
0
LINE
8
0
10
-462.499000
20
115.000000
11
-462.499000
21
115.000000
0
LINE
8
0
10
29.145300
20
117.186000
11
28.174459
21
117.384493
0
LINE
8
0
10
28.174459
20
117.384493
11
27.382106
21
117.920725
0
LINE
8
0
10
27.382106
20
117.920725
11
26.848118
21
118.714591
0
LINE
8
0
10
26.848118
20
118.714591
11
26.652371
21
119.685990
0
LINE
8
0
10
26.652371
20
119.685990
11
26.848118
21
120.657389
0
LINE
8
0
10
26.848118
20
120.657389
11
27.382106
21
121.451255
0
LINE
8
0
10
27.382106
20
121.451255
11
28.174459
21
121.987487
0
LINE
8
0
10
28.174459
20
121.987487
11
29.145300
21
122.185980
0
LINE
8
0
10
29.145300
20
122.185980
11
39.145300
21
122.186000
0
LINE
8
0
10
39.145300
20
122.186000
11
40.116141
21
121.987507
0
LINE
8
0
10
40.116141
20
121.987507
11
40.908494
21
121.451275
0
LINE
8
0
10
40.908494
20
121.451275
11
41.442482
21
120.657409
0
LINE
8
0
10
41.442482
20
120.657409
11
41.638229
21
119.686010
0
LINE
8
0
10
41.638229
20
119.686010
11
41.442482
21
118.714611
0
LINE
8
0
10
41.442482
20
118.714611
11
40.908494
21
117.920745
0
LINE
8
0
10
40.908494
20
117.920745
11
40.116141
21
117.384513
0
LINE
8
0
10
40.116141
20
117.384513
11
39.145300
21
117.186020
0
LINE
8
0
10
39.145300
20
117.186020
11
29.145300
21
117.186000
0
LINE
8
0
10
159.145000
20
122.186000
11
160.115841
21
121.987507
0
LINE
8
0
10
160.115841
20
121.987507
11
160.908194
21
121.451275
0
LINE
8
0
10
160.908194
20
121.451275
11
161.442182
21
120.657409
0
LINE
8
0
10
161.442182
20
120.657409
11
161.637929
21
119.686010
0
LINE
8
0
10
161.637929
20
119.686010
11
161.442182
21
118.714611
0
LINE
8
0
10
161.442182
20
118.714611
11
160.908194
21
117.920745
0
LINE
8
0
10
160.908194
20
117.920745
11
160.115841
21
117.384513
0
LINE
8
0
10
160.115841
20
117.384513
11
159.145000
21
117.186020
0
LINE
8
0
10
159.145000
20
117.186020
11
149.145000
21
117.186000
0
LINE
8
0
10
149.145000
20
117.186000
11
148.174159
21
117.384493
0
LINE
8
0
10
148.174159
20
117.384493
11
147.381806
21
117.920725
0
LINE
8
0
10
147.381806
20
117.920725
11
146.847818
21
118.714591
0
LINE
8
0
10
146.847818
20
118.714591
11
146.652071
21
119.685990
0
LINE
8
0
10
146.652071
20
119.685990
11
146.847818
21
120.657389
0
LINE
8
0
10
146.847818
20
120.657389
11
147.381806
21
121.451255
0
LINE
8
0
10
147.381806
20
121.451255
11
148.174159
21
121.987487
0
LINE
8
0
10
148.174159
20
121.987487
11
149.145000
21
122.185980
0
LINE
8
0
10
149.145000
20
122.185980
11
159.145000
21
122.186000
0
LINE
8
0
10
99.145200
20
262.185000
11
100.116711
21
261.987100
0
LINE
8
0
10
100.116711
20
261.987100
11
100.909741
21
261.451000
0
LINE
8
0
10
100.909741
20
261.451000
11
101.444253
21
260.656900
0
LINE
8
0
10
101.444253
20
260.656900
11
101.640210
21
259.684995
0
LINE
8
0
10
101.640210
20
259.684995
11
101.444253
21
258.713090
0
LINE
8
0
10
101.444253
20
258.713090
11
100.909741
21
257.918990
0
LINE
8
0
10
100.909741
20
257.918990
11
100.116711
21
257.382890
0
LINE
8
0
10
100.116711
20
257.382890
11
99.145200
21
257.184990
0
LINE
8
0
10
99.145200
20
257.184990
11
89.145300
21
257.185000
0
LINE
8
0
10
89.145300
20
257.185000
11
88.173789
21
257.382900
0
LINE
8
0
10
88.173789
20
257.382900
11
87.380759
21
257.919000
0
LINE
8
0
10
87.380759
20
257.919000
11
86.846247
21
258.713100
0
LINE
8
0
10
86.846247
20
258.713100
11
86.650290
21
259.685005
0
LINE
8
0
10
86.650290
20
259.685005
11
86.846247
21
260.656910
0
LINE
8
0
10
86.846247
20
260.656910
11
87.380759
21
261.451010
0
LINE
8
0
10
87.380759
20
261.451010
11
88.173789
21
261.987110
0
LINE
8
0
10
88.173789
20
261.987110
11
89.145300
21
262.185010
0
LINE
8
0
10
89.145300
20
262.185010
11
99.145200
21
262.185000
0
LINE
8
0
10
89.145300
20
22.185700
11
99.145200
21
22.185700
0
LINE
8
0
10
99.145200
20
22.185700
11
100.116707
21
21.987801
0
LINE
8
0
10
100.116707
20
21.987801
11
100.909734
21
21.451703
0
LINE
8
0
10
100.909734
20
21.451703
11
101.444244
21
20.657606
0
LINE
8
0
10
101.444244
20
20.657606
11
101.640200
21
19.685705
0
LINE
8
0
10
101.640200
20
19.685705
11
101.444244
21
18.713804
0
LINE
8
0
10
101.444244
20
18.713804
11
100.909734
21
17.919707
0
LINE
8
0
10
100.909734
20
17.919707
11
100.116707
21
17.383609
0
LINE
8
0
10
100.116707
20
17.383609
11
99.145200
21
17.185710
0
LINE
8
0
10
99.145200
20
17.185710
11
89.145300
21
17.185700
0
LINE
8
0
10
89.145300
20
17.185700
11
88.173793
21
17.383599
0
LINE
8
0
10
88.173793
20
17.383599
11
87.380766
21
17.919697
0
LINE
8
0
10
87.380766
20
17.919697
11
86.846256
21
18.713794
0
LINE
8
0
10
86.846256
20
18.713794
11
86.650300
21
19.685695
0
LINE
8
0
10
86.650300
20
19.685695
11
86.846256
21
20.657596
0
LINE
8
0
10
86.846256
20
20.657596
11
87.380766
21
21.451693
0
LINE
8
0
10
87.380766
20
21.451693
11
88.173793
21
21.987791
0
LINE
8
0
10
88.173793
20
21.987791
11
89.145300
21
22.185690
0
LINE
8
0
10
89.145300
20
22.185690
11
89.145300
21
22.185700
0
LINE
8
0
10
19.145300
20
62.185600
11
20.116811
21
61.987700
0
LINE
8
0
10
20.116811
20
61.987700
11
20.909841
21
61.451600
0
LINE
8
0
10
20.909841
20
61.451600
11
21.444353
21
60.657500
0
LINE
8
0
10
21.444353
20
60.657500
11
21.640310
21
59.685595
0
LINE
8
0
10
21.640310
20
59.685595
11
21.444353
21
58.713690
0
LINE
8
0
10
21.444353
20
58.713690
11
20.909841
21
57.919590
0
LINE
8
0
10
20.909841
20
57.919590
11
20.116811
21
57.383490
0
LINE
8
0
10
20.116811
20
57.383490
11
19.145300
21
57.185590
0
LINE
8
0
10
19.145300
20
57.185590
11
9.145350
21
57.185600
0
LINE
8
0
10
9.145350
20
57.185600
11
8.173839
21
57.383500
0
LINE
8
0
10
8.173839
20
57.383500
11
7.380809
21
57.919600
0
LINE
8
0
10
7.380809
20
57.919600
11
6.846297
21
58.713700
0
LINE
8
0
10
6.846297
20
58.713700
11
6.650340
21
59.685605
0
LINE
8
0
10
6.650340
20
59.685605
11
6.846297
21
60.657510
0
LINE
8
0
10
6.846297
20
60.657510
11
7.380809
21
61.451610
0
LINE
8
0
10
7.380809
20
61.451610
11
8.173839
21
61.987710
0
LINE
8
0
10
8.173839
20
61.987710
11
9.145350
21
62.185610
0
LINE
8
0
10
9.145350
20
62.185610
11
19.145300
21
62.185600
0
LINE
8
0
10
99.145200
20
142.186000
11
100.116711
21
141.988100
0
LINE
8
0
10
100.116711
20
141.988100
11
100.909741
21
141.452000
0
LINE
8
0
10
100.909741
20
141.452000
11
101.444253
21
140.657900
0
LINE
8
0
10
101.444253
20
140.657900
11
101.640210
21
139.685995
0
LINE
8
0
10
101.640210
20
139.685995
11
101.444253
21
138.714090
0
LINE
8
0
10
101.444253
20
138.714090
11
100.909741
21
137.919990
0
LINE
8
0
10
100.909741
20
137.919990
11
100.116711
21
137.383890
0
LINE
8
0
10
100.116711
20
137.383890
11
99.145200
21
137.185990
0
LINE
8
0
10
99.145200
20
137.185990
11
89.145300
21
137.186000
0
LINE
8
0
10
89.145300
20
137.186000
11
88.173789
21
137.383900
0
LINE
8
0
10
88.173789
20
137.383900
11
87.380759
21
137.920000
0
LINE
8
0
10
87.380759
20
137.920000
11
86.846247
21
138.714100
0
LINE
8
0
10
86.846247
20
138.714100
11
86.650290
21
139.686005
0
LINE
8
0
10
86.650290
20
139.686005
11
86.846247
21
140.657910
0
LINE
8
0
10
86.846247
20
140.657910
11
87.380759
21
141.452010
0
LINE
8
0
10
87.380759
20
141.452010
11
88.173789
21
141.988110
0
LINE
8
0
10
88.173789
20
141.988110
11
89.145300
21
142.186010
0
LINE
8
0
10
89.145300
20
142.186010
11
99.145200
21
142.186000
0
LINE
8
0
10
59.145300
20
177.185000
11
49.145300
21
177.185000
0
LINE
8
0
10
49.145300
20
177.185000
11
48.173789
21
177.382900
0
LINE
8
0
10
48.173789
20
177.382900
11
47.380759
21
177.919000
0
LINE
8
0
10
47.380759
20
177.919000
11
46.846247
21
178.713100
0
LINE
8
0
10
46.846247
20
178.713100
11
46.650290
21
179.685005
0
LINE
8
0
10
46.650290
20
179.685005
11
46.846247
21
180.656910
0
LINE
8
0
10
46.846247
20
180.656910
11
47.380759
21
181.451010
0
LINE
8
0
10
47.380759
20
181.451010
11
48.173789
21
181.987110
0
LINE
8
0
10
48.173789
20
181.987110
11
49.145300
21
182.185010
0
LINE
8
0
10
49.145300
20
182.185010
11
59.145300
21
182.185000
0
LINE
8
0
10
59.145300
20
182.185000
11
60.116811
21
181.987100
0
LINE
8
0
10
60.116811
20
181.987100
11
60.909841
21
181.451000
0
LINE
8
0
10
60.909841
20
181.451000
11
61.444353
21
180.656900
0
LINE
8
0
10
61.444353
20
180.656900
11
61.640310
21
179.684995
0
LINE
8
0
10
61.640310
20
179.684995
11
61.444353
21
178.713090
0
LINE
8
0
10
61.444353
20
178.713090
11
60.909841
21
177.918990
0
LINE
8
0
10
60.909841
20
177.918990
11
60.116811
21
177.382890
0
LINE
8
0
10
60.116811
20
177.382890
11
59.145300
21
177.184990
0
LINE
8
0
10
59.145300
20
177.184990
11
59.145300
21
177.185000
0
LINE
8
0
10
139.145000
20
177.185000
11
129.145000
21
177.185000
0
LINE
8
0
10
129.145000
20
177.185000
11
128.173489
21
177.382900
0
LINE
8
0
10
128.173489
20
177.382900
11
127.380459
21
177.919000
0
LINE
8
0
10
127.380459
20
177.919000
11
126.845947
21
178.713100
0
LINE
8
0
10
126.845947
20
178.713100
11
126.649990
21
179.685005
0
LINE
8
0
10
126.649990
20
179.685005
11
126.845947
21
180.656910
0
LINE
8
0
10
126.845947
20
180.656910
11
127.380459
21
181.451010
0
LINE
8
0
10
127.380459
20
181.451010
11
128.173489
21
181.987110
0
LINE
8
0
10
128.173489
20
181.987110
11
129.145000
21
182.185010
0
LINE
8
0
10
129.145000
20
182.185010
11
139.145000
21
182.185000
0
LINE
8
0
10
139.145000
20
182.185000
11
140.116511
21
181.987100
0
LINE
8
0
10
140.116511
20
181.987100
11
140.909541
21
181.451000
0
LINE
8
0
10
140.909541
20
181.451000
11
141.444053
21
180.656900
0
LINE
8
0
10
141.444053
20
180.656900
11
141.640010
21
179.684995
0
LINE
8
0
10
141.640010
20
179.684995
11
141.444053
21
178.713090
0
LINE
8
0
10
141.444053
20
178.713090
11
140.909541
21
177.918990
0
LINE
8
0
10
140.909541
20
177.918990
11
140.116511
21
177.382890
0
LINE
8
0
10
140.116511
20
177.382890
11
139.145000
21
177.184990
0
LINE
8
0
10
139.145000
20
177.184990
11
139.145000
21
177.185000
0
LINE
8
0
10
119.145000
20
42.185700
11
120.116507
21
41.987801
0
LINE
8
0
10
120.116507
20
41.987801
11
120.909534
21
41.451703
0
LINE
8
0
10
120.909534
20
41.451703
11
121.444044
21
40.657606
0
LINE
8
0
10
121.444044
20
40.657606
11
121.640000
21
39.685705
0
LINE
8
0
10
121.640000
20
39.685705
11
121.444044
21
38.713804
0
LINE
8
0
10
121.444044
20
38.713804
11
120.909534
21
37.919707
0
LINE
8
0
10
120.909534
20
37.919707
11
120.116507
21
37.383609
0
LINE
8
0
10
120.116507
20
37.383609
11
119.145000
21
37.185710
0
LINE
8
0
10
119.145000
20
37.185710
11
109.145000
21
37.185700
0
LINE
8
0
10
109.145000
20
37.185700
11
108.173493
21
37.383599
0
LINE
8
0
10
108.173493
20
37.383599
11
107.380466
21
37.919697
0
LINE
8
0
10
107.380466
20
37.919697
11
106.845956
21
38.713794
0
LINE
8
0
10
106.845956
20
38.713794
11
106.650000
21
39.685695
0
LINE
8
0
10
106.650000
20
39.685695
11
106.845956
21
40.657596
0
LINE
8
0
10
106.845956
20
40.657596
11
107.380466
21
41.451693
0
LINE
8
0
10
107.380466
20
41.451693
11
108.173493
21
41.987791
0
LINE
8
0
10
108.173493
20
41.987791
11
109.145000
21
42.185690
0
LINE
8
0
10
109.145000
20
42.185690
11
119.145000
21
42.185700
0
LINE
8
0
10
39.145300
20
162.186000
11
40.116141
21
161.987507
0
LINE
8
0
10
40.116141
20
161.987507
11
40.908494
21
161.451275
0
LINE
8
0
10
40.908494
20
161.451275
11
41.442482
21
160.657409
0
LINE
8
0
10
41.442482
20
160.657409
11
41.638229
21
159.686010
0
LINE
8
0
10
41.638229
20
159.686010
11
41.442482
21
158.714611
0
LINE
8
0
10
41.442482
20
158.714611
11
40.908494
21
157.920745
0
LINE
8
0
10
40.908494
20
157.920745
11
40.116141
21
157.384513
0
LINE
8
0
10
40.116141
20
157.384513
11
39.145300
21
157.186020
0
LINE
8
0
10
39.145300
20
157.186020
11
29.145300
21
157.186000
0
LINE
8
0
10
29.145300
20
157.186000
11
28.174459
21
157.384493
0
LINE
8
0
10
28.174459
20
157.384493
11
27.382106
21
157.920725
0
LINE
8
0
10
27.382106
20
157.920725
11
26.848118
21
158.714591
0
LINE
8
0
10
26.848118
20
158.714591
11
26.652371
21
159.685990
0
LINE
8
0
10
26.652371
20
159.685990
11
26.848118
21
160.657389
0
LINE
8
0
10
26.848118
20
160.657389
11
27.382106
21
161.451255
0
LINE
8
0
10
27.382106
20
161.451255
11
28.174459
21
161.987487
0
LINE
8
0
10
28.174459
20
161.987487
11
29.145300
21
162.185980
0
LINE
8
0
10
29.145300
20
162.185980
11
39.145300
21
162.186000
0
LINE
8
0
10
169.145000
20
17.185700
11
168.173493
21
17.383599
0
LINE
8
0
10
168.173493
20
17.383599
11
167.380466
21
17.919697
0
LINE
8
0
10
167.380466
20
17.919697
11
166.845956
21
18.713794
0
LINE
8
0
10
166.845956
20
18.713794
11
166.650000
21
19.685695
0
LINE
8
0
10
166.650000
20
19.685695
11
166.845956
21
20.657596
0
LINE
8
0
10
166.845956
20
20.657596
11
167.380466
21
21.451693
0
LINE
8
0
10
167.380466
20
21.451693
11
168.173493
21
21.987791
0
LINE
8
0
10
168.173493
20
21.987791
11
169.145000
21
22.185690
0
LINE
8
0
10
169.145000
20
22.185690
11
179.145000
21
22.185700
0
LINE
8
0
10
179.145000
20
22.185700
11
180.116507
21
21.987801
0
LINE
8
0
10
180.116507
20
21.987801
11
180.909534
21
21.451703
0
LINE
8
0
10
180.909534
20
21.451703
11
181.444044
21
20.657606
0
LINE
8
0
10
181.444044
20
20.657606
11
181.640000
21
19.685705
0
LINE
8
0
10
181.640000
20
19.685705
11
181.444044
21
18.713804
0
LINE
8
0
10
181.444044
20
18.713804
11
180.909534
21
17.919707
0
LINE
8
0
10
180.909534
20
17.919707
11
180.116507
21
17.383609
0
LINE
8
0
10
180.116507
20
17.383609
11
179.145000
21
17.185710
0
LINE
8
0
10
179.145000
20
17.185710
11
169.145000
21
17.185700
0
LINE
8
0
10
49.145300
20
262.185000
11
59.145300
21
262.185000
0
LINE
8
0
10
59.145300
20
262.185000
11
60.116811
21
261.987100
0
LINE
8
0
10
60.116811
20
261.987100
11
60.909841
21
261.451000
0
LINE
8
0
10
60.909841
20
261.451000
11
61.444353
21
260.656900
0
LINE
8
0
10
61.444353
20
260.656900
11
61.640310
21
259.684995
0
LINE
8
0
10
61.640310
20
259.684995
11
61.444353
21
258.713090
0
LINE
8
0
10
61.444353
20
258.713090
11
60.909841
21
257.918990
0
LINE
8
0
10
60.909841
20
257.918990
11
60.116811
21
257.382890
0
LINE
8
0
10
60.116811
20
257.382890
11
59.145300
21
257.184990
0
LINE
8
0
10
59.145300
20
257.184990
11
49.145300
21
257.185000
0
LINE
8
0
10
49.145300
20
257.185000
11
48.173789
21
257.382900
0
LINE
8
0
10
48.173789
20
257.382900
11
47.380759
21
257.919000
0
LINE
8
0
10
47.380759
20
257.919000
11
46.846247
21
258.713100
0
LINE
8
0
10
46.846247
20
258.713100
11
46.650290
21
259.685005
0
LINE
8
0
10
46.650290
20
259.685005
11
46.846247
21
260.656910
0
LINE
8
0
10
46.846247
20
260.656910
11
47.380759
21
261.451010
0
LINE
8
0
10
47.380759
20
261.451010
11
48.173789
21
261.987110
0
LINE
8
0
10
48.173789
20
261.987110
11
49.145300
21
262.185010
0
LINE
8
0
10
49.145300
20
262.185010
11
49.145300
21
262.185000
0
LINE
8
0
10
9.145350
20
142.186000
11
19.145300
21
142.186000
0
LINE
8
0
10
19.145300
20
142.186000
11
20.116811
21
141.988100
0
LINE
8
0
10
20.116811
20
141.988100
11
20.909841
21
141.452000
0
LINE
8
0
10
20.909841
20
141.452000
11
21.444353
21
140.657900
0
LINE
8
0
10
21.444353
20
140.657900
11
21.640310
21
139.685995
0
LINE
8
0
10
21.640310
20
139.685995
11
21.444353
21
138.714090
0
LINE
8
0
10
21.444353
20
138.714090
11
20.909841
21
137.919990
0
LINE
8
0
10
20.909841
20
137.919990
11
20.116811
21
137.383890
0
LINE
8
0
10
20.116811
20
137.383890
11
19.145300
21
137.185990
0
LINE
8
0
10
19.145300
20
137.185990
11
9.145350
21
137.186000
0
LINE
8
0
10
9.145350
20
137.186000
11
8.173839
21
137.383900
0
LINE
8
0
10
8.173839
20
137.383900
11
7.380809
21
137.920000
0
LINE
8
0
10
7.380809
20
137.920000
11
6.846297
21
138.714100
0
LINE
8
0
10
6.846297
20
138.714100
11
6.650340
21
139.686005
0
LINE
8
0
10
6.650340
20
139.686005
11
6.846297
21
140.657910
0
LINE
8
0
10
6.846297
20
140.657910
11
7.380809
21
141.452010
0
LINE
8
0
10
7.380809
20
141.452010
11
8.173839
21
141.988110
0
LINE
8
0
10
8.173839
20
141.988110
11
9.145350
21
142.186010
0
LINE
8
0
10
9.145350
20
142.186010
11
9.145350
21
142.186000
0
LINE
8
0
10
79.145300
20
282.185000
11
80.116141
21
281.986507
0
LINE
8
0
10
80.116141
20
281.986507
11
80.908494
21
281.450275
0
LINE
8
0
10
80.908494
20
281.450275
11
81.442482
21
280.656409
0
LINE
8
0
10
81.442482
20
280.656409
11
81.638229
21
279.685010
0
LINE
8
0
10
81.638229
20
279.685010
11
81.442482
21
278.713611
0
LINE
8
0
10
81.442482
20
278.713611
11
80.908494
21
277.919745
0
LINE
8
0
10
80.908494
20
277.919745
11
80.116141
21
277.383513
0
LINE
8
0
10
80.116141
20
277.383513
11
79.145300
21
277.185020
0
LINE
8
0
10
79.145300
20
277.185020
11
69.145300
21
277.185000
0
LINE
8
0
10
69.145300
20
277.185000
11
68.174459
21
277.383493
0
LINE
8
0
10
68.174459
20
277.383493
11
67.382106
21
277.919725
0
LINE
8
0
10
67.382106
20
277.919725
11
66.848118
21
278.713591
0
LINE
8
0
10
66.848118
20
278.713591
11
66.652371
21
279.684990
0
LINE
8
0
10
66.652371
20
279.684990
11
66.848118
21
280.656389
0
LINE
8
0
10
66.848118
20
280.656389
11
67.382106
21
281.450255
0
LINE
8
0
10
67.382106
20
281.450255
11
68.174459
21
281.986487
0
LINE
8
0
10
68.174459
20
281.986487
11
69.145300
21
282.184980
0
LINE
8
0
10
69.145300
20
282.184980
11
79.145300
21
282.185000
0
LINE
8
0
10
159.145000
20
277.185000
11
149.145000
21
277.185000
0
LINE
8
0
10
149.145000
20
277.185000
11
148.174159
21
277.383493
0
LINE
8
0
10
148.174159
20
277.383493
11
147.381806
21
277.919725
0
LINE
8
0
10
147.381806
20
277.919725
11
146.847818
21
278.713591
0
LINE
8
0
10
146.847818
20
278.713591
11
146.652071
21
279.684990
0
LINE
8
0
10
146.652071
20
279.684990
11
146.847818
21
280.656389
0
LINE
8
0
10
146.847818
20
280.656389
11
147.381806
21
281.450255
0
LINE
8
0
10
147.381806
20
281.450255
11
148.174159
21
281.986487
0
LINE
8
0
10
148.174159
20
281.986487
11
149.145000
21
282.184980
0
LINE
8
0
10
149.145000
20
282.184980
11
159.145000
21
282.185000
0
LINE
8
0
10
159.145000
20
282.185000
11
160.115841
21
281.986507
0
LINE
8
0
10
160.115841
20
281.986507
11
160.908194
21
281.450275
0
LINE
8
0
10
160.908194
20
281.450275
11
161.442182
21
280.656409
0
LINE
8
0
10
161.442182
20
280.656409
11
161.637929
21
279.685010
0
LINE
8
0
10
161.637929
20
279.685010
11
161.442182
21
278.713611
0
LINE
8
0
10
161.442182
20
278.713611
11
160.908194
21
277.919745
0
LINE
8
0
10
160.908194
20
277.919745
11
160.115841
21
277.383513
0
LINE
8
0
10
160.115841
20
277.383513
11
159.145000
21
277.185020
0
LINE
8
0
10
159.145000
20
277.185020
11
159.145000
21
277.185000
0
LINE
8
0
10
139.145000
20
62.185600
11
140.116511
21
61.987700
0
LINE
8
0
10
140.116511
20
61.987700
11
140.909541
21
61.451600
0
LINE
8
0
10
140.909541
20
61.451600
11
141.444053
21
60.657500
0
LINE
8
0
10
141.444053
20
60.657500
11
141.640010
21
59.685595
0
LINE
8
0
10
141.640010
20
59.685595
11
141.444053
21
58.713690
0
LINE
8
0
10
141.444053
20
58.713690
11
140.909541
21
57.919590
0
LINE
8
0
10
140.909541
20
57.919590
11
140.116511
21
57.383490
0
LINE
8
0
10
140.116511
20
57.383490
11
139.145000
21
57.185590
0
LINE
8
0
10
139.145000
20
57.185590
11
129.145000
21
57.185600
0
LINE
8
0
10
129.145000
20
57.185600
11
128.173489
21
57.383500
0
LINE
8
0
10
128.173489
20
57.383500
11
127.380459
21
57.919600
0
LINE
8
0
10
127.380459
20
57.919600
11
126.845947
21
58.713700
0
LINE
8
0
10
126.845947
20
58.713700
11
126.649990
21
59.685605
0
LINE
8
0
10
126.649990
20
59.685605
11
126.845947
21
60.657510
0
LINE
8
0
10
126.845947
20
60.657510
11
127.380459
21
61.451610
0
LINE
8
0
10
127.380459
20
61.451610
11
128.173489
21
61.987710
0
LINE
8
0
10
128.173489
20
61.987710
11
129.145000
21
62.185610
0
LINE
8
0
10
129.145000
20
62.185610
11
139.145000
21
62.185600
0
LINE
8
0
10
159.145000
20
197.185000
11
149.145000
21
197.185000
0
LINE
8
0
10
149.145000
20
197.185000
11
148.174159
21
197.383493
0
LINE
8
0
10
148.174159
20
197.383493
11
147.381806
21
197.919725
0
LINE
8
0
10
147.381806
20
197.919725
11
146.847818
21
198.713591
0
LINE
8
0
10
146.847818
20
198.713591
11
146.652071
21
199.684990
0
LINE
8
0
10
146.652071
20
199.684990
11
146.847818
21
200.656389
0
LINE
8
0
10
146.847818
20
200.656389
11
147.381806
21
201.450255
0
LINE
8
0
10
147.381806
20
201.450255
11
148.174159
21
201.986487
0
LINE
8
0
10
148.174159
20
201.986487
11
149.145000
21
202.184980
0
LINE
8
0
10
149.145000
20
202.184980
11
159.145000
21
202.185000
0
LINE
8
0
10
159.145000
20
202.185000
11
160.115841
21
201.986507
0
LINE
8
0
10
160.115841
20
201.986507
11
160.908194
21
201.450275
0
LINE
8
0
10
160.908194
20
201.450275
11
161.442182
21
200.656409
0
LINE
8
0
10
161.442182
20
200.656409
11
161.637929
21
199.685010
0
LINE
8
0
10
161.637929
20
199.685010
11
161.442182
21
198.713611
0
LINE
8
0
10
161.442182
20
198.713611
11
160.908194
21
197.919745
0
LINE
8
0
10
160.908194
20
197.919745
11
160.115841
21
197.383513
0
LINE
8
0
10
160.115841
20
197.383513
11
159.145000
21
197.185020
0
LINE
8
0
10
159.145000
20
197.185020
11
159.145000
21
197.185000
0
LINE
8
0
10
179.145000
20
222.185000
11
180.116511
21
221.987100
0
LINE
8
0
10
180.116511
20
221.987100
11
180.909541
21
221.451000
0
LINE
8
0
10
180.909541
20
221.451000
11
181.444053
21
220.656900
0
LINE
8
0
10
181.444053
20
220.656900
11
181.640010
21
219.684995
0
LINE
8
0
10
181.640010
20
219.684995
11
181.444053
21
218.713090
0
LINE
8
0
10
181.444053
20
218.713090
11
180.909541
21
217.918990
0
LINE
8
0
10
180.909541
20
217.918990
11
180.116511
21
217.382890
0
LINE
8
0
10
180.116511
20
217.382890
11
179.145000
21
217.184990
0
LINE
8
0
10
179.145000
20
217.184990
11
169.145000
21
217.185000
0
LINE
8
0
10
169.145000
20
217.185000
11
168.173489
21
217.382900
0
LINE
8
0
10
168.173489
20
217.382900
11
167.380459
21
217.919000
0
LINE
8
0
10
167.380459
20
217.919000
11
166.845947
21
218.713100
0
LINE
8
0
10
166.845947
20
218.713100
11
166.649990
21
219.685005
0
LINE
8
0
10
166.649990
20
219.685005
11
166.845947
21
220.656910
0
LINE
8
0
10
166.845947
20
220.656910
11
167.380459
21
221.451010
0
LINE
8
0
10
167.380459
20
221.451010
11
168.173489
21
221.987110
0
LINE
8
0
10
168.173489
20
221.987110
11
169.145000
21
222.185010
0
LINE
8
0
10
169.145000
20
222.185010
11
179.145000
21
222.185000
0
LINE
8
0
10
159.145000
20
42.185700
11
160.116507
21
41.987801
0
LINE
8
0
10
160.116507
20
41.987801
11
160.909534
21
41.451703
0
LINE
8
0
10
160.909534
20
41.451703
11
161.444044
21
40.657606
0
LINE
8
0
10
161.444044
20
40.657606
11
161.640000
21
39.685705
0
LINE
8
0
10
161.640000
20
39.685705
11
161.444044
21
38.713804
0
LINE
8
0
10
161.444044
20
38.713804
11
160.909534
21
37.919707
0
LINE
8
0
10
160.909534
20
37.919707
11
160.116507
21
37.383609
0
LINE
8
0
10
160.116507
20
37.383609
11
159.145000
21
37.185710
0
LINE
8
0
10
159.145000
20
37.185710
11
149.145000
21
37.185700
0
LINE
8
0
10
149.145000
20
37.185700
11
148.173493
21
37.383599
0
LINE
8
0
10
148.173493
20
37.383599
11
147.380466
21
37.919697
0
LINE
8
0
10
147.380466
20
37.919697
11
146.845956
21
38.713794
0
LINE
8
0
10
146.845956
20
38.713794
11
146.650000
21
39.685695
0
LINE
8
0
10
146.650000
20
39.685695
11
146.845956
21
40.657596
0
LINE
8
0
10
146.845956
20
40.657596
11
147.380466
21
41.451693
0
LINE
8
0
10
147.380466
20
41.451693
11
148.173493
21
41.987791
0
LINE
8
0
10
148.173493
20
41.987791
11
149.145000
21
42.185690
0
LINE
8
0
10
149.145000
20
42.185690
11
159.145000
21
42.185700
0
LINE
8
0
10
129.145000
20
222.185000
11
139.145000
21
222.185000
0
LINE
8
0
10
139.145000
20
222.185000
11
140.116511
21
221.987100
0
LINE
8
0
10
140.116511
20
221.987100
11
140.909541
21
221.451000
0
LINE
8
0
10
140.909541
20
221.451000
11
141.444053
21
220.656900
0
LINE
8
0
10
141.444053
20
220.656900
11
141.640010
21
219.684995
0
LINE
8
0
10
141.640010
20
219.684995
11
141.444053
21
218.713090
0
LINE
8
0
10
141.444053
20
218.713090
11
140.909541
21
217.918990
0
LINE
8
0
10
140.909541
20
217.918990
11
140.116511
21
217.382890
0
LINE
8
0
10
140.116511
20
217.382890
11
139.145000
21
217.184990
0
LINE
8
0
10
139.145000
20
217.184990
11
129.145000
21
217.185000
0
LINE
8
0
10
129.145000
20
217.185000
11
128.173489
21
217.382900
0
LINE
8
0
10
128.173489
20
217.382900
11
127.380459
21
217.919000
0
LINE
8
0
10
127.380459
20
217.919000
11
126.845947
21
218.713100
0
LINE
8
0
10
126.845947
20
218.713100
11
126.649990
21
219.685005
0
LINE
8
0
10
126.649990
20
219.685005
11
126.845947
21
220.656910
0
LINE
8
0
10
126.845947
20
220.656910
11
127.380459
21
221.451010
0
LINE
8
0
10
127.380459
20
221.451010
11
128.173489
21
221.987110
0
LINE
8
0
10
128.173489
20
221.987110
11
129.145000
21
222.185010
0
LINE
8
0
10
129.145000
20
222.185010
11
129.145000
21
222.185000
0
LINE
8
0
10
29.145300
20
42.185700
11
39.145300
21
42.185700
0
LINE
8
0
10
39.145300
20
42.185700
11
40.116807
21
41.987801
0
LINE
8
0
10
40.116807
20
41.987801
11
40.909834
21
41.451703
0
LINE
8
0
10
40.909834
20
41.451703
11
41.444344
21
40.657606
0
LINE
8
0
10
41.444344
20
40.657606
11
41.640300
21
39.685705
0
LINE
8
0
10
41.640300
20
39.685705
11
41.444344
21
38.713804
0
LINE
8
0
10
41.444344
20
38.713804
11
40.909834
21
37.919707
0
LINE
8
0
10
40.909834
20
37.919707
11
40.116807
21
37.383609
0
LINE
8
0
10
40.116807
20
37.383609
11
39.145300
21
37.185710
0
LINE
8
0
10
39.145300
20
37.185710
11
29.145300
21
37.185700
0
LINE
8
0
10
29.145300
20
37.185700
11
28.173793
21
37.383599
0
LINE
8
0
10
28.173793
20
37.383599
11
27.380766
21
37.919697
0
LINE
8
0
10
27.380766
20
37.919697
11
26.846256
21
38.713794
0
LINE
8
0
10
26.846256
20
38.713794
11
26.650300
21
39.685695
0
LINE
8
0
10
26.650300
20
39.685695
11
26.846256
21
40.657596
0
LINE
8
0
10
26.846256
20
40.657596
11
27.380766
21
41.451693
0
LINE
8
0
10
27.380766
20
41.451693
11
28.173793
21
41.987791
0
LINE
8
0
10
28.173793
20
41.987791
11
29.145300
21
42.185690
0
LINE
8
0
10
29.145300
20
42.185690
11
29.145300
21
42.185700
0
LINE
8
0
10
59.145300
20
97.185600
11
49.145300
21
97.185600
0
LINE
8
0
10
49.145300
20
97.185600
11
48.173789
21
97.383500
0
LINE
8
0
10
48.173789
20
97.383500
11
47.380759
21
97.919600
0
LINE
8
0
10
47.380759
20
97.919600
11
46.846247
21
98.713700
0
LINE
8
0
10
46.846247
20
98.713700
11
46.650290
21
99.685605
0
LINE
8
0
10
46.650290
20
99.685605
11
46.846247
21
100.657510
0
LINE
8
0
10
46.846247
20
100.657510
11
47.380759
21
101.451610
0
LINE
8
0
10
47.380759
20
101.451610
11
48.173789
21
101.987710
0
LINE
8
0
10
48.173789
20
101.987710
11
49.145300
21
102.185610
0
LINE
8
0
10
49.145300
20
102.185610
11
59.145300
21
102.186000
0
LINE
8
0
10
59.145300
20
102.186000
11
60.116811
21
101.988100
0
LINE
8
0
10
60.116811
20
101.988100
11
60.909841
21
101.452000
0
LINE
8
0
10
60.909841
20
101.452000
11
61.444353
21
100.657900
0
LINE
8
0
10
61.444353
20
100.657900
11
61.640310
21
99.685995
0
LINE
8
0
10
61.640310
20
99.685995
11
61.444353
21
98.714090
0
LINE
8
0
10
61.444353
20
98.714090
11
60.909841
21
97.919990
0
LINE
8
0
10
60.909841
20
97.919990
11
60.116811
21
97.383890
0
LINE
8
0
10
60.116811
20
97.383890
11
59.145300
21
97.185990
0
LINE
8
0
10
59.145300
20
97.185990
11
59.145300
21
97.185600
0
LINE
8
0
10
49.145300
20
137.186000
11
48.173789
21
137.383900
0
LINE
8
0
10
48.173789
20
137.383900
11
47.380759
21
137.920000
0
LINE
8
0
10
47.380759
20
137.920000
11
46.846247
21
138.714100
0
LINE
8
0
10
46.846247
20
138.714100
11
46.650290
21
139.686005
0
LINE
8
0
10
46.650290
20
139.686005
11
46.846247
21
140.657910
0
LINE
8
0
10
46.846247
20
140.657910
11
47.380759
21
141.452010
0
LINE
8
0
10
47.380759
20
141.452010
11
48.173789
21
141.988110
0
LINE
8
0
10
48.173789
20
141.988110
11
49.145300
21
142.186010
0
LINE
8
0
10
49.145300
20
142.186010
11
59.145300
21
142.186000
0
LINE
8
0
10
59.145300
20
142.186000
11
60.116811
21
141.988100
0
LINE
8
0
10
60.116811
20
141.988100
11
60.909841
21
141.452000
0
LINE
8
0
10
60.909841
20
141.452000
11
61.444353
21
140.657900
0
LINE
8
0
10
61.444353
20
140.657900
11
61.640310
21
139.685995
0
LINE
8
0
10
61.640310
20
139.685995
11
61.444353
21
138.714090
0
LINE
8
0
10
61.444353
20
138.714090
11
60.909841
21
137.919990
0
LINE
8
0
10
60.909841
20
137.919990
11
60.116811
21
137.383890
0
LINE
8
0
10
60.116811
20
137.383890
11
59.145300
21
137.185990
0
LINE
8
0
10
59.145300
20
137.185990
11
49.145300
21
137.186000
0
LINE
8
0
10
19.145300
20
182.185000
11
20.116811
21
181.987100
0
LINE
8
0
10
20.116811
20
181.987100
11
20.909841
21
181.451000
0
LINE
8
0
10
20.909841
20
181.451000
11
21.444353
21
180.656900
0
LINE
8
0
10
21.444353
20
180.656900
11
21.640310
21
179.684995
0
LINE
8
0
10
21.640310
20
179.684995
11
21.444353
21
178.713090
0
LINE
8
0
10
21.444353
20
178.713090
11
20.909841
21
177.918990
0
LINE
8
0
10
20.909841
20
177.918990
11
20.116811
21
177.382890
0
LINE
8
0
10
20.116811
20
177.382890
11
19.145300
21
177.184990
0
LINE
8
0
10
19.145300
20
177.184990
11
9.145350
21
177.185000
0
LINE
8
0
10
9.145350
20
177.185000
11
8.173839
21
177.382900
0
LINE
8
0
10
8.173839
20
177.382900
11
7.380809
21
177.919000
0
LINE
8
0
10
7.380809
20
177.919000
11
6.846297
21
178.713100
0
LINE
8
0
10
6.846297
20
178.713100
11
6.650340
21
179.685005
0
LINE
8
0
10
6.650340
20
179.685005
11
6.846297
21
180.656910
0
LINE
8
0
10
6.846297
20
180.656910
11
7.380809
21
181.451010
0
LINE
8
0
10
7.380809
20
181.451010
11
8.173839
21
181.987110
0
LINE
8
0
10
8.173839
20
181.987110
11
9.145350
21
182.185010
0
LINE
8
0
10
9.145350
20
182.185010
11
19.145300
21
182.185000
0
LINE
8
0
10
109.145000
20
282.185000
11
119.145000
21
282.185000
0
LINE
8
0
10
119.145000
20
282.185000
11
120.115841
21
281.986507
0
LINE
8
0
10
120.115841
20
281.986507
11
120.908194
21
281.450275
0
LINE
8
0
10
120.908194
20
281.450275
11
121.442182
21
280.656409
0
LINE
8
0
10
121.442182
20
280.656409
11
121.637929
21
279.685010
0
LINE
8
0
10
121.637929
20
279.685010
11
121.442182
21
278.713611
0
LINE
8
0
10
121.442182
20
278.713611
11
120.908194
21
277.919745
0
LINE
8
0
10
120.908194
20
277.919745
11
120.115841
21
277.383513
0
LINE
8
0
10
120.115841
20
277.383513
11
119.145000
21
277.185020
0
LINE
8
0
10
119.145000
20
277.185020
11
109.145000
21
277.185000
0
LINE
8
0
10
109.145000
20
277.185000
11
108.174159
21
277.383493
0
LINE
8
0
10
108.174159
20
277.383493
11
107.381806
21
277.919725
0
LINE
8
0
10
107.381806
20
277.919725
11
106.847818
21
278.713591
0
LINE
8
0
10
106.847818
20
278.713591
11
106.652071
21
279.684990
0
LINE
8
0
10
106.652071
20
279.684990
11
106.847818
21
280.656389
0
LINE
8
0
10
106.847818
20
280.656389
11
107.381806
21
281.450255
0
LINE
8
0
10
107.381806
20
281.450255
11
108.174159
21
281.986487
0
LINE
8
0
10
108.174159
20
281.986487
11
109.145000
21
282.184980
0
LINE
8
0
10
109.145000
20
282.184980
11
109.145000
21
282.185000
0
LINE
8
0
10
149.145000
20
242.185000
11
159.145000
21
242.185000
0
LINE
8
0
10
159.145000
20
242.185000
11
160.115841
21
241.986507
0
LINE
8
0
10
160.115841
20
241.986507
11
160.908194
21
241.450275
0
LINE
8
0
10
160.908194
20
241.450275
11
161.442182
21
240.656409
0
LINE
8
0
10
161.442182
20
240.656409
11
161.637929
21
239.685010
0
LINE
8
0
10
161.637929
20
239.685010
11
161.442182
21
238.713611
0
LINE
8
0
10
161.442182
20
238.713611
11
160.908194
21
237.919745
0
LINE
8
0
10
160.908194
20
237.919745
11
160.115841
21
237.383513
0
LINE
8
0
10
160.115841
20
237.383513
11
159.145000
21
237.185020
0
LINE
8
0
10
159.145000
20
237.185020
11
149.145000
21
237.185000
0
LINE
8
0
10
149.145000
20
237.185000
11
148.174159
21
237.383493
0
LINE
8
0
10
148.174159
20
237.383493
11
147.381806
21
237.919725
0
LINE
8
0
10
147.381806
20
237.919725
11
146.847818
21
238.713591
0
LINE
8
0
10
146.847818
20
238.713591
11
146.652071
21
239.684990
0
LINE
8
0
10
146.652071
20
239.684990
11
146.847818
21
240.656389
0
LINE
8
0
10
146.847818
20
240.656389
11
147.381806
21
241.450255
0
LINE
8
0
10
147.381806
20
241.450255
11
148.174159
21
241.986487
0
LINE
8
0
10
148.174159
20
241.986487
11
149.145000
21
242.184980
0
LINE
8
0
10
149.145000
20
242.184980
11
149.145000
21
242.185000
0
LINE
8
0
10
169.145000
20
62.185600
11
179.145000
21
62.185600
0
LINE
8
0
10
179.145000
20
62.185600
11
180.116511
21
61.987700
0
LINE
8
0
10
180.116511
20
61.987700
11
180.909541
21
61.451600
0
LINE
8
0
10
180.909541
20
61.451600
11
181.444053
21
60.657500
0
LINE
8
0
10
181.444053
20
60.657500
11
181.640010
21
59.685595
0
LINE
8
0
10
181.640010
20
59.685595
11
181.444053
21
58.713690
0
LINE
8
0
10
181.444053
20
58.713690
11
180.909541
21
57.919590
0
LINE
8
0
10
180.909541
20
57.919590
11
180.116511
21
57.383490
0
LINE
8
0
10
180.116511
20
57.383490
11
179.145000
21
57.185590
0
LINE
8
0
10
179.145000
20
57.185590
11
169.145000
21
57.185600
0
LINE
8
0
10
169.145000
20
57.185600
11
168.173489
21
57.383500
0
LINE
8
0
10
168.173489
20
57.383500
11
167.380459
21
57.919600
0
LINE
8
0
10
167.380459
20
57.919600
11
166.845947
21
58.713700
0
LINE
8
0
10
166.845947
20
58.713700
11
166.649990
21
59.685605
0
LINE
8
0
10
166.649990
20
59.685605
11
166.845947
21
60.657510
0
LINE
8
0
10
166.845947
20
60.657510
11
167.380459
21
61.451610
0
LINE
8
0
10
167.380459
20
61.451610
11
168.173489
21
61.987710
0
LINE
8
0
10
168.173489
20
61.987710
11
169.145000
21
62.185610
0
LINE
8
0
10
169.145000
20
62.185610
11
169.145000
21
62.185600
0
LINE
8
0
10
19.145300
20
97.185600
11
9.145350
21
97.185600
0
LINE
8
0
10
9.145350
20
97.185600
11
8.173839
21
97.383500
0
LINE
8
0
10
8.173839
20
97.383500
11
7.380809
21
97.919600
0
LINE
8
0
10
7.380809
20
97.919600
11
6.846297
21
98.713700
0
LINE
8
0
10
6.846297
20
98.713700
11
6.650340
21
99.685605
0
LINE
8
0
10
6.650340
20
99.685605
11
6.846297
21
100.657510
0
LINE
8
0
10
6.846297
20
100.657510
11
7.380809
21
101.451610
0
LINE
8
0
10
7.380809
20
101.451610
11
8.173839
21
101.987710
0
LINE
8
0
10
8.173839
20
101.987710
11
9.145350
21
102.185610
0
LINE
8
0
10
9.145350
20
102.185610
11
19.145300
21
102.186000
0
LINE
8
0
10
19.145300
20
102.186000
11
20.116811
21
101.988100
0
LINE
8
0
10
20.116811
20
101.988100
11
20.909841
21
101.452000
0
LINE
8
0
10
20.909841
20
101.452000
11
21.444353
21
100.657900
0
LINE
8
0
10
21.444353
20
100.657900
11
21.640310
21
99.685995
0
LINE
8
0
10
21.640310
20
99.685995
11
21.444353
21
98.714090
0
LINE
8
0
10
21.444353
20
98.714090
11
20.909841
21
97.919990
0
LINE
8
0
10
20.909841
20
97.919990
11
20.116811
21
97.383890
0
LINE
8
0
10
20.116811
20
97.383890
11
19.145300
21
97.185990
0
LINE
8
0
10
19.145300
20
97.185990
11
19.145300
21
97.185600
0
LINE
8
0
10
179.145000
20
102.186000
11
180.116511
21
101.988100
0
LINE
8
0
10
180.116511
20
101.988100
11
180.909541
21
101.452000
0
LINE
8
0
10
180.909541
20
101.452000
11
181.444053
21
100.657900
0
LINE
8
0
10
181.444053
20
100.657900
11
181.640010
21
99.685995
0
LINE
8
0
10
181.640010
20
99.685995
11
181.444053
21
98.714090
0
LINE
8
0
10
181.444053
20
98.714090
11
180.909541
21
97.919990
0
LINE
8
0
10
180.909541
20
97.919990
11
180.116511
21
97.383890
0
LINE
8
0
10
180.116511
20
97.383890
11
179.145000
21
97.185990
0
LINE
8
0
10
179.145000
20
97.185990
11
169.145000
21
97.185600
0
LINE
8
0
10
169.145000
20
97.185600
11
168.173489
21
97.383500
0
LINE
8
0
10
168.173489
20
97.383500
11
167.380459
21
97.919600
0
LINE
8
0
10
167.380459
20
97.919600
11
166.845947
21
98.713700
0
LINE
8
0
10
166.845947
20
98.713700
11
166.649990
21
99.685605
0
LINE
8
0
10
166.649990
20
99.685605
11
166.845947
21
100.657510
0
LINE
8
0
10
166.845947
20
100.657510
11
167.380459
21
101.451610
0
LINE
8
0
10
167.380459
20
101.451610
11
168.173489
21
101.987710
0
LINE
8
0
10
168.173489
20
101.987710
11
169.145000
21
102.185610
0
LINE
8
0
10
169.145000
20
102.185610
11
179.145000
21
102.186000
0
LINE
8
0
10
49.145300
20
22.185700
11
59.145300
21
22.185700
0
LINE
8
0
10
59.145300
20
22.185700
11
60.116807
21
21.987801
0
LINE
8
0
10
60.116807
20
21.987801
11
60.909834
21
21.451703
0
LINE
8
0
10
60.909834
20
21.451703
11
61.444344
21
20.657606
0
LINE
8
0
10
61.444344
20
20.657606
11
61.640300
21
19.685705
0
LINE
8
0
10
61.640300
20
19.685705
11
61.444344
21
18.713804
0
LINE
8
0
10
61.444344
20
18.713804
11
60.909834
21
17.919707
0
LINE
8
0
10
60.909834
20
17.919707
11
60.116807
21
17.383609
0
LINE
8
0
10
60.116807
20
17.383609
11
59.145300
21
17.185710
0
LINE
8
0
10
59.145300
20
17.185710
11
49.145300
21
17.185700
0
LINE
8
0
10
49.145300
20
17.185700
11
48.173793
21
17.383599
0
LINE
8
0
10
48.173793
20
17.383599
11
47.380766
21
17.919697
0
LINE
8
0
10
47.380766
20
17.919697
11
46.846256
21
18.713794
0
LINE
8
0
10
46.846256
20
18.713794
11
46.650300
21
19.685695
0
LINE
8
0
10
46.650300
20
19.685695
11
46.846256
21
20.657596
0
LINE
8
0
10
46.846256
20
20.657596
11
47.380766
21
21.451693
0
LINE
8
0
10
47.380766
20
21.451693
11
48.173793
21
21.987791
0
LINE
8
0
10
48.173793
20
21.987791
11
49.145300
21
22.185690
0
LINE
8
0
10
49.145300
20
22.185690
11
49.145300
21
22.185700
0
LINE
8
0
10
109.145000
20
122.186000
11
119.145000
21
122.186000
0
LINE
8
0
10
119.145000
20
122.186000
11
120.115841
21
121.987507
0
LINE
8
0
10
120.115841
20
121.987507
11
120.908194
21
121.451275
0
LINE
8
0
10
120.908194
20
121.451275
11
121.442182
21
120.657409
0
LINE
8
0
10
121.442182
20
120.657409
11
121.637929
21
119.686010
0
LINE
8
0
10
121.637929
20
119.686010
11
121.442182
21
118.714611
0
LINE
8
0
10
121.442182
20
118.714611
11
120.908194
21
117.920745
0
LINE
8
0
10
120.908194
20
117.920745
11
120.115841
21
117.384513
0
LINE
8
0
10
120.115841
20
117.384513
11
119.145000
21
117.186020
0
LINE
8
0
10
119.145000
20
117.186020
11
109.145000
21
117.186000
0
LINE
8
0
10
109.145000
20
117.186000
11
108.174159
21
117.384493
0
LINE
8
0
10
108.174159
20
117.384493
11
107.381806
21
117.920725
0
LINE
8
0
10
107.381806
20
117.920725
11
106.847818
21
118.714591
0
LINE
8
0
10
106.847818
20
118.714591
11
106.652071
21
119.685990
0
LINE
8
0
10
106.652071
20
119.685990
11
106.847818
21
120.657389
0
LINE
8
0
10
106.847818
20
120.657389
11
107.381806
21
121.451255
0
LINE
8
0
10
107.381806
20
121.451255
11
108.174159
21
121.987487
0
LINE
8
0
10
108.174159
20
121.987487
11
109.145000
21
122.185980
0
LINE
8
0
10
109.145000
20
122.185980
11
109.145000
21
122.186000
0
LINE
8
0
10
129.145000
20
22.185700
11
139.145000
21
22.185700
0
LINE
8
0
10
139.145000
20
22.185700
11
140.116507
21
21.987801
0
LINE
8
0
10
140.116507
20
21.987801
11
140.909534
21
21.451703
0
LINE
8
0
10
140.909534
20
21.451703
11
141.444044
21
20.657606
0
LINE
8
0
10
141.444044
20
20.657606
11
141.640000
21
19.685705
0
LINE
8
0
10
141.640000
20
19.685705
11
141.444044
21
18.713804
0
LINE
8
0
10
141.444044
20
18.713804
11
140.909534
21
17.919707
0
LINE
8
0
10
140.909534
20
17.919707
11
140.116507
21
17.383609
0
LINE
8
0
10
140.116507
20
17.383609
11
139.145000
21
17.185710
0
LINE
8
0
10
139.145000
20
17.185710
11
129.145000
21
17.185700
0
LINE
8
0
10
129.145000
20
17.185700
11
128.173493
21
17.383599
0
LINE
8
0
10
128.173493
20
17.383599
11
127.380466
21
17.919697
0
LINE
8
0
10
127.380466
20
17.919697
11
126.845956
21
18.713794
0
LINE
8
0
10
126.845956
20
18.713794
11
126.650000
21
19.685695
0
LINE
8
0
10
126.650000
20
19.685695
11
126.845956
21
20.657596
0
LINE
8
0
10
126.845956
20
20.657596
11
127.380466
21
21.451693
0
LINE
8
0
10
127.380466
20
21.451693
11
128.173493
21
21.987791
0
LINE
8
0
10
128.173493
20
21.987791
11
129.145000
21
22.185690
0
LINE
8
0
10
129.145000
20
22.185690
11
129.145000
21
22.185700
0
LINE
8
0
10
59.145300
20
217.185000
11
49.145300
21
217.185000
0
LINE
8
0
10
49.145300
20
217.185000
11
48.173789
21
217.382900
0
LINE
8
0
10
48.173789
20
217.382900
11
47.380759
21
217.919000
0
LINE
8
0
10
47.380759
20
217.919000
11
46.846247
21
218.713100
0
LINE
8
0
10
46.846247
20
218.713100
11
46.650290
21
219.685005
0
LINE
8
0
10
46.650290
20
219.685005
11
46.846247
21
220.656910
0
LINE
8
0
10
46.846247
20
220.656910
11
47.380759
21
221.451010
0
LINE
8
0
10
47.380759
20
221.451010
11
48.173789
21
221.987110
0
LINE
8
0
10
48.173789
20
221.987110
11
49.145300
21
222.185010
0
LINE
8
0
10
49.145300
20
222.185010
11
59.145300
21
222.185000
0
LINE
8
0
10
59.145300
20
222.185000
11
60.116811
21
221.987100
0
LINE
8
0
10
60.116811
20
221.987100
11
60.909841
21
221.451000
0
LINE
8
0
10
60.909841
20
221.451000
11
61.444353
21
220.656900
0
LINE
8
0
10
61.444353
20
220.656900
11
61.640310
21
219.684995
0
LINE
8
0
10
61.640310
20
219.684995
11
61.444353
21
218.713090
0
LINE
8
0
10
61.444353
20
218.713090
11
60.909841
21
217.918990
0
LINE
8
0
10
60.909841
20
217.918990
11
60.116811
21
217.382890
0
LINE
8
0
10
60.116811
20
217.382890
11
59.145300
21
217.184990
0
LINE
8
0
10
59.145300
20
217.184990
11
59.145300
21
217.185000
0
LINE
8
0
10
169.145000
20
257.185000
11
168.173489
21
257.382900
0
LINE
8
0
10
168.173489
20
257.382900
11
167.380459
21
257.919000
0
LINE
8
0
10
167.380459
20
257.919000
11
166.845947
21
258.713100
0
LINE
8
0
10
166.845947
20
258.713100
11
166.649990
21
259.685005
0
LINE
8
0
10
166.649990
20
259.685005
11
166.845947
21
260.656910
0
LINE
8
0
10
166.845947
20
260.656910
11
167.380459
21
261.451010
0
LINE
8
0
10
167.380459
20
261.451010
11
168.173489
21
261.987110
0
LINE
8
0
10
168.173489
20
261.987110
11
169.145000
21
262.185010
0
LINE
8
0
10
169.145000
20
262.185010
11
179.145000
21
262.185000
0
LINE
8
0
10
179.145000
20
262.185000
11
180.116511
21
261.987100
0
LINE
8
0
10
180.116511
20
261.987100
11
180.909541
21
261.451000
0
LINE
8
0
10
180.909541
20
261.451000
11
181.444053
21
260.656900
0
LINE
8
0
10
181.444053
20
260.656900
11
181.640010
21
259.684995
0
LINE
8
0
10
181.640010
20
259.684995
11
181.444053
21
258.713090
0
LINE
8
0
10
181.444053
20
258.713090
11
180.909541
21
257.918990
0
LINE
8
0
10
180.909541
20
257.918990
11
180.116511
21
257.382890
0
LINE
8
0
10
180.116511
20
257.382890
11
179.145000
21
257.184990
0
LINE
8
0
10
179.145000
20
257.184990
11
169.145000
21
257.185000
0
LINE
8
0
10
29.145300
20
202.185000
11
39.145300
21
202.185000
0
LINE
8
0
10
39.145300
20
202.185000
11
40.116141
21
201.986507
0
LINE
8
0
10
40.116141
20
201.986507
11
40.908494
21
201.450275
0
LINE
8
0
10
40.908494
20
201.450275
11
41.442482
21
200.656409
0
LINE
8
0
10
41.442482
20
200.656409
11
41.638229
21
199.685010
0
LINE
8
0
10
41.638229
20
199.685010
11
41.442482
21
198.713611
0
LINE
8
0
10
41.442482
20
198.713611
11
40.908494
21
197.919745
0
LINE
8
0
10
40.908494
20
197.919745
11
40.116141
21
197.383513
0
LINE
8
0
10
40.116141
20
197.383513
11
39.145300
21
197.185020
0
LINE
8
0
10
39.145300
20
197.185020
11
29.145300
21
197.185000
0
LINE
8
0
10
29.145300
20
197.185000
11
28.174459
21
197.383493
0
LINE
8
0
10
28.174459
20
197.383493
11
27.382106
21
197.919725
0
LINE
8
0
10
27.382106
20
197.919725
11
26.848118
21
198.713591
0
LINE
8
0
10
26.848118
20
198.713591
11
26.652371
21
199.684990
0
LINE
8
0
10
26.652371
20
199.684990
11
26.848118
21
200.656389
0
LINE
8
0
10
26.848118
20
200.656389
11
27.382106
21
201.450255
0
LINE
8
0
10
27.382106
20
201.450255
11
28.174459
21
201.986487
0
LINE
8
0
10
28.174459
20
201.986487
11
29.145300
21
202.184980
0
LINE
8
0
10
29.145300
20
202.184980
11
29.145300
21
202.185000
0
LINE
8
0
10
29.145300
20
242.185000
11
39.145300
21
242.185000
0
LINE
8
0
10
39.145300
20
242.185000
11
40.116141
21
241.986507
0
LINE
8
0
10
40.116141
20
241.986507
11
40.908494
21
241.450275
0
LINE
8
0
10
40.908494
20
241.450275
11
41.442482
21
240.656409
0
LINE
8
0
10
41.442482
20
240.656409
11
41.638229
21
239.685010
0
LINE
8
0
10
41.638229
20
239.685010
11
41.442482
21
238.713611
0
LINE
8
0
10
41.442482
20
238.713611
11
40.908494
21
237.919745
0
LINE
8
0
10
40.908494
20
237.919745
11
40.116141
21
237.383513
0
LINE
8
0
10
40.116141
20
237.383513
11
39.145300
21
237.185020
0
LINE
8
0
10
39.145300
20
237.185020
11
29.145300
21
237.185000
0
LINE
8
0
10
29.145300
20
237.185000
11
28.174459
21
237.383493
0
LINE
8
0
10
28.174459
20
237.383493
11
27.382106
21
237.919725
0
LINE
8
0
10
27.382106
20
237.919725
11
26.848118
21
238.713591
0
LINE
8
0
10
26.848118
20
238.713591
11
26.652371
21
239.684990
0
LINE
8
0
10
26.652371
20
239.684990
11
26.848118
21
240.656389
0
LINE
8
0
10
26.848118
20
240.656389
11
27.382106
21
241.450255
0
LINE
8
0
10
27.382106
20
241.450255
11
28.174459
21
241.986487
0
LINE
8
0
10
28.174459
20
241.986487
11
29.145300
21
242.184980
0
LINE
8
0
10
29.145300
20
242.184980
11
29.145300
21
242.185000
0
LINE
8
0
10
19.145300
20
262.185000
11
20.116811
21
261.987100
0
LINE
8
0
10
20.116811
20
261.987100
11
20.909841
21
261.451000
0
LINE
8
0
10
20.909841
20
261.451000
11
21.444353
21
260.656900
0
LINE
8
0
10
21.444353
20
260.656900
11
21.640310
21
259.684995
0
LINE
8
0
10
21.640310
20
259.684995
11
21.444353
21
258.713090
0
LINE
8
0
10
21.444353
20
258.713090
11
20.909841
21
257.918990
0
LINE
8
0
10
20.909841
20
257.918990
11
20.116811
21
257.382890
0
LINE
8
0
10
20.116811
20
257.382890
11
19.145300
21
257.184990
0
LINE
8
0
10
19.145300
20
257.184990
11
9.145350
21
257.185000
0
LINE
8
0
10
9.145350
20
257.185000
11
8.173839
21
257.382900
0
LINE
8
0
10
8.173839
20
257.382900
11
7.380809
21
257.919000
0
LINE
8
0
10
7.380809
20
257.919000
11
6.846297
21
258.713100
0
LINE
8
0
10
6.846297
20
258.713100
11
6.650340
21
259.685005
0
LINE
8
0
10
6.650340
20
259.685005
11
6.846297
21
260.656910
0
LINE
8
0
10
6.846297
20
260.656910
11
7.380809
21
261.451010
0
LINE
8
0
10
7.380809
20
261.451010
11
8.173839
21
261.987110
0
LINE
8
0
10
8.173839
20
261.987110
11
9.145350
21
262.185010
0
LINE
8
0
10
9.145350
20
262.185010
11
19.145300
21
262.185000
0
LINE
8
0
10
169.145000
20
142.186000
11
179.145000
21
142.186000
0
LINE
8
0
10
179.145000
20
142.186000
11
180.116511
21
141.988100
0
LINE
8
0
10
180.116511
20
141.988100
11
180.909541
21
141.452000
0
LINE
8
0
10
180.909541
20
141.452000
11
181.444053
21
140.657900
0
LINE
8
0
10
181.444053
20
140.657900
11
181.640010
21
139.685995
0
LINE
8
0
10
181.640010
20
139.685995
11
181.444053
21
138.714090
0
LINE
8
0
10
181.444053
20
138.714090
11
180.909541
21
137.919990
0
LINE
8
0
10
180.909541
20
137.919990
11
180.116511
21
137.383890
0
LINE
8
0
10
180.116511
20
137.383890
11
179.145000
21
137.185990
0
LINE
8
0
10
179.145000
20
137.185990
11
169.145000
21
137.186000
0
LINE
8
0
10
169.145000
20
137.186000
11
168.173489
21
137.383900
0
LINE
8
0
10
168.173489
20
137.383900
11
167.380459
21
137.920000
0
LINE
8
0
10
167.380459
20
137.920000
11
166.845947
21
138.714100
0
LINE
8
0
10
166.845947
20
138.714100
11
166.649990
21
139.686005
0
LINE
8
0
10
166.649990
20
139.686005
11
166.845947
21
140.657910
0
LINE
8
0
10
166.845947
20
140.657910
11
167.380459
21
141.452010
0
LINE
8
0
10
167.380459
20
141.452010
11
168.173489
21
141.988110
0
LINE
8
0
10
168.173489
20
141.988110
11
169.145000
21
142.186010
0
LINE
8
0
10
169.145000
20
142.186010
11
169.145000
21
142.186000
0
LINE
8
0
10
179.145000
20
177.185000
11
169.145000
21
177.185000
0
LINE
8
0
10
169.145000
20
177.185000
11
168.173489
21
177.382900
0
LINE
8
0
10
168.173489
20
177.382900
11
167.380459
21
177.919000
0
LINE
8
0
10
167.380459
20
177.919000
11
166.845947
21
178.713100
0
LINE
8
0
10
166.845947
20
178.713100
11
166.649990
21
179.685005
0
LINE
8
0
10
166.649990
20
179.685005
11
166.845947
21
180.656910
0
LINE
8
0
10
166.845947
20
180.656910
11
167.380459
21
181.451010
0
LINE
8
0
10
167.380459
20
181.451010
11
168.173489
21
181.987110
0
LINE
8
0
10
168.173489
20
181.987110
11
169.145000
21
182.185010
0
LINE
8
0
10
169.145000
20
182.185010
11
179.145000
21
182.185000
0
LINE
8
0
10
179.145000
20
182.185000
11
180.116511
21
181.987100
0
LINE
8
0
10
180.116511
20
181.987100
11
180.909541
21
181.451000
0
LINE
8
0
10
180.909541
20
181.451000
11
181.444053
21
180.656900
0
LINE
8
0
10
181.444053
20
180.656900
11
181.640010
21
179.684995
0
LINE
8
0
10
181.640010
20
179.684995
11
181.444053
21
178.713090
0
LINE
8
0
10
181.444053
20
178.713090
11
180.909541
21
177.918990
0
LINE
8
0
10
180.909541
20
177.918990
11
180.116511
21
177.382890
0
LINE
8
0
10
180.116511
20
177.382890
11
179.145000
21
177.184990
0
LINE
8
0
10
179.145000
20
177.184990
11
179.145000
21
177.185000
0
LINE
8
0
10
129.145000
20
262.185000
11
139.145000
21
262.185000
0
LINE
8
0
10
139.145000
20
262.185000
11
140.116511
21
261.987100
0
LINE
8
0
10
140.116511
20
261.987100
11
140.909541
21
261.451000
0
LINE
8
0
10
140.909541
20
261.451000
11
141.444053
21
260.656900
0
LINE
8
0
10
141.444053
20
260.656900
11
141.640010
21
259.684995
0
LINE
8
0
10
141.640010
20
259.684995
11
141.444053
21
258.713090
0
LINE
8
0
10
141.444053
20
258.713090
11
140.909541
21
257.918990
0
LINE
8
0
10
140.909541
20
257.918990
11
140.116511
21
257.382890
0
LINE
8
0
10
140.116511
20
257.382890
11
139.145000
21
257.184990
0
LINE
8
0
10
139.145000
20
257.184990
11
129.145000
21
257.185000
0
LINE
8
0
10
129.145000
20
257.185000
11
128.173489
21
257.382900
0
LINE
8
0
10
128.173489
20
257.382900
11
127.380459
21
257.919000
0
LINE
8
0
10
127.380459
20
257.919000
11
126.845947
21
258.713100
0
LINE
8
0
10
126.845947
20
258.713100
11
126.649990
21
259.685005
0
LINE
8
0
10
126.649990
20
259.685005
11
126.845947
21
260.656910
0
LINE
8
0
10
126.845947
20
260.656910
11
127.380459
21
261.451010
0
LINE
8
0
10
127.380459
20
261.451010
11
128.173489
21
261.987110
0
LINE
8
0
10
128.173489
20
261.987110
11
129.145000
21
262.185010
0
LINE
8
0
10
129.145000
20
262.185010
11
129.145000
21
262.185000
0
LINE
8
0
10
109.145000
20
162.186000
11
119.145000
21
162.186000
0
LINE
8
0
10
119.145000
20
162.186000
11
120.115841
21
161.987507
0
LINE
8
0
10
120.115841
20
161.987507
11
120.908194
21
161.451275
0
LINE
8
0
10
120.908194
20
161.451275
11
121.442182
21
160.657409
0
LINE
8
0
10
121.442182
20
160.657409
11
121.637929
21
159.686010
0
LINE
8
0
10
121.637929
20
159.686010
11
121.442182
21
158.714611
0
LINE
8
0
10
121.442182
20
158.714611
11
120.908194
21
157.920745
0
LINE
8
0
10
120.908194
20
157.920745
11
120.115841
21
157.384513
0
LINE
8
0
10
120.115841
20
157.384513
11
119.145000
21
157.186020
0
LINE
8
0
10
119.145000
20
157.186020
11
109.145000
21
157.186000
0
LINE
8
0
10
109.145000
20
157.186000
11
108.174159
21
157.384493
0
LINE
8
0
10
108.174159
20
157.384493
11
107.381806
21
157.920725
0
LINE
8
0
10
107.381806
20
157.920725
11
106.847818
21
158.714591
0
LINE
8
0
10
106.847818
20
158.714591
11
106.652071
21
159.685990
0
LINE
8
0
10
106.652071
20
159.685990
11
106.847818
21
160.657389
0
LINE
8
0
10
106.847818
20
160.657389
11
107.381806
21
161.451255
0
LINE
8
0
10
107.381806
20
161.451255
11
108.174159
21
161.987487
0
LINE
8
0
10
108.174159
20
161.987487
11
109.145000
21
162.185980
0
LINE
8
0
10
109.145000
20
162.185980
11
109.145000
21
162.186000
0
LINE
8
0
10
29.145300
20
282.185000
11
39.145300
21
282.185000
0
LINE
8
0
10
39.145300
20
282.185000
11
40.116141
21
281.986507
0
LINE
8
0
10
40.116141
20
281.986507
11
40.908494
21
281.450275
0
LINE
8
0
10
40.908494
20
281.450275
11
41.442482
21
280.656409
0
LINE
8
0
10
41.442482
20
280.656409
11
41.638229
21
279.685010
0
LINE
8
0
10
41.638229
20
279.685010
11
41.442482
21
278.713611
0
LINE
8
0
10
41.442482
20
278.713611
11
40.908494
21
277.919745
0
LINE
8
0
10
40.908494
20
277.919745
11
40.116141
21
277.383513
0
LINE
8
0
10
40.116141
20
277.383513
11
39.145300
21
277.185020
0
LINE
8
0
10
39.145300
20
277.185020
11
29.145300
21
277.185000
0
LINE
8
0
10
29.145300
20
277.185000
11
28.174459
21
277.383493
0
LINE
8
0
10
28.174459
20
277.383493
11
27.382106
21
277.919725
0
LINE
8
0
10
27.382106
20
277.919725
11
26.848118
21
278.713591
0
LINE
8
0
10
26.848118
20
278.713591
11
26.652371
21
279.684990
0
LINE
8
0
10
26.652371
20
279.684990
11
26.848118
21
280.656389
0
LINE
8
0
10
26.848118
20
280.656389
11
27.382106
21
281.450255
0
LINE
8
0
10
27.382106
20
281.450255
11
28.174459
21
281.986487
0
LINE
8
0
10
28.174459
20
281.986487
11
29.145300
21
282.184980
0
LINE
8
0
10
29.145300
20
282.184980
11
29.145300
21
282.185000
0
LINE
8
0
10
119.145000
20
202.185000
11
120.115841
21
201.986507
0
LINE
8
0
10
120.115841
20
201.986507
11
120.908194
21
201.450275
0
LINE
8
0
10
120.908194
20
201.450275
11
121.442182
21
200.656409
0
LINE
8
0
10
121.442182
20
200.656409
11
121.637929
21
199.685010
0
LINE
8
0
10
121.637929
20
199.685010
11
121.442182
21
198.713611
0
LINE
8
0
10
121.442182
20
198.713611
11
120.908194
21
197.919745
0
LINE
8
0
10
120.908194
20
197.919745
11
120.115841
21
197.383513
0
LINE
8
0
10
120.115841
20
197.383513
11
119.145000
21
197.185020
0
LINE
8
0
10
119.145000
20
197.185020
11
109.145000
21
197.185000
0
LINE
8
0
10
109.145000
20
197.185000
11
108.174159
21
197.383493
0
LINE
8
0
10
108.174159
20
197.383493
11
107.381806
21
197.919725
0
LINE
8
0
10
107.381806
20
197.919725
11
106.847818
21
198.713591
0
LINE
8
0
10
106.847818
20
198.713591
11
106.652071
21
199.684990
0
LINE
8
0
10
106.652071
20
199.684990
11
106.847818
21
200.656389
0
LINE
8
0
10
106.847818
20
200.656389
11
107.381806
21
201.450255
0
LINE
8
0
10
107.381806
20
201.450255
11
108.174159
21
201.986487
0
LINE
8
0
10
108.174159
20
201.986487
11
109.145000
21
202.184980
0
LINE
8
0
10
109.145000
20
202.184980
11
119.145000
21
202.185000
0
LINE
8
0
10
79.145300
20
197.185000
11
69.145300
21
197.185000
0
LINE
8
0
10
69.145300
20
197.185000
11
68.174459
21
197.383493
0
LINE
8
0
10
68.174459
20
197.383493
11
67.382106
21
197.919725
0
LINE
8
0
10
67.382106
20
197.919725
11
66.848118
21
198.713591
0
LINE
8
0
10
66.848118
20
198.713591
11
66.652371
21
199.684990
0
LINE
8
0
10
66.652371
20
199.684990
11
66.848118
21
200.656389
0
LINE
8
0
10
66.848118
20
200.656389
11
67.382106
21
201.450255
0
LINE
8
0
10
67.382106
20
201.450255
11
68.174459
21
201.986487
0
LINE
8
0
10
68.174459
20
201.986487
11
69.145300
21
202.184980
0
LINE
8
0
10
69.145300
20
202.184980
11
79.145300
21
202.185000
0
LINE
8
0
10
79.145300
20
202.185000
11
80.116141
21
201.986507
0
LINE
8
0
10
80.116141
20
201.986507
11
80.908494
21
201.450275
0
LINE
8
0
10
80.908494
20
201.450275
11
81.442482
21
200.656409
0
LINE
8
0
10
81.442482
20
200.656409
11
81.638229
21
199.685010
0
LINE
8
0
10
81.638229
20
199.685010
11
81.442482
21
198.713611
0
LINE
8
0
10
81.442482
20
198.713611
11
80.908494
21
197.919745
0
LINE
8
0
10
80.908494
20
197.919745
11
80.116141
21
197.383513
0
LINE
8
0
10
80.116141
20
197.383513
11
79.145300
21
197.185020
0
LINE
8
0
10
79.145300
20
197.185020
11
79.145300
21
197.185000
0
LINE
8
0
10
69.145300
20
242.185000
11
79.145300
21
242.185000
0
LINE
8
0
10
79.145300
20
242.185000
11
80.116141
21
241.986507
0
LINE
8
0
10
80.116141
20
241.986507
11
80.908494
21
241.450275
0
LINE
8
0
10
80.908494
20
241.450275
11
81.442482
21
240.656409
0
LINE
8
0
10
81.442482
20
240.656409
11
81.638229
21
239.685010
0
LINE
8
0
10
81.638229
20
239.685010
11
81.442482
21
238.713611
0
LINE
8
0
10
81.442482
20
238.713611
11
80.908494
21
237.919745
0
LINE
8
0
10
80.908494
20
237.919745
11
80.116141
21
237.383513
0
LINE
8
0
10
80.116141
20
237.383513
11
79.145300
21
237.185020
0
LINE
8
0
10
79.145300
20
237.185020
11
69.145300
21
237.185000
0
LINE
8
0
10
69.145300
20
237.185000
11
68.174459
21
237.383493
0
LINE
8
0
10
68.174459
20
237.383493
11
67.382106
21
237.919725
0
LINE
8
0
10
67.382106
20
237.919725
11
66.848118
21
238.713591
0
LINE
8
0
10
66.848118
20
238.713591
11
66.652371
21
239.684990
0
LINE
8
0
10
66.652371
20
239.684990
11
66.848118
21
240.656389
0
LINE
8
0
10
66.848118
20
240.656389
11
67.382106
21
241.450255
0
LINE
8
0
10
67.382106
20
241.450255
11
68.174459
21
241.986487
0
LINE
8
0
10
68.174459
20
241.986487
11
69.145300
21
242.184980
0
LINE
8
0
10
69.145300
20
242.184980
11
69.145300
21
242.185000
0
LINE
8
0
10
69.145300
20
77.185600
11
68.174459
21
77.384093
0
LINE
8
0
10
68.174459
20
77.384093
11
67.382106
21
77.920325
0
LINE
8
0
10
67.382106
20
77.920325
11
66.848118
21
78.714191
0
LINE
8
0
10
66.848118
20
78.714191
11
66.652371
21
79.685590
0
LINE
8
0
10
66.652371
20
79.685590
11
66.848118
21
80.656989
0
LINE
8
0
10
66.848118
20
80.656989
11
67.382106
21
81.450855
0
LINE
8
0
10
67.382106
20
81.450855
11
68.174459
21
81.987087
0
LINE
8
0
10
68.174459
20
81.987087
11
69.145300
21
82.185580
0
LINE
8
0
10
69.145300
20
82.185580
11
79.145300
21
82.185600
0
LINE
8
0
10
79.145300
20
82.185600
11
80.116141
21
81.987107
0
LINE
8
0
10
80.116141
20
81.987107
11
80.908494
21
81.450875
0
LINE
8
0
10
80.908494
20
81.450875
11
81.442482
21
80.657009
0
LINE
8
0
10
81.442482
20
80.657009
11
81.638229
21
79.685610
0
LINE
8
0
10
81.638229
20
79.685610
11
81.442482
21
78.714211
0
LINE
8
0
10
81.442482
20
78.714211
11
80.908494
21
77.920345
0
LINE
8
0
10
80.908494
20
77.920345
11
80.116141
21
77.384113
0
LINE
8
0
10
80.116141
20
77.384113
11
79.145300
21
77.185620
0
LINE
8
0
10
79.145300
20
77.185620
11
69.145300
21
77.185600
0
LINE
8
0
10
79.145300
20
122.186000
11
80.116141
21
121.987507
0
LINE
8
0
10
80.116141
20
121.987507
11
80.908494
21
121.451275
0
LINE
8
0
10
80.908494
20
121.451275
11
81.442482
21
120.657409
0
LINE
8
0
10
81.442482
20
120.657409
11
81.638229
21
119.686010
0
LINE
8
0
10
81.638229
20
119.686010
11
81.442482
21
118.714611
0
LINE
8
0
10
81.442482
20
118.714611
11
80.908494
21
117.920745
0
LINE
8
0
10
80.908494
20
117.920745
11
80.116141
21
117.384513
0
LINE
8
0
10
80.116141
20
117.384513
11
79.145300
21
117.186020
0
LINE
8
0
10
79.145300
20
117.186020
11
69.145300
21
117.186000
0
LINE
8
0
10
69.145300
20
117.186000
11
68.174459
21
117.384493
0
LINE
8
0
10
68.174459
20
117.384493
11
67.382106
21
117.920725
0
LINE
8
0
10
67.382106
20
117.920725
11
66.848118
21
118.714591
0
LINE
8
0
10
66.848118
20
118.714591
11
66.652371
21
119.685990
0
LINE
8
0
10
66.652371
20
119.685990
11
66.848118
21
120.657389
0
LINE
8
0
10
66.848118
20
120.657389
11
67.382106
21
121.451255
0
LINE
8
0
10
67.382106
20
121.451255
11
68.174459
21
121.987487
0
LINE
8
0
10
68.174459
20
121.987487
11
69.145300
21
122.185980
0
LINE
8
0
10
69.145300
20
122.185980
11
79.145300
21
122.186000
0
LINE
8
0
10
99.145200
20
62.185600
11
100.116711
21
61.987700
0
LINE
8
0
10
100.116711
20
61.987700
11
100.909741
21
61.451600
0
LINE
8
0
10
100.909741
20
61.451600
11
101.444253
21
60.657500
0
LINE
8
0
10
101.444253
20
60.657500
11
101.640210
21
59.685595
0
LINE
8
0
10
101.640210
20
59.685595
11
101.444253
21
58.713690
0
LINE
8
0
10
101.444253
20
58.713690
11
100.909741
21
57.919590
0
LINE
8
0
10
100.909741
20
57.919590
11
100.116711
21
57.383490
0
LINE
8
0
10
100.116711
20
57.383490
11
99.145200
21
57.185590
0
LINE
8
0
10
99.145200
20
57.185590
11
89.145300
21
57.185600
0
LINE
8
0
10
89.145300
20
57.185600
11
88.173789
21
57.383500
0
LINE
8
0
10
88.173789
20
57.383500
11
87.380759
21
57.919600
0
LINE
8
0
10
87.380759
20
57.919600
11
86.846247
21
58.713700
0
LINE
8
0
10
86.846247
20
58.713700
11
86.650290
21
59.685605
0
LINE
8
0
10
86.650290
20
59.685605
11
86.846247
21
60.657510
0
LINE
8
0
10
86.846247
20
60.657510
11
87.380759
21
61.451610
0
LINE
8
0
10
87.380759
20
61.451610
11
88.173789
21
61.987710
0
LINE
8
0
10
88.173789
20
61.987710
11
89.145300
21
62.185610
0
LINE
8
0
10
89.145300
20
62.185610
11
99.145200
21
62.185600
0
LINE
8
0
10
149.145000
20
82.185600
11
159.145000
21
82.185600
0
LINE
8
0
10
159.145000
20
82.185600
11
160.115841
21
81.987107
0
LINE
8
0
10
160.115841
20
81.987107
11
160.908194
21
81.450875
0
LINE
8
0
10
160.908194
20
81.450875
11
161.442182
21
80.657009
0
LINE
8
0
10
161.442182
20
80.657009
11
161.637929
21
79.685610
0
LINE
8
0
10
161.637929
20
79.685610
11
161.442182
21
78.714211
0
LINE
8
0
10
161.442182
20
78.714211
11
160.908194
21
77.920345
0
LINE
8
0
10
160.908194
20
77.920345
11
160.115841
21
77.384113
0
LINE
8
0
10
160.115841
20
77.384113
11
159.145000
21
77.185620
0
LINE
8
0
10
159.145000
20
77.185620
11
149.145000
21
77.185600
0
LINE
8
0
10
149.145000
20
77.185600
11
148.174159
21
77.384093
0
LINE
8
0
10
148.174159
20
77.384093
11
147.381806
21
77.920325
0
LINE
8
0
10
147.381806
20
77.920325
11
146.847818
21
78.714191
0
LINE
8
0
10
146.847818
20
78.714191
11
146.652071
21
79.685590
0
LINE
8
0
10
146.652071
20
79.685590
11
146.847818
21
80.656989
0
LINE
8
0
10
146.847818
20
80.656989
11
147.381806
21
81.450855
0
LINE
8
0
10
147.381806
20
81.450855
11
148.174159
21
81.987087
0
LINE
8
0
10
148.174159
20
81.987087
11
149.145000
21
82.185580
0
LINE
8
0
10
149.145000
20
82.185580
11
149.145000
21
82.185600
0
LINE
8
0
10
149.145000
20
157.186000
11
148.174159
21
157.384493
0
LINE
8
0
10
148.174159
20
157.384493
11
147.381806
21
157.920725
0
LINE
8
0
10
147.381806
20
157.920725
11
146.847818
21
158.714591
0
LINE
8
0
10
146.847818
20
158.714591
11
146.652071
21
159.685990
0
LINE
8
0
10
146.652071
20
159.685990
11
146.847818
21
160.657389
0
LINE
8
0
10
146.847818
20
160.657389
11
147.381806
21
161.451255
0
LINE
8
0
10
147.381806
20
161.451255
11
148.174159
21
161.987487
0
LINE
8
0
10
148.174159
20
161.987487
11
149.145000
21
162.185980
0
LINE
8
0
10
149.145000
20
162.185980
11
159.145000
21
162.186000
0
LINE
8
0
10
159.145000
20
162.186000
11
160.115841
21
161.987507
0
LINE
8
0
10
160.115841
20
161.987507
11
160.908194
21
161.451275
0
LINE
8
0
10
160.908194
20
161.451275
11
161.442182
21
160.657409
0
LINE
8
0
10
161.442182
20
160.657409
11
161.637929
21
159.686010
0
LINE
8
0
10
161.637929
20
159.686010
11
161.442182
21
158.714611
0
LINE
8
0
10
161.442182
20
158.714611
11
160.908194
21
157.920745
0
LINE
8
0
10
160.908194
20
157.920745
11
160.115841
21
157.384513
0
LINE
8
0
10
160.115841
20
157.384513
11
159.145000
21
157.186020
0
LINE
8
0
10
159.145000
20
157.186020
11
149.145000
21
157.186000
0
LINE
8
0
10
29.145300
20
77.185600
11
28.174459
21
77.384093
0
LINE
8
0
10
28.174459
20
77.384093
11
27.382106
21
77.920325
0
LINE
8
0
10
27.382106
20
77.920325
11
26.848118
21
78.714191
0
LINE
8
0
10
26.848118
20
78.714191
11
26.652371
21
79.685590
0
LINE
8
0
10
26.652371
20
79.685590
11
26.848118
21
80.656989
0
LINE
8
0
10
26.848118
20
80.656989
11
27.382106
21
81.450855
0
LINE
8
0
10
27.382106
20
81.450855
11
28.174459
21
81.987087
0
LINE
8
0
10
28.174459
20
81.987087
11
29.145300
21
82.185580
0
LINE
8
0
10
29.145300
20
82.185580
11
39.145300
21
82.185600
0
LINE
8
0
10
39.145300
20
82.185600
11
40.116141
21
81.987107
0
LINE
8
0
10
40.116141
20
81.987107
11
40.908494
21
81.450875
0
LINE
8
0
10
40.908494
20
81.450875
11
41.442482
21
80.657009
0
LINE
8
0
10
41.442482
20
80.657009
11
41.638229
21
79.685610
0
LINE
8
0
10
41.638229
20
79.685610
11
41.442482
21
78.714211
0
LINE
8
0
10
41.442482
20
78.714211
11
40.908494
21
77.920345
0
LINE
8
0
10
40.908494
20
77.920345
11
40.116141
21
77.384113
0
LINE
8
0
10
40.116141
20
77.384113
11
39.145300
21
77.185620
0
LINE
8
0
10
39.145300
20
77.185620
11
29.145300
21
77.185600
0
LINE
8
0
10
69.145300
20
37.185700
11
68.173793
21
37.383599
0
LINE
8
0
10
68.173793
20
37.383599
11
67.380766
21
37.919697
0
LINE
8
0
10
67.380766
20
37.919697
11
66.846256
21
38.713794
0
LINE
8
0
10
66.846256
20
38.713794
11
66.650300
21
39.685695
0
LINE
8
0
10
66.650300
20
39.685695
11
66.846256
21
40.657596
0
LINE
8
0
10
66.846256
20
40.657596
11
67.380766
21
41.451693
0
LINE
8
0
10
67.380766
20
41.451693
11
68.173793
21
41.987791
0
LINE
8
0
10
68.173793
20
41.987791
11
69.145300
21
42.185690
0
LINE
8
0
10
69.145300
20
42.185690
11
79.145300
21
42.185700
0
LINE
8
0
10
79.145300
20
42.185700
11
80.116807
21
41.987801
0
LINE
8
0
10
80.116807
20
41.987801
11
80.909834
21
41.451703
0
LINE
8
0
10
80.909834
20
41.451703
11
81.444344
21
40.657606
0
LINE
8
0
10
81.444344
20
40.657606
11
81.640300
21
39.685705
0
LINE
8
0
10
81.640300
20
39.685705
11
81.444344
21
38.713804
0
LINE
8
0
10
81.444344
20
38.713804
11
80.909834
21
37.919707
0
LINE
8
0
10
80.909834
20
37.919707
11
80.116807
21
37.383609
0
LINE
8
0
10
80.116807
20
37.383609
11
79.145300
21
37.185710
0
LINE
8
0
10
79.145300
20
37.185710
11
69.145300
21
37.185700
0
LINE
8
0
10
79.145300
20
157.186000
11
69.145300
21
157.186000
0
LINE
8
0
10
69.145300
20
157.186000
11
68.174459
21
157.384493
0
LINE
8
0
10
68.174459
20
157.384493
11
67.382106
21
157.920725
0
LINE
8
0
10
67.382106
20
157.920725
11
66.848118
21
158.714591
0
LINE
8
0
10
66.848118
20
158.714591
11
66.652371
21
159.685990
0
LINE
8
0
10
66.652371
20
159.685990
11
66.848118
21
160.657389
0
LINE
8
0
10
66.848118
20
160.657389
11
67.382106
21
161.451255
0
LINE
8
0
10
67.382106
20
161.451255
11
68.174459
21
161.987487
0
LINE
8
0
10
68.174459
20
161.987487
11
69.145300
21
162.185980
0
LINE
8
0
10
69.145300
20
162.185980
11
79.145300
21
162.186000
0
LINE
8
0
10
79.145300
20
162.186000
11
80.116141
21
161.987507
0
LINE
8
0
10
80.116141
20
161.987507
11
80.908494
21
161.451275
0
LINE
8
0
10
80.908494
20
161.451275
11
81.442482
21
160.657409
0
LINE
8
0
10
81.442482
20
160.657409
11
81.638229
21
159.686010
0
LINE
8
0
10
81.638229
20
159.686010
11
81.442482
21
158.714611
0
LINE
8
0
10
81.442482
20
158.714611
11
80.908494
21
157.920745
0
LINE
8
0
10
80.908494
20
157.920745
11
80.116141
21
157.384513
0
LINE
8
0
10
80.116141
20
157.384513
11
79.145300
21
157.186020
0
LINE
8
0
10
79.145300
20
157.186020
11
79.145300
21
157.186000
0
LINE
8
0
10
9.145350
20
222.185000
11
19.145300
21
222.185000
0
LINE
8
0
10
19.145300
20
222.185000
11
20.116811
21
221.987100
0
LINE
8
0
10
20.116811
20
221.987100
11
20.909841
21
221.451000
0
LINE
8
0
10
20.909841
20
221.451000
11
21.444353
21
220.656900
0
LINE
8
0
10
21.444353
20
220.656900
11
21.640310
21
219.684995
0
LINE
8
0
10
21.640310
20
219.684995
11
21.444353
21
218.713090
0
LINE
8
0
10
21.444353
20
218.713090
11
20.909841
21
217.918990
0
LINE
8
0
10
20.909841
20
217.918990
11
20.116811
21
217.382890
0
LINE
8
0
10
20.116811
20
217.382890
11
19.145300
21
217.184990
0
LINE
8
0
10
19.145300
20
217.184990
11
9.145350
21
217.185000
0
LINE
8
0
10
9.145350
20
217.185000
11
8.173839
21
217.382900
0
LINE
8
0
10
8.173839
20
217.382900
11
7.380809
21
217.919000
0
LINE
8
0
10
7.380809
20
217.919000
11
6.846297
21
218.713100
0
LINE
8
0
10
6.846297
20
218.713100
11
6.650340
21
219.685005
0
LINE
8
0
10
6.650340
20
219.685005
11
6.846297
21
220.656910
0
LINE
8
0
10
6.846297
20
220.656910
11
7.380809
21
221.451010
0
LINE
8
0
10
7.380809
20
221.451010
11
8.173839
21
221.987110
0
LINE
8
0
10
8.173839
20
221.987110
11
9.145350
21
222.185010
0
LINE
8
0
10
9.145350
20
222.185010
11
9.145350
21
222.185000
0
LINE
8
0
10
139.145000
20
137.186000
11
129.145000
21
137.186000
0
LINE
8
0
10
129.145000
20
137.186000
11
128.173489
21
137.383900
0
LINE
8
0
10
128.173489
20
137.383900
11
127.380459
21
137.920000
0
LINE
8
0
10
127.380459
20
137.920000
11
126.845947
21
138.714100
0
LINE
8
0
10
126.845947
20
138.714100
11
126.649990
21
139.686005
0
LINE
8
0
10
126.649990
20
139.686005
11
126.845947
21
140.657910
0
LINE
8
0
10
126.845947
20
140.657910
11
127.380459
21
141.452010
0
LINE
8
0
10
127.380459
20
141.452010
11
128.173489
21
141.988110
0
LINE
8
0
10
128.173489
20
141.988110
11
129.145000
21
142.186010
0
LINE
8
0
10
129.145000
20
142.186010
11
139.145000
21
142.186000
0
LINE
8
0
10
139.145000
20
142.186000
11
140.116511
21
141.988100
0
LINE
8
0
10
140.116511
20
141.988100
11
140.909541
21
141.452000
0
LINE
8
0
10
140.909541
20
141.452000
11
141.444053
21
140.657900
0
LINE
8
0
10
141.444053
20
140.657900
11
141.640010
21
139.685995
0
LINE
8
0
10
141.640010
20
139.685995
11
141.444053
21
138.714090
0
LINE
8
0
10
141.444053
20
138.714090
11
140.909541
21
137.919990
0
LINE
8
0
10
140.909541
20
137.919990
11
140.116511
21
137.383890
0
LINE
8
0
10
140.116511
20
137.383890
11
139.145000
21
137.185990
0
LINE
8
0
10
139.145000
20
137.185990
11
139.145000
21
137.186000
0
LINE
8
0
10
99.145200
20
97.185600
11
89.145300
21
97.185600
0
LINE
8
0
10
89.145300
20
97.185600
11
88.173789
21
97.383500
0
LINE
8
0
10
88.173789
20
97.383500
11
87.380759
21
97.919600
0
LINE
8
0
10
87.380759
20
97.919600
11
86.846247
21
98.713700
0
LINE
8
0
10
86.846247
20
98.713700
11
86.650290
21
99.685605
0
LINE
8
0
10
86.650290
20
99.685605
11
86.846247
21
100.657510
0
LINE
8
0
10
86.846247
20
100.657510
11
87.380759
21
101.451610
0
LINE
8
0
10
87.380759
20
101.451610
11
88.173789
21
101.987710
0
LINE
8
0
10
88.173789
20
101.987710
11
89.145300
21
102.185610
0
LINE
8
0
10
89.145300
20
102.185610
11
99.145200
21
102.186000
0
LINE
8
0
10
99.145200
20
102.186000
11
100.116711
21
101.988100
0
LINE
8
0
10
100.116711
20
101.988100
11
100.909741
21
101.452000
0
LINE
8
0
10
100.909741
20
101.452000
11
101.444253
21
100.657900
0
LINE
8
0
10
101.444253
20
100.657900
11
101.640210
21
99.685995
0
LINE
8
0
10
101.640210
20
99.685995
11
101.444253
21
98.714090
0
LINE
8
0
10
101.444253
20
98.714090
11
100.909741
21
97.919990
0
LINE
8
0
10
100.909741
20
97.919990
11
100.116711
21
97.383890
0
LINE
8
0
10
100.116711
20
97.383890
11
99.145200
21
97.185990
0
LINE
8
0
10
99.145200
20
97.185990
11
99.145200
21
97.185600
0
LINE
8
0
10
129.145000
20
102.186000
11
139.145000
21
102.186000
0
LINE
8
0
10
139.145000
20
102.186000
11
140.116511
21
101.988100
0
LINE
8
0
10
140.116511
20
101.988100
11
140.909541
21
101.452000
0
LINE
8
0
10
140.909541
20
101.452000
11
141.444053
21
100.657900
0
LINE
8
0
10
141.444053
20
100.657900
11
141.640010
21
99.685995
0
LINE
8
0
10
141.640010
20
99.685995
11
141.444053
21
98.714090
0
LINE
8
0
10
141.444053
20
98.714090
11
140.909541
21
97.919990
0
LINE
8
0
10
140.909541
20
97.919990
11
140.116511
21
97.383890
0
LINE
8
0
10
140.116511
20
97.383890
11
139.145000
21
97.185990
0
LINE
8
0
10
139.145000
20
97.185990
11
129.145000
21
97.185600
0
LINE
8
0
10
129.145000
20
97.185600
11
128.173489
21
97.383500
0
LINE
8
0
10
128.173489
20
97.383500
11
127.380459
21
97.919600
0
LINE
8
0
10
127.380459
20
97.919600
11
126.845947
21
98.713700
0
LINE
8
0
10
126.845947
20
98.713700
11
126.649990
21
99.685605
0
LINE
8
0
10
126.649990
20
99.685605
11
126.845947
21
100.657510
0
LINE
8
0
10
126.845947
20
100.657510
11
127.380459
21
101.451610
0
LINE
8
0
10
127.380459
20
101.451610
11
128.173489
21
101.987710
0
LINE
8
0
10
128.173489
20
101.987710
11
129.145000
21
102.185610
0
LINE
8
0
10
129.145000
20
102.185610
11
129.145000
21
102.186000
0
LINE
8
0
10
109.145000
20
82.185600
11
119.145000
21
82.185600
0
LINE
8
0
10
119.145000
20
82.185600
11
120.115841
21
81.987107
0
LINE
8
0
10
120.115841
20
81.987107
11
120.908194
21
81.450875
0
LINE
8
0
10
120.908194
20
81.450875
11
121.442182
21
80.657009
0
LINE
8
0
10
121.442182
20
80.657009
11
121.637929
21
79.685610
0
LINE
8
0
10
121.637929
20
79.685610
11
121.442182
21
78.714211
0
LINE
8
0
10
121.442182
20
78.714211
11
120.908194
21
77.920345
0
LINE
8
0
10
120.908194
20
77.920345
11
120.115841
21
77.384113
0
LINE
8
0
10
120.115841
20
77.384113
11
119.145000
21
77.185620
0
LINE
8
0
10
119.145000
20
77.185620
11
109.145000
21
77.185600
0
LINE
8
0
10
109.145000
20
77.185600
11
108.174159
21
77.384093
0
LINE
8
0
10
108.174159
20
77.384093
11
107.381806
21
77.920325
0
LINE
8
0
10
107.381806
20
77.920325
11
106.847818
21
78.714191
0
LINE
8
0
10
106.847818
20
78.714191
11
106.652071
21
79.685590
0
LINE
8
0
10
106.652071
20
79.685590
11
106.847818
21
80.656989
0
LINE
8
0
10
106.847818
20
80.656989
11
107.381806
21
81.450855
0
LINE
8
0
10
107.381806
20
81.450855
11
108.174159
21
81.987087
0
LINE
8
0
10
108.174159
20
81.987087
11
109.145000
21
82.185580
0
LINE
8
0
10
109.145000
20
82.185580
11
109.145000
21
82.185600
0
LINE
8
0
10
49.145300
20
62.185600
11
59.145300
21
62.185600
0
LINE
8
0
10
59.145300
20
62.185600
11
60.116811
21
61.987700
0
LINE
8
0
10
60.116811
20
61.987700
11
60.909841
21
61.451600
0
LINE
8
0
10
60.909841
20
61.451600
11
61.444353
21
60.657500
0
LINE
8
0
10
61.444353
20
60.657500
11
61.640310
21
59.685595
0
LINE
8
0
10
61.640310
20
59.685595
11
61.444353
21
58.713690
0
LINE
8
0
10
61.444353
20
58.713690
11
60.909841
21
57.919590
0
LINE
8
0
10
60.909841
20
57.919590
11
60.116811
21
57.383490
0
LINE
8
0
10
60.116811
20
57.383490
11
59.145300
21
57.185590
0
LINE
8
0
10
59.145300
20
57.185590
11
49.145300
21
57.185600
0
LINE
8
0
10
49.145300
20
57.185600
11
48.173789
21
57.383500
0
LINE
8
0
10
48.173789
20
57.383500
11
47.380759
21
57.919600
0
LINE
8
0
10
47.380759
20
57.919600
11
46.846247
21
58.713700
0
LINE
8
0
10
46.846247
20
58.713700
11
46.650290
21
59.685605
0
LINE
8
0
10
46.650290
20
59.685605
11
46.846247
21
60.657510
0
LINE
8
0
10
46.846247
20
60.657510
11
47.380759
21
61.451610
0
LINE
8
0
10
47.380759
20
61.451610
11
48.173789
21
61.987710
0
LINE
8
0
10
48.173789
20
61.987710
11
49.145300
21
62.185610
0
LINE
8
0
10
49.145300
20
62.185610
11
49.145300
21
62.185600
0
LINE
8
0
10
19.145300
20
17.185700
11
9.145350
21
17.185700
0
LINE
8
0
10
9.145350
20
17.185700
11
8.173843
21
17.383599
0
LINE
8
0
10
8.173843
20
17.383599
11
7.380816
21
17.919697
0
LINE
8
0
10
7.380816
20
17.919697
11
6.846306
21
18.713794
0
LINE
8
0
10
6.846306
20
18.713794
11
6.650350
21
19.685695
0
LINE
8
0
10
6.650350
20
19.685695
11
6.846306
21
20.657596
0
LINE
8
0
10
6.846306
20
20.657596
11
7.380816
21
21.451693
0
LINE
8
0
10
7.380816
20
21.451693
11
8.173843
21
21.987791
0
LINE
8
0
10
8.173843
20
21.987791
11
9.145350
21
22.185690
0
LINE
8
0
10
9.145350
20
22.185690
11
19.145300
21
22.185700
0
LINE
8
0
10
19.145300
20
22.185700
11
20.116807
21
21.987801
0
LINE
8
0
10
20.116807
20
21.987801
11
20.909834
21
21.451703
0
LINE
8
0
10
20.909834
20
21.451703
11
21.444344
21
20.657606
0
LINE
8
0
10
21.444344
20
20.657606
11
21.640300
21
19.685705
0
LINE
8
0
10
21.640300
20
19.685705
11
21.444344
21
18.713804
0
LINE
8
0
10
21.444344
20
18.713804
11
20.909834
21
17.919707
0
LINE
8
0
10
20.909834
20
17.919707
11
20.116807
21
17.383609
0
LINE
8
0
10
20.116807
20
17.383609
11
19.145300
21
17.185710
0
LINE
8
0
10
19.145300
20
17.185710
11
19.145300
21
17.185700
0
LINE
8
0
10
89.145300
20
222.185000
11
99.145200
21
222.185000
0
LINE
8
0
10
99.145200
20
222.185000
11
100.116711
21
221.987100
0
LINE
8
0
10
100.116711
20
221.987100
11
100.909741
21
221.451000
0
LINE
8
0
10
100.909741
20
221.451000
11
101.444253
21
220.656900
0
LINE
8
0
10
101.444253
20
220.656900
11
101.640210
21
219.684995
0
LINE
8
0
10
101.640210
20
219.684995
11
101.444253
21
218.713090
0
LINE
8
0
10
101.444253
20
218.713090
11
100.909741
21
217.918990
0
LINE
8
0
10
100.909741
20
217.918990
11
100.116711
21
217.382890
0
LINE
8
0
10
100.116711
20
217.382890
11
99.145200
21
217.184990
0
LINE
8
0
10
99.145200
20
217.184990
11
89.145300
21
217.185000
0
LINE
8
0
10
89.145300
20
217.185000
11
88.173789
21
217.382900
0
LINE
8
0
10
88.173789
20
217.382900
11
87.380759
21
217.919000
0
LINE
8
0
10
87.380759
20
217.919000
11
86.846247
21
218.713100
0
LINE
8
0
10
86.846247
20
218.713100
11
86.650290
21
219.685005
0
LINE
8
0
10
86.650290
20
219.685005
11
86.846247
21
220.656910
0
LINE
8
0
10
86.846247
20
220.656910
11
87.380759
21
221.451010
0
LINE
8
0
10
87.380759
20
221.451010
11
88.173789
21
221.987110
0
LINE
8
0
10
88.173789
20
221.987110
11
89.145300
21
222.185010
0
LINE
8
0
10
89.145300
20
222.185010
11
89.145300
21
222.185000
0
LINE
8
0
10
89.145300
20
182.185000
11
99.145200
21
182.185000
0
LINE
8
0
10
99.145200
20
182.185000
11
100.116711
21
181.987100
0
LINE
8
0
10
100.116711
20
181.987100
11
100.909741
21
181.451000
0
LINE
8
0
10
100.909741
20
181.451000
11
101.444253
21
180.656900
0
LINE
8
0
10
101.444253
20
180.656900
11
101.640210
21
179.684995
0
LINE
8
0
10
101.640210
20
179.684995
11
101.444253
21
178.713090
0
LINE
8
0
10
101.444253
20
178.713090
11
100.909741
21
177.918990
0
LINE
8
0
10
100.909741
20
177.918990
11
100.116711
21
177.382890
0
LINE
8
0
10
100.116711
20
177.382890
11
99.145200
21
177.184990
0
LINE
8
0
10
99.145200
20
177.184990
11
89.145300
21
177.185000
0
LINE
8
0
10
89.145300
20
177.185000
11
88.173789
21
177.382900
0
LINE
8
0
10
88.173789
20
177.382900
11
87.380759
21
177.919000
0
LINE
8
0
10
87.380759
20
177.919000
11
86.846247
21
178.713100
0
LINE
8
0
10
86.846247
20
178.713100
11
86.650290
21
179.685005
0
LINE
8
0
10
86.650290
20
179.685005
11
86.846247
21
180.656910
0
LINE
8
0
10
86.846247
20
180.656910
11
87.380759
21
181.451010
0
LINE
8
0
10
87.380759
20
181.451010
11
88.173789
21
181.987110
0
LINE
8
0
10
88.173789
20
181.987110
11
89.145300
21
182.185010
0
LINE
8
0
10
89.145300
20
182.185010
11
89.145300
21
182.185000
0
LINE
8
0
10
109.145000
20
237.185000
11
108.174159
21
237.383493
0
LINE
8
0
10
108.174159
20
237.383493
11
107.381806
21
237.919725
0
LINE
8
0
10
107.381806
20
237.919725
11
106.847818
21
238.713591
0
LINE
8
0
10
106.847818
20
238.713591
11
106.652071
21
239.684990
0
LINE
8
0
10
106.652071
20
239.684990
11
106.847818
21
240.656389
0
LINE
8
0
10
106.847818
20
240.656389
11
107.381806
21
241.450255
0
LINE
8
0
10
107.381806
20
241.450255
11
108.174159
21
241.986487
0
LINE
8
0
10
108.174159
20
241.986487
11
109.145000
21
242.184980
0
LINE
8
0
10
109.145000
20
242.184980
11
119.145000
21
242.185000
0
LINE
8
0
10
119.145000
20
242.185000
11
120.115841
21
241.986507
0
LINE
8
0
10
120.115841
20
241.986507
11
120.908194
21
241.450275
0
LINE
8
0
10
120.908194
20
241.450275
11
121.442182
21
240.656409
0
LINE
8
0
10
121.442182
20
240.656409
11
121.637929
21
239.685010
0
LINE
8
0
10
121.637929
20
239.685010
11
121.442182
21
238.713611
0
LINE
8
0
10
121.442182
20
238.713611
11
120.908194
21
237.919745
0
LINE
8
0
10
120.908194
20
237.919745
11
120.115841
21
237.383513
0
LINE
8
0
10
120.115841
20
237.383513
11
119.145000
21
237.185020
0
LINE
8
0
10
119.145000
20
237.185020
11
109.145000
21
237.185000
 0 
ENDSEC
 0 
EOF