0
SECTION
2
HEADER
9
$INSUNITS
70
4
9
$ACADVER
1
AC1014
9
$HANDSEED
5
FFFF
0
ENDSEC
0
SECTION
2
TABLES
0
TABLE
2
VPORT
5
8
100
AcDbSymbolTable
0
ENDTAB
0
TABLE
2
LTYPE
5
5
100
AcDbSymbolTable
0
LTYPE
5
14
100
AcDbSymbolTableRecord
100
AcDbLinetypeTableRecord
2
BYBLOCK
70
0
0
LTYPE
5
15
100
AcDbSymbolTableRecord
100
AcDbLinetypeTableRecord
2
BYLAYER
70
0
0
ENDTAB
0
TABLE
2
LAYER
5
2
100
AcDbSymbolTable
70
2
0
LAYER
5
50
100
AcDbSymbolTableRecord
100
AcDbLayerTableRecord
2
0
70
0
6
CONTINUOUS
0
ENDTAB
0
TABLE
2
STYLE
5
3
100
AcDbSymbolTable
70
1
0
STYLE
5
11
100
AcDbSymbolTableRecord
100
AcDbTextStyleTableRecord
2
STANDARD
70
0
0
ENDTAB
0
TABLE
2
VIEW
5
6
100
AcDbSymbolTable
70
0
0
ENDTAB
0
TABLE
2
UCS
5
7
100
AcDbSymbolTable
70
0
0
ENDTAB
0
TABLE
2
APPID
5
9
100
AcDbSymbolTable
70
2
0
APPID
5
12
100
AcDbSymbolTableRecord
100
AcDbRegAppTableRecord
2
ACAD
70
0
0
ENDTAB
0
TABLE
2
DIMSTYLE
5
A
100
AcDbSymbolTable
70
1
0
ENDTAB
0
TABLE
2
BLOCK_RECORD
5
1
100
AcDbSymbolTable
70
1
0
BLOCK_RECORD
5
1F
100
AcDbSymbolTableRecord
100
AcDbBlockTableRecord
2
*MODEL_SPACE
0
BLOCK_RECORD
5
1B
100
AcDbSymbolTableRecord
100
AcDbBlockTableRecord
2
*PAPER_SPACE
0
ENDTAB
0
ENDSEC
0
SECTION
2
BLOCKS
0
BLOCK
5
20
100
AcDbEntity
100
AcDbBlockBegin
2
*MODEL_SPACE
0
ENDBLK
5
21
100
AcDbEntity
100
AcDbBlockEnd
0
BLOCK
5
1C
100
AcDbEntity
100
AcDbBlockBegin
2
*PAPER_SPACE
0
ENDBLK
5
1D
100
AcDbEntity
100
AcDbBlockEnd
0
ENDSEC
0
SECTION
2
ENTITIES
0
LWPOLYLINE
5
100
100
AcDbEntity
8
0
100
AcDbPolyline
90
4
70
1
43
0.0
10
-422.5
20
125
10
-422.5
20
115
42
-0.99999999999999989
10
-427.5
20
115
10
-427.5
20
125
42
-0.99999999999999989
0
LWPOLYLINE
5
101
100
AcDbEntity
8
0
100
AcDbPolyline
90
4
70
1
43
0.0
10
-422.5
20
85
10
-422.5
20
75
42
-0.99999999999999989
10
-427.5
20
75
10
-427.5
20
85
42
-0.99999999999999989
0
LWPOLYLINE
5
102
100
AcDbEntity
8
0
100
AcDbPolyline
90
4
70
1
43
0.0
10
-482.5
20
145
10
-482.5
20
135
42
-0.99999999999999989
10
-487.5
20
135
10
-487.5
20
145
42
-0.99999999999999989
0
LWPOLYLINE
5
103
100
AcDbEntity
8
0
100
AcDbPolyline
90
4
70
1
43
0.0
10
-462.5
20
85
10
-462.5
20
75
42
-0.99999999999999989
10
-467.5
20
75
10
-467.5
20
85
42
-0.99999999999999989
0
LWPOLYLINE
5
104
100
AcDbEntity
8
0
100
AcDbPolyline
90
4
70
1
43
0.0
10
-362.5
20
185
10
-362.5
20
175
42
-0.99999999999999989
10
-367.5
20
175
10
-367.5
20
185
42
-0.99999999999999989
0
LWPOLYLINE
5
105
100
AcDbEntity
8
0
100
AcDbPolyline
90
4
70
1
43
0.0
10
-382.5
20
125
10
-382.5
20
115
42
-0.99999999999999989
10
-387.5
20
115
10
-387.5
20
125
42
-0.99999999999999989
0
LWPOLYLINE
5
106
100
AcDbEntity
8
0
100
AcDbPolyline
90
4
70
1
43
0.0
10
-402.5
20
185
10
-402.5
20
175
42
-0.99999999999999989
10
-407.5
20
175
10
-407.5
20
185
42
-0.99999999999999989
0
LWPOLYLINE
5
107
100
AcDbEntity
8
0
100
AcDbPolyline
90
4
70
1
43
0.0
10
-322.5
20
145
10
-322.5
20
135
42
-0.99999999999999989
10
-327.5
20
135
10
-327.5
20
145
42
-0.99999999999999989
0
LWPOLYLINE
5
108
100
AcDbEntity
8
0
100
AcDbPolyline
90
4
70
1
43
0.0
10
-362.5
20
145
10
-362.5
20
135
42
-0.99999999999999989
10
-367.5
20
135
10
-367.5
20
145
42
-0.99999999999999989
0
LWPOLYLINE
5
109
100
AcDbEntity
8
0
100
AcDbPolyline
90
4
70
1
43
0.0
10
-462.5
20
125
10
-462.5
20
115
42
-0.99999999999999989
10
-467.5
20
115
10
-467.5
20
125
42
-0.99999999999999989
0
LWPOLYLINE
5
110
100
AcDbEntity
8
0
100
AcDbPolyline
90
4
70
1
43
0.0
10
-322.5
20
105
10
-322.5
20
95
42
-0.99999999999999989
10
-327.5
20
95
10
-327.5
20
105
42
-0.99999999999999989
0
LWPOLYLINE
5
111
100
AcDbEntity
8
0
100
AcDbPolyline
90
4
70
1
43
0.0
10
-302.5
20
45
10
-302.5
20
35
42
-0.99999999999999989
10
-307.5
20
35
10
-307.5
20
45
42
-0.99999999999999989
0
LWPOLYLINE
5
112
100
AcDbEntity
8
0
100
AcDbPolyline
90
4
70
1
43
0.0
10
-402.5
20
105
10
-402.5
20
95
42
-0.99999999999999989
10
-407.5
20
95
10
-407.5
20
105
42
-0.99999999999999989
0
LWPOLYLINE
5
113
100
AcDbEntity
8
0
100
AcDbPolyline
90
4
70
1
43
0.0
10
-262.5
20
85
10
-262.5
20
75
42
-0.99999999999999989
10
-267.5
20
75
10
-267.5
20
85
42
-0.99999999999999989
0
LWPOLYLINE
5
114
100
AcDbEntity
8
0
100
AcDbPolyline
90
4
70
1
43
0.0
10
-302.5
20
125
10
-302.5
20
115
42
-0.99999999999999989
10
-307.5
20
115
10
-307.5
20
125
42
-0.99999999999999989
0
LWPOLYLINE
5
115
100
AcDbEntity
8
0
100
AcDbPolyline
90
4
70
1
43
0.0
10
-382.5
20
85
10
-382.5
20
75
42
-0.99999999999999989
10
-387.5
20
75
10
-387.5
20
85
42
-0.99999999999999989
0
LWPOLYLINE
5
116
100
AcDbEntity
8
0
100
AcDbPolyline
90
4
70
1
43
0.0
10
-442.5
20
25
10
-442.5
20
15
42
-0.99999999999999989
10
-447.5
20
15
10
-447.5
20
25
42
-0.99999999999999989
0
LWPOLYLINE
5
117
100
AcDbEntity
8
0
100
AcDbPolyline
90
4
70
1
43
0.0
10
-242.5
20
25
10
-242.5
20
15
42
-0.99999999999999989
10
-247.5
20
15
10
-247.5
20
25
42
-0.99999999999999989
0
LWPOLYLINE
5
118
100
AcDbEntity
8
0
100
AcDbPolyline
90
4
70
1
43
0.0
10
-342.5
20
85
10
-342.5
20
75
42
-0.99999999999999989
10
-347.5
20
75
10
-347.5
20
85
42
-0.99999999999999989
0
LWPOLYLINE
5
119
100
AcDbEntity
8
0
100
AcDbPolyline
90
4
70
1
43
0.0
10
-302.5
20
85
10
-302.5
20
75
42
-0.99999999999999989
10
-307.5
20
75
10
-307.5
20
85
42
-0.99999999999999989
0
LWPOLYLINE
5
120
100
AcDbEntity
8
0
100
AcDbPolyline
90
4
70
1
43
0.0
10
-282.5
20
105
10
-282.5
20
95
42
-0.99999999999999989
10
-287.5
20
95
10
-287.5
20
105
42
-0.99999999999999989
0
LWPOLYLINE
5
121
100
AcDbEntity
8
0
100
AcDbPolyline
90
4
70
1
43
0.0
10
-302.5
20
165
10
-302.5
20
155
42
-0.99999999999999989
10
-307.5
20
155
10
-307.5
20
165
42
-0.99999999999999989
0
LWPOLYLINE
5
122
100
AcDbEntity
8
0
100
AcDbPolyline
90
4
70
1
43
0.0
10
-382.5
20
165
10
-382.5
20
155
42
-0.99999999999999989
10
-387.5
20
155
10
-387.5
20
165
42
-0.99999999999999989
0
LWPOLYLINE
5
123
100
AcDbEntity
8
0
100
AcDbPolyline
90
4
70
1
43
0.0
10
-282.5
20
65
10
-282.5
20
55
42
-0.99999999999999989
10
-287.5
20
55
10
-287.5
20
65
42
-0.99999999999999989
0
LWPOLYLINE
5
124
100
AcDbEntity
8
0
100
AcDbPolyline
90
4
70
1
43
0.0
10
-442.5
20
105
10
-442.5
20
95
42
-0.99999999999999989
10
-447.5
20
95
10
-447.5
20
105
42
-0.99999999999999989
0
LWPOLYLINE
5
125
100
AcDbEntity
8
0
100
AcDbPolyline
90
4
70
1
43
0.0
10
-482.5
20
65
10
-482.5
20
55
42
-0.99999999999999989
10
-487.5
20
55
10
-487.5
20
65
42
-0.99999999999999989
0
LWPOLYLINE
5
126
100
AcDbEntity
8
0
100
AcDbPolyline
90
4
70
1
43
0.0
10
-262.5
20
165
10
-262.5
20
155
42
-0.99999999999999989
10
-267.5
20
155
10
-267.5
20
165
42
-0.99999999999999989
0
LWPOLYLINE
5
127
100
AcDbEntity
8
0
100
AcDbPolyline
90
4
70
1
43
0.0
10
-342.5
20
45
10
-342.5
20
35
42
-0.99999999999999989
10
-347.5
20
35
10
-347.5
20
45
42
-0.99999999999999989
0
LWPOLYLINE
5
128
100
AcDbEntity
8
0
100
AcDbPolyline
90
4
70
1
43
0.0
10
-262.5
20
125
10
-262.5
20
115
42
-0.99999999999999989
10
-267.5
20
115
10
-267.5
20
125
42
-0.99999999999999989
0
LWPOLYLINE
5
129
100
AcDbEntity
8
0
100
AcDbPolyline
90
4
70
1
43
0.0
10
-362.5
20
25
10
-362.5
20
15
42
-0.99999999999999989
10
-367.5
20
15
10
-367.5
20
25
42
-0.99999999999999989
0
LWPOLYLINE
5
130
100
AcDbEntity
8
0
100
AcDbPolyline
90
4
70
1
43
0.0
10
-282.5
20
145
10
-282.5
20
135
42
-0.99999999999999989
10
-287.5
20
135
10
-287.5
20
145
42
-0.99999999999999989
0
LWPOLYLINE
5
131
100
AcDbEntity
8
0
100
AcDbPolyline
90
4
70
1
43
0.0
10
-362.5
20
105
10
-362.5
20
95
42
-0.99999999999999989
10
-367.5
20
95
10
-367.5
20
105
42
-0.99999999999999989
0
LWPOLYLINE
5
132
100
AcDbEntity
8
0
100
AcDbPolyline
90
4
70
1
43
0.0
10
-502.5
20
85
10
-502.5
20
75
42
-0.99999999999999989
10
-507.5
20
75
10
-507.5
20
85
42
-0.99999999999999989
0
LWPOLYLINE
5
133
100
AcDbEntity
8
0
100
AcDbPolyline
90
4
70
1
43
0.0
10
-442.5
20
145
10
-442.5
20
135
42
-0.99999999999999989
10
-447.5
20
135
10
-447.5
20
145
42
-0.99999999999999989
0
LWPOLYLINE
5
134
100
AcDbEntity
8
0
100
AcDbPolyline
90
4
70
1
43
0.0
10
-242.5
20
185
10
-242.5
20
175
42
-0.99999999999999989
10
-247.5
20
175
10
-247.5
20
185
42
-0.99999999999999989
0
LWPOLYLINE
5
135
100
AcDbEntity
8
0
100
AcDbPolyline
90
4
70
1
43
0.0
10
-482.5
20
105
10
-482.5
20
95
42
-0.99999999999999989
10
-487.5
20
95
10
-487.5
20
105
42
-0.99999999999999989
0
LWPOLYLINE
5
136
100
AcDbEntity
8
0
100
AcDbPolyline
90
4
70
1
43
0.0
10
-362.5
20
65
10
-362.5
20
55
42
-0.99999999999999989
10
-367.5
20
55
10
-367.5
20
65
42
-0.99999999999999989
0
LWPOLYLINE
5
137
100
AcDbEntity
8
0
100
AcDbPolyline
90
4
70
1
43
0.0
10
-402.5
20
65
10
-402.5
20
55
42
-0.99999999999999989
10
-407.5
20
55
10
-407.5
20
65
42
-0.99999999999999989
0
LWPOLYLINE
5
138
100
AcDbEntity
8
0
100
AcDbPolyline
90
4
70
1
43
0.0
10
-382.5
20
45
10
-382.5
20
35
42
-0.99999999999999989
10
-387.5
20
35
10
-387.5
20
45
42
-0.99999999999999989
0
LWPOLYLINE
5
139
100
AcDbEntity
8
0
100
AcDbPolyline
90
4
70
1
43
0.0
10
-402.5
20
145
10
-402.5
20
135
42
-0.99999999999999989
10
-407.5
20
135
10
-407.5
20
145
42
-0.99999999999999989
0
LWPOLYLINE
5
140
100
AcDbEntity
8
0
100
AcDbPolyline
90
4
70
1
43
0.0
10
-282.5
20
25
10
-282.5
20
15
42
-0.99999999999999989
10
-287.5
20
15
10
-287.5
20
25
42
-0.99999999999999989
0
LWPOLYLINE
5
141
100
AcDbEntity
8
0
100
AcDbPolyline
90
4
70
1
43
0.0
10
-502.5
20
165
10
-502.5
20
155
42
-0.99999999999999989
10
-507.5
20
155
10
-507.5
20
165
42
-0.99999999999999989
0
LWPOLYLINE
5
142
100
AcDbEntity
8
0
100
AcDbPolyline
90
4
70
1
43
0.0
10
-442.5
20
185
10
-442.5
20
175
42
-0.99999999999999989
10
-447.5
20
175
10
-447.5
20
185
42
-0.99999999999999989
0
LWPOLYLINE
5
143
100
AcDbEntity
8
0
100
AcDbPolyline
90
4
70
1
43
0.0
10
-322.5
20
25
10
-322.5
20
15
42
-0.99999999999999989
10
-327.5
20
15
10
-327.5
20
25
42
-0.99999999999999989
0
LWPOLYLINE
5
144
100
AcDbEntity
8
0
100
AcDbPolyline
90
4
70
1
43
0.0
10
-322.5
20
65
10
-322.5
20
55
42
-0.99999999999999989
10
-327.5
20
55
10
-327.5
20
65
42
-0.99999999999999989
0
LWPOLYLINE
5
145
100
AcDbEntity
8
0
100
AcDbPolyline
90
4
70
1
43
0.0
10
-242.5
20
105
10
-242.5
20
95
42
-0.99999999999999989
10
-247.5
20
95
10
-247.5
20
105
42
-0.99999999999999989
0
LWPOLYLINE
5
146
100
AcDbEntity
8
0
100
AcDbPolyline
90
4
70
1
43
0.0
10
-322.5
20
185
10
-322.5
20
175
42
-0.99999999999999989
10
-327.5
20
175
10
-327.5
20
185
42
-0.99999999999999989
0
LWPOLYLINE
5
147
100
AcDbEntity
8
0
100
AcDbPolyline
90
4
70
1
43
0.0
10
-342.5
20
125
10
-342.5
20
115
42
-0.99999999999999989
10
-347.5
20
115
10
-347.5
20
125
42
-0.99999999999999989
0
LWPOLYLINE
5
148
100
AcDbEntity
8
0
100
AcDbPolyline
90
4
70
1
43
0.0
10
-242.5
20
145
10
-242.5
20
135
42
-0.99999999999999989
10
-247.5
20
135
10
-247.5
20
145
42
-0.99999999999999989
0
LWPOLYLINE
5
149
100
AcDbEntity
8
0
100
AcDbPolyline
90
4
70
1
43
0.0
10
-282.5
20
185
10
-282.5
20
175
42
-0.99999999999999989
10
-287.5
20
175
10
-287.5
20
185
42
-0.99999999999999989
0
LWPOLYLINE
5
150
100
AcDbEntity
8
0
100
AcDbPolyline
90
4
70
1
43
0.0
10
-242.5
20
65
10
-242.5
20
55
42
-0.99999999999999989
10
-247.5
20
55
10
-247.5
20
65
42
-0.99999999999999989
0
LWPOLYLINE
5
151
100
AcDbEntity
8
0
100
AcDbPolyline
90
4
70
1
43
0.0
10
-342.5
20
165
10
-342.5
20
155
42
-0.99999999999999989
10
-347.5
20
155
10
-347.5
20
165
42
-0.99999999999999989
0
LWPOLYLINE
5
152
100
AcDbEntity
8
0
100
AcDbPolyline
90
4
70
1
43
0.0
10
-262.5
20
45
10
-262.5
20
35
42
-0.99999999999999989
10
-267.5
20
35
10
-267.5
20
45
42
-0.99999999999999989
0
LWPOLYLINE
5
153
100
AcDbEntity
8
0
100
AcDbPolyline
90
4
70
1
43
0.0
10
-422.5
20
165
10
-422.5
20
155
42
-0.99999999999999989
10
-427.5
20
155
10
-427.5
20
165
42
-0.99999999999999989
0
LWPOLYLINE
5
154
100
AcDbEntity
8
0
100
AcDbPolyline
90
4
70
1
43
0.0
10
-462.5
20
165
10
-462.5
20
155
42
-0.99999999999999989
10
-467.5
20
155
10
-467.5
20
165
42
-0.99999999999999989
0
LWPOLYLINE
5
155
100
AcDbEntity
8
0
100
AcDbPolyline
90
4
70
1
43
0.0
10
-502.5
20
125
10
-502.5
20
115
42
-0.99999999999999989
10
-507.5
20
115
10
-507.5
20
125
42
-0.99999999999999989
0
LWPOLYLINE
5
156
100
AcDbEntity
8
0
100
AcDbPolyline
90
4
70
1
43
0.0
10
-402.5
20
25
10
-402.5
20
15
42
-0.99999999999999989
10
-407.5
20
15
10
-407.5
20
25
42
-0.99999999999999989
0
LWPOLYLINE
5
157
100
AcDbEntity
8
0
100
AcDbPolyline
90
4
70
1
43
0.0
10
-442.5
20
65
10
-442.5
20
55
42
-0.99999999999999989
10
-447.5
20
55
10
-447.5
20
65
42
-0.99999999999999989
0
LWPOLYLINE
5
158
100
AcDbEntity
8
0
100
AcDbPolyline
90
4
70
1
43
0.0
10
-482.5
20
185
10
-482.5
20
175
42
-0.99999999999999989
10
-487.5
20
175
10
-487.5
20
185
42
-0.99999999999999989
0
LWPOLYLINE
5
159
100
AcDbEntity
8
0
100
AcDbPolyline
90
4
70
1
43
0.0
10
-422.5
20
45
10
-422.5
20
35
42
-0.99999999999999989
10
-427.5
20
35
10
-427.5
20
45
42
-0.99999999999999989
0
LWPOLYLINE
5
160
100
AcDbEntity
8
0
100
AcDbPolyline
90
4
70
1
43
0.0
10
-462.5
20
45
10
-462.5
20
35
42
-0.99999999999999989
10
-467.5
20
35
10
-467.5
20
45
42
-0.99999999999999989
0
LWPOLYLINE
5
161
100
AcDbEntity
8
0
100
AcDbPolyline
90
4
70
1
43
0.0
10
-482.5
20
25
10
-482.5
20
15
42
-0.99999999999999989
10
-487.5
20
15
10
-487.5
20
25
42
-0.99999999999999989
0
LWPOLYLINE
5
162
100
AcDbEntity
8
0
100
AcDbPolyline
90
4
70
1
43
0.0
10
-502.5
20
45
10
-502.5
20
35
42
-0.99999999999999989
10
-507.5
20
35
10
-507.5
20
45
42
-0.99999999999999989
0
LWPOLYLINE
5
163
100
AcDbEntity
8
0
100
AcDbPolyline
90
8
70
1
43
0.0
10
-517
20
200
42
0.41421356237309243
10
-525
20
191.99999999999994
10
-525
20
8.0000000000000071
42
0.41421356237309537
10
-517
20
1.1102230246251427e-15
10
-232.99999999999997
20
3.5527136788005009e-14
42
0.41421356237309254
10
-225
20
8
10
-225
20
192
42
0.41421356237308982
10
-233
20
200
0
ENDSEC
0
SECTION
2
OBJECTS
0
DICTIONARY
5
C
100
AcDbDictionary
3
ACAD_GROUP
350
D
3
ACAD_MLINESTYLE
350
17
0
DICTIONARY
5
D
100
AcDbDictionary
0
DICTIONARY
5
1A
330
C
100
AcDbDictionary
0
DICTIONARY
5
17
100
AcDbDictionary
0
ENDSEC
0
EOF
