<?xml version="1.0" encoding="UTF-8" standalone="no"?>
<svg
   viewBox="0 0 793.7007874015749 1122.5196850393702"
   width="793.7007874015749"
   height="1122.5196850393702"
   version="1.1"
   id="svg146"
   sodipodi:docname="DXF A4 Wood Board Skadis No Border.svg"
   xml:space="preserve"
   inkscape:version="1.2.2 (732a01da63, 2022-12-09)"
   xmlns:inkscape="http://www.inkscape.org/namespaces/inkscape"
   xmlns:sodipodi="http://sodipodi.sourceforge.net/DTD/sodipodi-0.dtd"
   xmlns="http://www.w3.org/2000/svg"
   xmlns:svg="http://www.w3.org/2000/svg"><sodipodi:namedview
     id="namedview148"
     pagecolor="#ffffff"
     bordercolor="#000000"
     borderopacity="0.25"
     inkscape:showpageshadow="2"
     inkscape:pageopacity="0.0"
     inkscape:pagecheckerboard="0"
     inkscape:deskcolor="#d1d1d1"
     showgrid="false"
     inkscape:zoom="0.78127808"
     inkscape:cx="396.78574"
     inkscape:cy="561.8998"
     inkscape:window-width="1920"
     inkscape:window-height="1057"
     inkscape:window-x="-8"
     inkscape:window-y="-8"
     inkscape:window-maximized="1"
     inkscape:current-layer="g292" /><desc
     id="desc2">DXF A4 Wood Board Skadis No Border.dxf - scale = 1.000000, origin = (0.000000, 0.000000), method = manual</desc><defs
     id="defs16"><marker
       id="DistanceX"
       orient="auto"
       refX="0.0"
       refY="0.0"
       style="overflow:visible"><path
         d="M 3,-3 L -3,3 M 0,-5 L  0,5"
         style="stroke:#000000; stroke-width:0.5"
         id="path4" /></marker><pattern
       id="Hatch"
       patternUnits="userSpaceOnUse"
       width="8"
       height="8"
       x="0"
       y="0"><path
         d="M8 4 l-4,4"
         stroke="#000000"
         stroke-width="0.25"
         linecap="square"
         id="path7" /><path
         d="M6 2 l-4,4"
         stroke="#000000"
         stroke-width="0.25"
         linecap="square"
         id="path9" /><path
         d="M4 0 l-4,4"
         stroke="#000000"
         stroke-width="0.25"
         linecap="square"
         id="path11" /></pattern><symbol
       id="*MODEL_SPACE" /><symbol
       id="*PAPER_SPACE" /><marker
       id="DistanceX-4"
       orient="auto"
       refX="0.0"
       refY="0.0"
       style="overflow:visible"><path
         d="M 3,-3 L -3,3 M 0,-5 L  0,5"
         style="stroke:#000000; stroke-width:0.5"
         id="path152" /></marker><pattern
       id="Hatch-4"
       patternUnits="userSpaceOnUse"
       width="8"
       height="8"
       x="0"
       y="0"><path
         d="M8 4 l-4,4"
         stroke="#000000"
         stroke-width="0.25"
         linecap="square"
         id="path155" /><path
         d="M6 2 l-4,4"
         stroke="#000000"
         stroke-width="0.25"
         linecap="square"
         id="path157" /><path
         d="M4 0 l-4,4"
         stroke="#000000"
         stroke-width="0.25"
         linecap="square"
         id="path159" /></pattern><symbol
       id="*MODEL_SPACE-5" /><symbol
       id="*PAPER_SPACE-6" /></defs><g
     inkscape:groupmode="layer"
     inkscape:label="0"
     id="g144"><path
       d="M -1294.488189,990.236220 A 9.448819,9.448819 0.0 0 1 -1313.385827,990.236220 L -1313.385827,952.440945 A 9.448819,9.448819 0.0 0 1 -1294.488189,952.440945 L -1294.488189,990.236220 z"
       style="fill:none;stroke:#000000"
       id="path18" /><path
       d="M -1313.385827,498.897638 A 9.448819,9.448819 0.0 0 1 -1294.488189,498.897638 L -1294.488189,536.692913 A 9.448819,9.448819 0.0 0 1 -1313.385827,536.692913 L -1313.385827,498.897638 z"
       style="fill:none;stroke:#000000"
       id="path20" /><path
       d="M -1842.519685,725.669291 A 9.448819,9.448819 0.0 0 1 -1823.622047,725.669291 L -1823.622047,763.464567 A 9.448819,9.448819 0.0 0 1 -1842.519685,763.464567 L -1842.519685,725.669291 z"
       style="fill:none;stroke:#000000"
       id="path22" /><path
       d="M -935.433071,763.464567 L -935.433071,725.669291 A 9.448819,9.448819 0.0 0 1 -916.535433,725.669291 L -916.535433,763.464567 A 9.448819,9.448819 0.0 0 1 -935.433071,763.464567 z"
       style="fill:none;stroke:#000000"
       id="path24" /><path
       d="M -1086.614173,1028.031496 A 9.448819,9.448819 0.0 0 1 -1067.716535,1028.031496 L -1067.716535,1065.826772 A 9.448819,9.448819 0.0 0 1 -1086.614173,1065.826772 L -1086.614173,1028.031496 z"
       style="fill:none;stroke:#000000"
       id="path26" /><path
       d="M -1388.976378,725.669291 A 9.448819,9.448819 0.0 0 1 -1370.078740,725.669291 L -1370.078740,763.464567 A 9.448819,9.448819 0.0 0 1 -1388.976378,763.464567 L -1388.976378,725.669291 z"
       style="fill:none;stroke:#000000"
       id="path28" /><path
       d="M -1521.259843,876.850394 L -1521.259843,914.645669 A 9.448819,9.448819 0.0 0 1 -1540.157480,914.645669 L -1540.157480,876.850394 A 9.448819,9.448819 0.0 0 1 -1521.259843,876.850394 z"
       style="fill:none;stroke:#000000"
       id="path30" /><path
       d="M -1521.259843,574.488189 L -1521.259843,612.283465 A 9.448819,9.448819 0.0 0 1 -1540.157480,612.283465 L -1540.157480,574.488189 A 9.448819,9.448819 0.0 0 1 -1521.259843,574.488189 z"
       style="fill:none;stroke:#000000"
       id="path32" /><path
       d="M -1011.023622,650.078740 A 9.448819,9.448819 0.0 0 1 -992.125984,650.078740 L -992.125984,687.874016 A 9.448819,9.448819 0.0 0 1 -1011.023622,687.874016 L -1011.023622,650.078740 z"
       style="fill:none;stroke:#000000"
       id="path34" /><path
       d="M -1464.566929,952.440945 A 9.448819,9.448819 0.0 0 1 -1445.669291,952.440945 L -1445.669291,990.236220 A 9.448819,9.448819 0.0 0 1 -1464.566929,990.236220 L -1464.566929,952.440945 z"
       style="fill:none;stroke:#000000"
       id="path36" /><path
       d="M -916.535433,461.102362 A 9.448819,9.448819 0.0 0 1 -935.433071,461.102362 L -935.433071,423.307087 A 9.448819,9.448819 0.0 0 1 -916.535433,423.307087 L -916.535433,461.102362 z"
       style="fill:none;stroke:#000000"
       id="path38" /><path
       d="M -1842.519685,914.645669 L -1842.519685,876.850394 A 9.448819,9.448819 0.0 0 1 -1823.622047,876.850394 L -1823.622047,914.645669 A 9.448819,9.448819 0.0 0 1 -1842.519685,914.645669 z"
       style="fill:none;stroke:#000000"
       id="path40" /><path
       d="M -1388.976378,1065.826772 L -1388.976378,1028.031496 A 9.448819,9.448819 0.0 0 1 -1370.078740,1028.031496 L -1370.078740,1065.826772 A 9.448819,9.448819 0.0 0 1 -1388.976378,1065.826772 z"
       style="fill:none;stroke:#000000"
       id="path42" /><path
       d="M -1918.110236,801.259843 A 9.448819,9.448819 0.0 0 1 -1899.212598,801.259843 L -1899.212598,839.055118 A 9.448819,9.448819 0.0 0 1 -1918.110236,839.055118 L -1918.110236,801.259843 z"
       style="fill:none;stroke:#000000"
       id="path44" /><path
       d="M -1899.212598,498.897638 L -1899.212598,536.692913 A 9.448819,9.448819 0.0 0 1 -1918.110236,536.692913 L -1918.110236,498.897638 A 9.448819,9.448819 0.0 0 1 -1899.212598,498.897638 z"
       style="fill:none;stroke:#000000"
       id="path46" /><path
       d="M -1086.614173,574.488189 A 9.448819,9.448819 0.0 0 1 -1067.716535,574.488189 L -1067.716535,612.283465 A 9.448819,9.448819 0.0 0 1 -1086.614173,612.283465 L -1086.614173,574.488189 z"
       style="fill:none;stroke:#000000"
       id="path48" /><path
       d="M -1596.850394,498.897638 L -1596.850394,536.692913 A 9.448819,9.448819 0.0 0 1 -1615.748031,536.692913 L -1615.748031,498.897638 A 9.448819,9.448819 0.0 0 1 -1596.850394,498.897638 z"
       style="fill:none;stroke:#000000"
       id="path50" /><path
       d="M -1691.338583,423.307087 A 9.448819,9.448819 0.0 0 1 -1672.440945,423.307087 L -1672.440945,461.102362 A 9.448819,9.448819 0.0 0 1 -1691.338583,461.102362 L -1691.338583,423.307087 z"
       style="fill:none;stroke:#000000"
       id="path52" /><path
       d="M -1011.023622,498.897638 A 9.448819,9.448819 0.0 0 1 -992.125984,498.897638 L -992.125984,536.692913 A 9.448819,9.448819 0.0 0 1 -1011.023622,536.692913 L -1011.023622,498.897638 z"
       style="fill:none;stroke:#000000"
       id="path54" /><path
       d="M -1691.338583,612.283465 L -1691.338583,574.488189 A 9.448819,9.448819 0.0 0 1 -1672.440945,574.488189 L -1672.440945,612.283465 A 9.448819,9.448819 0.0 0 1 -1691.338583,612.283465 z"
       style="fill:none;stroke:#000000"
       id="path56" /><path
       d="M -1011.023622,990.236220 L -1011.023622,952.440945 A 9.448819,9.448819 0.0 0 1 -992.125984,952.440945 L -992.125984,990.236220 A 9.448819,9.448819 0.0 0 1 -1011.023622,990.236220 z"
       style="fill:none;stroke:#000000"
       id="path58" /><path
       d="M -1218.897638,876.850394 L -1218.897638,914.645669 A 9.448819,9.448819 0.0 0 1 -1237.795276,914.645669 L -1237.795276,876.850394 A 9.448819,9.448819 0.0 0 1 -1218.897638,876.850394 z"
       style="fill:none;stroke:#000000"
       id="path60" /><path
       d="M -1370.078740,914.645669 A 9.448819,9.448819 0.0 0 1 -1388.976378,914.645669 L -1388.976378,876.850394 A 9.448819,9.448819 0.0 0 1 -1370.078740,876.850394 L -1370.078740,914.645669 z"
       style="fill:none;stroke:#000000"
       id="path62" /><path
       d="M -1540.157480,1028.031496 A 9.448819,9.448819 0.0 0 1 -1521.259843,1028.031496 L -1521.259843,1065.826772 A 9.448819,9.448819 0.0 0 1 -1540.157480,1065.826772 L -1540.157480,1028.031496 z"
       style="fill:none;stroke:#000000"
       id="path64" /><path
       d="M -1918.110236,687.874016 L -1918.110236,650.078740 A 9.448819,9.448819 0.0 0 1 -1899.212598,650.078740 L -1899.212598,687.874016 A 9.448819,9.448819 0.0 0 1 -1918.110236,687.874016 z"
       style="fill:none;stroke:#000000"
       id="path66" /><path
       d="M -1766.929134,536.692913 L -1766.929134,498.897638 A 9.448819,9.448819 0.0 0 1 -1748.031496,498.897638 L -1748.031496,536.692913 A 9.448819,9.448819 0.0 0 1 -1766.929134,536.692913 z"
       style="fill:none;stroke:#000000"
       id="path68" /><path
       d="M -1086.614173,461.102362 L -1086.614173,423.307087 A 9.448819,9.448819 0.0 0 1 -1067.716535,423.307087 L -1067.716535,461.102362 A 9.448819,9.448819 0.0 0 1 -1086.614173,461.102362 z"
       style="fill:none;stroke:#000000"
       id="path70" /><path
       d="M -1218.897638,1028.031496 L -1218.897638,1065.826772 A 9.448819,9.448819 0.0 0 1 -1237.795276,1065.826772 L -1237.795276,1028.031496 A 9.448819,9.448819 0.0 0 1 -1218.897638,1028.031496 z"
       style="fill:none;stroke:#000000"
       id="path72" /><path
       d="M -1237.795276,423.307087 A 9.448819,9.448819 0.0 0 1 -1218.897638,423.307087 L -1218.897638,461.102362 A 9.448819,9.448819 0.0 0 1 -1237.795276,461.102362 L -1237.795276,423.307087 z"
       style="fill:none;stroke:#000000"
       id="path74" /><path
       d="M -935.433071,914.645669 L -935.433071,876.850394 A 9.448819,9.448819 0.0 0 1 -916.535433,876.850394 L -916.535433,914.645669 A 9.448819,9.448819 0.0 0 1 -935.433071,914.645669 z"
       style="fill:none;stroke:#000000"
       id="path76" /><path
       d="M -1313.385827,687.874016 L -1313.385827,650.078740 A 9.448819,9.448819 0.0 0 1 -1294.488189,650.078740 L -1294.488189,687.874016 A 9.448819,9.448819 0.0 0 1 -1313.385827,687.874016 z"
       style="fill:none;stroke:#000000"
       id="path78" /><path
       d="M -935.433071,612.283465 L -935.433071,574.488189 A 9.448819,9.448819 0.0 0 1 -916.535433,574.488189 L -916.535433,612.283465 A 9.448819,9.448819 0.0 0 1 -935.433071,612.283465 z"
       style="fill:none;stroke:#000000"
       id="path80" /><path
       d="M -1672.440945,876.850394 L -1672.440945,914.645669 A 9.448819,9.448819 0.0 0 1 -1691.338583,914.645669 L -1691.338583,876.850394 A 9.448819,9.448819 0.0 0 1 -1672.440945,876.850394 z"
       style="fill:none;stroke:#000000"
       id="path82" /><path
       d="M -1823.622047,461.102362 A 9.448819,9.448819 0.0 0 1 -1842.519685,461.102362 L -1842.519685,423.307087 A 9.448819,9.448819 0.0 0 1 -1823.622047,423.307087 L -1823.622047,461.102362 z"
       style="fill:none;stroke:#000000"
       id="path84" /><path
       d="M -1615.748031,990.236220 L -1615.748031,952.440945 A 9.448819,9.448819 0.0 0 1 -1596.850394,952.440945 L -1596.850394,990.236220 A 9.448819,9.448819 0.0 0 1 -1615.748031,990.236220 z"
       style="fill:none;stroke:#000000"
       id="path86" /><path
       d="M -1766.929134,990.236220 L -1766.929134,952.440945 A 9.448819,9.448819 0.0 0 1 -1748.031496,952.440945 L -1748.031496,990.236220 A 9.448819,9.448819 0.0 0 1 -1766.929134,990.236220 z"
       style="fill:none;stroke:#000000"
       id="path88" /><path
       d="M -1842.519685,1028.031496 A 9.448819,9.448819 0.0 0 1 -1823.622047,1028.031496 L -1823.622047,1065.826772 A 9.448819,9.448819 0.0 0 1 -1842.519685,1065.826772 L -1842.519685,1028.031496 z"
       style="fill:none;stroke:#000000"
       id="path90" /><path
       d="M -1388.976378,461.102362 L -1388.976378,423.307087 A 9.448819,9.448819 0.0 0 1 -1370.078740,423.307087 L -1370.078740,461.102362 A 9.448819,9.448819 0.0 0 1 -1388.976378,461.102362 z"
       style="fill:none;stroke:#000000"
       id="path92" /><path
       d="M -1521.259843,423.307087 L -1521.259843,461.102362 A 9.448819,9.448819 0.0 0 1 -1540.157480,461.102362 L -1540.157480,423.307087 A 9.448819,9.448819 0.0 0 1 -1521.259843,423.307087 z"
       style="fill:none;stroke:#000000"
       id="path94" /><path
       d="M -1842.519685,612.283465 L -1842.519685,574.488189 A 9.448819,9.448819 0.0 0 1 -1823.622047,574.488189 L -1823.622047,612.283465 A 9.448819,9.448819 0.0 0 1 -1842.519685,612.283465 z"
       style="fill:none;stroke:#000000"
       id="path96" /><path
       d="M -1464.566929,687.874016 L -1464.566929,650.078740 A 9.448819,9.448819 0.0 0 1 -1445.669291,650.078740 L -1445.669291,687.874016 A 9.448819,9.448819 0.0 0 1 -1464.566929,687.874016 z"
       style="fill:none;stroke:#000000"
       id="path98" /><path
       d="M -1918.110236,990.236220 L -1918.110236,952.440945 A 9.448819,9.448819 0.0 0 1 -1899.212598,952.440945 L -1899.212598,990.236220 A 9.448819,9.448819 0.0 0 1 -1918.110236,990.236220 z"
       style="fill:none;stroke:#000000"
       id="path100" /><path
       d="M -1615.748031,650.078740 A 9.448819,9.448819 0.0 0 1 -1596.850394,650.078740 L -1596.850394,687.874016 A 9.448819,9.448819 0.0 0 1 -1615.748031,687.874016 L -1615.748031,650.078740 z"
       style="fill:none;stroke:#000000"
       id="path102" /><path
       d="M -1596.850394,801.259843 L -1596.850394,839.055118 A 9.448819,9.448819 0.0 0 1 -1615.748031,839.055118 L -1615.748031,801.259843 A 9.448819,9.448819 0.0 0 1 -1596.850394,801.259843 z"
       style="fill:none;stroke:#000000"
       id="path104" /><path
       d="M -1766.929134,839.055118 L -1766.929134,801.259843 A 9.448819,9.448819 0.0 0 1 -1748.031496,801.259843 L -1748.031496,839.055118 A 9.448819,9.448819 0.0 0 1 -1766.929134,839.055118 z"
       style="fill:none;stroke:#000000"
       id="path106" /><path
       d="M -1143.307087,839.055118 A 9.448819,9.448819 0.0 0 1 -1162.204724,839.055118 L -1162.204724,801.259843 A 9.448819,9.448819 0.0 0 1 -1143.307087,801.259843 L -1143.307087,839.055118 z"
       style="fill:none;stroke:#000000"
       id="path108" /><path
       d="M -1313.385827,801.259843 A 9.448819,9.448819 0.0 0 1 -1294.488189,801.259843 L -1294.488189,839.055118 A 9.448819,9.448819 0.0 0 1 -1313.385827,839.055118 L -1313.385827,801.259843 z"
       style="fill:none;stroke:#000000"
       id="path110" /><path
       d="M -1086.614173,725.669291 A 9.448819,9.448819 0.0 0 1 -1067.716535,725.669291 L -1067.716535,763.464567 A 9.448819,9.448819 0.0 0 1 -1086.614173,763.464567 L -1086.614173,725.669291 z"
       style="fill:none;stroke:#000000"
       id="path112" /><path
       d="M -1162.204724,536.692913 L -1162.204724,498.897638 A 9.448819,9.448819 0.0 0 1 -1143.307087,498.897638 L -1143.307087,536.692913 A 9.448819,9.448819 0.0 0 1 -1162.204724,536.692913 z"
       style="fill:none;stroke:#000000"
       id="path114" /><path
       d="M -1445.669291,536.692913 A 9.448819,9.448819 0.0 0 1 -1464.566929,536.692913 L -1464.566929,498.897638 A 9.448819,9.448819 0.0 0 1 -1445.669291,498.897638 L -1445.669291,536.692913 z"
       style="fill:none;stroke:#000000"
       id="path116" /><path
       d="M -1143.307087,990.236220 A 9.448819,9.448819 0.0 0 1 -1162.204724,990.236220 L -1162.204724,952.440945 A 9.448819,9.448819 0.0 0 1 -1143.307087,952.440945 L -1143.307087,990.236220 z"
       style="fill:none;stroke:#000000"
       id="path118" /><path
       d="M -992.125984,839.055118 A 9.448819,9.448819 0.0 0 1 -1011.023622,839.055118 L -1011.023622,801.259843 A 9.448819,9.448819 0.0 0 1 -992.125984,801.259843 L -992.125984,839.055118 z"
       style="fill:none;stroke:#000000"
       id="path120" /><path
       d="M -1445.669291,801.259843 L -1445.669291,839.055118 A 9.448819,9.448819 0.0 0 1 -1464.566929,839.055118 L -1464.566929,801.259843 A 9.448819,9.448819 0.0 0 1 -1445.669291,801.259843 z"
       style="fill:none;stroke:#000000"
       id="path122" /><path
       d="M -1691.338583,1065.826772 L -1691.338583,1028.031496 A 9.448819,9.448819 0.0 0 1 -1672.440945,1028.031496 L -1672.440945,1065.826772 A 9.448819,9.448819 0.0 0 1 -1691.338583,1065.826772 z"
       style="fill:none;stroke:#000000"
       id="path124" /><path
       d="M -1370.078740,574.488189 L -1370.078740,612.283465 A 9.448819,9.448819 0.0 0 1 -1388.976378,612.283465 L -1388.976378,574.488189 A 9.448819,9.448819 0.0 0 1 -1370.078740,574.488189 z"
       style="fill:none;stroke:#000000"
       id="path126" /><path
       d="M -1218.897638,725.669291 L -1218.897638,763.464567 A 9.448819,9.448819 0.0 0 1 -1237.795276,763.464567 L -1237.795276,725.669291 A 9.448819,9.448819 0.0 0 1 -1218.897638,725.669291 z"
       style="fill:none;stroke:#000000"
       id="path128" /><path
       d="M -1237.795276,612.283465 L -1237.795276,574.488189 A 9.448819,9.448819 0.0 0 1 -1218.897638,574.488189 L -1218.897638,612.283465 A 9.448819,9.448819 0.0 0 1 -1237.795276,612.283465 z"
       style="fill:none;stroke:#000000"
       id="path130" /><path
       d="M -1162.204724,687.874016 L -1162.204724,650.078740 A 9.448819,9.448819 0.0 0 1 -1143.307087,650.078740 L -1143.307087,687.874016 A 9.448819,9.448819 0.0 0 1 -1162.204724,687.874016 z"
       style="fill:none;stroke:#000000"
       id="path132" /><path
       d="M -1086.614173,914.645669 L -1086.614173,876.850394 A 9.448819,9.448819 0.0 0 1 -1067.716535,876.850394 L -1067.716535,914.645669 A 9.448819,9.448819 0.0 0 1 -1086.614173,914.645669 z"
       style="fill:none;stroke:#000000"
       id="path134" /><path
       d="M -916.535433,1028.031496 L -916.535433,1065.826772 A 9.448819,9.448819 0.0 0 1 -935.433071,1065.826772 L -935.433071,1028.031496 A 9.448819,9.448819 0.0 0 1 -916.535433,1028.031496 z"
       style="fill:none;stroke:#000000"
       id="path136" /><path
       d="M -1691.338583,763.464567 L -1691.338583,725.669291 A 9.448819,9.448819 0.0 0 1 -1672.440945,725.669291 L -1672.440945,763.464567 A 9.448819,9.448819 0.0 0 1 -1691.338583,763.464567 z"
       style="fill:none;stroke:#000000"
       id="path138" /><path
       d="M -1540.157480,763.464567 L -1540.157480,725.669291 A 9.448819,9.448819 0.0 0 1 -1521.259843,725.669291 L -1521.259843,763.464567 A 9.448819,9.448819 0.0 0 1 -1540.157480,763.464567 z"
       style="fill:none;stroke:#000000"
       id="path140" /><path
       d="M -1748.031496,687.874016 A 9.448819,9.448819 0.0 0 1 -1766.929134,687.874016 L -1766.929134,650.078740 A 9.448819,9.448819 0.0 0 1 -1748.031496,650.078740 L -1748.031496,687.874016 z"
       style="fill:none;stroke:#000000"
       id="path142" /><g
       inkscape:label="0"
       id="g292"
       transform="rotate(90,-436.85433,1537.2485)"><path
         d="m -1294.4882,990.23622 a 9.448819,9.448819 0 0 1 -18.8976,0 v -37.79527 a 9.448819,9.448819 0 0 1 18.8976,0 z"
         style="fill:none;stroke:#000000"
         id="path166" /><path
         d="m -1313.3858,498.89764 a 9.448819,9.448819 0 0 1 18.8976,0 v 37.79527 a 9.448819,9.448819 0 0 1 -18.8976,0 z"
         style="fill:none;stroke:#000000"
         id="path168" /><path
         d="m -1842.5197,725.66929 a 9.44885,9.44885 0 0 1 18.8977,0 v 37.79528 a 9.44885,9.44885 0 0 1 -18.8977,0 z"
         style="fill:none;stroke:#000000"
         id="path170" /><path
         d="m -935.43307,763.46457 v -37.79528 a 9.44882,9.44882 0 0 1 18.89764,0 v 37.79528 a 9.44882,9.44882 0 0 1 -18.89764,0 z"
         style="fill:none;stroke:#000000"
         id="path172" /><path
         d="m -1086.6142,1028.0315 a 9.44885,9.44885 0 0 1 18.8977,0 v 37.7953 a 9.44885,9.44885 0 0 1 -18.8977,0 z"
         style="fill:none;stroke:#000000"
         id="path174" /><path
         d="m -1388.9764,725.66929 a 9.44885,9.44885 0 0 1 18.8977,0 v 37.79528 a 9.44885,9.44885 0 0 1 -18.8977,0 z"
         style="fill:none;stroke:#000000"
         id="path176" /><path
         d="m -1521.2598,876.85039 v 37.79528 a 9.44885,9.44885 0 0 1 -18.8977,0 v -37.79528 a 9.44885,9.44885 0 0 1 18.8977,0 z"
         style="fill:none;stroke:#000000"
         id="path178" /><path
         d="m -1521.2598,574.48819 v 37.79527 a 9.44885,9.44885 0 0 1 -18.8977,0 v -37.79527 a 9.44885,9.44885 0 0 1 18.8977,0 z"
         style="fill:none;stroke:#000000"
         id="path180" /><path
         d="m -1011.0236,650.07874 a 9.448819,9.448819 0 0 1 18.89762,0 v 37.79528 a 9.448819,9.448819 0 0 1 -18.89762,0 z"
         style="fill:none;stroke:#000000"
         id="path182" /><path
         d="m -1464.5669,952.44095 a 9.448819,9.448819 0 0 1 18.8976,0 v 37.79527 a 9.448819,9.448819 0 0 1 -18.8976,0 z"
         style="fill:none;stroke:#000000"
         id="path184" /><path
         d="m -916.53543,461.10236 a 9.44882,9.44882 0 0 1 -18.89764,0 v -37.79527 a 9.44882,9.44882 0 0 1 18.89764,0 z"
         style="fill:none;stroke:#000000"
         id="path186" /><path
         d="m -1842.5197,914.64567 v -37.79528 a 9.44885,9.44885 0 0 1 18.8977,0 v 37.79528 a 9.44885,9.44885 0 0 1 -18.8977,0 z"
         style="fill:none;stroke:#000000"
         id="path188" /><path
         d="m -1388.9764,1065.8268 v -37.7953 a 9.44885,9.44885 0 0 1 18.8977,0 v 37.7953 a 9.44885,9.44885 0 0 1 -18.8977,0 z"
         style="fill:none;stroke:#000000"
         id="path190" /><path
         d="m -1918.1102,801.25984 a 9.448819,9.448819 0 0 1 18.8976,0 v 37.79528 a 9.448819,9.448819 0 0 1 -18.8976,0 z"
         style="fill:none;stroke:#000000"
         id="path192" /><path
         d="m -1899.2126,498.89764 v 37.79527 a 9.448819,9.448819 0 0 1 -18.8976,0 v -37.79527 a 9.448819,9.448819 0 0 1 18.8976,0 z"
         style="fill:none;stroke:#000000"
         id="path194" /><path
         d="m -1086.6142,574.48819 a 9.44885,9.44885 0 0 1 18.8977,0 v 37.79527 a 9.44885,9.44885 0 0 1 -18.8977,0 z"
         style="fill:none;stroke:#000000"
         id="path196" /><path
         d="m -1596.8504,498.89764 v 37.79527 a 9.448819,9.448819 0 0 1 -18.8976,0 v -37.79527 a 9.448819,9.448819 0 0 1 18.8976,0 z"
         style="fill:none;stroke:#000000"
         id="path198" /><path
         d="m -1691.3386,423.30709 a 9.44885,9.44885 0 0 1 18.8977,0 v 37.79527 a 9.44885,9.44885 0 0 1 -18.8977,0 z"
         style="fill:none;stroke:#000000"
         id="path200" /><path
         d="m -1011.0236,498.89764 a 9.448819,9.448819 0 0 1 18.89762,0 v 37.79527 a 9.448819,9.448819 0 0 1 -18.89762,0 z"
         style="fill:none;stroke:#000000"
         id="path202" /><path
         d="m -1691.3386,612.28346 v -37.79527 a 9.44885,9.44885 0 0 1 18.8977,0 v 37.79527 a 9.44885,9.44885 0 0 1 -18.8977,0 z"
         style="fill:none;stroke:#000000"
         id="path204" /><path
         d="m -1011.0236,990.23622 v -37.79527 a 9.448819,9.448819 0 0 1 18.89762,0 v 37.79527 a 9.448819,9.448819 0 0 1 -18.89762,0 z"
         style="fill:none;stroke:#000000"
         id="path206" /><path
         d="m -1218.8976,876.85039 v 37.79528 a 9.44885,9.44885 0 0 1 -18.8977,0 v -37.79528 a 9.44885,9.44885 0 0 1 18.8977,0 z"
         style="fill:none;stroke:#000000"
         id="path208" /><path
         d="m -1370.0787,914.64567 a 9.44885,9.44885 0 0 1 -18.8977,0 v -37.79528 a 9.44885,9.44885 0 0 1 18.8977,0 z"
         style="fill:none;stroke:#000000"
         id="path210" /><path
         d="m -1540.1575,1028.0315 a 9.44885,9.44885 0 0 1 18.8977,0 v 37.7953 a 9.44885,9.44885 0 0 1 -18.8977,0 z"
         style="fill:none;stroke:#000000"
         id="path212" /><path
         d="m -1918.1102,687.87402 v -37.79528 a 9.448819,9.448819 0 0 1 18.8976,0 v 37.79528 a 9.448819,9.448819 0 0 1 -18.8976,0 z"
         style="fill:none;stroke:#000000"
         id="path214" /><path
         d="m -1766.9291,536.69291 v -37.79527 a 9.448819,9.448819 0 0 1 18.8976,0 v 37.79527 a 9.448819,9.448819 0 0 1 -18.8976,0 z"
         style="fill:none;stroke:#000000"
         id="path216" /><path
         d="m -1086.6142,461.10236 v -37.79527 a 9.44885,9.44885 0 0 1 18.8977,0 v 37.79527 a 9.44885,9.44885 0 0 1 -18.8977,0 z"
         style="fill:none;stroke:#000000"
         id="path218" /><path
         d="m -1218.8976,1028.0315 v 37.7953 a 9.44885,9.44885 0 0 1 -18.8977,0 v -37.7953 a 9.44885,9.44885 0 0 1 18.8977,0 z"
         style="fill:none;stroke:#000000"
         id="path220" /><path
         d="m -1237.7953,423.30709 a 9.44885,9.44885 0 0 1 18.8977,0 v 37.79527 a 9.44885,9.44885 0 0 1 -18.8977,0 z"
         style="fill:none;stroke:#000000"
         id="path222" /><path
         d="m -935.43307,914.64567 v -37.79528 a 9.44882,9.44882 0 0 1 18.89764,0 v 37.79528 a 9.44882,9.44882 0 0 1 -18.89764,0 z"
         style="fill:none;stroke:#000000"
         id="path224" /><path
         d="m -1313.3858,687.87402 v -37.79528 a 9.448819,9.448819 0 0 1 18.8976,0 v 37.79528 a 9.448819,9.448819 0 0 1 -18.8976,0 z"
         style="fill:none;stroke:#000000"
         id="path226" /><path
         d="m -935.43307,612.28346 v -37.79527 a 9.44882,9.44882 0 0 1 18.89764,0 v 37.79527 a 9.44882,9.44882 0 0 1 -18.89764,0 z"
         style="fill:none;stroke:#000000"
         id="path228" /><path
         d="m -1672.4409,876.85039 v 37.79528 a 9.44885,9.44885 0 0 1 -18.8977,0 v -37.79528 a 9.44885,9.44885 0 0 1 18.8977,0 z"
         style="fill:none;stroke:#000000"
         id="path230" /><path
         d="m -1823.622,461.10236 a 9.44885,9.44885 0 0 1 -18.8977,0 v -37.79527 a 9.44885,9.44885 0 0 1 18.8977,0 z"
         style="fill:none;stroke:#000000"
         id="path232" /><path
         d="m -1615.748,990.23622 v -37.79527 a 9.448819,9.448819 0 0 1 18.8976,0 v 37.79527 a 9.448819,9.448819 0 0 1 -18.8976,0 z"
         style="fill:none;stroke:#000000"
         id="path234" /><path
         d="m -1766.9291,990.23622 v -37.79527 a 9.448819,9.448819 0 0 1 18.8976,0 v 37.79527 a 9.448819,9.448819 0 0 1 -18.8976,0 z"
         style="fill:none;stroke:#000000"
         id="path236" /><path
         d="m -1842.5197,1028.0315 a 9.44885,9.44885 0 0 1 18.8977,0 v 37.7953 a 9.44885,9.44885 0 0 1 -18.8977,0 z"
         style="fill:none;stroke:#000000"
         id="path238" /><path
         d="m -1388.9764,461.10236 v -37.79527 a 9.44885,9.44885 0 0 1 18.8977,0 v 37.79527 a 9.44885,9.44885 0 0 1 -18.8977,0 z"
         style="fill:none;stroke:#000000"
         id="path240" /><path
         d="m -1521.2598,423.30709 v 37.79527 a 9.44885,9.44885 0 0 1 -18.8977,0 v -37.79527 a 9.44885,9.44885 0 0 1 18.8977,0 z"
         style="fill:none;stroke:#000000"
         id="path242" /><path
         d="m -1842.5197,612.28346 v -37.79527 a 9.44885,9.44885 0 0 1 18.8977,0 v 37.79527 a 9.44885,9.44885 0 0 1 -18.8977,0 z"
         style="fill:none;stroke:#000000"
         id="path244" /><path
         d="m -1464.5669,687.87402 v -37.79528 a 9.448819,9.448819 0 0 1 18.8976,0 v 37.79528 a 9.448819,9.448819 0 0 1 -18.8976,0 z"
         style="fill:none;stroke:#000000"
         id="path246" /><path
         d="m -1918.1102,990.23622 v -37.79527 a 9.448819,9.448819 0 0 1 18.8976,0 v 37.79527 a 9.448819,9.448819 0 0 1 -18.8976,0 z"
         style="fill:none;stroke:#000000"
         id="path248" /><path
         d="m -1615.748,650.07874 a 9.448819,9.448819 0 0 1 18.8976,0 v 37.79528 a 9.448819,9.448819 0 0 1 -18.8976,0 z"
         style="fill:none;stroke:#000000"
         id="path250" /><path
         d="m -1596.8504,801.25984 v 37.79528 a 9.448819,9.448819 0 0 1 -18.8976,0 v -37.79528 a 9.448819,9.448819 0 0 1 18.8976,0 z"
         style="fill:none;stroke:#000000"
         id="path252" /><path
         d="m -1766.9291,839.05512 v -37.79528 a 9.448819,9.448819 0 0 1 18.8976,0 v 37.79528 a 9.448819,9.448819 0 0 1 -18.8976,0 z"
         style="fill:none;stroke:#000000"
         id="path254" /><path
         d="m -1143.3071,839.05512 a 9.448819,9.448819 0 0 1 -18.8976,0 v -37.79528 a 9.448819,9.448819 0 0 1 18.8976,0 z"
         style="fill:none;stroke:#000000"
         id="path256" /><path
         d="m -1313.3858,801.25984 a 9.448819,9.448819 0 0 1 18.8976,0 v 37.79528 a 9.448819,9.448819 0 0 1 -18.8976,0 z"
         style="fill:none;stroke:#000000"
         id="path258" /><path
         d="m -1086.6142,725.66929 a 9.44885,9.44885 0 0 1 18.8977,0 v 37.79528 a 9.44885,9.44885 0 0 1 -18.8977,0 z"
         style="fill:none;stroke:#000000"
         id="path260" /><path
         d="m -1162.2047,536.69291 v -37.79527 a 9.448819,9.448819 0 0 1 18.8976,0 v 37.79527 a 9.448819,9.448819 0 0 1 -18.8976,0 z"
         style="fill:none;stroke:#000000"
         id="path262" /><path
         d="m -1445.6693,536.69291 a 9.448819,9.448819 0 0 1 -18.8976,0 v -37.79527 a 9.448819,9.448819 0 0 1 18.8976,0 z"
         style="fill:none;stroke:#000000"
         id="path264" /><path
         d="m -1143.3071,990.23622 a 9.448819,9.448819 0 0 1 -18.8976,0 v -37.79527 a 9.448819,9.448819 0 0 1 18.8976,0 z"
         style="fill:none;stroke:#000000"
         id="path266" /><path
         d="m -992.12598,839.05512 a 9.448819,9.448819 0 0 1 -18.89762,0 v -37.79528 a 9.448819,9.448819 0 0 1 18.89762,0 z"
         style="fill:none;stroke:#000000"
         id="path268" /><path
         d="m -1445.6693,801.25984 v 37.79528 a 9.448819,9.448819 0 0 1 -18.8976,0 v -37.79528 a 9.448819,9.448819 0 0 1 18.8976,0 z"
         style="fill:none;stroke:#000000"
         id="path270" /><path
         d="m -1691.3386,1065.8268 v -37.7953 a 9.44885,9.44885 0 0 1 18.8977,0 v 37.7953 a 9.44885,9.44885 0 0 1 -18.8977,0 z"
         style="fill:none;stroke:#000000"
         id="path272" /><path
         d="m -1370.0787,574.48819 v 37.79527 a 9.44885,9.44885 0 0 1 -18.8977,0 v -37.79527 a 9.44885,9.44885 0 0 1 18.8977,0 z"
         style="fill:none;stroke:#000000"
         id="path274" /><path
         d="m -1218.8976,725.66929 v 37.79528 a 9.44885,9.44885 0 0 1 -18.8977,0 v -37.79528 a 9.44885,9.44885 0 0 1 18.8977,0 z"
         style="fill:none;stroke:#000000"
         id="path276" /><path
         d="m -1237.7953,612.28346 v -37.79527 a 9.44885,9.44885 0 0 1 18.8977,0 v 37.79527 a 9.44885,9.44885 0 0 1 -18.8977,0 z"
         style="fill:none;stroke:#000000"
         id="path278" /><path
         d="m -1162.2047,687.87402 v -37.79528 a 9.448819,9.448819 0 0 1 18.8976,0 v 37.79528 a 9.448819,9.448819 0 0 1 -18.8976,0 z"
         style="fill:none;stroke:#000000"
         id="path280" /><path
         d="m -1086.6142,914.64567 v -37.79528 a 9.44885,9.44885 0 0 1 18.8977,0 v 37.79528 a 9.44885,9.44885 0 0 1 -18.8977,0 z"
         style="fill:none;stroke:#000000"
         id="path282" /><path
         d="m -916.53543,1028.0315 v 37.7953 a 9.44882,9.44882 0 0 1 -18.89764,0 v -37.7953 a 9.44882,9.44882 0 0 1 18.89764,0 z"
         style="fill:none;stroke:#000000"
         id="path284" /><path
         d="m -1691.3386,763.46457 v -37.79528 a 9.44885,9.44885 0 0 1 18.8977,0 v 37.79528 a 9.44885,9.44885 0 0 1 -18.8977,0 z"
         style="fill:none;stroke:#000000"
         id="path286" /><path
         d="m -1540.1575,763.46457 v -37.79528 a 9.44885,9.44885 0 0 1 18.8977,0 v 37.79528 a 9.44885,9.44885 0 0 1 -18.8977,0 z"
         style="fill:none;stroke:#000000"
         id="path288" /><path
         d="m -1748.0315,687.87402 a 9.448819,9.448819 0 0 1 -18.8976,0 v -37.79528 a 9.448819,9.448819 0 0 1 18.8976,0 z"
         style="fill:none;stroke:#000000"
         id="path290" /></g></g></svg>
