0
SECTION
2
HEADER
9
$INSUNITS
70
4
9
$ACADVER
1
AC1014
9
$HANDSEED
5
FFFF
0
ENDSEC
0
SECTION
2
TABLES
0
TABLE
2
VPORT
5
8
100
AcDbSymbolTable
0
ENDTAB
0
TABLE
2
LTYPE
5
5
100
AcDbSymbolTable
0
LTYPE
5
14
100
AcDbSymbolTableRecord
100
AcDbLinetypeTableRecord
2
BYBLOCK
70
0
0
LTYPE
5
15
100
AcDbSymbolTableRecord
100
AcDbLinetypeTableRecord
2
BYLAYER
70
0
0
ENDTAB
0
TABLE
2
LAYER
5
2
100
AcDbSymbolTable
70
2
0
LAYER
5
50
100
AcDbSymbolTableRecord
100
AcDbLayerTableRecord
2
0
70
0
6
CONTINUOUS
0
ENDTAB
0
TABLE
2
STYLE
5
3
100
AcDbSymbolTable
70
1
0
STYLE
5
11
100
AcDbSymbolTableRecord
100
AcDbTextStyleTableRecord
2
STANDARD
70
0
0
ENDTAB
0
TABLE
2
VIEW
5
6
100
AcDbSymbolTable
70
0
0
ENDTAB
0
TABLE
2
UCS
5
7
100
AcDbSymbolTable
70
0
0
ENDTAB
0
TABLE
2
APPID
5
9
100
AcDbSymbolTable
70
2
0
APPID
5
12
100
AcDbSymbolTableRecord
100
AcDbRegAppTableRecord
2
ACAD
70
0
0
ENDTAB
0
TABLE
2
DIMSTYLE
5
A
100
AcDbSymbolTable
70
1
0
ENDTAB
0
TABLE
2
BLOCK_RECORD
5
1
100
AcDbSymbolTable
70
1
0
BLOCK_RECORD
5
1F
100
AcDbSymbolTableRecord
100
AcDbBlockTableRecord
2
*MODEL_SPACE
0
BLOCK_RECORD
5
1B
100
AcDbSymbolTableRecord
100
AcDbBlockTableRecord
2
*PAPER_SPACE
0
ENDTAB
0
ENDSEC
0
SECTION
2
BLOCKS
0
BLOCK
5
20
100
AcDbEntity
100
AcDbBlockBegin
2
*MODEL_SPACE
0
ENDBLK
5
21
100
AcDbEntity
100
AcDbBlockEnd
0
BLOCK
5
1C
100
AcDbEntity
100
AcDbBlockBegin
2
*PAPER_SPACE
0
ENDBLK
5
1D
100
AcDbEntity
100
AcDbBlockEnd
0
ENDSEC
0
SECTION
2
ENTITIES
0
LWPOLYLINE
5
100
100
AcDbEntity
8
0
100
AcDbPolyline
90
4
70
1
43
0.0
10
-907.5
20
25
10
-907.5
20
15
42
-0.99999999999999989
10
-912.5
20
15
10
-912.5
20
25
42
-0.99999999999999989
0
LWPOLYLINE
5
101
100
AcDbEntity
8
0
100
AcDbPolyline
90
4
70
1
43
0.0
10
-927.5
20
245
10
-927.5
20
235
42
-0.99999999999999989
10
-932.5
20
235
10
-932.5
20
245
42
-0.99999999999999989
0
LWPOLYLINE
5
102
100
AcDbEntity
8
0
100
AcDbPolyline
90
4
70
1
43
0.0
10
-907.5
20
105
10
-907.5
20
95
42
-0.99999999999999989
10
-912.5
20
95
10
-912.5
20
105
42
-0.99999999999999989
0
LWPOLYLINE
5
103
100
AcDbEntity
8
0
100
AcDbPolyline
90
4
70
1
43
0.0
10
-787.5
20
265
10
-787.5
20
255
42
-0.99999999999999989
10
-792.5
20
255
10
-792.5
20
265
42
-0.99999999999999989
0
LWPOLYLINE
5
104
100
AcDbEntity
8
0
100
AcDbPolyline
90
4
70
1
43
0.0
10
-647.5
20
285
10
-647.5
20
275
42
-0.99999999999999989
10
-652.5
20
275
10
-652.5
20
285
42
-0.99999999999999989
0
LWPOLYLINE
5
105
100
AcDbEntity
8
0
100
AcDbPolyline
90
4
70
1
43
0.0
10
-807.5
20
285
10
-807.5
20
275
42
-0.99999999999999989
10
-812.5
20
275
10
-812.5
20
285
42
-0.99999999999999989
0
LWPOLYLINE
5
106
100
AcDbEntity
8
0
100
AcDbPolyline
90
4
70
1
43
0.0
10
-767.5
20
85
10
-767.5
20
75
42
-0.99999999999999989
10
-772.5
20
75
10
-772.5
20
85
42
-0.99999999999999989
0
LWPOLYLINE
5
107
100
AcDbEntity
8
0
100
AcDbPolyline
90
4
70
1
43
0.0
10
-827.5
20
65
10
-827.5
20
55
42
-0.99999999999999989
10
-832.5
20
55
10
-832.5
20
65
42
-0.99999999999999989
0
LWPOLYLINE
5
108
100
AcDbEntity
8
0
100
AcDbPolyline
90
4
70
1
43
0.0
10
-787.5
20
25
10
-787.5
20
15
42
-0.99999999999999989
10
-792.5
20
15
10
-792.5
20
25
42
-0.99999999999999989
0
LWPOLYLINE
5
109
100
AcDbEntity
8
0
100
AcDbPolyline
90
4
70
1
43
0.0
10
-587.5
20
185
10
-587.5
20
175
42
-0.99999999999999989
10
-592.5
20
175
10
-592.5
20
185
42
-0.99999999999999989
0
LWPOLYLINE
5
110
100
AcDbEntity
8
0
100
AcDbPolyline
90
4
70
1
43
0.0
10
-647.5
20
125
10
-647.5
20
115
42
-0.99999999999999989
10
-652.5
20
115
10
-652.5
20
125
42
-0.99999999999999989
0
LWPOLYLINE
5
111
100
AcDbEntity
8
0
100
AcDbPolyline
90
4
70
1
43
0.0
10
-687.5
20
205
10
-687.5
20
195
42
-0.99999999999999989
10
-692.5
20
195
10
-692.5
20
205
42
-0.99999999999999989
0
LWPOLYLINE
5
112
100
AcDbEntity
8
0
100
AcDbPolyline
90
4
70
1
43
0.0
10
-687.5
20
285
10
-687.5
20
275
42
-0.99999999999999989
10
-692.5
20
275
10
-692.5
20
285
42
-0.99999999999999989
0
LWPOLYLINE
5
113
100
AcDbEntity
8
0
100
AcDbPolyline
90
4
70
1
43
0.0
10
-587.5
20
265
10
-587.5
20
255
42
-0.99999999999999989
10
-592.5
20
255
10
-592.5
20
265
42
-0.99999999999999989
0
LWPOLYLINE
5
114
100
AcDbEntity
8
0
100
AcDbPolyline
90
4
70
1
43
0.0
10
-727.5
20
205
10
-727.5
20
195
42
-0.99999999999999989
10
-732.5
20
195
10
-732.5
20
205
42
-0.99999999999999989
0
LWPOLYLINE
5
115
100
AcDbEntity
8
0
100
AcDbPolyline
90
4
70
1
43
0.0
10
-747.5
20
225
10
-747.5
20
215
42
-0.99999999999999989
10
-752.5
20
215
10
-752.5
20
225
42
-0.99999999999999989
0
LWPOLYLINE
5
116
100
AcDbEntity
8
0
100
AcDbPolyline
90
4
70
1
43
0.0
10
-907.5
20
265
10
-907.5
20
255
42
-0.99999999999999989
10
-912.5
20
255
10
-912.5
20
265
42
-0.99999999999999989
0
LWPOLYLINE
5
117
100
AcDbEntity
8
0
100
AcDbPolyline
90
4
70
1
43
0.0
10
-847.5
20
125
10
-847.5
20
115
42
-0.99999999999999989
10
-852.5
20
115
10
-852.5
20
125
42
-0.99999999999999989
0
LWPOLYLINE
5
118
100
AcDbEntity
8
0
100
AcDbPolyline
90
4
70
1
43
0.0
10
-887.5
20
245
10
-887.5
20
235
42
-0.99999999999999989
10
-892.5
20
235
10
-892.5
20
245
42
-0.99999999999999989
0
LWPOLYLINE
5
119
100
AcDbEntity
8
0
100
AcDbPolyline
90
4
70
1
43
0.0
10
-747.5
20
65
10
-747.5
20
55
42
-0.99999999999999989
10
-752.5
20
55
10
-752.5
20
65
42
-0.99999999999999989
0
LWPOLYLINE
5
120
100
AcDbEntity
8
0
100
AcDbPolyline
90
4
70
1
43
0.0
10
-607.5
20
285
10
-607.5
20
275
42
-0.99999999999999989
10
-612.5
20
275
10
-612.5
20
285
42
-0.99999999999999989
0
LWPOLYLINE
5
121
100
AcDbEntity
8
0
100
AcDbPolyline
90
4
70
1
43
0.0
10
-587.5
20
25
10
-587.5
20
15
42
-0.99999999999999989
10
-592.5
20
15
10
-592.5
20
25
42
-0.99999999999999989
0
LWPOLYLINE
5
122
100
AcDbEntity
8
0
100
AcDbPolyline
90
4
70
1
43
0.0
10
-727.5
20
85
10
-727.5
20
75
42
-0.99999999999999989
10
-732.5
20
75
10
-732.5
20
85
42
-0.99999999999999989
0
LWPOLYLINE
5
123
100
AcDbEntity
8
0
100
AcDbPolyline
90
4
70
1
43
0.0
10
-687.5
20
165
10
-687.5
20
155
42
-0.99999999999999989
10
-692.5
20
155
10
-692.5
20
165
42
-0.99999999999999989
0
LWPOLYLINE
5
124
100
AcDbEntity
8
0
100
AcDbPolyline
90
4
70
1
43
0.0
10
-927.5
20
85
10
-927.5
20
75
42
-0.99999999999999989
10
-932.5
20
75
10
-932.5
20
85
42
-0.99999999999999989
0
LWPOLYLINE
5
125
100
AcDbEntity
8
0
100
AcDbPolyline
90
4
70
1
43
0.0
10
-787.5
20
105
10
-787.5
20
95
42
-0.99999999999999989
10
-792.5
20
95
10
-792.5
20
105
42
-0.99999999999999989
0
LWPOLYLINE
5
126
100
AcDbEntity
8
0
100
AcDbPolyline
90
4
70
1
43
0.0
10
-807.5
20
85
10
-807.5
20
75
42
-0.99999999999999989
10
-812.5
20
75
10
-812.5
20
85
42
-0.99999999999999989
0
LWPOLYLINE
5
127
100
AcDbEntity
8
0
100
AcDbPolyline
90
4
70
1
43
0.0
10
-687.5
20
45
10
-687.5
20
35
42
-0.99999999999999989
10
-692.5
20
35
10
-692.5
20
45
42
-0.99999999999999989
0
LWPOLYLINE
5
128
100
AcDbEntity
8
0
100
AcDbPolyline
90
4
70
1
43
0.0
10
-627.5
20
145
10
-627.5
20
135
42
-0.99999999999999989
10
-632.5
20
135
10
-632.5
20
145
42
-0.99999999999999989
0
LWPOLYLINE
5
129
100
AcDbEntity
8
0
100
AcDbPolyline
90
4
70
1
43
0.0
10
-847.5
20
45
10
-847.5
20
35
42
-0.99999999999999989
10
-852.5
20
35
10
-852.5
20
45
42
-0.99999999999999989
0
LWPOLYLINE
5
130
100
AcDbEntity
8
0
100
AcDbPolyline
90
4
70
1
43
0.0
10
-707.5
20
65
10
-707.5
20
55
42
-0.99999999999999989
10
-712.5
20
55
10
-712.5
20
65
42
-0.99999999999999989
0
LWPOLYLINE
5
131
100
AcDbEntity
8
0
100
AcDbPolyline
90
4
70
1
43
0.0
10
-887.5
20
85
10
-887.5
20
75
42
-0.99999999999999989
10
-892.5
20
75
10
-892.5
20
85
42
-0.99999999999999989
0
LWPOLYLINE
5
132
100
AcDbEntity
8
0
100
AcDbPolyline
90
4
70
1
43
0.0
10
-867.5
20
185
10
-867.5
20
175
42
-0.99999999999999989
10
-872.5
20
175
10
-872.5
20
185
42
-0.99999999999999989
0
LWPOLYLINE
5
133
100
AcDbEntity
8
0
100
AcDbPolyline
90
4
70
1
43
0.0
10
-907.5
20
65
10
-907.5
20
55
42
-0.99999999999999989
10
-912.5
20
55
10
-912.5
20
65
42
-0.99999999999999989
0
LWPOLYLINE
5
134
100
AcDbEntity
8
0
100
AcDbPolyline
90
4
70
1
43
0.0
10
-647.5
20
85
10
-647.5
20
75
42
-0.99999999999999989
10
-652.5
20
75
10
-652.5
20
85
42
-0.99999999999999989
0
LWPOLYLINE
5
135
100
AcDbEntity
8
0
100
AcDbPolyline
90
4
70
1
43
0.0
10
-707.5
20
105
10
-707.5
20
95
42
-0.99999999999999989
10
-712.5
20
95
10
-712.5
20
105
42
-0.99999999999999989
0
LWPOLYLINE
5
136
100
AcDbEntity
8
0
100
AcDbPolyline
90
4
70
1
43
0.0
10
-827.5
20
105
10
-827.5
20
95
42
-0.99999999999999989
10
-832.5
20
95
10
-832.5
20
105
42
-0.99999999999999989
0
LWPOLYLINE
5
137
100
AcDbEntity
8
0
100
AcDbPolyline
90
4
70
1
43
0.0
10
-927.5
20
45
10
-927.5
20
35
42
-0.99999999999999989
10
-932.5
20
35
10
-932.5
20
45
42
-0.99999999999999989
0
LWPOLYLINE
5
138
100
AcDbEntity
8
0
100
AcDbPolyline
90
4
70
1
43
0.0
10
-747.5
20
105
10
-747.5
20
95
42
-0.99999999999999989
10
-752.5
20
95
10
-752.5
20
105
42
-0.99999999999999989
0
LWPOLYLINE
5
139
100
AcDbEntity
8
0
100
AcDbPolyline
90
4
70
1
43
0.0
10
-587.5
20
145
10
-587.5
20
135
42
-0.99999999999999989
10
-592.5
20
135
10
-592.5
20
145
42
-0.99999999999999989
0
LWPOLYLINE
5
140
100
AcDbEntity
8
0
100
AcDbPolyline
90
4
70
1
43
0.0
10
-627.5
20
185
10
-627.5
20
175
42
-0.99999999999999989
10
-632.5
20
175
10
-632.5
20
185
42
-0.99999999999999989
0
LWPOLYLINE
5
141
100
AcDbEntity
8
0
100
AcDbPolyline
90
4
70
1
43
0.0
10
-707.5
20
145
10
-707.5
20
135
42
-0.99999999999999989
10
-712.5
20
135
10
-712.5
20
145
42
-0.99999999999999989
0
LWPOLYLINE
5
142
100
AcDbEntity
8
0
100
AcDbPolyline
90
4
70
1
43
0.0
10
-867.5
20
65
10
-867.5
20
55
42
-0.99999999999999989
10
-872.5
20
55
10
-872.5
20
65
42
-0.99999999999999989
0
LWPOLYLINE
5
143
100
AcDbEntity
8
0
100
AcDbPolyline
90
4
70
1
43
0.0
10
-667.5
20
145
10
-667.5
20
135
42
-0.99999999999999989
10
-672.5
20
135
10
-672.5
20
145
42
-0.99999999999999989
0
LWPOLYLINE
5
144
100
AcDbEntity
8
0
100
AcDbPolyline
90
4
70
1
43
0.0
10
-587.5
20
105
10
-587.5
20
95
42
-0.99999999999999989
10
-592.5
20
95
10
-592.5
20
105
42
-0.99999999999999989
0
LWPOLYLINE
5
145
100
AcDbEntity
8
0
100
AcDbPolyline
90
4
70
1
43
0.0
10
-667.5
20
105
10
-667.5
20
95
42
-0.99999999999999989
10
-672.5
20
95
10
-672.5
20
105
42
-0.99999999999999989
0
LWPOLYLINE
5
146
100
AcDbEntity
8
0
100
AcDbPolyline
90
4
70
1
43
0.0
10
-867.5
20
225
10
-867.5
20
215
42
-0.99999999999999989
10
-872.5
20
215
10
-872.5
20
225
42
-0.99999999999999989
0
LWPOLYLINE
5
147
100
AcDbEntity
8
0
100
AcDbPolyline
90
4
70
1
43
0.0
10
-927.5
20
125
10
-927.5
20
115
42
-0.99999999999999989
10
-932.5
20
115
10
-932.5
20
125
42
-0.99999999999999989
0
LWPOLYLINE
5
148
100
AcDbEntity
8
0
100
AcDbPolyline
90
4
70
1
43
0.0
10
-667.5
20
25
10
-667.5
20
15
42
-0.99999999999999989
10
-672.5
20
15
10
-672.5
20
25
42
-0.99999999999999989
0
LWPOLYLINE
5
149
100
AcDbEntity
8
0
100
AcDbPolyline
90
4
70
1
43
0.0
10
-587.5
20
65
10
-587.5
20
55
42
-0.99999999999999989
10
-592.5
20
55
10
-592.5
20
65
42
-0.99999999999999989
0
LWPOLYLINE
5
150
100
AcDbEntity
8
0
100
AcDbPolyline
90
4
70
1
43
0.0
10
-807.5
20
125
10
-807.5
20
115
42
-0.99999999999999989
10
-812.5
20
115
10
-812.5
20
125
42
-0.99999999999999989
0
LWPOLYLINE
5
151
100
AcDbEntity
8
0
100
AcDbPolyline
90
4
70
1
43
0.0
10
-687.5
20
125
10
-687.5
20
115
42
-0.99999999999999989
10
-692.5
20
115
10
-692.5
20
125
42
-0.99999999999999989
0
LWPOLYLINE
5
152
100
AcDbEntity
8
0
100
AcDbPolyline
90
4
70
1
43
0.0
10
-647.5
20
45
10
-647.5
20
35
42
-0.99999999999999989
10
-652.5
20
35
10
-652.5
20
45
42
-0.99999999999999989
0
LWPOLYLINE
5
153
100
AcDbEntity
8
0
100
AcDbPolyline
90
4
70
1
43
0.0
10
-607.5
20
165
10
-607.5
20
155
42
-0.99999999999999989
10
-612.5
20
155
10
-612.5
20
165
42
-0.99999999999999989
0
LWPOLYLINE
5
154
100
AcDbEntity
8
0
100
AcDbPolyline
90
4
70
1
43
0.0
10
-707.5
20
265
10
-707.5
20
255
42
-0.99999999999999989
10
-712.5
20
255
10
-712.5
20
265
42
-0.99999999999999989
0
LWPOLYLINE
5
155
100
AcDbEntity
8
0
100
AcDbPolyline
90
4
70
1
43
0.0
10
-867.5
20
25
10
-867.5
20
15
42
-0.99999999999999989
10
-872.5
20
15
10
-872.5
20
25
42
-0.99999999999999989
0
LWPOLYLINE
5
156
100
AcDbEntity
8
0
100
AcDbPolyline
90
4
70
1
43
0.0
10
-607.5
20
125
10
-607.5
20
115
42
-0.99999999999999989
10
-612.5
20
115
10
-612.5
20
125
42
-0.99999999999999989
0
LWPOLYLINE
5
157
100
AcDbEntity
8
0
100
AcDbPolyline
90
4
70
1
43
0.0
10
-807.5
20
45
10
-807.5
20
35
42
-0.99999999999999989
10
-812.5
20
35
10
-812.5
20
45
42
-0.99999999999999989
0
LWPOLYLINE
5
158
100
AcDbEntity
8
0
100
AcDbPolyline
90
4
70
1
43
0.0
10
-607.5
20
205
10
-607.5
20
195
42
-0.99999999999999989
10
-612.5
20
195
10
-612.5
20
205
42
-0.99999999999999989
0
LWPOLYLINE
5
159
100
AcDbEntity
8
0
100
AcDbPolyline
90
4
70
1
43
0.0
10
-787.5
20
65
10
-787.5
20
55
42
-0.99999999999999989
10
-792.5
20
55
10
-792.5
20
65
42
-0.99999999999999989
0
LWPOLYLINE
5
160
100
AcDbEntity
8
0
100
AcDbPolyline
90
4
70
1
43
0.0
10
-867.5
20
265
10
-867.5
20
255
42
-0.99999999999999989
10
-872.5
20
255
10
-872.5
20
265
42
-0.99999999999999989
0
LWPOLYLINE
5
161
100
AcDbEntity
8
0
100
AcDbPolyline
90
4
70
1
43
0.0
10
-887.5
20
285
10
-887.5
20
275
42
-0.99999999999999989
10
-892.5
20
275
10
-892.5
20
285
42
-0.99999999999999989
0
LWPOLYLINE
5
162
100
AcDbEntity
8
0
100
AcDbPolyline
90
4
70
1
43
0.0
10
-827.5
20
25
10
-827.5
20
15
42
-0.99999999999999989
10
-832.5
20
15
10
-832.5
20
25
42
-0.99999999999999989
0
LWPOLYLINE
5
163
100
AcDbEntity
8
0
100
AcDbPolyline
90
4
70
1
43
0.0
10
-747.5
20
25
10
-747.5
20
15
42
-0.99999999999999989
10
-752.5
20
15
10
-752.5
20
25
42
-0.99999999999999989
0
LWPOLYLINE
5
164
100
AcDbEntity
8
0
100
AcDbPolyline
90
4
70
1
43
0.0
10
-747.5
20
145
10
-747.5
20
135
42
-0.99999999999999989
10
-752.5
20
135
10
-752.5
20
145
42
-0.99999999999999989
0
LWPOLYLINE
5
165
100
AcDbEntity
8
0
100
AcDbPolyline
90
4
70
1
43
0.0
10
-727.5
20
45
10
-727.5
20
35
42
-0.99999999999999989
10
-732.5
20
35
10
-732.5
20
45
42
-0.99999999999999989
0
LWPOLYLINE
5
166
100
AcDbEntity
8
0
100
AcDbPolyline
90
4
70
1
43
0.0
10
-707.5
20
25
10
-707.5
20
15
42
-0.99999999999999989
10
-712.5
20
15
10
-712.5
20
25
42
-0.99999999999999989
0
LWPOLYLINE
5
167
100
AcDbEntity
8
0
100
AcDbPolyline
90
4
70
1
43
0.0
10
-867.5
20
105
10
-867.5
20
95
42
-0.99999999999999989
10
-872.5
20
95
10
-872.5
20
105
42
-0.99999999999999989
0
LWPOLYLINE
5
168
100
AcDbEntity
8
0
100
AcDbPolyline
90
4
70
1
43
0.0
10
-927.5
20
205
10
-927.5
20
195
42
-0.99999999999999989
10
-932.5
20
195
10
-932.5
20
205
42
-0.99999999999999989
0
LWPOLYLINE
5
169
100
AcDbEntity
8
0
100
AcDbPolyline
90
4
70
1
43
0.0
10
-767.5
20
245
10
-767.5
20
235
42
-0.99999999999999989
10
-772.5
20
235
10
-772.5
20
245
42
-0.99999999999999989
0
LWPOLYLINE
5
170
100
AcDbEntity
8
0
100
AcDbPolyline
90
4
70
1
43
0.0
10
-847.5
20
85
10
-847.5
20
75
42
-0.99999999999999989
10
-852.5
20
75
10
-852.5
20
85
42
-0.99999999999999989
0
LWPOLYLINE
5
171
100
AcDbEntity
8
0
100
AcDbPolyline
90
4
70
1
43
0.0
10
-867.5
20
145
10
-867.5
20
135
42
-0.99999999999999989
10
-872.5
20
135
10
-872.5
20
145
42
-0.99999999999999989
0
LWPOLYLINE
5
172
100
AcDbEntity
8
0
100
AcDbPolyline
90
4
70
1
43
0.0
10
-747.5
20
185
10
-747.5
20
175
42
-0.99999999999999989
10
-752.5
20
175
10
-752.5
20
185
42
-0.99999999999999989
0
LWPOLYLINE
5
173
100
AcDbEntity
8
0
100
AcDbPolyline
90
4
70
1
43
0.0
10
-847.5
20
165
10
-847.5
20
155
42
-0.99999999999999989
10
-852.5
20
155
10
-852.5
20
165
42
-0.99999999999999989
0
LWPOLYLINE
5
174
100
AcDbEntity
8
0
100
AcDbPolyline
90
4
70
1
43
0.0
10
-927.5
20
165
10
-927.5
20
155
42
-0.99999999999999989
10
-932.5
20
155
10
-932.5
20
165
42
-0.99999999999999989
0
LWPOLYLINE
5
175
100
AcDbEntity
8
0
100
AcDbPolyline
90
4
70
1
43
0.0
10
-667.5
20
65
10
-667.5
20
55
42
-0.99999999999999989
10
-672.5
20
55
10
-672.5
20
65
42
-0.99999999999999989
0
LWPOLYLINE
5
176
100
AcDbEntity
8
0
100
AcDbPolyline
90
4
70
1
43
0.0
10
-667.5
20
225
10
-667.5
20
215
42
-0.99999999999999989
10
-672.5
20
215
10
-672.5
20
225
42
-0.99999999999999989
0
LWPOLYLINE
5
177
100
AcDbEntity
8
0
100
AcDbPolyline
90
4
70
1
43
0.0
10
-647.5
20
205
10
-647.5
20
195
42
-0.99999999999999989
10
-652.5
20
195
10
-652.5
20
205
42
-0.99999999999999989
0
LWPOLYLINE
5
178
100
AcDbEntity
8
0
100
AcDbPolyline
90
4
70
1
43
0.0
10
-727.5
20
165
10
-727.5
20
155
42
-0.99999999999999989
10
-732.5
20
155
10
-732.5
20
165
42
-0.99999999999999989
0
LWPOLYLINE
5
179
100
AcDbEntity
8
0
100
AcDbPolyline
90
4
70
1
43
0.0
10
-747.5
20
265
10
-747.5
20
255
42
-0.99999999999999989
10
-752.5
20
255
10
-752.5
20
265
42
-0.99999999999999989
0
LWPOLYLINE
5
180
100
AcDbEntity
8
0
100
AcDbPolyline
90
4
70
1
43
0.0
10
-907.5
20
145
10
-907.5
20
135
42
-0.99999999999999989
10
-912.5
20
135
10
-912.5
20
145
42
-0.99999999999999989
0
LWPOLYLINE
5
181
100
AcDbEntity
8
0
100
AcDbPolyline
90
4
70
1
43
0.0
10
-887.5
20
45
10
-887.5
20
35
42
-0.99999999999999989
10
-892.5
20
35
10
-892.5
20
45
42
-0.99999999999999989
0
LWPOLYLINE
5
182
100
AcDbEntity
8
0
100
AcDbPolyline
90
4
70
1
43
0.0
10
-727.5
20
245
10
-727.5
20
235
42
-0.99999999999999989
10
-732.5
20
235
10
-732.5
20
245
42
-0.99999999999999989
0
LWPOLYLINE
5
183
100
AcDbEntity
8
0
100
AcDbPolyline
90
4
70
1
43
0.0
10
-887.5
20
165
10
-887.5
20
155
42
-0.99999999999999989
10
-892.5
20
155
10
-892.5
20
165
42
-0.99999999999999989
0
LWPOLYLINE
5
184
100
AcDbEntity
8
0
100
AcDbPolyline
90
4
70
1
43
0.0
10
-667.5
20
185
10
-667.5
20
175
42
-0.99999999999999989
10
-672.5
20
175
10
-672.5
20
185
42
-0.99999999999999989
0
LWPOLYLINE
5
185
100
AcDbEntity
8
0
100
AcDbPolyline
90
4
70
1
43
0.0
10
-687.5
20
85
10
-687.5
20
75
42
-0.99999999999999989
10
-692.5
20
75
10
-692.5
20
85
42
-0.99999999999999989
0
LWPOLYLINE
5
186
100
AcDbEntity
8
0
100
AcDbPolyline
90
4
70
1
43
0.0
10
-627.5
20
65
10
-627.5
20
55
42
-0.99999999999999989
10
-632.5
20
55
10
-632.5
20
65
42
-0.99999999999999989
0
LWPOLYLINE
5
187
100
AcDbEntity
8
0
100
AcDbPolyline
90
4
70
1
43
0.0
10
-887.5
20
205
10
-887.5
20
195
42
-0.99999999999999989
10
-892.5
20
195
10
-892.5
20
205
42
-0.99999999999999989
0
LWPOLYLINE
5
188
100
AcDbEntity
8
0
100
AcDbPolyline
90
4
70
1
43
0.0
10
-907.5
20
225
10
-907.5
20
215
42
-0.99999999999999989
10
-912.5
20
215
10
-912.5
20
225
42
-0.99999999999999989
0
LWPOLYLINE
5
189
100
AcDbEntity
8
0
100
AcDbPolyline
90
4
70
1
43
0.0
10
-767.5
20
165
10
-767.5
20
155
42
-0.99999999999999989
10
-772.5
20
155
10
-772.5
20
165
42
-0.99999999999999989
0
LWPOLYLINE
5
190
100
AcDbEntity
8
0
100
AcDbPolyline
90
4
70
1
43
0.0
10
-787.5
20
185
10
-787.5
20
175
42
-0.99999999999999989
10
-792.5
20
175
10
-792.5
20
185
42
-0.99999999999999989
0
LWPOLYLINE
5
191
100
AcDbEntity
8
0
100
AcDbPolyline
90
4
70
1
43
0.0
10
-607.5
20
85
10
-607.5
20
75
42
-0.99999999999999989
10
-612.5
20
75
10
-612.5
20
85
42
-0.99999999999999989
0
LWPOLYLINE
5
192
100
AcDbEntity
8
0
100
AcDbPolyline
90
4
70
1
43
0.0
10
-847.5
20
285
10
-847.5
20
275
42
-0.99999999999999989
10
-852.5
20
275
10
-852.5
20
285
42
-0.99999999999999989
0
LWPOLYLINE
5
193
100
AcDbEntity
8
0
100
AcDbPolyline
90
4
70
1
43
0.0
10
-627.5
20
225
10
-627.5
20
215
42
-0.99999999999999989
10
-632.5
20
215
10
-632.5
20
225
42
-0.99999999999999989
0
LWPOLYLINE
5
194
100
AcDbEntity
8
0
100
AcDbPolyline
90
4
70
1
43
0.0
10
-667.5
20
265
10
-667.5
20
255
42
-0.99999999999999989
10
-672.5
20
255
10
-672.5
20
265
42
-0.99999999999999989
0
LWPOLYLINE
5
195
100
AcDbEntity
8
0
100
AcDbPolyline
90
4
70
1
43
0.0
10
-627.5
20
25
10
-627.5
20
15
42
-0.99999999999999989
10
-632.5
20
15
10
-632.5
20
25
42
-0.99999999999999989
0
LWPOLYLINE
5
196
100
AcDbEntity
8
0
100
AcDbPolyline
90
4
70
1
43
0.0
10
-767.5
20
285
10
-767.5
20
275
42
-0.99999999999999989
10
-772.5
20
275
10
-772.5
20
285
42
-0.99999999999999989
0
LWPOLYLINE
5
197
100
AcDbEntity
8
0
100
AcDbPolyline
90
4
70
1
43
0.0
10
-787.5
20
225
10
-787.5
20
215
42
-0.99999999999999989
10
-792.5
20
215
10
-792.5
20
225
42
-0.99999999999999989
0
LWPOLYLINE
5
198
100
AcDbEntity
8
0
100
AcDbPolyline
90
4
70
1
43
0.0
10
-767.5
20
205
10
-767.5
20
195
42
-0.99999999999999989
10
-772.5
20
195
10
-772.5
20
205
42
-0.99999999999999989
0
LWPOLYLINE
5
199
100
AcDbEntity
8
0
100
AcDbPolyline
90
4
70
1
43
0.0
10
-847.5
20
245
10
-847.5
20
235
42
-0.99999999999999989
10
-852.5
20
235
10
-852.5
20
245
42
-0.99999999999999989
0
LWPOLYLINE
5
200
100
AcDbEntity
8
0
100
AcDbPolyline
90
4
70
1
43
0.0
10
-887.5
20
125
10
-887.5
20
115
42
-0.99999999999999989
10
-892.5
20
115
10
-892.5
20
125
42
-0.99999999999999989
0
LWPOLYLINE
5
201
100
AcDbEntity
8
0
100
AcDbPolyline
90
4
70
1
43
0.0
10
-727.5
20
125
10
-727.5
20
115
42
-0.99999999999999989
10
-732.5
20
115
10
-732.5
20
125
42
-0.99999999999999989
0
LWPOLYLINE
5
202
100
AcDbEntity
8
0
100
AcDbPolyline
90
4
70
1
43
0.0
10
-907.5
20
185
10
-907.5
20
175
42
-0.99999999999999989
10
-912.5
20
175
10
-912.5
20
185
42
-0.99999999999999989
0
LWPOLYLINE
5
203
100
AcDbEntity
8
0
100
AcDbPolyline
90
4
70
1
43
0.0
10
-807.5
20
165
10
-807.5
20
155
42
-0.99999999999999989
10
-812.5
20
155
10
-812.5
20
165
42
-0.99999999999999989
0
LWPOLYLINE
5
204
100
AcDbEntity
8
0
100
AcDbPolyline
90
4
70
1
43
0.0
10
-847.5
20
205
10
-847.5
20
195
42
-0.99999999999999989
10
-852.5
20
195
10
-852.5
20
205
42
-0.99999999999999989
0
LWPOLYLINE
5
205
100
AcDbEntity
8
0
100
AcDbPolyline
90
4
70
1
43
0.0
10
-767.5
20
45
10
-767.5
20
35
42
-0.99999999999999989
10
-772.5
20
35
10
-772.5
20
45
42
-0.99999999999999989
0
LWPOLYLINE
5
206
100
AcDbEntity
8
0
100
AcDbPolyline
90
4
70
1
43
0.0
10
-927.5
20
285
10
-927.5
20
275
42
-0.99999999999999989
10
-932.5
20
275
10
-932.5
20
285
42
-0.99999999999999989
0
LWPOLYLINE
5
207
100
AcDbEntity
8
0
100
AcDbPolyline
90
4
70
1
43
0.0
10
-827.5
20
185
10
-827.5
20
175
42
-0.99999999999999989
10
-832.5
20
175
10
-832.5
20
185
42
-0.99999999999999989
0
LWPOLYLINE
5
208
100
AcDbEntity
8
0
100
AcDbPolyline
90
4
70
1
43
0.0
10
-607.5
20
245
10
-607.5
20
235
42
-0.99999999999999989
10
-612.5
20
235
10
-612.5
20
245
42
-0.99999999999999989
0
LWPOLYLINE
5
209
100
AcDbEntity
8
0
100
AcDbPolyline
90
4
70
1
43
0.0
10
-787.5
20
145
10
-787.5
20
135
42
-0.99999999999999989
10
-792.5
20
135
10
-792.5
20
145
42
-0.99999999999999989
0
LWPOLYLINE
5
210
100
AcDbEntity
8
0
100
AcDbPolyline
90
4
70
1
43
0.0
10
-707.5
20
225
10
-707.5
20
215
42
-0.99999999999999989
10
-712.5
20
215
10
-712.5
20
225
42
-0.99999999999999989
0
LWPOLYLINE
5
211
100
AcDbEntity
8
0
100
AcDbPolyline
90
4
70
1
43
0.0
10
-627.5
20
105
10
-627.5
20
95
42
-0.99999999999999989
10
-632.5
20
95
10
-632.5
20
105
42
-0.99999999999999989
0
LWPOLYLINE
5
212
100
AcDbEntity
8
0
100
AcDbPolyline
90
4
70
1
43
0.0
10
-807.5
20
245
10
-807.5
20
235
42
-0.99999999999999989
10
-812.5
20
235
10
-812.5
20
245
42
-0.99999999999999989
0
LWPOLYLINE
5
213
100
AcDbEntity
8
0
100
AcDbPolyline
90
4
70
1
43
0.0
10
-707.5
20
185
10
-707.5
20
175
42
-0.99999999999999989
10
-712.5
20
175
10
-712.5
20
185
42
-0.99999999999999989
0
LWPOLYLINE
5
214
100
AcDbEntity
8
0
100
AcDbPolyline
90
4
70
1
43
0.0
10
-827.5
20
225
10
-827.5
20
215
42
-0.99999999999999989
10
-832.5
20
215
10
-832.5
20
225
42
-0.99999999999999989
0
LWPOLYLINE
5
215
100
AcDbEntity
8
0
100
AcDbPolyline
90
4
70
1
43
0.0
10
-827.5
20
265
10
-827.5
20
255
42
-0.99999999999999989
10
-832.5
20
255
10
-832.5
20
265
42
-0.99999999999999989
0
LWPOLYLINE
5
216
100
AcDbEntity
8
0
100
AcDbPolyline
90
4
70
1
43
0.0
10
-647.5
20
165
10
-647.5
20
155
42
-0.99999999999999989
10
-652.5
20
155
10
-652.5
20
165
42
-0.99999999999999989
0
LWPOLYLINE
5
217
100
AcDbEntity
8
0
100
AcDbPolyline
90
4
70
1
43
0.0
10
-587.5
20
225
10
-587.5
20
215
42
-0.99999999999999989
10
-592.5
20
215
10
-592.5
20
225
42
-0.99999999999999989
0
LWPOLYLINE
5
218
100
AcDbEntity
8
0
100
AcDbPolyline
90
4
70
1
43
0.0
10
-827.5
20
145
10
-827.5
20
135
42
-0.99999999999999989
10
-832.5
20
135
10
-832.5
20
145
42
-0.99999999999999989
0
LWPOLYLINE
5
219
100
AcDbEntity
8
0
100
AcDbPolyline
90
4
70
1
43
0.0
10
-647.5
20
245
10
-647.5
20
235
42
-0.99999999999999989
10
-652.5
20
235
10
-652.5
20
245
42
-0.99999999999999989
0
LWPOLYLINE
5
220
100
AcDbEntity
8
0
100
AcDbPolyline
90
4
70
1
43
0.0
10
-607.5
20
45
10
-607.5
20
35
42
-0.99999999999999989
10
-612.5
20
35
10
-612.5
20
45
42
-0.99999999999999989
0
LWPOLYLINE
5
221
100
AcDbEntity
8
0
100
AcDbPolyline
90
4
70
1
43
0.0
10
-767.5
20
125
10
-767.5
20
115
42
-0.99999999999999989
10
-772.5
20
115
10
-772.5
20
125
42
-0.99999999999999989
0
LWPOLYLINE
5
222
100
AcDbEntity
8
0
100
AcDbPolyline
90
4
70
1
43
0.0
10
-807.5
20
205
10
-807.5
20
195
42
-0.99999999999999989
10
-812.5
20
195
10
-812.5
20
205
42
-0.99999999999999989
0
LWPOLYLINE
5
223
100
AcDbEntity
8
0
100
AcDbPolyline
90
4
70
1
43
0.0
10
-627.5
20
265
10
-627.5
20
255
42
-0.99999999999999989
10
-632.5
20
255
10
-632.5
20
265
42
-0.99999999999999989
0
LWPOLYLINE
5
224
100
AcDbEntity
8
0
100
AcDbPolyline
90
4
70
1
43
0.0
10
-687.5
20
245
10
-687.5
20
235
42
-0.99999999999999989
10
-692.5
20
235
10
-692.5
20
245
42
-0.99999999999999989
0
LWPOLYLINE
5
225
100
AcDbEntity
8
0
100
AcDbPolyline
90
4
70
1
43
0.0
10
-727.5
20
285
10
-727.5
20
275
42
-0.99999999999999989
10
-732.5
20
275
10
-732.5
20
285
42
-0.99999999999999989
0
LWPOLYLINE
5
226
100
AcDbEntity
8
0
100
AcDbPolyline
90
8
70
1
43
0.0
10
-570
20
292
42
0.41421356237310025
10
-578
20
299.99999999999994
10
-942
20
300
42
0.41421356237309115
10
-950
20
292.00000000000006
10
-950
20
7.9999999999999716
42
0.41421356237309404
10
-942
20
1.110223024625064e-15
10
-578
20
-3.5527136788005009e-14
42
0.41421356237309681
10
-570
20
7.9999999999999991
0
ENDSEC
0
SECTION
2
OBJECTS
0
DICTIONARY
5
C
100
AcDbDictionary
3
ACAD_GROUP
350
D
3
ACAD_MLINESTYLE
350
17
0
DICTIONARY
5
D
100
AcDbDictionary
0
DICTIONARY
5
1A
330
C
100
AcDbDictionary
0
DICTIONARY
5
17
100
AcDbDictionary
0
ENDSEC
0
EOF
