0
SECTION
2
HEADER
9
$INSUNITS
70
4
9
$ACADVER
1
AC1014
9
$HANDSEED
5
FFFF
0
ENDSEC
0
SECTION
2
TABLES
0
TABLE
2
VPORT
5
8
100
AcDbSymbolTable
0
ENDTAB
0
TABLE
2
LTYPE
5
5
100
AcDbSymbolTable
0
LTYPE
5
14
100
AcDbSymbolTableRecord
100
AcDbLinetypeTableRecord
2
BYBLOCK
70
0
0
LTYPE
5
15
100
AcDbSymbolTableRecord
100
AcDbLinetypeTableRecord
2
BYLAYER
70
0
0
ENDTAB
0
TABLE
2
LAYER
5
2
100
AcDbSymbolTable
70
2
0
LAYER
5
50
100
AcDbSymbolTableRecord
100
AcDbLayerTableRecord
2
0
70
0
6
CONTINUOUS
0
ENDTAB
0
TABLE
2
STYLE
5
3
100
AcDbSymbolTable
70
1
0
STYLE
5
11
100
AcDbSymbolTableRecord
100
AcDbTextStyleTableRecord
2
STANDARD
70
0
0
ENDTAB
0
TABLE
2
VIEW
5
6
100
AcDbSymbolTable
70
0
0
ENDTAB
0
TABLE
2
UCS
5
7
100
AcDbSymbolTable
70
0
0
ENDTAB
0
TABLE
2
APPID
5
9
100
AcDbSymbolTable
70
2
0
APPID
5
12
100
AcDbSymbolTableRecord
100
AcDbRegAppTableRecord
2
ACAD
70
0
0
ENDTAB
0
TABLE
2
DIMSTYLE
5
A
100
AcDbSymbolTable
70
1
0
ENDTAB
0
TABLE
2
BLOCK_RECORD
5
1
100
AcDbSymbolTable
70
1
0
BLOCK_RECORD
5
1F
100
AcDbSymbolTableRecord
100
AcDbBlockTableRecord
2
*MODEL_SPACE
0
BLOCK_RECORD
5
1B
100
AcDbSymbolTableRecord
100
AcDbBlockTableRecord
2
*PAPER_SPACE
0
ENDTAB
0
ENDSEC
0
SECTION
2
BLOCKS
0
BLOCK
5
20
100
AcDbEntity
100
AcDbBlockBegin
2
*MODEL_SPACE
0
ENDBLK
5
21
100
AcDbEntity
100
AcDbBlockEnd
0
BLOCK
5
1C
100
AcDbEntity
100
AcDbBlockBegin
2
*PAPER_SPACE
0
ENDBLK
5
1D
100
AcDbEntity
100
AcDbBlockEnd
0
ENDSEC
0
SECTION
2
ENTITIES
0
LWPOLYLINE
5
100
100
AcDbEntity
8
0
100
AcDbPolyline
90
4
70
1
43
0.0
10
-312.5
20
395
10
-312.5
20
385
42
-0.99999999999999989
10
-317.5
20
385
10
-317.5
20
395
42
-0.99999999999999989
0
LWPOLYLINE
5
101
100
AcDbEntity
8
0
100
AcDbPolyline
90
4
70
1
43
0.0
10
-352.5
20
395
10
-352.5
20
385
42
-0.99999999999999989
10
-357.5
20
385
10
-357.5
20
395
42
-0.99999999999999989
0
LWPOLYLINE
5
102
100
AcDbEntity
8
0
100
AcDbPolyline
90
4
70
1
43
0.0
10
-432.5
20
435
10
-432.5
20
425
42
-0.99999999999999989
10
-437.5
20
425
10
-437.5
20
435
42
-0.99999999999999989
0
LWPOLYLINE
5
103
100
AcDbEntity
8
0
100
AcDbPolyline
90
4
70
1
43
0.0
10
-392.5
20
435
10
-392.5
20
425
42
-0.99999999999999989
10
-397.5
20
425
10
-397.5
20
435
42
-0.99999999999999989
0
LWPOLYLINE
5
104
100
AcDbEntity
8
0
100
AcDbPolyline
90
4
70
1
43
0.0
10
-452.5
20
335
10
-452.5
20
325
42
-0.99999999999999989
10
-457.5
20
325
10
-457.5
20
335
42
-0.99999999999999989
0
LWPOLYLINE
5
105
100
AcDbEntity
8
0
100
AcDbPolyline
90
4
70
1
43
0.0
10
-432.5
20
395
10
-432.5
20
385
42
-0.99999999999999989
10
-437.5
20
385
10
-437.5
20
395
42
-0.99999999999999989
0
LWPOLYLINE
5
106
100
AcDbEntity
8
0
100
AcDbPolyline
90
4
70
1
43
0.0
10
-332.5
20
375
10
-332.5
20
365
42
-0.99999999999999989
10
-337.5
20
365
10
-337.5
20
375
42
-0.99999999999999989
0
LWPOLYLINE
5
107
100
AcDbEntity
8
0
100
AcDbPolyline
90
4
70
1
43
0.0
10
-392.5
20
355
10
-392.5
20
345
42
-0.99999999999999989
10
-397.5
20
345
10
-397.5
20
355
42
-0.99999999999999989
0
LWPOLYLINE
5
108
100
AcDbEntity
8
0
100
AcDbPolyline
90
4
70
1
43
0.0
10
-312.5
20
355
10
-312.5
20
345
42
-0.99999999999999989
10
-317.5
20
345
10
-317.5
20
355
42
-0.99999999999999989
0
LWPOLYLINE
5
109
100
AcDbEntity
8
0
100
AcDbPolyline
90
4
70
1
43
0.0
10
-392.5
20
275
10
-392.5
20
265
42
-0.99999999999999989
10
-397.5
20
265
10
-397.5
20
275
42
-0.99999999999999989
0
LWPOLYLINE
5
110
100
AcDbEntity
8
0
100
AcDbPolyline
90
4
70
1
43
0.0
10
-352.5
20
435
10
-352.5
20
425
42
-0.99999999999999989
10
-357.5
20
425
10
-357.5
20
435
42
-0.99999999999999989
0
LWPOLYLINE
5
111
100
AcDbEntity
8
0
100
AcDbPolyline
90
4
70
1
43
0.0
10
-312.5
20
275
10
-312.5
20
265
42
-0.99999999999999989
10
-317.5
20
265
10
-317.5
20
275
42
-0.99999999999999989
0
LWPOLYLINE
5
112
100
AcDbEntity
8
0
100
AcDbPolyline
90
4
70
1
43
0.0
10
-372.5
20
375
10
-372.5
20
365
42
-0.99999999999999989
10
-377.5
20
365
10
-377.5
20
375
42
-0.99999999999999989
0
LWPOLYLINE
5
113
100
AcDbEntity
8
0
100
AcDbPolyline
90
4
70
1
43
0.0
10
-352.5
20
275
10
-352.5
20
265
42
-0.99999999999999989
10
-357.5
20
265
10
-357.5
20
275
42
-0.99999999999999989
0
LWPOLYLINE
5
114
100
AcDbEntity
8
0
100
AcDbPolyline
90
4
70
1
43
0.0
10
-392.5
20
315
10
-392.5
20
305
42
-0.99999999999999989
10
-397.5
20
305
10
-397.5
20
315
42
-0.99999999999999989
0
LWPOLYLINE
5
115
100
AcDbEntity
8
0
100
AcDbPolyline
90
4
70
1
43
0.0
10
-292.5
20
295
10
-292.5
20
285
42
-0.99999999999999989
10
-297.5
20
285
10
-297.5
20
295
42
-0.99999999999999989
0
LWPOLYLINE
5
116
100
AcDbEntity
8
0
100
AcDbPolyline
90
4
70
1
43
0.0
10
-292.5
20
335
10
-292.5
20
325
42
-0.99999999999999989
10
-297.5
20
325
10
-297.5
20
335
42
-0.99999999999999989
0
LWPOLYLINE
5
117
100
AcDbEntity
8
0
100
AcDbPolyline
90
4
70
1
43
0.0
10
-372.5
20
295
10
-372.5
20
285
42
-0.99999999999999989
10
-377.5
20
285
10
-377.5
20
295
42
-0.99999999999999989
0
LWPOLYLINE
5
118
100
AcDbEntity
8
0
100
AcDbPolyline
90
4
70
1
43
0.0
10
-412.5
20
415
10
-412.5
20
405
42
-0.99999999999999989
10
-417.5
20
405
10
-417.5
20
415
42
-0.99999999999999989
0
LWPOLYLINE
5
119
100
AcDbEntity
8
0
100
AcDbPolyline
90
4
70
1
43
0.0
10
-292.5
20
415
10
-292.5
20
405
42
-0.99999999999999989
10
-297.5
20
405
10
-297.5
20
415
42
-0.99999999999999989
0
LWPOLYLINE
5
120
100
AcDbEntity
8
0
100
AcDbPolyline
90
4
70
1
43
0.0
10
-372.5
20
335
10
-372.5
20
325
42
-0.99999999999999989
10
-377.5
20
325
10
-377.5
20
335
42
-0.99999999999999989
0
LWPOLYLINE
5
121
100
AcDbEntity
8
0
100
AcDbPolyline
90
4
70
1
43
0.0
10
-332.5
20
415
10
-332.5
20
405
42
-0.99999999999999989
10
-337.5
20
405
10
-337.5
20
415
42
-0.99999999999999989
0
LWPOLYLINE
5
122
100
AcDbEntity
8
0
100
AcDbPolyline
90
4
70
1
43
0.0
10
-412.5
20
295
10
-412.5
20
285
42
-0.99999999999999989
10
-417.5
20
285
10
-417.5
20
295
42
-0.99999999999999989
0
LWPOLYLINE
5
123
100
AcDbEntity
8
0
100
AcDbPolyline
90
4
70
1
43
0.0
10
-312.5
20
315
10
-312.5
20
305
42
-0.99999999999999989
10
-317.5
20
305
10
-317.5
20
315
42
-0.99999999999999989
0
LWPOLYLINE
5
124
100
AcDbEntity
8
0
100
AcDbPolyline
90
4
70
1
43
0.0
10
-452.5
20
375
10
-452.5
20
365
42
-0.99999999999999989
10
-457.5
20
365
10
-457.5
20
375
42
-0.99999999999999989
0
LWPOLYLINE
5
125
100
AcDbEntity
8
0
100
AcDbPolyline
90
4
70
1
43
0.0
10
-352.5
20
355
10
-352.5
20
345
42
-0.99999999999999989
10
-357.5
20
345
10
-357.5
20
355
42
-0.99999999999999989
0
LWPOLYLINE
5
126
100
AcDbEntity
8
0
100
AcDbPolyline
90
4
70
1
43
0.0
10
-352.5
20
315
10
-352.5
20
305
42
-0.99999999999999989
10
-357.5
20
305
10
-357.5
20
315
42
-0.99999999999999989
0
LWPOLYLINE
5
127
100
AcDbEntity
8
0
100
AcDbPolyline
90
4
70
1
43
0.0
10
-332.5
20
295
10
-332.5
20
285
42
-0.99999999999999989
10
-337.5
20
285
10
-337.5
20
295
42
-0.99999999999999989
0
LWPOLYLINE
5
128
100
AcDbEntity
8
0
100
AcDbPolyline
90
4
70
1
43
0.0
10
-432.5
20
315
10
-432.5
20
305
42
-0.99999999999999989
10
-437.5
20
305
10
-437.5
20
315
42
-0.99999999999999989
0
LWPOLYLINE
5
129
100
AcDbEntity
8
0
100
AcDbPolyline
90
4
70
1
43
0.0
10
-372.5
20
415
10
-372.5
20
405
42
-0.99999999999999989
10
-377.5
20
405
10
-377.5
20
415
42
-0.99999999999999989
0
LWPOLYLINE
5
130
100
AcDbEntity
8
0
100
AcDbPolyline
90
4
70
1
43
0.0
10
-432.5
20
355
10
-432.5
20
345
42
-0.99999999999999989
10
-437.5
20
345
10
-437.5
20
355
42
-0.99999999999999989
0
LWPOLYLINE
5
131
100
AcDbEntity
8
0
100
AcDbPolyline
90
4
70
1
43
0.0
10
-452.5
20
415
10
-452.5
20
405
42
-0.99999999999999989
10
-457.5
20
405
10
-457.5
20
415
42
-0.99999999999999989
0
LWPOLYLINE
5
132
100
AcDbEntity
8
0
100
AcDbPolyline
90
4
70
1
43
0.0
10
-292.5
20
375
10
-292.5
20
365
42
-0.99999999999999989
10
-297.5
20
365
10
-297.5
20
375
42
-0.99999999999999989
0
LWPOLYLINE
5
133
100
AcDbEntity
8
0
100
AcDbPolyline
90
4
70
1
43
0.0
10
-452.5
20
295
10
-452.5
20
285
42
-0.99999999999999989
10
-457.5
20
285
10
-457.5
20
295
42
-0.99999999999999989
0
LWPOLYLINE
5
134
100
AcDbEntity
8
0
100
AcDbPolyline
90
4
70
1
43
0.0
10
-332.5
20
335
10
-332.5
20
325
42
-0.99999999999999989
10
-337.5
20
325
10
-337.5
20
335
42
-0.99999999999999989
0
LWPOLYLINE
5
135
100
AcDbEntity
8
0
100
AcDbPolyline
90
4
70
1
43
0.0
10
-412.5
20
375
10
-412.5
20
365
42
-0.99999999999999989
10
-417.5
20
365
10
-417.5
20
375
42
-0.99999999999999989
0
LWPOLYLINE
5
136
100
AcDbEntity
8
0
100
AcDbPolyline
90
4
70
1
43
0.0
10
-432.5
20
275
10
-432.5
20
265
42
-0.99999999999999989
10
-437.5
20
265
10
-437.5
20
275
42
-0.99999999999999989
0
LWPOLYLINE
5
137
100
AcDbEntity
8
0
100
AcDbPolyline
90
4
70
1
43
0.0
10
-312.5
20
435
10
-312.5
20
425
42
-0.99999999999999989
10
-317.5
20
425
10
-317.5
20
435
42
-0.99999999999999989
0
LWPOLYLINE
5
138
100
AcDbEntity
8
0
100
AcDbPolyline
90
4
70
1
43
0.0
10
-392.5
20
395
10
-392.5
20
385
42
-0.99999999999999989
10
-397.5
20
385
10
-397.5
20
395
42
-0.99999999999999989
0
LWPOLYLINE
5
139
100
AcDbEntity
8
0
100
AcDbPolyline
90
4
70
1
43
0.0
10
-412.5
20
335
10
-412.5
20
325
42
-0.99999999999999989
10
-417.5
20
325
10
-417.5
20
335
42
-0.99999999999999989
0
LWPOLYLINE
5
140
100
AcDbEntity
8
0
100
AcDbPolyline
90
8
70
1
43
0.0
10
-283
20
250
42
0.41421356237309243
10
-275
20
258
10
-275
20
442
42
0.41421356237308721
10
-283
20
450
10
-467
20
450
42
0.41421356237309243
10
-475
20
441.99999999999994
10
-475
20
258
42
0.41421356237309503
10
-467
20
250
0
ENDSEC
0
SECTION
2
OBJECTS
0
DICTIONARY
5
C
100
AcDbDictionary
3
ACAD_GROUP
350
D
3
ACAD_MLINESTYLE
350
17
0
DICTIONARY
5
D
100
AcDbDictionary
0
DICTIONARY
5
1A
330
C
100
AcDbDictionary
0
DICTIONARY
5
17
100
AcDbDictionary
0
ENDSEC
0
EOF
